<?xml version="1.0" encoding="UTF-8" standalone="no"?>
<!DOCTYPE svg PUBLIC "-//W3C//DTD SVG 1.1//EN"
 "http://www.w3.org/Graphics/SVG/1.1/DTD/svg11.dtd">
<!-- Generated by graphviz version 2.43.0 (0)
 -->
<!-- Title: ABBEmpresas::obtenerEmpresasOrdenadas Pages: 1 -->
<svg width="443pt" height="61pt"
 viewBox="0.00 0.00 443.00 61.00" xmlns="http://www.w3.org/2000/svg" xmlns:xlink="http://www.w3.org/1999/xlink">
<g id="graph0" class="graph" transform="scale(1 1) rotate(0) translate(4 57)">
<title>ABBEmpresas::obtenerEmpresasOrdenadas</title>
<polygon fill="white" stroke="transparent" points="-4,4 -4,-57 439,-57 439,4 -4,4"/>
<!-- Node1 -->
<g id="node1" class="node">
<title>Node1</title>
<g id="a_node1"><a xlink:title="Devuelve una lista ordenada de empresas (inorden).">
<polygon fill="#bfbfbf" stroke="black" points="259,-22.5 259,-52.5 435,-52.5 435,-22.5 259,-22.5"/>
<text text-anchor="start" x="267" y="-40.5" font-family="Helvetica,sans-Serif" font-size="10.00">ABBEmpresas::obtenerEmpresas</text>
<text text-anchor="middle" x="347" y="-29.5" font-family="Helvetica,sans-Serif" font-size="10.00">Ordenadas</text>
</a>
</g>
</g>
<!-- Node2 -->
<g id="node2" class="node">
<title>Node2</title>
<g id="a_node2"><a xlink:href="codigo_8cpp.html#ae66f6b31b5ad750f1fe042a706a4e3d4" target="_top" xlink:title="Función principal del programa.">
<polygon fill="white" stroke="black" points="0,-28 0,-47 41,-47 41,-28 0,-28"/>
<text text-anchor="middle" x="20.5" y="-35" font-family="Helvetica,sans-Serif" font-size="10.00">main</text>
</a>
</g>
</g>
<!-- Node1&#45;&gt;Node2 -->
<g id="edge1" class="edge">
<title>Node1&#45;&gt;Node2</title>
<path fill="none" stroke="midnightblue" d="M248.71,-40.37C197.59,-41.43 133.9,-42.04 77,-40.5 65.04,-40.18 51.64,-39.46 41.01,-38.81"/>
<polygon fill="midnightblue" stroke="midnightblue" points="248.84,-43.87 258.76,-40.16 248.69,-36.87 248.84,-43.87"/>
</g>
<!-- Node3 -->
<g id="node3" class="node">
<title>Node3</title>
<g id="a_node3"><a xlink:href="noticia_8h.html#a7242f8be6bf0222aa3c0397c220cd251" target="_top" xlink:title="Muestra el impacto de las noticias en las acciones de las empresas.">
<polygon fill="white" stroke="black" points="77,-0.5 77,-30.5 223,-30.5 223,-0.5 77,-0.5"/>
<text text-anchor="start" x="85" y="-18.5" font-family="Helvetica,sans-Serif" font-size="10.00">mostrarImpactoNoticiasEn</text>
<text text-anchor="middle" x="150" y="-7.5" font-family="Helvetica,sans-Serif" font-size="10.00">Acciones</text>
</a>
</g>
</g>
<!-- Node1&#45;&gt;Node3 -->
<g id="edge2" class="edge">
<title>Node1&#45;&gt;Node3</title>
<path fill="none" stroke="midnightblue" d="M248.72,-26.53C240.15,-25.56 231.58,-24.59 223.27,-23.65"/>
<polygon fill="midnightblue" stroke="midnightblue" points="248.44,-30.01 258.77,-27.66 249.22,-23.06 248.44,-30.01"/>
</g>
<!-- Node3&#45;&gt;Node2 -->
<g id="edge3" class="edge">
<title>Node3&#45;&gt;Node2</title>
<path fill="none" stroke="midnightblue" d="M66.65,-29.71C57.19,-31.34 48.33,-32.87 41.01,-34.13"/>
<polygon fill="midnightblue" stroke="midnightblue" points="67.42,-33.13 76.68,-27.98 66.23,-26.23 67.42,-33.13"/>
</g>
</g>
</svg>
