<?xml version="1.0" encoding="UTF-8" standalone="no"?>
<!DOCTYPE svg PUBLIC "-//W3C//DTD SVG 1.1//EN"
 "http://www.w3.org/Graphics/SVG/1.1/DTD/svg11.dtd">
<!-- Generated by graphviz version 2.43.0 (0)
 -->
<!-- Title: MultilistaPrecio::promedioMovil Pages: 1 -->
<svg width="433pt" height="53pt"
 viewBox="0.00 0.00 433.00 52.50" xmlns="http://www.w3.org/2000/svg" xmlns:xlink="http://www.w3.org/1999/xlink">
<g id="graph0" class="graph" transform="scale(1 1) rotate(0) translate(4 48.5)">
<title>MultilistaPrecio::promedioMovil</title>
<polygon fill="white" stroke="transparent" points="-4,4 -4,-48.5 429,-48.5 429,4 -4,4"/>
<!-- Node1 -->
<g id="node1" class="node">
<title>Node1</title>
<g id="a_node1"><a xlink:title="Calcula el promedio móvil de los últimos &#39;dias&#39; precios.">
<polygon fill="#bfbfbf" stroke="black" points="280,-14 280,-44 425,-44 425,-14 280,-14"/>
<text text-anchor="start" x="288" y="-32" font-family="Helvetica,sans-Serif" font-size="10.00">MultilistaPrecio::promedio</text>
<text text-anchor="middle" x="352.5" y="-21" font-family="Helvetica,sans-Serif" font-size="10.00">Movil</text>
</a>
</g>
</g>
<!-- Node2 -->
<g id="node2" class="node">
<title>Node2</title>
<g id="a_node2"><a xlink:href="codigo_8cpp.html#ae66f6b31b5ad750f1fe042a706a4e3d4" target="_top" xlink:title="Función principal del programa.">
<polygon fill="white" stroke="black" points="0,-19.5 0,-38.5 41,-38.5 41,-19.5 0,-19.5"/>
<text text-anchor="middle" x="20.5" y="-26.5" font-family="Helvetica,sans-Serif" font-size="10.00">main</text>
</a>
</g>
</g>
<!-- Node1&#45;&gt;Node2 -->
<g id="edge1" class="edge">
<title>Node1&#45;&gt;Node2</title>
<path fill="none" stroke="midnightblue" d="M269.84,-29C193.64,-29 85.3,-29 41.26,-29"/>
<polygon fill="midnightblue" stroke="midnightblue" points="269.89,-32.5 279.89,-29 269.89,-25.5 269.89,-32.5"/>
</g>
<!-- Node3 -->
<g id="node3" class="node">
<title>Node3</title>
<g id="a_node3"><a xlink:href="classPortafolio.html#ae6d06c70b6052cd798b31b002509e346" target="_top" xlink:title=" ">
<polygon fill="white" stroke="black" points="77,-0.5 77,-19.5 244,-19.5 244,-0.5 77,-0.5"/>
<text text-anchor="middle" x="160.5" y="-7.5" font-family="Helvetica,sans-Serif" font-size="10.00">Portafolio::recomendarCompra</text>
</a>
</g>
</g>
<!-- Node1&#45;&gt;Node3 -->
<g id="edge2" class="edge">
<title>Node1&#45;&gt;Node3</title>
<path fill="none" stroke="midnightblue" d="M269.99,-20.85C261.43,-19.99 252.73,-19.12 244.17,-18.27"/>
<polygon fill="midnightblue" stroke="midnightblue" points="269.64,-24.33 279.94,-21.84 270.34,-17.37 269.64,-24.33"/>
</g>
<!-- Node3&#45;&gt;Node2 -->
<g id="edge3" class="edge">
<title>Node3&#45;&gt;Node2</title>
<path fill="none" stroke="midnightblue" d="M80.01,-20.94C65.55,-22.94 51.71,-24.84 41.13,-26.3"/>
<polygon fill="midnightblue" stroke="midnightblue" points="80.67,-24.39 90.1,-19.56 79.71,-17.45 80.67,-24.39"/>
</g>
</g>
</svg>
