<?xml version="1.0" encoding="UTF-8" standalone="no"?>
<!DOCTYPE svg PUBLIC "-//W3C//DTD SVG 1.1//EN"
 "http://www.w3.org/Graphics/SVG/1.1/DTD/svg11.dtd">
<!-- Generated by graphviz version 2.43.0 (0)
 -->
<!-- Title: Portafolio::eliminarActivo Pages: 1 -->
<svg width="382pt" height="142pt"
 viewBox="0.00 0.00 382.00 142.00" xmlns="http://www.w3.org/2000/svg" xmlns:xlink="http://www.w3.org/1999/xlink">
<g id="graph0" class="graph" transform="scale(1 1) rotate(0) translate(4 138)">
<title>Portafolio::eliminarActivo</title>
<polygon fill="white" stroke="transparent" points="-4,4 -4,-138 378,-138 378,4 -4,4"/>
<!-- Node1 -->
<g id="node1" class="node">
<title>Node1</title>
<g id="a_node1"><a xlink:title="Elimina un activo específico del portafolio.">
<polygon fill="#bfbfbf" stroke="black" points="0,-57.5 0,-76.5 141,-76.5 141,-57.5 0,-57.5"/>
<text text-anchor="middle" x="70.5" y="-64.5" font-family="Helvetica,sans-Serif" font-size="10.00">Portafolio::eliminarActivo</text>
</a>
</g>
</g>
<!-- Node2 -->
<g id="node2" class="node">
<title>Node2</title>
<g id="a_node2"><a xlink:href="classPila.html#a83f565e49638c5a19da1484aa3dc0d00" target="_top" xlink:title="Elimina la primera aparición de un valor específico.">
<polygon fill="white" stroke="black" points="177,-57.5 177,-76.5 258,-76.5 258,-57.5 177,-57.5"/>
<text text-anchor="middle" x="217.5" y="-64.5" font-family="Helvetica,sans-Serif" font-size="10.00">Pila::eliminar</text>
</a>
</g>
</g>
<!-- Node1&#45;&gt;Node2 -->
<g id="edge1" class="edge">
<title>Node1&#45;&gt;Node2</title>
<path fill="none" stroke="midnightblue" d="M141.03,-67C149.61,-67 158.25,-67 166.47,-67"/>
<polygon fill="midnightblue" stroke="midnightblue" points="166.61,-70.5 176.61,-67 166.61,-63.5 166.61,-70.5"/>
</g>
<!-- Node3 -->
<g id="node3" class="node">
<title>Node3</title>
<g id="a_node3"><a xlink:href="classPila.html#a15420d1c215037d91a6908f5b5533e8a" target="_top" xlink:title="Verifica si la pila está vacía.">
<polygon fill="white" stroke="black" points="294,-114.5 294,-133.5 374,-133.5 374,-114.5 294,-114.5"/>
<text text-anchor="middle" x="334" y="-121.5" font-family="Helvetica,sans-Serif" font-size="10.00">Pila::isEmpty</text>
</a>
</g>
</g>
<!-- Node2&#45;&gt;Node3 -->
<g id="edge2" class="edge">
<title>Node2&#45;&gt;Node3</title>
<path fill="none" stroke="midnightblue" d="M237.39,-76.59C252.64,-84.32 274.67,-95.43 294,-105 297.2,-106.59 300.56,-108.24 303.9,-109.87"/>
<polygon fill="midnightblue" stroke="midnightblue" points="302.61,-113.14 313.14,-114.38 305.69,-106.85 302.61,-113.14"/>
</g>
<!-- Node4 -->
<g id="node4" class="node">
<title>Node4</title>
<g id="a_node4"><a xlink:href="classPila.html#a81d09f97e002ddd279bf43b93b0cb372" target="_top" xlink:title="Elimina el elemento en la cima de la pila.">
<polygon fill="white" stroke="black" points="304.5,-76.5 304.5,-95.5 363.5,-95.5 363.5,-76.5 304.5,-76.5"/>
<text text-anchor="middle" x="334" y="-83.5" font-family="Helvetica,sans-Serif" font-size="10.00">Pila::pop</text>
</a>
</g>
</g>
<!-- Node2&#45;&gt;Node4 -->
<g id="edge3" class="edge">
<title>Node2&#45;&gt;Node4</title>
<path fill="none" stroke="midnightblue" d="M258.23,-73.59C269.8,-75.51 282.43,-77.61 293.96,-79.52"/>
<polygon fill="midnightblue" stroke="midnightblue" points="293.73,-83.03 304.17,-81.22 294.88,-76.13 293.73,-83.03"/>
</g>
<!-- Node5 -->
<g id="node5" class="node">
<title>Node5</title>
<g id="a_node5"><a xlink:href="classPila.html#ab0e03bdc398980d2fa802648a2eb7d8f" target="_top" xlink:title="Agrega un nuevo elemento a la cima de la pila.">
<polygon fill="white" stroke="black" points="302,-38.5 302,-57.5 366,-57.5 366,-38.5 302,-38.5"/>
<text text-anchor="middle" x="334" y="-45.5" font-family="Helvetica,sans-Serif" font-size="10.00">Pila::push</text>
</a>
</g>
</g>
<!-- Node2&#45;&gt;Node5 -->
<g id="edge4" class="edge">
<title>Node2&#45;&gt;Node5</title>
<path fill="none" stroke="midnightblue" d="M258.23,-60.41C268.99,-58.62 280.68,-56.68 291.54,-54.88"/>
<polygon fill="midnightblue" stroke="midnightblue" points="292.35,-58.29 301.64,-53.2 291.21,-51.39 292.35,-58.29"/>
</g>
<!-- Node6 -->
<g id="node6" class="node">
<title>Node6</title>
<g id="a_node6"><a xlink:href="classPila.html#a4a411a01fdc6c1463a5010371d061f4e" target="_top" xlink:title="Devuelve el elemento en la cima de la pila sin eliminarlo.">
<polygon fill="white" stroke="black" points="306,-0.5 306,-19.5 362,-19.5 362,-0.5 306,-0.5"/>
<text text-anchor="middle" x="334" y="-7.5" font-family="Helvetica,sans-Serif" font-size="10.00">Pila::top</text>
</a>
</g>
</g>
<!-- Node2&#45;&gt;Node6 -->
<g id="edge5" class="edge">
<title>Node2&#45;&gt;Node6</title>
<path fill="none" stroke="midnightblue" d="M237.39,-57.41C252.64,-49.68 274.67,-38.57 294,-29 297.2,-27.41 300.56,-25.76 303.9,-24.13"/>
<polygon fill="midnightblue" stroke="midnightblue" points="305.69,-27.15 313.14,-19.62 302.61,-20.86 305.69,-27.15"/>
</g>
</g>
</svg>
