<?xml version="1.0" encoding="UTF-8" standalone="no"?>
<!DOCTYPE svg PUBLIC "-//W3C//DTD SVG 1.1//EN"
 "http://www.w3.org/Graphics/SVG/1.1/DTD/svg11.dtd">
<!-- Generated by graphviz version 2.43.0 (0)
 -->
<!-- Title: Portafolio Pages: 1 -->
<svg width="180pt" height="430pt"
 viewBox="0.00 0.00 179.50 430.00" xmlns="http://www.w3.org/2000/svg" xmlns:xlink="http://www.w3.org/1999/xlink">
<g id="graph0" class="graph" transform="scale(1 1) rotate(0) translate(4 426)">
<title>Portafolio</title>
<polygon fill="white" stroke="transparent" points="-4,4 -4,-426 175.5,-426 175.5,4 -4,4"/>
<!-- Node1 -->
<g id="node1" class="node">
<title>Node1</title>
<g id="a_node1"><a xlink:title="Clase Portafolio que usa una pila para almacenar activos.">
<polygon fill="#bfbfbf" stroke="black" points="0,-0.5 0,-134.5 140,-134.5 140,-0.5 0,-0.5"/>
<text text-anchor="middle" x="70" y="-122.5" font-family="Helvetica,sans-Serif" font-size="10.00">Portafolio</text>
<polyline fill="none" stroke="black" points="0,-115.5 140,-115.5 "/>
<text text-anchor="start" x="8" y="-103.5" font-family="Helvetica,sans-Serif" font-size="10.00">&#45; nombreUsuario</text>
<polyline fill="none" stroke="black" points="0,-96.5 140,-96.5 "/>
<text text-anchor="start" x="8" y="-84.5" font-family="Helvetica,sans-Serif" font-size="10.00">+ agregarActivo()</text>
<text text-anchor="start" x="8" y="-73.5" font-family="Helvetica,sans-Serif" font-size="10.00">+ eliminarActivo()</text>
<text text-anchor="start" x="8" y="-62.5" font-family="Helvetica,sans-Serif" font-size="10.00">+ eliminarUltimoActivo()</text>
<text text-anchor="start" x="8" y="-51.5" font-family="Helvetica,sans-Serif" font-size="10.00">+ mostrar()</text>
<text text-anchor="start" x="8" y="-40.5" font-family="Helvetica,sans-Serif" font-size="10.00">+ obtenerActivos()</text>
<text text-anchor="start" x="8" y="-29.5" font-family="Helvetica,sans-Serif" font-size="10.00">+ ordenarActivos()</text>
<text text-anchor="start" x="8" y="-18.5" font-family="Helvetica,sans-Serif" font-size="10.00">+ Portafolio()</text>
<text text-anchor="start" x="8" y="-7.5" font-family="Helvetica,sans-Serif" font-size="10.00">+ recomendarCompra()</text>
</a>
</g>
</g>
<!-- Node2 -->
<g id="node2" class="node">
<title>Node2</title>
<g id="a_node2"><a xlink:href="classPila.html" target="_top" xlink:title="Implementación de una pila LIFO con nodos enlazados.">
<polygon fill="white" stroke="black" points="31.5,-182.5 31.5,-316.5 108.5,-316.5 108.5,-182.5 31.5,-182.5"/>
<text text-anchor="middle" x="70" y="-304.5" font-family="Helvetica,sans-Serif" font-size="10.00">Pila</text>
<polyline fill="none" stroke="black" points="31.5,-297.5 108.5,-297.5 "/>
<text text-anchor="middle" x="70" y="-285.5" font-family="Helvetica,sans-Serif" font-size="10.00"> </text>
<polyline fill="none" stroke="black" points="31.5,-278.5 108.5,-278.5 "/>
<text text-anchor="start" x="39.5" y="-266.5" font-family="Helvetica,sans-Serif" font-size="10.00">+ eliminar()</text>
<text text-anchor="start" x="39.5" y="-255.5" font-family="Helvetica,sans-Serif" font-size="10.00">+ imprimir()</text>
<text text-anchor="start" x="39.5" y="-244.5" font-family="Helvetica,sans-Serif" font-size="10.00">+ isEmpty()</text>
<text text-anchor="start" x="39.5" y="-233.5" font-family="Helvetica,sans-Serif" font-size="10.00">+ Pila()</text>
<text text-anchor="start" x="39.5" y="-222.5" font-family="Helvetica,sans-Serif" font-size="10.00">+ pop()</text>
<text text-anchor="start" x="39.5" y="-211.5" font-family="Helvetica,sans-Serif" font-size="10.00">+ push()</text>
<text text-anchor="start" x="39.5" y="-200.5" font-family="Helvetica,sans-Serif" font-size="10.00">+ top()</text>
<text text-anchor="start" x="39.5" y="-189.5" font-family="Helvetica,sans-Serif" font-size="10.00">+ ~Pila()</text>
</a>
</g>
</g>
<!-- Node2&#45;&gt;Node1 -->
<g id="edge1" class="edge">
<title>Node2&#45;&gt;Node1</title>
<path fill="none" stroke="#404040" d="M70,-182.5C70,-170.95 70,-158.84 70,-147"/>
<polygon fill="none" stroke="#404040" points="70,-146.8 66,-140.8 70,-134.8 74,-140.8 70,-146.8"/>
<text text-anchor="middle" x="91.5" y="-156" font-family="Helvetica,sans-Serif" font-size="10.00"> &#45;activos</text>
</g>
<!-- Node3 -->
<g id="node3" class="node">
<title>Node3</title>
<g id="a_node3"><a xlink:href="structNodo.html" target="_top" xlink:title="Nodo simple para la implementación de una pila.">
<polygon fill="white" stroke="black" points="43.5,-364.5 43.5,-421.5 96.5,-421.5 96.5,-364.5 43.5,-364.5"/>
<text text-anchor="middle" x="70" y="-409.5" font-family="Helvetica,sans-Serif" font-size="10.00">Nodo</text>
<polyline fill="none" stroke="black" points="43.5,-402.5 96.5,-402.5 "/>
<text text-anchor="start" x="51.5" y="-390.5" font-family="Helvetica,sans-Serif" font-size="10.00">+ valor</text>
<polyline fill="none" stroke="black" points="43.5,-383.5 96.5,-383.5 "/>
<text text-anchor="middle" x="70" y="-371.5" font-family="Helvetica,sans-Serif" font-size="10.00"> </text>
</a>
</g>
</g>
<!-- Node3&#45;&gt;Node2 -->
<g id="edge2" class="edge">
<title>Node3&#45;&gt;Node2</title>
<path fill="none" stroke="#404040" d="M70,-364.38C70,-354.02 70,-341.66 70,-328.97"/>
<polygon fill="none" stroke="#404040" points="70,-328.75 66,-322.75 70,-316.75 74,-322.75 70,-328.75"/>
<text text-anchor="middle" x="85.5" y="-338" font-family="Helvetica,sans-Serif" font-size="10.00"> &#45;cima</text>
</g>
<!-- Node3&#45;&gt;Node3 -->
<g id="edge3" class="edge">
<title>Node3&#45;&gt;Node3</title>
<path fill="none" stroke="#404040" d="M96.94,-402.74C106.61,-402.95 114.5,-399.7 114.5,-393 114.5,-389.54 112.4,-387.01 109.05,-385.39"/>
<polygon fill="none" stroke="#404040" points="108.76,-385.34 102.15,-388.24 96.94,-383.26 103.54,-380.36 108.76,-385.34"/>
<text text-anchor="middle" x="143" y="-390.5" font-family="Helvetica,sans-Serif" font-size="10.00"> +siguiente</text>
</g>
</g>
</svg>
