<?xml version="1.0" encoding="UTF-8" standalone="no"?>
<!DOCTYPE svg PUBLIC "-//W3C//DTD SVG 1.1//EN"
 "http://www.w3.org/Graphics/SVG/1.1/DTD/svg11.dtd">
<!-- Generated by graphviz version 2.43.0 (0)
 -->
<!-- Title: Pila::pop Pages: 1 -->
<svg width="500pt" height="116pt"
 viewBox="0.00 0.00 500.00 116.00" xmlns="http://www.w3.org/2000/svg" xmlns:xlink="http://www.w3.org/1999/xlink">
<g id="graph0" class="graph" transform="scale(1 1) rotate(0) translate(4 112)">
<title>Pila::pop</title>
<polygon fill="white" stroke="transparent" points="-4,4 -4,-112 496,-112 496,4 -4,4"/>
<!-- Node1 -->
<g id="node1" class="node">
<title>Node1</title>
<g id="a_node1"><a xlink:title="Elimina el elemento en la cima de la pila.">
<polygon fill="#bfbfbf" stroke="black" points="433,-44.5 433,-63.5 492,-63.5 492,-44.5 433,-44.5"/>
<text text-anchor="middle" x="462.5" y="-51.5" font-family="Helvetica,sans-Serif" font-size="10.00">Pila::pop</text>
</a>
</g>
</g>
<!-- Node2 -->
<g id="node2" class="node">
<title>Node2</title>
<g id="a_node2"><a xlink:href="classPila.html#a83f565e49638c5a19da1484aa3dc0d00" target="_top" xlink:title="Elimina la primera aparición de un valor específico.">
<polygon fill="white" stroke="black" points="285,-88.5 285,-107.5 366,-107.5 366,-88.5 285,-88.5"/>
<text text-anchor="middle" x="325.5" y="-95.5" font-family="Helvetica,sans-Serif" font-size="10.00">Pila::eliminar</text>
</a>
</g>
</g>
<!-- Node1&#45;&gt;Node2 -->
<g id="edge1" class="edge">
<title>Node1&#45;&gt;Node2</title>
<path fill="none" stroke="midnightblue" d="M429.33,-67.24C419.08,-71.25 407.64,-75.52 397,-79 386.64,-82.39 375.28,-85.65 364.77,-88.48"/>
<polygon fill="midnightblue" stroke="midnightblue" points="430.73,-70.45 438.73,-63.51 428.14,-63.95 430.73,-70.45"/>
</g>
<!-- Node5 -->
<g id="node5" class="node">
<title>Node5</title>
<g id="a_node5"><a xlink:href="classPortafolio.html#a89e48511af8ac261a2b18deb6d3ce460" target="_top" xlink:title="Elimina el último activo agregado (pop).">
<polygon fill="white" stroke="black" points="254,-39 254,-69 397,-69 397,-39 254,-39"/>
<text text-anchor="start" x="262" y="-57" font-family="Helvetica,sans-Serif" font-size="10.00">Portafolio::eliminarUltimo</text>
<text text-anchor="middle" x="325.5" y="-46" font-family="Helvetica,sans-Serif" font-size="10.00">Activo</text>
</a>
</g>
</g>
<!-- Node1&#45;&gt;Node5 -->
<g id="edge4" class="edge">
<title>Node1&#45;&gt;Node5</title>
<path fill="none" stroke="midnightblue" d="M422.69,-54C414.61,-54 405.86,-54 397.03,-54"/>
<polygon fill="midnightblue" stroke="midnightblue" points="422.87,-57.5 432.87,-54 422.87,-50.5 422.87,-57.5"/>
</g>
<!-- Node6 -->
<g id="node6" class="node">
<title>Node6</title>
<g id="a_node6"><a xlink:href="classPortafolio.html#af8bfef7dde343b4fe1fb483047865656" target="_top" xlink:title="Ordena los activos del portafolio en orden alfabético ascendente (A&#45;Z).">
<polygon fill="white" stroke="black" points="254,-0.5 254,-19.5 397,-19.5 397,-0.5 254,-0.5"/>
<text text-anchor="middle" x="325.5" y="-7.5" font-family="Helvetica,sans-Serif" font-size="10.00">Portafolio::ordenarActivos</text>
</a>
</g>
</g>
<!-- Node1&#45;&gt;Node6 -->
<g id="edge5" class="edge">
<title>Node1&#45;&gt;Node6</title>
<path fill="none" stroke="midnightblue" d="M427.7,-40.85C417.86,-37.17 407.05,-33.29 397,-30 385.76,-26.32 373.38,-22.67 362.17,-19.52"/>
<polygon fill="midnightblue" stroke="midnightblue" points="426.57,-44.16 437.16,-44.42 429.04,-37.61 426.57,-44.16"/>
</g>
<!-- Node3 -->
<g id="node3" class="node">
<title>Node3</title>
<g id="a_node3"><a xlink:href="classPortafolio.html#a2a3d95a628382a88d45d666982538b4e" target="_top" xlink:title="Elimina un activo específico del portafolio.">
<polygon fill="white" stroke="black" points="77,-88.5 77,-107.5 218,-107.5 218,-88.5 77,-88.5"/>
<text text-anchor="middle" x="147.5" y="-95.5" font-family="Helvetica,sans-Serif" font-size="10.00">Portafolio::eliminarActivo</text>
</a>
</g>
</g>
<!-- Node2&#45;&gt;Node3 -->
<g id="edge2" class="edge">
<title>Node2&#45;&gt;Node3</title>
<path fill="none" stroke="midnightblue" d="M274.1,-98C256.74,-98 236.97,-98 218.34,-98"/>
<polygon fill="midnightblue" stroke="midnightblue" points="274.56,-101.5 284.56,-98 274.56,-94.5 274.56,-101.5"/>
</g>
<!-- Node4 -->
<g id="node4" class="node">
<title>Node4</title>
<g id="a_node4"><a xlink:href="codigo_8cpp.html#ae66f6b31b5ad750f1fe042a706a4e3d4" target="_top" xlink:title="Función principal del programa.">
<polygon fill="white" stroke="black" points="0,-88.5 0,-107.5 41,-107.5 41,-88.5 0,-88.5"/>
<text text-anchor="middle" x="20.5" y="-95.5" font-family="Helvetica,sans-Serif" font-size="10.00">main</text>
</a>
</g>
</g>
<!-- Node3&#45;&gt;Node4 -->
<g id="edge3" class="edge">
<title>Node3&#45;&gt;Node4</title>
<path fill="none" stroke="midnightblue" d="M66.4,-98C57.08,-98 48.33,-98 41.07,-98"/>
<polygon fill="midnightblue" stroke="midnightblue" points="66.69,-101.5 76.69,-98 66.69,-94.5 66.69,-101.5"/>
</g>
</g>
</svg>
