<?xml version="1.0" encoding="UTF-8" standalone="no"?>
<!DOCTYPE svg PUBLIC "-//W3C//DTD SVG 1.1//EN"
 "http://www.w3.org/Graphics/SVG/1.1/DTD/svg11.dtd">
<!-- Generated by graphviz version 2.43.0 (0)
 -->
<!-- Title: Portafolio::eliminarUltimoActivo Pages: 1 -->
<svg width="267pt" height="104pt"
 viewBox="0.00 0.00 267.00 104.00" xmlns="http://www.w3.org/2000/svg" xmlns:xlink="http://www.w3.org/1999/xlink">
<g id="graph0" class="graph" transform="scale(1 1) rotate(0) translate(4 100)">
<title>Portafolio::eliminarUltimoActivo</title>
<polygon fill="white" stroke="transparent" points="-4,4 -4,-100 263,-100 263,4 -4,4"/>
<!-- Node1 -->
<g id="node1" class="node">
<title>Node1</title>
<g id="a_node1"><a xlink:title="Elimina el último activo agregado (pop).">
<polygon fill="#bfbfbf" stroke="black" points="0,-33 0,-63 143,-63 143,-33 0,-33"/>
<text text-anchor="start" x="8" y="-51" font-family="Helvetica,sans-Serif" font-size="10.00">Portafolio::eliminarUltimo</text>
<text text-anchor="middle" x="71.5" y="-40" font-family="Helvetica,sans-Serif" font-size="10.00">Activo</text>
</a>
</g>
</g>
<!-- Node2 -->
<g id="node2" class="node">
<title>Node2</title>
<g id="a_node2"><a xlink:href="classPila.html#a15420d1c215037d91a6908f5b5533e8a" target="_top" xlink:title="Verifica si la pila está vacía.">
<polygon fill="white" stroke="black" points="179,-76.5 179,-95.5 259,-95.5 259,-76.5 179,-76.5"/>
<text text-anchor="middle" x="219" y="-83.5" font-family="Helvetica,sans-Serif" font-size="10.00">Pila::isEmpty</text>
</a>
</g>
</g>
<!-- Node1&#45;&gt;Node2 -->
<g id="edge1" class="edge">
<title>Node1&#45;&gt;Node2</title>
<path fill="none" stroke="midnightblue" d="M130.01,-63.02C143.8,-66.62 158.37,-70.43 171.59,-73.88"/>
<polygon fill="midnightblue" stroke="midnightblue" points="170.85,-77.3 181.41,-76.44 172.62,-70.53 170.85,-77.3"/>
</g>
<!-- Node3 -->
<g id="node3" class="node">
<title>Node3</title>
<g id="a_node3"><a xlink:href="classPila.html#a81d09f97e002ddd279bf43b93b0cb372" target="_top" xlink:title="Elimina el elemento en la cima de la pila.">
<polygon fill="white" stroke="black" points="189.5,-38.5 189.5,-57.5 248.5,-57.5 248.5,-38.5 189.5,-38.5"/>
<text text-anchor="middle" x="219" y="-45.5" font-family="Helvetica,sans-Serif" font-size="10.00">Pila::pop</text>
</a>
</g>
</g>
<!-- Node1&#45;&gt;Node3 -->
<g id="edge2" class="edge">
<title>Node1&#45;&gt;Node3</title>
<path fill="none" stroke="midnightblue" d="M143.12,-48C155.52,-48 168,-48 179.13,-48"/>
<polygon fill="midnightblue" stroke="midnightblue" points="179.33,-51.5 189.33,-48 179.33,-44.5 179.33,-51.5"/>
</g>
<!-- Node4 -->
<g id="node4" class="node">
<title>Node4</title>
<g id="a_node4"><a xlink:href="classPila.html#a4a411a01fdc6c1463a5010371d061f4e" target="_top" xlink:title="Devuelve el elemento en la cima de la pila sin eliminarlo.">
<polygon fill="white" stroke="black" points="191,-0.5 191,-19.5 247,-19.5 247,-0.5 191,-0.5"/>
<text text-anchor="middle" x="219" y="-7.5" font-family="Helvetica,sans-Serif" font-size="10.00">Pila::top</text>
</a>
</g>
</g>
<!-- Node1&#45;&gt;Node4 -->
<g id="edge3" class="edge">
<title>Node1&#45;&gt;Node4</title>
<path fill="none" stroke="midnightblue" d="M130.01,-32.98C147.21,-28.49 165.6,-23.69 181.1,-19.64"/>
<polygon fill="midnightblue" stroke="midnightblue" points="182.03,-23.01 190.82,-17.1 180.26,-16.24 182.03,-23.01"/>
</g>
</g>
</svg>
