<?xml version="1.0" encoding="UTF-8" standalone="no"?>
<!DOCTYPE svg PUBLIC "-//W3C//DTD SVG 1.1//EN"
 "http://www.w3.org/Graphics/SVG/1.1/DTD/svg11.dtd">
<!-- Generated by graphviz version 2.43.0 (0)
 -->
<!-- Title: Portafolio::recomendarCompra Pages: 1 -->
<svg width="377pt" height="127pt"
 viewBox="0.00 0.00 377.00 126.50" xmlns="http://www.w3.org/2000/svg" xmlns:xlink="http://www.w3.org/1999/xlink">
<g id="graph0" class="graph" transform="scale(1 1) rotate(0) translate(4 122.5)">
<title>Portafolio::recomendarCompra</title>
<polygon fill="white" stroke="transparent" points="-4,4 -4,-122.5 373,-122.5 373,4 -4,4"/>
<!-- Node1 -->
<g id="node1" class="node">
<title>Node1</title>
<g id="a_node1"><a xlink:title=" ">
<polygon fill="#bfbfbf" stroke="black" points="0,-55 0,-74 167,-74 167,-55 0,-55"/>
<text text-anchor="middle" x="83.5" y="-62" font-family="Helvetica,sans-Serif" font-size="10.00">Portafolio::recomendarCompra</text>
</a>
</g>
</g>
<!-- Node2 -->
<g id="node2" class="node">
<title>Node2</title>
<g id="a_node2"><a xlink:href="classABBEmpresas.html#a705d67b6d795dffea3edf70150e0288d" target="_top" xlink:title="Busca una empresa por ticker.">
<polygon fill="white" stroke="black" points="203,-99 203,-118 369,-118 369,-99 203,-99"/>
<text text-anchor="middle" x="286" y="-106" font-family="Helvetica,sans-Serif" font-size="10.00">ABBEmpresas::buscarEmpresa</text>
</a>
</g>
</g>
<!-- Node1&#45;&gt;Node2 -->
<g id="edge1" class="edge">
<title>Node1&#45;&gt;Node2</title>
<path fill="none" stroke="midnightblue" d="M128.01,-74.05C158.35,-80.71 199.04,-89.64 231.39,-96.74"/>
<polygon fill="midnightblue" stroke="midnightblue" points="231.06,-100.25 241.58,-98.97 232.56,-93.41 231.06,-100.25"/>
</g>
<!-- Node3 -->
<g id="node3" class="node">
<title>Node3</title>
<g id="a_node3"><a xlink:href="classColaPrioridadNoticias.html#a9c3a7f5944aa0f85f3ebf69c1db5eaf7" target="_top" xlink:title="Llena un vector con punteros a todas las noticias en la cola (en orden actual).">
<polygon fill="white" stroke="black" points="225,-49.5 225,-79.5 347,-79.5 347,-49.5 225,-49.5"/>
<text text-anchor="start" x="233" y="-67.5" font-family="Helvetica,sans-Serif" font-size="10.00">ColaPrioridadNoticias</text>
<text text-anchor="middle" x="286" y="-56.5" font-family="Helvetica,sans-Serif" font-size="10.00">::obtenerNoticias</text>
</a>
</g>
</g>
<!-- Node1&#45;&gt;Node3 -->
<g id="edge2" class="edge">
<title>Node1&#45;&gt;Node3</title>
<path fill="none" stroke="midnightblue" d="M167.21,-64.5C182.9,-64.5 199.18,-64.5 214.45,-64.5"/>
<polygon fill="midnightblue" stroke="midnightblue" points="214.84,-68 224.84,-64.5 214.84,-61 214.84,-68"/>
</g>
<!-- Node4 -->
<g id="node4" class="node">
<title>Node4</title>
<g id="a_node4"><a xlink:href="classMultilistaPrecio.html#aab95a547304a1d3168a6c1916ea3b757" target="_top" xlink:title="Calcula el promedio móvil de los últimos &#39;dias&#39; precios.">
<polygon fill="white" stroke="black" points="213.5,-0.5 213.5,-30.5 358.5,-30.5 358.5,-0.5 213.5,-0.5"/>
<text text-anchor="start" x="221.5" y="-18.5" font-family="Helvetica,sans-Serif" font-size="10.00">MultilistaPrecio::promedio</text>
<text text-anchor="middle" x="286" y="-7.5" font-family="Helvetica,sans-Serif" font-size="10.00">Movil</text>
</a>
</g>
</g>
<!-- Node1&#45;&gt;Node4 -->
<g id="edge3" class="edge">
<title>Node1&#45;&gt;Node4</title>
<path fill="none" stroke="midnightblue" d="M123.63,-54.94C149.13,-48.71 183.15,-40.39 213.38,-33"/>
<polygon fill="midnightblue" stroke="midnightblue" points="214.59,-36.31 223.47,-30.54 212.93,-29.51 214.59,-36.31"/>
</g>
</g>
</svg>
