<?xml version="1.0" encoding="UTF-8" standalone="no"?>
<!DOCTYPE svg PUBLIC "-//W3C//DTD SVG 1.1//EN"
 "http://www.w3.org/Graphics/SVG/1.1/DTD/svg11.dtd">
<!-- Generated by graphviz version 2.43.0 (0)
 -->
<!-- Title: codigo.cpp Pages: 1 -->
<svg width="469pt" height="252pt"
 viewBox="0.00 0.00 468.50 252.00" xmlns="http://www.w3.org/2000/svg" xmlns:xlink="http://www.w3.org/1999/xlink">
<g id="graph0" class="graph" transform="scale(1 1) rotate(0) translate(4 248)">
<title>codigo.cpp</title>
<polygon fill="white" stroke="transparent" points="-4,4 -4,-248 464.5,-248 464.5,4 -4,4"/>
<!-- Node1 -->
<g id="node1" class="node">
<title>Node1</title>
<g id="a_node1"><a xlink:title="Archivo principal que implementa el menú y la lógica de interacción del sistema de gestión de accione...">
<polygon fill="#bfbfbf" stroke="black" points="309,-224.5 309,-243.5 378,-243.5 378,-224.5 309,-224.5"/>
<text text-anchor="middle" x="343.5" y="-231.5" font-family="Helvetica,sans-Serif" font-size="10.00">codigo.cpp</text>
</a>
</g>
</g>
<!-- Node2 -->
<g id="node2" class="node">
<title>Node2</title>
<g id="a_node2"><a xlink:href="empresa_8h.html" target="_top" xlink:title="Define las estructuras y clases para la gestión de empresas y sus precios históricos.">
<polygon fill="white" stroke="black" points="190.5,-56.5 190.5,-75.5 258.5,-75.5 258.5,-56.5 190.5,-56.5"/>
<text text-anchor="middle" x="224.5" y="-63.5" font-family="Helvetica,sans-Serif" font-size="10.00">empresa.h</text>
</a>
</g>
</g>
<!-- Node1&#45;&gt;Node2 -->
<g id="edge1" class="edge">
<title>Node1&#45;&gt;Node2</title>
<path fill="none" stroke="midnightblue" d="M343.26,-224.17C342.6,-211.26 340.21,-186.73 331.5,-168 313.49,-129.25 273.33,-98.02 247.66,-81.02"/>
<polygon fill="midnightblue" stroke="midnightblue" points="249.55,-78.08 239.24,-75.62 245.76,-83.97 249.55,-78.08"/>
</g>
<!-- Node8 -->
<g id="node8" class="node">
<title>Node8</title>
<g id="a_node8"><a xlink:href="noticia_8h.html" target="_top" xlink:title="Define la estructura Noticia y la clase ColaPrioridadNoticias para la gestión de noticias financieras...">
<polygon fill="white" stroke="black" points="133,-112.5 133,-131.5 192,-131.5 192,-112.5 133,-112.5"/>
<text text-anchor="middle" x="162.5" y="-119.5" font-family="Helvetica,sans-Serif" font-size="10.00">noticia.h</text>
</a>
</g>
</g>
<!-- Node1&#45;&gt;Node8 -->
<g id="edge7" class="edge">
<title>Node1&#45;&gt;Node8</title>
<path fill="none" stroke="midnightblue" d="M318.81,-224.47C297.32,-216.53 265.74,-203.59 240.5,-188 217.47,-173.77 194,-153.23 178.91,-139.06"/>
<polygon fill="midnightblue" stroke="midnightblue" points="181.09,-136.3 171.44,-131.93 176.26,-141.37 181.09,-136.3"/>
</g>
<!-- Node9 -->
<g id="node9" class="node">
<title>Node9</title>
<g id="a_node9"><a xlink:href="portafolio_8h.html" target="_top" xlink:title="Define la clase Portafolio y la estructura de pila para gestionar activos de usuario.">
<polygon fill="white" stroke="black" points="250,-168.5 250,-187.5 323,-187.5 323,-168.5 250,-168.5"/>
<text text-anchor="middle" x="286.5" y="-175.5" font-family="Helvetica,sans-Serif" font-size="10.00">portafolio.h</text>
</a>
</g>
</g>
<!-- Node1&#45;&gt;Node9 -->
<g id="edge14" class="edge">
<title>Node1&#45;&gt;Node9</title>
<path fill="none" stroke="midnightblue" d="M334.34,-224.32C326,-216.42 313.47,-204.55 303.32,-194.94"/>
<polygon fill="midnightblue" stroke="midnightblue" points="305.49,-192.17 295.82,-187.83 300.68,-197.25 305.49,-192.17"/>
</g>
<!-- Node11 -->
<g id="node11" class="node">
<title>Node11</title>
<g id="a_node11"><a xlink:title=" ">
<polygon fill="white" stroke="#bfbfbf" points="428.5,-168.5 428.5,-187.5 460.5,-187.5 460.5,-168.5 428.5,-168.5"/>
<text text-anchor="middle" x="444.5" y="-175.5" font-family="Helvetica,sans-Serif" font-size="10.00">set</text>
</a>
</g>
</g>
<!-- Node1&#45;&gt;Node11 -->
<g id="edge23" class="edge">
<title>Node1&#45;&gt;Node11</title>
<path fill="none" stroke="midnightblue" d="M359.73,-224.32C375.85,-215.7 400.8,-202.36 419.46,-192.39"/>
<polygon fill="midnightblue" stroke="midnightblue" points="421.14,-195.46 428.31,-187.65 417.84,-189.28 421.14,-195.46"/>
</g>
<!-- Node3 -->
<g id="node3" class="node">
<title>Node3</title>
<g id="a_node3"><a xlink:title=" ">
<polygon fill="white" stroke="#bfbfbf" points="194.5,-0.5 194.5,-19.5 254.5,-19.5 254.5,-0.5 194.5,-0.5"/>
<text text-anchor="middle" x="224.5" y="-7.5" font-family="Helvetica,sans-Serif" font-size="10.00">iostream</text>
</a>
</g>
</g>
<!-- Node2&#45;&gt;Node3 -->
<g id="edge2" class="edge">
<title>Node2&#45;&gt;Node3</title>
<path fill="none" stroke="midnightblue" d="M224.5,-56.08C224.5,-49.01 224.5,-38.86 224.5,-29.99"/>
<polygon fill="midnightblue" stroke="midnightblue" points="228,-29.75 224.5,-19.75 221,-29.75 228,-29.75"/>
</g>
<!-- Node4 -->
<g id="node4" class="node">
<title>Node4</title>
<g id="a_node4"><a xlink:title=" ">
<polygon fill="white" stroke="#bfbfbf" points="67.5,-0.5 67.5,-19.5 111.5,-19.5 111.5,-0.5 67.5,-0.5"/>
<text text-anchor="middle" x="89.5" y="-7.5" font-family="Helvetica,sans-Serif" font-size="10.00">string</text>
</a>
</g>
</g>
<!-- Node2&#45;&gt;Node4 -->
<g id="edge3" class="edge">
<title>Node2&#45;&gt;Node4</title>
<path fill="none" stroke="midnightblue" d="M203.11,-56.44C180.79,-47.52 145.6,-33.44 120.29,-23.32"/>
<polygon fill="midnightblue" stroke="midnightblue" points="121.38,-19.98 110.79,-19.52 118.78,-26.48 121.38,-19.98"/>
</g>
<!-- Node5 -->
<g id="node5" class="node">
<title>Node5</title>
<g id="a_node5"><a xlink:title=" ">
<polygon fill="white" stroke="#bfbfbf" points="273,-0.5 273,-19.5 320,-19.5 320,-0.5 273,-0.5"/>
<text text-anchor="middle" x="296.5" y="-7.5" font-family="Helvetica,sans-Serif" font-size="10.00">vector</text>
</a>
</g>
</g>
<!-- Node2&#45;&gt;Node5 -->
<g id="edge4" class="edge">
<title>Node2&#45;&gt;Node5</title>
<path fill="none" stroke="midnightblue" d="M236.07,-56.32C246.92,-48.18 263.38,-35.84 276.38,-26.09"/>
<polygon fill="midnightblue" stroke="midnightblue" points="278.82,-28.63 284.72,-19.83 274.62,-23.03 278.82,-28.63"/>
</g>
<!-- Node6 -->
<g id="node6" class="node">
<title>Node6</title>
<g id="a_node6"><a xlink:title=" ">
<polygon fill="white" stroke="#bfbfbf" points="0,-0.5 0,-19.5 49,-19.5 49,-0.5 0,-0.5"/>
<text text-anchor="middle" x="24.5" y="-7.5" font-family="Helvetica,sans-Serif" font-size="10.00">cstdlib</text>
</a>
</g>
</g>
<!-- Node2&#45;&gt;Node6 -->
<g id="edge5" class="edge">
<title>Node2&#45;&gt;Node6</title>
<path fill="none" stroke="midnightblue" d="M192.81,-56.44C156.36,-46.6 96.73,-30.5 59.1,-20.34"/>
<polygon fill="midnightblue" stroke="midnightblue" points="59.67,-16.87 49.11,-17.64 57.85,-23.63 59.67,-16.87"/>
</g>
<!-- Node7 -->
<g id="node7" class="node">
<title>Node7</title>
<g id="a_node7"><a xlink:title=" ">
<polygon fill="white" stroke="#bfbfbf" points="132.5,-0.5 132.5,-19.5 176.5,-19.5 176.5,-0.5 132.5,-0.5"/>
<text text-anchor="middle" x="154.5" y="-7.5" font-family="Helvetica,sans-Serif" font-size="10.00">ctime</text>
</a>
</g>
</g>
<!-- Node2&#45;&gt;Node7 -->
<g id="edge6" class="edge">
<title>Node2&#45;&gt;Node7</title>
<path fill="none" stroke="midnightblue" d="M213.25,-56.32C202.7,-48.18 186.7,-35.84 174.06,-26.09"/>
<polygon fill="midnightblue" stroke="midnightblue" points="176.01,-23.17 165.95,-19.83 171.73,-28.71 176.01,-23.17"/>
</g>
<!-- Node8&#45;&gt;Node2 -->
<g id="edge13" class="edge">
<title>Node8&#45;&gt;Node2</title>
<path fill="none" stroke="midnightblue" d="M172.46,-112.32C181.63,-104.34 195.44,-92.31 206.53,-82.65"/>
<polygon fill="midnightblue" stroke="midnightblue" points="209.12,-85.04 214.36,-75.83 204.52,-79.76 209.12,-85.04"/>
</g>
<!-- Node8&#45;&gt;Node3 -->
<g id="edge8" class="edge">
<title>Node8&#45;&gt;Node3</title>
<path fill="none" stroke="midnightblue" d="M163.66,-112.49C165.71,-99.57 170.8,-74.53 181.5,-56 187.89,-44.94 197.54,-34.49 206.09,-26.46"/>
<polygon fill="midnightblue" stroke="midnightblue" points="208.69,-28.83 213.8,-19.55 204.02,-23.62 208.69,-28.83"/>
</g>
<!-- Node8&#45;&gt;Node4 -->
<g id="edge9" class="edge">
<title>Node8&#45;&gt;Node4</title>
<path fill="none" stroke="midnightblue" d="M156.77,-112.37C144.72,-94.22 116.58,-51.8 100.78,-27.99"/>
<polygon fill="midnightblue" stroke="midnightblue" points="103.65,-25.99 95.2,-19.59 97.81,-29.86 103.65,-25.99"/>
</g>
<!-- Node8&#45;&gt;Node5 -->
<g id="edge10" class="edge">
<title>Node8&#45;&gt;Node5</title>
<path fill="none" stroke="midnightblue" d="M192.1,-114.6C215.19,-108.26 246.73,-96.46 267.5,-76 280.41,-63.28 288.04,-43.81 292.21,-29.49"/>
<polygon fill="midnightblue" stroke="midnightblue" points="295.61,-30.31 294.75,-19.75 288.84,-28.54 295.61,-30.31"/>
</g>
<!-- Node8&#45;&gt;Node6 -->
<g id="edge11" class="edge">
<title>Node8&#45;&gt;Node6</title>
<path fill="none" stroke="midnightblue" d="M151.67,-112.37C128.19,-93.65 72.36,-49.15 43.11,-25.83"/>
<polygon fill="midnightblue" stroke="midnightblue" points="45.28,-23.09 35.28,-19.59 40.92,-28.56 45.28,-23.09"/>
</g>
<!-- Node8&#45;&gt;Node7 -->
<g id="edge12" class="edge">
<title>Node8&#45;&gt;Node7</title>
<path fill="none" stroke="midnightblue" d="M158.9,-112.22C155.44,-103.28 150.47,-88.94 148.5,-76 146.16,-60.58 148.07,-42.94 150.34,-29.94"/>
<polygon fill="midnightblue" stroke="midnightblue" points="153.82,-30.36 152.32,-19.87 146.95,-29 153.82,-30.36"/>
</g>
<!-- Node9&#45;&gt;Node2 -->
<g id="edge21" class="edge">
<title>Node9&#45;&gt;Node2</title>
<path fill="none" stroke="midnightblue" d="M285.07,-168.08C282.71,-155.06 277.15,-130.39 266.5,-112 260.17,-101.07 250.73,-90.63 242.4,-82.57"/>
<polygon fill="midnightblue" stroke="midnightblue" points="244.61,-79.85 234.9,-75.63 239.86,-84.99 244.61,-79.85"/>
</g>
<!-- Node9&#45;&gt;Node3 -->
<g id="edge15" class="edge">
<title>Node9&#45;&gt;Node3</title>
<path fill="none" stroke="midnightblue" d="M302.28,-168.47C314.7,-160.77 331.11,-148.18 338.5,-132 352.54,-101.28 357.5,-83.93 338.5,-56 329.71,-43.08 293.47,-30.17 264.18,-21.51"/>
<polygon fill="midnightblue" stroke="midnightblue" points="265.14,-18.15 254.56,-18.75 263.21,-24.87 265.14,-18.15"/>
</g>
<!-- Node9&#45;&gt;Node4 -->
<g id="edge16" class="edge">
<title>Node9&#45;&gt;Node4</title>
<path fill="none" stroke="midnightblue" d="M249.66,-176.78C212.83,-174.55 157,-165.35 123.5,-132 95.88,-104.51 90.25,-56.49 89.37,-29.97"/>
<polygon fill="midnightblue" stroke="midnightblue" points="92.87,-29.69 89.24,-19.74 85.87,-29.78 92.87,-29.69"/>
</g>
<!-- Node9&#45;&gt;Node5 -->
<g id="edge19" class="edge">
<title>Node9&#45;&gt;Node5</title>
<path fill="none" stroke="midnightblue" d="M323.14,-168.61C342.6,-162.09 364.84,-150.87 376.5,-132 394.26,-103.27 393.55,-85.16 376.5,-56 366.41,-38.75 347.01,-27.6 329.85,-20.72"/>
<polygon fill="midnightblue" stroke="midnightblue" points="330.68,-17.3 320.08,-17.14 328.27,-23.87 330.68,-17.3"/>
</g>
<!-- Node9&#45;&gt;Node6 -->
<g id="edge17" class="edge">
<title>Node9&#45;&gt;Node6</title>
<path fill="none" stroke="midnightblue" d="M249.65,-175.54C210.64,-172.34 148.82,-162.43 105.5,-132 67.88,-105.58 42.83,-55.63 31.48,-28.92"/>
<polygon fill="midnightblue" stroke="midnightblue" points="34.7,-27.56 27.69,-19.62 28.22,-30.2 34.7,-27.56"/>
</g>
<!-- Node9&#45;&gt;Node7 -->
<g id="edge18" class="edge">
<title>Node9&#45;&gt;Node7</title>
<path fill="none" stroke="midnightblue" d="M288.08,-168.3C291.54,-146.28 297.26,-87.85 267.5,-56 256.15,-43.85 216.02,-29.63 186.81,-20.47"/>
<polygon fill="midnightblue" stroke="midnightblue" points="187.58,-17.05 176.99,-17.46 185.52,-23.74 187.58,-17.05"/>
</g>
<!-- Node9&#45;&gt;Node8 -->
<g id="edge22" class="edge">
<title>Node9&#45;&gt;Node8</title>
<path fill="none" stroke="midnightblue" d="M266.85,-168.44C246.54,-159.6 214.6,-145.69 191.4,-135.59"/>
<polygon fill="midnightblue" stroke="midnightblue" points="192.62,-132.3 182.06,-131.52 189.83,-138.72 192.62,-132.3"/>
</g>
<!-- Node10 -->
<g id="node10" class="node">
<title>Node10</title>
<g id="a_node10"><a xlink:title=" ">
<polygon fill="white" stroke="#bfbfbf" points="211,-112.5 211,-131.5 258,-131.5 258,-112.5 211,-112.5"/>
<text text-anchor="middle" x="234.5" y="-119.5" font-family="Helvetica,sans-Serif" font-size="10.00">cmath</text>
</a>
</g>
</g>
<!-- Node9&#45;&gt;Node10 -->
<g id="edge20" class="edge">
<title>Node9&#45;&gt;Node10</title>
<path fill="none" stroke="midnightblue" d="M277.91,-168.08C270.34,-160.22 259.12,-148.57 249.99,-139.08"/>
<polygon fill="midnightblue" stroke="midnightblue" points="252.38,-136.53 242.93,-131.75 247.34,-141.38 252.38,-136.53"/>
</g>
</g>
</svg>
