<?xml version="1.0" encoding="UTF-8" standalone="no"?>
<!DOCTYPE svg PUBLIC "-//W3C//DTD SVG 1.1//EN"
 "http://www.w3.org/Graphics/SVG/1.1/DTD/svg11.dtd">
<!-- Generated by graphviz version 2.43.0 (0)
 -->
<!-- Title: main Pages: 1 -->
<svg width="594pt" height="1493pt"
 viewBox="0.00 0.00 594.00 1492.50" xmlns="http://www.w3.org/2000/svg" xmlns:xlink="http://www.w3.org/1999/xlink">
<g id="graph0" class="graph" transform="scale(1 1) rotate(0) translate(4 1488.5)">
<title>main</title>
<polygon fill="white" stroke="transparent" points="-4,4 -4,-1488.5 590,-1488.5 590,4 -4,4"/>
<!-- Node1 -->
<g id="node1" class="node">
<title>Node1</title>
<g id="a_node1"><a xlink:title="Función principal del programa.">
<polygon fill="#bfbfbf" stroke="black" points="0,-728 0,-747 41,-747 41,-728 0,-728"/>
<text text-anchor="middle" x="20.5" y="-735" font-family="Helvetica,sans-Serif" font-size="10.00">main</text>
</a>
</g>
</g>
<!-- Node2 -->
<g id="node2" class="node">
<title>Node2</title>
<g id="a_node2"><a xlink:href="classPortafolio.html#a0f318f5e76a14783e28f2661d894c369" target="_top" xlink:title="Agrega un activo al portafolio (al tope de la pila).">
<polygon fill="white" stroke="black" points="313,-1456 313,-1475 451,-1475 451,-1456 313,-1456"/>
<text text-anchor="middle" x="382" y="-1463" font-family="Helvetica,sans-Serif" font-size="10.00">Portafolio::agregarActivo</text>
</a>
</g>
</g>
<!-- Node1&#45;&gt;Node2 -->
<g id="edge1" class="edge">
<title>Node1&#45;&gt;Node2</title>
<path fill="none" stroke="midnightblue" d="M21.56,-747.23C22.11,-827.33 27.72,-1376 77,-1427.5 141.27,-1494.67 259.48,-1487.83 328.02,-1476.74"/>
<polygon fill="midnightblue" stroke="midnightblue" points="328.9,-1480.14 338.17,-1475 327.72,-1473.24 328.9,-1480.14"/>
</g>
<!-- Node4 -->
<g id="node4" class="node">
<title>Node4</title>
<g id="a_node4"><a xlink:href="classABBEmpresas.html#ae84bb76dc229040e7e343cafabb76383" target="_top" xlink:title="Ajusta los precios de las empresas de un sector según el impacto de una noticia.">
<polygon fill="white" stroke="black" points="87.5,-1311.5 87.5,-1341.5 247.5,-1341.5 247.5,-1311.5 87.5,-1311.5"/>
<text text-anchor="start" x="95.5" y="-1329.5" font-family="Helvetica,sans-Serif" font-size="10.00">ABBEmpresas::ajustarPrecios</text>
<text text-anchor="middle" x="167.5" y="-1318.5" font-family="Helvetica,sans-Serif" font-size="10.00">PorNoticia</text>
</a>
</g>
</g>
<!-- Node1&#45;&gt;Node4 -->
<g id="edge3" class="edge">
<title>Node1&#45;&gt;Node4</title>
<path fill="none" stroke="midnightblue" d="M21.84,-747.26C24.37,-818.1 41.28,-1251.7 77,-1296.5 79.76,-1299.96 82.93,-1303.02 86.4,-1305.74"/>
<polygon fill="midnightblue" stroke="midnightblue" points="84.71,-1308.82 94.97,-1311.45 88.59,-1302.99 84.71,-1308.82"/>
</g>
<!-- Node5 -->
<g id="node5" class="node">
<title>Node5</title>
<g id="a_node5"><a xlink:href="classABBEmpresas.html#a705d67b6d795dffea3edf70150e0288d" target="_top" xlink:title="Busca una empresa por ticker.">
<polygon fill="white" stroke="black" points="299,-1234 299,-1253 465,-1253 465,-1234 299,-1234"/>
<text text-anchor="middle" x="382" y="-1241" font-family="Helvetica,sans-Serif" font-size="10.00">ABBEmpresas::buscarEmpresa</text>
</a>
</g>
</g>
<!-- Node1&#45;&gt;Node5 -->
<g id="edge4" class="edge">
<title>Node1&#45;&gt;Node5</title>
<path fill="none" stroke="midnightblue" d="M21.76,-747.25C23.71,-816.09 36.99,-1227.49 77,-1263.5 154.46,-1333.22 292.76,-1283.77 352.37,-1257.29"/>
<polygon fill="midnightblue" stroke="midnightblue" points="353.92,-1260.43 361.57,-1253.11 351.02,-1254.06 353.92,-1260.43"/>
</g>
<!-- Node6 -->
<g id="node6" class="node">
<title>Node6</title>
<g id="a_node6"><a xlink:href="classABBEmpresas.html#a69e48005487af9a9c02acb869e0a8e56" target="_top" xlink:title="Devuelve una lista de empresas cuyo precio actual está en el rango [minPrecio, maxPrecio].">
<polygon fill="white" stroke="black" points="82,-1009.5 82,-1039.5 253,-1039.5 253,-1009.5 82,-1009.5"/>
<text text-anchor="start" x="90" y="-1027.5" font-family="Helvetica,sans-Serif" font-size="10.00">ABBEmpresas::buscarEmpresas</text>
<text text-anchor="middle" x="167.5" y="-1016.5" font-family="Helvetica,sans-Serif" font-size="10.00">PorRangoPrecio</text>
</a>
</g>
</g>
<!-- Node1&#45;&gt;Node6 -->
<g id="edge5" class="edge">
<title>Node1&#45;&gt;Node6</title>
<path fill="none" stroke="midnightblue" d="M22.24,-747.26C25.67,-790.18 41.45,-961.61 77,-999.5 78.25,-1000.83 79.57,-1002.1 80.94,-1003.3"/>
<polygon fill="midnightblue" stroke="midnightblue" points="79.24,-1006.39 89.37,-1009.48 83.37,-1000.74 79.24,-1006.39"/>
</g>
<!-- Node7 -->
<g id="node7" class="node">
<title>Node7</title>
<g id="a_node7"><a xlink:href="classColaPrioridadNoticias.html#ab833342c4584745a79424087c99eb1e9" target="_top" xlink:title="Busca y muestra noticias cuyo título contiene una palabra clave.">
<polygon fill="white" stroke="black" points="100.5,-960.5 100.5,-990.5 234.5,-990.5 234.5,-960.5 100.5,-960.5"/>
<text text-anchor="start" x="108.5" y="-978.5" font-family="Helvetica,sans-Serif" font-size="10.00">ColaPrioridadNoticias</text>
<text text-anchor="middle" x="167.5" y="-967.5" font-family="Helvetica,sans-Serif" font-size="10.00">::buscarPorPalabraClave</text>
</a>
</g>
</g>
<!-- Node1&#45;&gt;Node7 -->
<g id="edge6" class="edge">
<title>Node1&#45;&gt;Node7</title>
<path fill="none" stroke="midnightblue" d="M20.9,-747.16C19.41,-780.46 19.15,-891.63 77,-950.5 81.2,-954.78 86.07,-958.34 91.32,-961.3"/>
<polygon fill="midnightblue" stroke="midnightblue" points="89.95,-964.52 100.47,-965.75 93,-958.23 89.95,-964.52"/>
</g>
<!-- Node8 -->
<g id="node8" class="node">
<title>Node8</title>
<g id="a_node8"><a xlink:href="classColaPrioridadNoticias.html#ab0f4086eabcc4d2f9935f9f64527aa7c" target="_top" xlink:title="Busca y muestra noticias que pertenecen a un sector específico.">
<polygon fill="white" stroke="black" points="106.5,-911.5 106.5,-941.5 228.5,-941.5 228.5,-911.5 106.5,-911.5"/>
<text text-anchor="start" x="114.5" y="-929.5" font-family="Helvetica,sans-Serif" font-size="10.00">ColaPrioridadNoticias</text>
<text text-anchor="middle" x="167.5" y="-918.5" font-family="Helvetica,sans-Serif" font-size="10.00">::buscarPorSector</text>
</a>
</g>
</g>
<!-- Node1&#45;&gt;Node8 -->
<g id="edge7" class="edge">
<title>Node1&#45;&gt;Node8</title>
<path fill="none" stroke="midnightblue" d="M21.79,-747.28C23.19,-775.54 31.18,-858.09 77,-901.5 82.76,-906.96 89.62,-911.25 96.93,-914.61"/>
<polygon fill="midnightblue" stroke="midnightblue" points="95.81,-917.93 106.4,-918.39 98.41,-911.43 95.81,-917.93"/>
</g>
<!-- Node9 -->
<g id="node9" class="node">
<title>Node9</title>
<g id="a_node9"><a xlink:href="noticia_8h.html#af24bef6e352d3ace928987de260bb7e6" target="_top" xlink:title="Calcula el porcentaje de ajuste según el impacto.">
<polygon fill="white" stroke="black" points="99,-873 99,-892 236,-892 236,-873 99,-873"/>
<text text-anchor="middle" x="167.5" y="-880" font-family="Helvetica,sans-Serif" font-size="10.00">calcularPorcentajeAjuste</text>
</a>
</g>
</g>
<!-- Node1&#45;&gt;Node9 -->
<g id="edge8" class="edge">
<title>Node1&#45;&gt;Node9</title>
<path fill="none" stroke="midnightblue" d="M22.76,-747.18C26.39,-770.99 39.16,-832.74 77,-863.5 80.81,-866.59 85,-869.22 89.42,-871.44"/>
<polygon fill="midnightblue" stroke="midnightblue" points="88.22,-874.73 98.79,-875.46 90.98,-868.3 88.22,-874.73"/>
</g>
<!-- Node10 -->
<g id="node10" class="node">
<title>Node10</title>
<g id="a_node10"><a xlink:href="classPortafolio.html#a2a3d95a628382a88d45d666982538b4e" target="_top" xlink:title="Elimina un activo específico del portafolio.">
<polygon fill="white" stroke="black" points="97,-1399 97,-1418 238,-1418 238,-1399 97,-1399"/>
<text text-anchor="middle" x="167.5" y="-1406" font-family="Helvetica,sans-Serif" font-size="10.00">Portafolio::eliminarActivo</text>
</a>
</g>
</g>
<!-- Node1&#45;&gt;Node10 -->
<g id="edge9" class="edge">
<title>Node1&#45;&gt;Node10</title>
<path fill="none" stroke="midnightblue" d="M21.64,-747.4C22.86,-825.37 32.55,-1339.15 77,-1389.5 80.16,-1393.08 83.81,-1396.08 87.8,-1398.59"/>
<polygon fill="midnightblue" stroke="midnightblue" points="86.5,-1401.86 96.99,-1403.33 89.71,-1395.64 86.5,-1401.86"/>
</g>
<!-- Node15 -->
<g id="node15" class="node">
<title>Node15</title>
<g id="a_node15"><a xlink:href="noticia_8h.html#a6370066b96779b15f4c092365be9553b" target="_top" xlink:title="Genera un string de fecha con formato &quot;YYYY&#45;MM&#45;DD&quot; a partir de un número de días desde el inicio.">
<polygon fill="white" stroke="black" points="126,-835 126,-854 209,-854 209,-835 126,-835"/>
<text text-anchor="middle" x="167.5" y="-842" font-family="Helvetica,sans-Serif" font-size="10.00">generarFecha</text>
</a>
</g>
</g>
<!-- Node1&#45;&gt;Node15 -->
<g id="edge15" class="edge">
<title>Node1&#45;&gt;Node15</title>
<path fill="none" stroke="midnightblue" d="M24.79,-747.11C31.52,-765.28 48.69,-804.65 77,-824.5 88.32,-832.44 102.27,-837.29 115.75,-840.24"/>
<polygon fill="midnightblue" stroke="midnightblue" points="115.44,-843.74 125.92,-842.14 116.73,-836.86 115.44,-843.74"/>
</g>
<!-- Node16 -->
<g id="node16" class="node">
<title>Node16</title>
<g id="a_node16"><a xlink:href="classColaPrioridadNoticias.html#afccedcf2a79e14243c3d685f2fcf9e5a" target="_top" xlink:title="Detecta si hay una alerta de crisis (3 o más noticias con impacto &gt;= 8).">
<polygon fill="white" stroke="black" points="106.5,-785.5 106.5,-815.5 228.5,-815.5 228.5,-785.5 106.5,-785.5"/>
<text text-anchor="start" x="114.5" y="-803.5" font-family="Helvetica,sans-Serif" font-size="10.00">ColaPrioridadNoticias</text>
<text text-anchor="middle" x="167.5" y="-792.5" font-family="Helvetica,sans-Serif" font-size="10.00">::hayAlertaDeCrisis</text>
</a>
</g>
</g>
<!-- Node1&#45;&gt;Node16 -->
<g id="edge16" class="edge">
<title>Node1&#45;&gt;Node16</title>
<path fill="none" stroke="midnightblue" d="M33.15,-747.17C43.93,-755.69 60.7,-767.9 77,-775.5 83.19,-778.39 89.78,-781 96.47,-783.36"/>
<polygon fill="midnightblue" stroke="midnightblue" points="95.71,-786.79 106.3,-786.62 97.91,-780.15 95.71,-786.79"/>
</g>
<!-- Node17 -->
<g id="node17" class="node">
<title>Node17</title>
<g id="a_node17"><a xlink:href="classABBEmpresas.html#ae66f600b3457f3e6aeb09840d9188dcc" target="_top" xlink:title="Imprime la información de una empresa en formato de tabla.">
<polygon fill="white" stroke="black" points="79.5,-747 79.5,-766 255.5,-766 255.5,-747 79.5,-747"/>
<text text-anchor="middle" x="167.5" y="-754" font-family="Helvetica,sans-Serif" font-size="10.00">ABBEmpresas::imprimirEmpresa</text>
</a>
</g>
</g>
<!-- Node1&#45;&gt;Node17 -->
<g id="edge17" class="edge">
<title>Node1&#45;&gt;Node17</title>
<path fill="none" stroke="midnightblue" d="M41.06,-740.06C52.51,-741.56 67.85,-743.57 83.86,-745.67"/>
<polygon fill="midnightblue" stroke="midnightblue" points="83.52,-749.16 93.89,-746.99 84.43,-742.22 83.52,-749.16"/>
</g>
<!-- Node18 -->
<g id="node18" class="node">
<title>Node18</title>
<g id="a_node18"><a xlink:href="classABBEmpresas.html#a66382212802e5ab39724152cb88a0912" target="_top" xlink:title="Imprime todas las empresas y su precio actual por consola.">
<polygon fill="white" stroke="black" points="77,-709 77,-728 258,-728 258,-709 77,-709"/>
<text text-anchor="middle" x="167.5" y="-716" font-family="Helvetica,sans-Serif" font-size="10.00">ABBEmpresas::imprimirEmpresas</text>
</a>
</g>
</g>
<!-- Node1&#45;&gt;Node18 -->
<g id="edge18" class="edge">
<title>Node1&#45;&gt;Node18</title>
<path fill="none" stroke="midnightblue" d="M41.06,-734.94C52.51,-733.44 67.85,-731.43 83.86,-729.33"/>
<polygon fill="midnightblue" stroke="midnightblue" points="84.43,-732.78 93.89,-728.01 83.52,-725.84 84.43,-732.78"/>
</g>
<!-- Node19 -->
<g id="node19" class="node">
<title>Node19</title>
<g id="a_node19"><a xlink:href="classABBEmpresas.html#af19e68352e97995e93431e69aec215b5" target="_top" xlink:title="Imprime todas las empresas de un sector específico.">
<polygon fill="white" stroke="black" points="77,-659.5 77,-689.5 258,-689.5 258,-659.5 77,-659.5"/>
<text text-anchor="start" x="85" y="-677.5" font-family="Helvetica,sans-Serif" font-size="10.00">ABBEmpresas::imprimirEmpresas</text>
<text text-anchor="middle" x="167.5" y="-666.5" font-family="Helvetica,sans-Serif" font-size="10.00">PorSector</text>
</a>
</g>
</g>
<!-- Node1&#45;&gt;Node19 -->
<g id="edge19" class="edge">
<title>Node1&#45;&gt;Node19</title>
<path fill="none" stroke="midnightblue" d="M33.15,-727.83C43.93,-719.31 60.7,-707.1 77,-699.5 82.03,-697.16 87.32,-694.99 92.71,-693"/>
<polygon fill="midnightblue" stroke="midnightblue" points="94.19,-696.19 102.49,-689.6 91.9,-689.58 94.19,-696.19"/>
</g>
<!-- Node20 -->
<g id="node20" class="node">
<title>Node20</title>
<g id="a_node20"><a xlink:href="classABBEmpresas.html#a5475778344348be4a823d4f35da3ab9d" target="_top" xlink:title="Imprime empresas ordenadas por precio actual (de mayor a menor).">
<polygon fill="white" stroke="black" points="93,-610.5 93,-640.5 242,-640.5 242,-610.5 93,-610.5"/>
<text text-anchor="start" x="101" y="-628.5" font-family="Helvetica,sans-Serif" font-size="10.00">ABBEmpresas::imprimirPor</text>
<text text-anchor="middle" x="167.5" y="-617.5" font-family="Helvetica,sans-Serif" font-size="10.00">Precio</text>
</a>
</g>
</g>
<!-- Node1&#45;&gt;Node20 -->
<g id="edge20" class="edge">
<title>Node1&#45;&gt;Node20</title>
<path fill="none" stroke="midnightblue" d="M24.83,-727.89C31.64,-709.7 48.94,-670.18 77,-649.5 79.1,-647.96 81.29,-646.51 83.55,-645.16"/>
<polygon fill="midnightblue" stroke="midnightblue" points="85.38,-648.15 92.59,-640.39 82.11,-641.96 85.38,-648.15"/>
</g>
<!-- Node21 -->
<g id="node21" class="node">
<title>Node21</title>
<g id="a_node21"><a xlink:href="classColaPrioridadNoticias.html#a7512fe71c5e0220566c7d0d95be9862e" target="_top" xlink:title="Inserta una noticia en la cola de prioridad según su impacto.">
<polygon fill="white" stroke="black" points="106.5,-561.5 106.5,-591.5 228.5,-591.5 228.5,-561.5 106.5,-561.5"/>
<text text-anchor="start" x="114.5" y="-579.5" font-family="Helvetica,sans-Serif" font-size="10.00">ColaPrioridadNoticias</text>
<text text-anchor="middle" x="167.5" y="-568.5" font-family="Helvetica,sans-Serif" font-size="10.00">::insertar</text>
</a>
</g>
</g>
<!-- Node1&#45;&gt;Node21 -->
<g id="edge21" class="edge">
<title>Node1&#45;&gt;Node21</title>
<path fill="none" stroke="midnightblue" d="M22.49,-727.87C25.59,-702.89 37.39,-635.51 77,-600.5 82.85,-595.33 89.69,-591.26 96.95,-588.05"/>
<polygon fill="midnightblue" stroke="midnightblue" points="98.24,-591.31 106.31,-584.44 95.72,-584.77 98.24,-591.31"/>
</g>
<!-- Node22 -->
<g id="node22" class="node">
<title>Node22</title>
<g id="a_node22"><a xlink:href="classColaPrioridadNoticias.html#acf945e1aec8cf586d6b87382a1a9a9e2" target="_top" xlink:title="Muestra todas las noticias en la cola, en orden de prioridad.">
<polygon fill="white" stroke="black" points="106.5,-512.5 106.5,-542.5 228.5,-542.5 228.5,-512.5 106.5,-512.5"/>
<text text-anchor="start" x="114.5" y="-530.5" font-family="Helvetica,sans-Serif" font-size="10.00">ColaPrioridadNoticias</text>
<text text-anchor="middle" x="167.5" y="-519.5" font-family="Helvetica,sans-Serif" font-size="10.00">::mostrar</text>
</a>
</g>
</g>
<!-- Node1&#45;&gt;Node22 -->
<g id="edge22" class="edge">
<title>Node1&#45;&gt;Node22</title>
<path fill="none" stroke="midnightblue" d="M21.32,-727.76C21.29,-697.07 25.54,-601.54 77,-551.5 82.68,-545.98 89.48,-541.7 96.76,-538.38"/>
<polygon fill="midnightblue" stroke="midnightblue" points="98.18,-541.58 106.2,-534.67 95.61,-535.07 98.18,-541.58"/>
</g>
<!-- Node23 -->
<g id="node23" class="node">
<title>Node23</title>
<g id="a_node23"><a xlink:href="classPortafolio.html#a0fd1f6dd832435c9c7180a2701058748" target="_top" xlink:title="Muestra el contenido del portafolio.">
<polygon fill="white" stroke="black" points="113.5,-1361 113.5,-1380 221.5,-1380 221.5,-1361 113.5,-1361"/>
<text text-anchor="middle" x="167.5" y="-1368" font-family="Helvetica,sans-Serif" font-size="10.00">Portafolio::mostrar</text>
</a>
</g>
</g>
<!-- Node1&#45;&gt;Node23 -->
<g id="edge23" class="edge">
<title>Node1&#45;&gt;Node23</title>
<path fill="none" stroke="midnightblue" d="M21.7,-747.29C23.28,-822.31 35.08,-1304.27 77,-1351.5 84.03,-1359.42 93.47,-1364.51 103.59,-1367.69"/>
<polygon fill="midnightblue" stroke="midnightblue" points="102.89,-1371.13 113.44,-1370.2 104.62,-1364.34 102.89,-1371.13"/>
</g>
<!-- Node25 -->
<g id="node25" class="node">
<title>Node25</title>
<g id="a_node25"><a xlink:href="noticia_8h.html#af7db67c9b2b44a23312346ae3cf2a20f" target="_top" xlink:title="Muestra el ajuste aplicado a los precios de un sector.">
<polygon fill="white" stroke="black" points="109.5,-474 109.5,-493 225.5,-493 225.5,-474 109.5,-474"/>
<text text-anchor="middle" x="167.5" y="-481" font-family="Helvetica,sans-Serif" font-size="10.00">mostrarAjusteSector</text>
</a>
</g>
</g>
<!-- Node1&#45;&gt;Node25 -->
<g id="edge26" class="edge">
<title>Node1&#45;&gt;Node25</title>
<path fill="none" stroke="midnightblue" d="M22.42,-727.89C26.42,-687.86 43.72,-535.03 77,-502.5 83.35,-496.29 91.21,-491.88 99.6,-488.79"/>
<polygon fill="midnightblue" stroke="midnightblue" points="100.71,-492.11 109.25,-485.84 98.66,-485.42 100.71,-492.11"/>
</g>
<!-- Node26 -->
<g id="node26" class="node">
<title>Node26</title>
<g id="a_node26"><a xlink:href="noticia_8h.html#a80268dccce1ece0cbb6406c81d50baed" target="_top" xlink:title="Muestra los cambios de precio de una empresa por cada noticia que la afectó, mostrando el precio ante...">
<polygon fill="white" stroke="black" points="91,-1223.5 91,-1253.5 244,-1253.5 244,-1223.5 91,-1223.5"/>
<text text-anchor="start" x="99" y="-1241.5" font-family="Helvetica,sans-Serif" font-size="10.00">mostrarCambiosPorNoticias</text>
<text text-anchor="middle" x="167.5" y="-1230.5" font-family="Helvetica,sans-Serif" font-size="10.00">Empresa</text>
</a>
</g>
</g>
<!-- Node1&#45;&gt;Node26 -->
<g id="edge27" class="edge">
<title>Node1&#45;&gt;Node26</title>
<path fill="none" stroke="midnightblue" d="M21.98,-747.03C25.28,-811.01 45.44,-1176.58 77,-1213.5 78.74,-1215.54 80.64,-1217.42 82.65,-1219.15"/>
<polygon fill="midnightblue" stroke="midnightblue" points="80.83,-1222.15 91,-1225.13 84.91,-1216.46 80.83,-1222.15"/>
</g>
<!-- Node28 -->
<g id="node28" class="node">
<title>Node28</title>
<g id="a_node28"><a xlink:href="noticia_8h.html#a7242f8be6bf0222aa3c0397c220cd251" target="_top" xlink:title="Muestra el impacto de las noticias en las acciones de las empresas.">
<polygon fill="white" stroke="black" points="94.5,-1097.5 94.5,-1127.5 240.5,-1127.5 240.5,-1097.5 94.5,-1097.5"/>
<text text-anchor="start" x="102.5" y="-1115.5" font-family="Helvetica,sans-Serif" font-size="10.00">mostrarImpactoNoticiasEn</text>
<text text-anchor="middle" x="167.5" y="-1104.5" font-family="Helvetica,sans-Serif" font-size="10.00">Acciones</text>
</a>
</g>
</g>
<!-- Node1&#45;&gt;Node28 -->
<g id="edge30" class="edge">
<title>Node1&#45;&gt;Node28</title>
<path fill="none" stroke="midnightblue" d="M21.74,-747.09C23.19,-797.3 32.26,-1029.76 77,-1082.5 80,-1086.04 83.44,-1089.16 87.17,-1091.92"/>
<polygon fill="midnightblue" stroke="midnightblue" points="85.45,-1094.98 95.77,-1097.39 89.21,-1089.07 85.45,-1094.98"/>
</g>
<!-- Node29 -->
<g id="node29" class="node">
<title>Node29</title>
<g id="a_node29"><a xlink:href="classABBEmpresas.html#a6ccc64afaf894799cf66b3e46db34674" target="_top" xlink:title="Devuelve una lista ordenada de empresas (inorden).">
<polygon fill="white" stroke="black" points="294,-1072.5 294,-1102.5 470,-1102.5 470,-1072.5 294,-1072.5"/>
<text text-anchor="start" x="302" y="-1090.5" font-family="Helvetica,sans-Serif" font-size="10.00">ABBEmpresas::obtenerEmpresas</text>
<text text-anchor="middle" x="382" y="-1079.5" font-family="Helvetica,sans-Serif" font-size="10.00">Ordenadas</text>
</a>
</g>
</g>
<!-- Node1&#45;&gt;Node29 -->
<g id="edge41" class="edge">
<title>Node1&#45;&gt;Node29</title>
<path fill="none" stroke="midnightblue" d="M21.75,-747.23C23.19,-795.17 32.02,-1005.67 77,-1048.5 106,-1076.11 205.96,-1084.74 283.43,-1087.16"/>
<polygon fill="midnightblue" stroke="midnightblue" points="283.63,-1090.66 293.72,-1087.45 283.82,-1083.67 283.63,-1090.66"/>
</g>
<!-- Node30 -->
<g id="node30" class="node">
<title>Node30</title>
<g id="a_node30"><a xlink:href="codigo_8cpp.html#a18fa8d8d51312c04f847fd499a5fca9b" target="_top" xlink:title="Muestra el submenú de opciones relacionadas con empresas.">
<polygon fill="white" stroke="black" points="105,-436 105,-455 230,-455 230,-436 105,-436"/>
<text text-anchor="middle" x="167.5" y="-443" font-family="Helvetica,sans-Serif" font-size="10.00">mostrarMenuEmpresa</text>
</a>
</g>
</g>
<!-- Node1&#45;&gt;Node30 -->
<g id="edge33" class="edge">
<title>Node1&#45;&gt;Node30</title>
<path fill="none" stroke="midnightblue" d="M22.08,-727.87C24.91,-683.94 38.78,-503.05 77,-464.5 82.23,-459.23 88.53,-455.25 95.34,-452.26"/>
<polygon fill="midnightblue" stroke="midnightblue" points="96.7,-455.49 104.89,-448.78 94.3,-448.92 96.7,-455.49"/>
</g>
<!-- Node31 -->
<g id="node31" class="node">
<title>Node31</title>
<g id="a_node31"><a xlink:href="codigo_8cpp.html#a05576b260508ff31b280741973565d40" target="_top" xlink:title="Muestra el submenú de opciones relacionadas con el portafolio.">
<polygon fill="white" stroke="black" points="103,-398 103,-417 232,-417 232,-398 103,-398"/>
<text text-anchor="middle" x="167.5" y="-405" font-family="Helvetica,sans-Serif" font-size="10.00">mostrarMenuPortafolio</text>
</a>
</g>
</g>
<!-- Node1&#45;&gt;Node31 -->
<g id="edge34" class="edge">
<title>Node1&#45;&gt;Node31</title>
<path fill="none" stroke="midnightblue" d="M21.82,-727.84C23.6,-680.24 33.8,-471.13 77,-426.5 81.75,-421.59 87.43,-417.8 93.59,-414.88"/>
<polygon fill="midnightblue" stroke="midnightblue" points="94.9,-418.13 102.92,-411.2 92.33,-411.62 94.9,-418.13"/>
</g>
<!-- Node32 -->
<g id="node32" class="node">
<title>Node32</title>
<g id="a_node32"><a xlink:href="codigo_8cpp.html#a476b760037c5062b609f62bcf13f21ef" target="_top" xlink:title="Muestra el menú principal para elegir entre opciones por empresa, sector o noticias.">
<polygon fill="white" stroke="black" points="105.5,-360 105.5,-379 229.5,-379 229.5,-360 105.5,-360"/>
<text text-anchor="middle" x="167.5" y="-367" font-family="Helvetica,sans-Serif" font-size="10.00">mostrarMenuPrincipal</text>
</a>
</g>
</g>
<!-- Node1&#45;&gt;Node32 -->
<g id="edge35" class="edge">
<title>Node1&#45;&gt;Node32</title>
<path fill="none" stroke="midnightblue" d="M21.62,-727.71C22.44,-676.42 28.83,-439.21 77,-388.5 82.19,-383.04 88.53,-378.95 95.41,-375.91"/>
<polygon fill="midnightblue" stroke="midnightblue" points="96.89,-379.09 105.08,-372.38 94.49,-372.52 96.89,-379.09"/>
</g>
<!-- Node33 -->
<g id="node33" class="node">
<title>Node33</title>
<g id="a_node33"><a xlink:href="codigo_8cpp.html#a94581a9b3feac964bdced8cdc15e8484" target="_top" xlink:title="Muestra el submenú de opciones relacionadas con sectores.">
<polygon fill="white" stroke="black" points="111,-322 111,-341 224,-341 224,-322 111,-322"/>
<text text-anchor="middle" x="167.5" y="-329" font-family="Helvetica,sans-Serif" font-size="10.00">mostrarMenuSector</text>
</a>
</g>
</g>
<!-- Node1&#45;&gt;Node33 -->
<g id="edge36" class="edge">
<title>Node1&#45;&gt;Node33</title>
<path fill="none" stroke="midnightblue" d="M21.45,-727.75C21.38,-673.3 23.79,-407.38 77,-350.5 83.6,-343.44 92.13,-338.66 101.28,-335.48"/>
<polygon fill="midnightblue" stroke="midnightblue" points="102.34,-338.82 111,-332.72 100.42,-332.09 102.34,-338.82"/>
</g>
<!-- Node34 -->
<g id="node34" class="node">
<title>Node34</title>
<g id="a_node34"><a xlink:href="codigo_8cpp.html#a15ca712c518aa6cdc4fabc8b3fa84692" target="_top" xlink:title="Muestra el submenú de opciones relacionadas con simulación y noticias financieras.">
<polygon fill="white" stroke="black" points="99.5,-284 99.5,-303 235.5,-303 235.5,-284 99.5,-284"/>
<text text-anchor="middle" x="167.5" y="-291" font-family="Helvetica,sans-Serif" font-size="10.00">mostrarMenuSimulacion</text>
</a>
</g>
</g>
<!-- Node1&#45;&gt;Node34 -->
<g id="edge37" class="edge">
<title>Node1&#45;&gt;Node34</title>
<path fill="none" stroke="midnightblue" d="M21.32,-727.94C20.42,-670.88 18.69,-375.63 77,-312.5 80.84,-308.34 85.34,-304.98 90.25,-302.26"/>
<polygon fill="midnightblue" stroke="midnightblue" points="91.84,-305.38 99.47,-298.04 88.92,-299.02 91.84,-305.38"/>
</g>
<!-- Node35 -->
<g id="node35" class="node">
<title>Node35</title>
<g id="a_node35"><a xlink:href="classPortafolio.html#a3f3249951cf442f25729fc3b0b3a891a" target="_top" xlink:title="Devuelve todos los activos del portafolio como vector sin usar push_back.">
<polygon fill="white" stroke="black" points="96,-246 96,-265 239,-265 239,-246 96,-246"/>
<text text-anchor="middle" x="167.5" y="-253" font-family="Helvetica,sans-Serif" font-size="10.00">Portafolio::obtenerActivos</text>
</a>
</g>
</g>
<!-- Node1&#45;&gt;Node35 -->
<g id="edge38" class="edge">
<title>Node1&#45;&gt;Node35</title>
<path fill="none" stroke="midnightblue" d="M21.99,-727.8C25.31,-664.3 45.19,-309.31 77,-274.5 79.95,-271.27 83.31,-268.51 86.94,-266.17"/>
<polygon fill="midnightblue" stroke="midnightblue" points="88.7,-269.2 95.88,-261.41 85.41,-263.02 88.7,-269.2"/>
</g>
<!-- Node36 -->
<g id="node36" class="node">
<title>Node36</title>
<g id="a_node36"><a xlink:href="classABBEmpresas.html#a77be3c43461441d10f9dd6f03d24604d" target="_top" xlink:title="Devuelve la empresa con el precio actual más bajo.">
<polygon fill="white" stroke="black" points="82,-196.5 82,-226.5 253,-226.5 253,-196.5 82,-196.5"/>
<text text-anchor="start" x="90" y="-214.5" font-family="Helvetica,sans-Serif" font-size="10.00">ABBEmpresas::obtenerEmpresa</text>
<text text-anchor="middle" x="167.5" y="-203.5" font-family="Helvetica,sans-Serif" font-size="10.00">MasBarata</text>
</a>
</g>
</g>
<!-- Node1&#45;&gt;Node36 -->
<g id="edge39" class="edge">
<title>Node1&#45;&gt;Node36</title>
<path fill="none" stroke="midnightblue" d="M21.92,-727.9C24.93,-661.8 43.85,-275.51 77,-236.5 78.01,-235.31 79.08,-234.17 80.19,-233.09"/>
<polygon fill="midnightblue" stroke="midnightblue" points="82.56,-235.67 88.12,-226.66 78.15,-230.23 82.56,-235.67"/>
</g>
<!-- Node37 -->
<g id="node37" class="node">
<title>Node37</title>
<g id="a_node37"><a xlink:href="classABBEmpresas.html#a9773e3023fbdf2197242337670da6941" target="_top" xlink:title="Devuelve la empresa con el precio actual más alto.">
<polygon fill="white" stroke="black" points="82,-147.5 82,-177.5 253,-177.5 253,-147.5 82,-147.5"/>
<text text-anchor="start" x="90" y="-165.5" font-family="Helvetica,sans-Serif" font-size="10.00">ABBEmpresas::obtenerEmpresa</text>
<text text-anchor="middle" x="167.5" y="-154.5" font-family="Helvetica,sans-Serif" font-size="10.00">MasCara</text>
</a>
</g>
</g>
<!-- Node1&#45;&gt;Node37 -->
<g id="edge40" class="edge">
<title>Node1&#45;&gt;Node37</title>
<path fill="none" stroke="midnightblue" d="M21.82,-727.85C24.23,-657.87 40.41,-229.53 77,-186.5 77.73,-185.64 78.49,-184.81 79.27,-184.01"/>
<polygon fill="midnightblue" stroke="midnightblue" points="81.55,-186.67 86.92,-177.54 77.03,-181.32 81.55,-186.67"/>
</g>
<!-- Node38 -->
<g id="node38" class="node">
<title>Node38</title>
<g id="a_node38"><a xlink:href="classColaPrioridadNoticias.html#a3811c333f31595938a583b600b35bad8" target="_top" xlink:title="Ordena toda la cola de noticias cronológicamente por fecha.">
<polygon fill="white" stroke="black" points="106.5,-98.5 106.5,-128.5 228.5,-128.5 228.5,-98.5 106.5,-98.5"/>
<text text-anchor="start" x="114.5" y="-116.5" font-family="Helvetica,sans-Serif" font-size="10.00">ColaPrioridadNoticias</text>
<text text-anchor="middle" x="167.5" y="-105.5" font-family="Helvetica,sans-Serif" font-size="10.00">::ordenarPorFecha</text>
</a>
</g>
</g>
<!-- Node1&#45;&gt;Node38 -->
<g id="edge42" class="edge">
<title>Node1&#45;&gt;Node38</title>
<path fill="none" stroke="midnightblue" d="M21.73,-727.95C23.62,-654.78 37.21,-184.69 77,-137.5 82.32,-131.19 89.11,-126.44 96.56,-122.89"/>
<polygon fill="midnightblue" stroke="midnightblue" points="98.3,-125.96 106.29,-118.99 95.7,-119.46 98.3,-125.96"/>
</g>
<!-- Node39 -->
<g id="node39" class="node">
<title>Node39</title>
<g id="a_node39"><a xlink:href="classColaPrioridadNoticias.html#a3db4934bf16a4b593a39f23876a3f158" target="_top" xlink:title="Calcula el promedio del impacto de todas las noticias en la cola.">
<polygon fill="white" stroke="black" points="106.5,-49.5 106.5,-79.5 228.5,-79.5 228.5,-49.5 106.5,-49.5"/>
<text text-anchor="start" x="114.5" y="-67.5" font-family="Helvetica,sans-Serif" font-size="10.00">ColaPrioridadNoticias</text>
<text text-anchor="middle" x="167.5" y="-56.5" font-family="Helvetica,sans-Serif" font-size="10.00">::promedioImpacto</text>
</a>
</g>
</g>
<!-- Node1&#45;&gt;Node39 -->
<g id="edge43" class="edge">
<title>Node1&#45;&gt;Node39</title>
<path fill="none" stroke="midnightblue" d="M21.67,-727.67C23.09,-650.2 34.08,-139.77 77,-88.5 82.3,-82.17 89.07,-77.41 96.52,-73.85"/>
<polygon fill="midnightblue" stroke="midnightblue" points="98.26,-76.92 106.24,-69.95 95.66,-70.43 98.26,-76.92"/>
</g>
<!-- Node40 -->
<g id="node40" class="node">
<title>Node40</title>
<g id="a_node40"><a xlink:href="classMultilistaPrecio.html#aab95a547304a1d3168a6c1916ea3b757" target="_top" xlink:title="Calcula el promedio móvil de los últimos &#39;dias&#39; precios.">
<polygon fill="white" stroke="black" points="309.5,-1135.5 309.5,-1165.5 454.5,-1165.5 454.5,-1135.5 309.5,-1135.5"/>
<text text-anchor="start" x="317.5" y="-1153.5" font-family="Helvetica,sans-Serif" font-size="10.00">MultilistaPrecio::promedio</text>
<text text-anchor="middle" x="382" y="-1142.5" font-family="Helvetica,sans-Serif" font-size="10.00">Movil</text>
</a>
</g>
</g>
<!-- Node1&#45;&gt;Node40 -->
<g id="edge44" class="edge">
<title>Node1&#45;&gt;Node40</title>
<path fill="none" stroke="midnightblue" d="M21.26,-747.33C20.13,-803.42 17.57,-1082.31 77,-1136.5 108.34,-1165.07 219.93,-1163.32 298.79,-1158.03"/>
<polygon fill="midnightblue" stroke="midnightblue" points="299.47,-1161.49 309.2,-1157.3 298.98,-1154.51 299.47,-1161.49"/>
</g>
<!-- Node41 -->
<g id="node41" class="node">
<title>Node41</title>
<g id="a_node41"><a xlink:href="classABBEmpresas.html#a0c1aa570634d14b5cebac4cbb4ddd184" target="_top" xlink:title="Calcula el promedio del precio actual de las empresas de un sector.">
<polygon fill="white" stroke="black" points="84,-0.5 84,-30.5 251,-30.5 251,-0.5 84,-0.5"/>
<text text-anchor="start" x="92" y="-18.5" font-family="Helvetica,sans-Serif" font-size="10.00">ABBEmpresas::promedioPrecio</text>
<text text-anchor="middle" x="167.5" y="-7.5" font-family="Helvetica,sans-Serif" font-size="10.00">PorSector</text>
</a>
</g>
</g>
<!-- Node1&#45;&gt;Node41 -->
<g id="edge45" class="edge">
<title>Node1&#45;&gt;Node41</title>
<path fill="none" stroke="midnightblue" d="M21.6,-727.96C22.56,-648.28 30.83,-94.98 77,-39.5 77.61,-38.77 78.24,-38.06 78.88,-37.37"/>
<polygon fill="midnightblue" stroke="midnightblue" points="81.23,-39.96 86.45,-30.74 76.62,-34.7 81.23,-39.96"/>
</g>
<!-- Node42 -->
<g id="node42" class="node">
<title>Node42</title>
<g id="a_node42"><a xlink:href="classPortafolio.html#ae6d06c70b6052cd798b31b002509e346" target="_top" xlink:title=" ">
<polygon fill="white" stroke="black" points="84,-1185 84,-1204 251,-1204 251,-1185 84,-1185"/>
<text text-anchor="middle" x="167.5" y="-1192" font-family="Helvetica,sans-Serif" font-size="10.00">Portafolio::recomendarCompra</text>
</a>
</g>
</g>
<!-- Node1&#45;&gt;Node42 -->
<g id="edge46" class="edge">
<title>Node1&#45;&gt;Node42</title>
<path fill="none" stroke="midnightblue" d="M21.34,-747.2C20.56,-805.07 19.4,-1104.58 77,-1170.5 80.12,-1174.07 83.71,-1177.14 87.62,-1179.77"/>
<polygon fill="midnightblue" stroke="midnightblue" points="86.2,-1182.99 96.63,-1184.86 89.64,-1176.9 86.2,-1182.99"/>
</g>
<!-- Node3 -->
<g id="node3" class="node">
<title>Node3</title>
<g id="a_node3"><a xlink:href="classPila.html#ab0e03bdc398980d2fa802648a2eb7d8f" target="_top" xlink:title="Agrega un nuevo elemento a la cima de la pila.">
<polygon fill="white" stroke="black" points="514,-1465 514,-1484 578,-1484 578,-1465 514,-1465"/>
<text text-anchor="middle" x="546" y="-1472" font-family="Helvetica,sans-Serif" font-size="10.00">Pila::push</text>
</a>
</g>
</g>
<!-- Node2&#45;&gt;Node3 -->
<g id="edge2" class="edge">
<title>Node2&#45;&gt;Node3</title>
<path fill="none" stroke="midnightblue" d="M451.23,-1469.29C469.11,-1470.28 487.83,-1471.32 503.81,-1472.21"/>
<polygon fill="midnightblue" stroke="midnightblue" points="503.7,-1475.71 513.88,-1472.77 504.09,-1468.72 503.7,-1475.71"/>
</g>
<!-- Node11 -->
<g id="node11" class="node">
<title>Node11</title>
<g id="a_node11"><a xlink:href="classPila.html#a83f565e49638c5a19da1484aa3dc0d00" target="_top" xlink:title="Elimina la primera aparición de un valor específico.">
<polygon fill="white" stroke="black" points="341.5,-1399 341.5,-1418 422.5,-1418 422.5,-1399 341.5,-1399"/>
<text text-anchor="middle" x="382" y="-1406" font-family="Helvetica,sans-Serif" font-size="10.00">Pila::eliminar</text>
</a>
</g>
</g>
<!-- Node10&#45;&gt;Node11 -->
<g id="edge10" class="edge">
<title>Node10&#45;&gt;Node11</title>
<path fill="none" stroke="midnightblue" d="M238.08,-1408.5C268.46,-1408.5 303.39,-1408.5 331.11,-1408.5"/>
<polygon fill="midnightblue" stroke="midnightblue" points="331.36,-1412 341.36,-1408.5 331.36,-1405 331.36,-1412"/>
</g>
<!-- Node11&#45;&gt;Node3 -->
<g id="edge13" class="edge">
<title>Node11&#45;&gt;Node3</title>
<path fill="none" stroke="midnightblue" d="M406.56,-1418.1C434.35,-1429.42 480.73,-1448.32 512.07,-1461.09"/>
<polygon fill="midnightblue" stroke="midnightblue" points="511.1,-1464.47 521.68,-1465 513.74,-1457.98 511.1,-1464.47"/>
</g>
<!-- Node12 -->
<g id="node12" class="node">
<title>Node12</title>
<g id="a_node12"><a xlink:href="classPila.html#a15420d1c215037d91a6908f5b5533e8a" target="_top" xlink:title="Verifica si la pila está vacía.">
<polygon fill="white" stroke="black" points="506,-1351 506,-1370 586,-1370 586,-1351 506,-1351"/>
<text text-anchor="middle" x="546" y="-1358" font-family="Helvetica,sans-Serif" font-size="10.00">Pila::isEmpty</text>
</a>
</g>
</g>
<!-- Node11&#45;&gt;Node12 -->
<g id="edge11" class="edge">
<title>Node11&#45;&gt;Node12</title>
<path fill="none" stroke="midnightblue" d="M419.07,-1398.9C434.76,-1394.64 453.33,-1389.46 470,-1384.5 481.98,-1380.93 494.96,-1376.85 506.71,-1373.08"/>
<polygon fill="midnightblue" stroke="midnightblue" points="507.8,-1376.41 516.24,-1370.01 505.64,-1369.75 507.8,-1376.41"/>
</g>
<!-- Node13 -->
<g id="node13" class="node">
<title>Node13</title>
<g id="a_node13"><a xlink:href="classPila.html#a81d09f97e002ddd279bf43b93b0cb372" target="_top" xlink:title="Elimina el elemento en la cima de la pila.">
<polygon fill="white" stroke="black" points="516.5,-1427 516.5,-1446 575.5,-1446 575.5,-1427 516.5,-1427"/>
<text text-anchor="middle" x="546" y="-1434" font-family="Helvetica,sans-Serif" font-size="10.00">Pila::pop</text>
</a>
</g>
</g>
<!-- Node11&#45;&gt;Node13 -->
<g id="edge12" class="edge">
<title>Node11&#45;&gt;Node13</title>
<path fill="none" stroke="midnightblue" d="M422.63,-1415.35C448.15,-1419.76 481.16,-1425.47 506.47,-1429.84"/>
<polygon fill="midnightblue" stroke="midnightblue" points="506,-1433.31 516.45,-1431.56 507.19,-1426.41 506,-1433.31"/>
</g>
<!-- Node14 -->
<g id="node14" class="node">
<title>Node14</title>
<g id="a_node14"><a xlink:href="classPila.html#a4a411a01fdc6c1463a5010371d061f4e" target="_top" xlink:title="Devuelve el elemento en la cima de la pila sin eliminarlo.">
<polygon fill="white" stroke="black" points="518,-1389 518,-1408 574,-1408 574,-1389 518,-1389"/>
<text text-anchor="middle" x="546" y="-1396" font-family="Helvetica,sans-Serif" font-size="10.00">Pila::top</text>
</a>
</g>
</g>
<!-- Node11&#45;&gt;Node14 -->
<g id="edge14" class="edge">
<title>Node11&#45;&gt;Node14</title>
<path fill="none" stroke="midnightblue" d="M422.63,-1406.05C448.65,-1404.45 482.44,-1402.36 507.93,-1400.79"/>
<polygon fill="midnightblue" stroke="midnightblue" points="508.18,-1404.28 517.94,-1400.17 507.75,-1397.29 508.18,-1404.28"/>
</g>
<!-- Node23&#45;&gt;Node12 -->
<g id="edge25" class="edge">
<title>Node23&#45;&gt;Node12</title>
<path fill="none" stroke="midnightblue" d="M221.64,-1369.09C294.67,-1367.15 425.04,-1363.69 495.88,-1361.8"/>
<polygon fill="midnightblue" stroke="midnightblue" points="495.99,-1365.3 505.89,-1361.54 495.8,-1358.31 495.99,-1365.3"/>
</g>
<!-- Node24 -->
<g id="node24" class="node">
<title>Node24</title>
<g id="a_node24"><a xlink:href="classPila.html#a1ce13b01a65f2971c233ebeff202268f" target="_top" xlink:title="Muestra el contenido completo de la pila.">
<polygon fill="white" stroke="black" points="340.5,-1323 340.5,-1342 423.5,-1342 423.5,-1323 340.5,-1323"/>
<text text-anchor="middle" x="382" y="-1330" font-family="Helvetica,sans-Serif" font-size="10.00">Pila::imprimir</text>
</a>
</g>
</g>
<!-- Node23&#45;&gt;Node24 -->
<g id="edge24" class="edge">
<title>Node23&#45;&gt;Node24</title>
<path fill="none" stroke="midnightblue" d="M221.57,-1361.01C254.89,-1355.05 297.59,-1347.42 330.42,-1341.55"/>
<polygon fill="midnightblue" stroke="midnightblue" points="331.04,-1344.99 340.27,-1339.78 329.81,-1338.1 331.04,-1344.99"/>
</g>
<!-- Node26&#45;&gt;Node5 -->
<g id="edge28" class="edge">
<title>Node26&#45;&gt;Node5</title>
<path fill="none" stroke="midnightblue" d="M244.02,-1240.28C258.46,-1240.62 273.73,-1240.98 288.63,-1241.33"/>
<polygon fill="midnightblue" stroke="midnightblue" points="288.79,-1244.83 298.87,-1241.57 288.96,-1237.83 288.79,-1244.83"/>
</g>
<!-- Node27 -->
<g id="node27" class="node">
<title>Node27</title>
<g id="a_node27"><a xlink:href="classColaPrioridadNoticias.html#a9c3a7f5944aa0f85f3ebf69c1db5eaf7" target="_top" xlink:title="Llena un vector con punteros a todas las noticias en la cola (en orden actual).">
<polygon fill="white" stroke="black" points="321,-1184.5 321,-1214.5 443,-1214.5 443,-1184.5 321,-1184.5"/>
<text text-anchor="start" x="329" y="-1202.5" font-family="Helvetica,sans-Serif" font-size="10.00">ColaPrioridadNoticias</text>
<text text-anchor="middle" x="382" y="-1191.5" font-family="Helvetica,sans-Serif" font-size="10.00">::obtenerNoticias</text>
</a>
</g>
</g>
<!-- Node26&#45;&gt;Node27 -->
<g id="edge29" class="edge">
<title>Node26&#45;&gt;Node27</title>
<path fill="none" stroke="midnightblue" d="M244.02,-1224.64C265.75,-1220.65 289.35,-1216.32 310.75,-1212.39"/>
<polygon fill="midnightblue" stroke="midnightblue" points="311.53,-1215.81 320.73,-1210.56 310.27,-1208.92 311.53,-1215.81"/>
</g>
<!-- Node28&#45;&gt;Node27 -->
<g id="edge32" class="edge">
<title>Node28&#45;&gt;Node27</title>
<path fill="none" stroke="midnightblue" d="M194.74,-1127.58C219.67,-1141.44 258.5,-1161.85 294,-1175.5 299.43,-1177.59 305.12,-1179.58 310.88,-1181.45"/>
<polygon fill="midnightblue" stroke="midnightblue" points="310.01,-1184.85 320.6,-1184.49 312.1,-1178.17 310.01,-1184.85"/>
</g>
<!-- Node28&#45;&gt;Node29 -->
<g id="edge31" class="edge">
<title>Node28&#45;&gt;Node29</title>
<path fill="none" stroke="midnightblue" d="M240.74,-1104C254.62,-1102.37 269.37,-1100.63 283.89,-1098.92"/>
<polygon fill="midnightblue" stroke="midnightblue" points="284.37,-1102.39 293.89,-1097.75 283.55,-1095.44 284.37,-1102.39"/>
</g>
<!-- Node42&#45;&gt;Node5 -->
<g id="edge47" class="edge">
<title>Node42&#45;&gt;Node5</title>
<path fill="none" stroke="midnightblue" d="M213.22,-1204.02C227.56,-1207.2 243.48,-1210.86 258,-1214.5 274.11,-1218.53 277.88,-1220.5 294,-1224.5 304.01,-1226.98 314.7,-1229.46 325.05,-1231.77"/>
<polygon fill="midnightblue" stroke="midnightblue" points="324.32,-1235.19 334.83,-1233.92 325.82,-1228.35 324.32,-1235.19"/>
</g>
<!-- Node42&#45;&gt;Node27 -->
<g id="edge48" class="edge">
<title>Node42&#45;&gt;Node27</title>
<path fill="none" stroke="midnightblue" d="M251.27,-1196.45C270.92,-1196.91 291.71,-1197.4 310.75,-1197.85"/>
<polygon fill="midnightblue" stroke="midnightblue" points="310.75,-1201.35 320.83,-1198.08 310.91,-1194.35 310.75,-1201.35"/>
</g>
<!-- Node42&#45;&gt;Node40 -->
<g id="edge49" class="edge">
<title>Node42&#45;&gt;Node40</title>
<path fill="none" stroke="midnightblue" d="M214.61,-1184.95C239.4,-1179.82 270.69,-1173.34 299.44,-1167.39"/>
<polygon fill="midnightblue" stroke="midnightblue" points="300.4,-1170.76 309.49,-1165.31 298.98,-1163.91 300.4,-1170.76"/>
</g>
</g>
</svg>
