<?xml version="1.0" encoding="UTF-8" standalone="no"?>
<!DOCTYPE svg PUBLIC "-//W3C//DTD SVG 1.1//EN"
 "http://www.w3.org/Graphics/SVG/1.1/DTD/svg11.dtd">
<!-- Generated by graphviz version 2.43.0 (0)
 -->
<!-- Title: empresa.h Pages: 1 -->
<svg width="325pt" height="84pt"
 viewBox="0.00 0.00 325.00 84.00" xmlns="http://www.w3.org/2000/svg" xmlns:xlink="http://www.w3.org/1999/xlink">
<g id="graph0" class="graph" transform="scale(1 1) rotate(0) translate(4 80)">
<title>empresa.h</title>
<polygon fill="white" stroke="transparent" points="-4,4 -4,-80 321,-80 321,4 -4,4"/>
<!-- Node1 -->
<g id="node1" class="node">
<title>Node1</title>
<g id="a_node1"><a xlink:title="Define las estructuras y clases para la gestión de empresas y sus precios históricos.">
<polygon fill="#bfbfbf" stroke="black" points="130,-56.5 130,-75.5 198,-75.5 198,-56.5 130,-56.5"/>
<text text-anchor="middle" x="164" y="-63.5" font-family="Helvetica,sans-Serif" font-size="10.00">empresa.h</text>
</a>
</g>
</g>
<!-- Node2 -->
<g id="node2" class="node">
<title>Node2</title>
<g id="a_node2"><a xlink:title=" ">
<polygon fill="white" stroke="#bfbfbf" points="0,-0.5 0,-19.5 60,-19.5 60,-0.5 0,-0.5"/>
<text text-anchor="middle" x="30" y="-7.5" font-family="Helvetica,sans-Serif" font-size="10.00">iostream</text>
</a>
</g>
</g>
<!-- Node1&#45;&gt;Node2 -->
<g id="edge1" class="edge">
<title>Node1&#45;&gt;Node2</title>
<path fill="none" stroke="midnightblue" d="M142.77,-56.44C120.62,-47.52 85.68,-33.44 60.56,-23.32"/>
<polygon fill="midnightblue" stroke="midnightblue" points="61.72,-20.01 51.13,-19.52 59.1,-26.5 61.72,-20.01"/>
</g>
<!-- Node3 -->
<g id="node3" class="node">
<title>Node3</title>
<g id="a_node3"><a xlink:title=" ">
<polygon fill="white" stroke="#bfbfbf" points="78,-0.5 78,-19.5 122,-19.5 122,-0.5 78,-0.5"/>
<text text-anchor="middle" x="100" y="-7.5" font-family="Helvetica,sans-Serif" font-size="10.00">string</text>
</a>
</g>
</g>
<!-- Node1&#45;&gt;Node3 -->
<g id="edge2" class="edge">
<title>Node1&#45;&gt;Node3</title>
<path fill="none" stroke="midnightblue" d="M153.72,-56.32C144.16,-48.26 129.72,-36.08 118.22,-26.37"/>
<polygon fill="midnightblue" stroke="midnightblue" points="120.37,-23.61 110.47,-19.83 115.86,-28.96 120.37,-23.61"/>
</g>
<!-- Node4 -->
<g id="node4" class="node">
<title>Node4</title>
<g id="a_node4"><a xlink:title=" ">
<polygon fill="white" stroke="#bfbfbf" points="140.5,-0.5 140.5,-19.5 187.5,-19.5 187.5,-0.5 140.5,-0.5"/>
<text text-anchor="middle" x="164" y="-7.5" font-family="Helvetica,sans-Serif" font-size="10.00">vector</text>
</a>
</g>
</g>
<!-- Node1&#45;&gt;Node4 -->
<g id="edge3" class="edge">
<title>Node1&#45;&gt;Node4</title>
<path fill="none" stroke="midnightblue" d="M164,-56.08C164,-49.01 164,-38.86 164,-29.99"/>
<polygon fill="midnightblue" stroke="midnightblue" points="167.5,-29.75 164,-19.75 160.5,-29.75 167.5,-29.75"/>
</g>
<!-- Node5 -->
<g id="node5" class="node">
<title>Node5</title>
<g id="a_node5"><a xlink:title=" ">
<polygon fill="white" stroke="#bfbfbf" points="205.5,-0.5 205.5,-19.5 254.5,-19.5 254.5,-0.5 205.5,-0.5"/>
<text text-anchor="middle" x="230" y="-7.5" font-family="Helvetica,sans-Serif" font-size="10.00">cstdlib</text>
</a>
</g>
</g>
<!-- Node1&#45;&gt;Node5 -->
<g id="edge4" class="edge">
<title>Node1&#45;&gt;Node5</title>
<path fill="none" stroke="midnightblue" d="M174.6,-56.32C184.46,-48.26 199.35,-36.08 211.22,-26.37"/>
<polygon fill="midnightblue" stroke="midnightblue" points="213.68,-28.88 219.2,-19.83 209.25,-23.46 213.68,-28.88"/>
</g>
<!-- Node6 -->
<g id="node6" class="node">
<title>Node6</title>
<g id="a_node6"><a xlink:title=" ">
<polygon fill="white" stroke="#bfbfbf" points="273,-0.5 273,-19.5 317,-19.5 317,-0.5 273,-0.5"/>
<text text-anchor="middle" x="295" y="-7.5" font-family="Helvetica,sans-Serif" font-size="10.00">ctime</text>
</a>
</g>
</g>
<!-- Node1&#45;&gt;Node6 -->
<g id="edge5" class="edge">
<title>Node1&#45;&gt;Node6</title>
<path fill="none" stroke="midnightblue" d="M184.76,-56.44C206.32,-47.56 240.26,-33.56 264.79,-23.45"/>
<polygon fill="midnightblue" stroke="midnightblue" points="266.43,-26.56 274.34,-19.52 263.76,-20.09 266.43,-26.56"/>
</g>
</g>
</svg>
