<?xml version="1.0" encoding="UTF-8" standalone="no"?>
<!DOCTYPE svg PUBLIC "-//W3C//DTD SVG 1.1//EN"
 "http://www.w3.org/Graphics/SVG/1.1/DTD/svg11.dtd">
<!-- Generated by graphviz version 2.43.0 (0)
 -->
<!-- Title: empresa.h Pages: 1 -->
<svg width="144pt" height="196pt"
 viewBox="0.00 0.00 144.00 196.00" xmlns="http://www.w3.org/2000/svg" xmlns:xlink="http://www.w3.org/1999/xlink">
<g id="graph0" class="graph" transform="scale(1 1) rotate(0) translate(4 192)">
<title>empresa.h</title>
<polygon fill="white" stroke="transparent" points="-4,4 -4,-192 140,-192 140,4 -4,4"/>
<!-- Node1 -->
<g id="node1" class="node">
<title>Node1</title>
<g id="a_node1"><a xlink:title="Define las estructuras y clases para la gestión de empresas y sus precios históricos.">
<polygon fill="#bfbfbf" stroke="black" points="53.5,-168.5 53.5,-187.5 121.5,-187.5 121.5,-168.5 53.5,-168.5"/>
<text text-anchor="middle" x="87.5" y="-175.5" font-family="Helvetica,sans-Serif" font-size="10.00">empresa.h</text>
</a>
</g>
</g>
<!-- Node2 -->
<g id="node2" class="node">
<title>Node2</title>
<g id="a_node2"><a xlink:href="noticia_8h.html" target="_top" xlink:title="Define la estructura Noticia y la clase ColaPrioridadNoticias para la gestión de noticias financieras...">
<polygon fill="white" stroke="black" points="58,-112.5 58,-131.5 117,-131.5 117,-112.5 58,-112.5"/>
<text text-anchor="middle" x="87.5" y="-119.5" font-family="Helvetica,sans-Serif" font-size="10.00">noticia.h</text>
</a>
</g>
</g>
<!-- Node1&#45;&gt;Node2 -->
<g id="edge1" class="edge">
<title>Node1&#45;&gt;Node2</title>
<path fill="none" stroke="midnightblue" d="M87.5,-157.8C87.5,-148.91 87.5,-138.78 87.5,-131.75"/>
<polygon fill="midnightblue" stroke="midnightblue" points="84,-158.08 87.5,-168.08 91,-158.08 84,-158.08"/>
</g>
<!-- Node3 -->
<g id="node3" class="node">
<title>Node3</title>
<g id="a_node3"><a xlink:href="portafolio_8h.html" target="_top" xlink:title="Define la clase Portafolio y la estructura de pila para gestionar activos de usuario.">
<polygon fill="white" stroke="black" points="0,-56.5 0,-75.5 73,-75.5 73,-56.5 0,-56.5"/>
<text text-anchor="middle" x="36.5" y="-63.5" font-family="Helvetica,sans-Serif" font-size="10.00">portafolio.h</text>
</a>
</g>
</g>
<!-- Node1&#45;&gt;Node3 -->
<g id="edge5" class="edge">
<title>Node1&#45;&gt;Node3</title>
<path fill="none" stroke="midnightblue" d="M70.13,-161.25C62.34,-153.24 53.74,-142.9 48.5,-132 39.55,-113.39 37.25,-88.81 36.68,-75.86"/>
<polygon fill="midnightblue" stroke="midnightblue" points="67.89,-163.95 77.5,-168.42 72.77,-158.94 67.89,-163.95"/>
</g>
<!-- Node4 -->
<g id="node4" class="node">
<title>Node4</title>
<g id="a_node4"><a xlink:href="codigo_8cpp.html" target="_top" xlink:title="Archivo principal que implementa el menú y la lógica de interacción del sistema de gestión de accione...">
<polygon fill="white" stroke="black" points="67,-0.5 67,-19.5 136,-19.5 136,-0.5 67,-0.5"/>
<text text-anchor="middle" x="101.5" y="-7.5" font-family="Helvetica,sans-Serif" font-size="10.00">codigo.cpp</text>
</a>
</g>
</g>
<!-- Node1&#45;&gt;Node4 -->
<g id="edge6" class="edge">
<title>Node1&#45;&gt;Node4</title>
<path fill="none" stroke="midnightblue" d="M105.61,-161.24C113.31,-153.33 121.44,-143.09 125.5,-132 140.29,-91.57 117.06,-40.04 106.39,-19.76"/>
<polygon fill="midnightblue" stroke="midnightblue" points="103.03,-158.86 98.21,-168.3 107.86,-163.93 103.03,-158.86"/>
</g>
<!-- Node2&#45;&gt;Node3 -->
<g id="edge2" class="edge">
<title>Node2&#45;&gt;Node3</title>
<path fill="none" stroke="midnightblue" d="M72.12,-104.72C63.13,-95.2 52.14,-83.56 44.76,-75.75"/>
<polygon fill="midnightblue" stroke="midnightblue" points="69.67,-107.22 79.08,-112.08 74.76,-102.41 69.67,-107.22"/>
</g>
<!-- Node2&#45;&gt;Node4 -->
<g id="edge4" class="edge">
<title>Node2&#45;&gt;Node4</title>
<path fill="none" stroke="midnightblue" d="M89.87,-102.35C92.94,-78.25 98.15,-37.31 100.41,-19.59"/>
<polygon fill="midnightblue" stroke="midnightblue" points="86.39,-102.01 88.6,-112.37 93.33,-102.89 86.39,-102.01"/>
</g>
<!-- Node3&#45;&gt;Node4 -->
<g id="edge3" class="edge">
<title>Node3&#45;&gt;Node4</title>
<path fill="none" stroke="midnightblue" d="M54.77,-49.82C66.42,-40.15 81.1,-27.95 90.87,-19.83"/>
<polygon fill="midnightblue" stroke="midnightblue" points="52.4,-47.24 46.94,-56.32 56.87,-52.63 52.4,-47.24"/>
</g>
</g>
</svg>
