<?xml version="1.0" encoding="UTF-8" standalone="no"?>
<!DOCTYPE svg PUBLIC "-//W3C//DTD SVG 1.1//EN"
 "http://www.w3.org/Graphics/SVG/1.1/DTD/svg11.dtd">
<!-- Generated by graphviz version 2.43.0 (0)
 -->
<!-- Title: noticia.h Pages: 1 -->
<svg width="111pt" height="140pt"
 viewBox="0.00 0.00 111.00 140.00" xmlns="http://www.w3.org/2000/svg" xmlns:xlink="http://www.w3.org/1999/xlink">
<g id="graph0" class="graph" transform="scale(1 1) rotate(0) translate(4 136)">
<title>noticia.h</title>
<polygon fill="white" stroke="transparent" points="-4,4 -4,-136 107,-136 107,4 -4,4"/>
<!-- Node1 -->
<g id="node1" class="node">
<title>Node1</title>
<g id="a_node1"><a xlink:title="Define la estructura Noticia y la clase ColaPrioridadNoticias para la gestión de noticias financieras...">
<polygon fill="#bfbfbf" stroke="black" points="39,-112.5 39,-131.5 98,-131.5 98,-112.5 39,-112.5"/>
<text text-anchor="middle" x="68.5" y="-119.5" font-family="Helvetica,sans-Serif" font-size="10.00">noticia.h</text>
</a>
</g>
</g>
<!-- Node2 -->
<g id="node2" class="node">
<title>Node2</title>
<g id="a_node2"><a xlink:href="portafolio_8h.html" target="_top" xlink:title="Define la clase Portafolio y la estructura de pila para gestionar activos de usuario.">
<polygon fill="white" stroke="black" points="0,-56.5 0,-75.5 73,-75.5 73,-56.5 0,-56.5"/>
<text text-anchor="middle" x="36.5" y="-63.5" font-family="Helvetica,sans-Serif" font-size="10.00">portafolio.h</text>
</a>
</g>
</g>
<!-- Node1&#45;&gt;Node2 -->
<g id="edge1" class="edge">
<title>Node1&#45;&gt;Node2</title>
<path fill="none" stroke="midnightblue" d="M58,-103.27C52.53,-94.05 46.08,-83.17 41.69,-75.75"/>
<polygon fill="midnightblue" stroke="midnightblue" points="55.11,-105.26 63.22,-112.08 61.13,-101.7 55.11,-105.26"/>
</g>
<!-- Node3 -->
<g id="node3" class="node">
<title>Node3</title>
<g id="a_node3"><a xlink:href="codigo_8cpp.html" target="_top" xlink:title="Archivo principal que implementa el menú y la lógica de interacción del sistema de gestión de accione...">
<polygon fill="white" stroke="black" points="34,-0.5 34,-19.5 103,-19.5 103,-0.5 34,-0.5"/>
<text text-anchor="middle" x="68.5" y="-7.5" font-family="Helvetica,sans-Serif" font-size="10.00">codigo.cpp</text>
</a>
</g>
</g>
<!-- Node1&#45;&gt;Node3 -->
<g id="edge3" class="edge">
<title>Node1&#45;&gt;Node3</title>
<path fill="none" stroke="midnightblue" d="M76.1,-102.64C80.57,-89.68 84.91,-71.87 82.5,-56 80.53,-43.06 75.56,-28.72 72.1,-19.78"/>
<polygon fill="midnightblue" stroke="midnightblue" points="72.74,-101.64 72.47,-112.23 79.28,-104.12 72.74,-101.64"/>
</g>
<!-- Node2&#45;&gt;Node3 -->
<g id="edge2" class="edge">
<title>Node2&#45;&gt;Node3</title>
<path fill="none" stroke="midnightblue" d="M47,-47.27C52.47,-38.05 58.92,-27.17 63.31,-19.75"/>
<polygon fill="midnightblue" stroke="midnightblue" points="43.87,-45.7 41.78,-56.08 49.89,-49.26 43.87,-45.7"/>
</g>
</g>
</svg>
