<?xml version="1.0" encoding="UTF-8" standalone="no"?>
<!DOCTYPE svg PUBLIC "-//W3C//DTD SVG 1.1//EN"
 "http://www.w3.org/Graphics/SVG/1.1/DTD/svg11.dtd">
<!-- Generated by graphviz version 2.43.0 (0)
 -->
<!-- Title: mostrarImpactoNoticiasEnAcciones Pages: 1 -->
<svg width="366pt" height="88pt"
 viewBox="0.00 0.00 366.00 88.00" xmlns="http://www.w3.org/2000/svg" xmlns:xlink="http://www.w3.org/1999/xlink">
<g id="graph0" class="graph" transform="scale(1 1) rotate(0) translate(4 84)">
<title>mostrarImpactoNoticiasEnAcciones</title>
<polygon fill="white" stroke="transparent" points="-4,4 -4,-84 362,-84 362,4 -4,4"/>
<!-- Node1 -->
<g id="node1" class="node">
<title>Node1</title>
<g id="a_node1"><a xlink:title="Muestra el impacto de las noticias en las acciones de las empresas.">
<polygon fill="#bfbfbf" stroke="black" points="0,-24.5 0,-54.5 146,-54.5 146,-24.5 0,-24.5"/>
<text text-anchor="start" x="8" y="-42.5" font-family="Helvetica,sans-Serif" font-size="10.00">mostrarImpactoNoticiasEn</text>
<text text-anchor="middle" x="73" y="-31.5" font-family="Helvetica,sans-Serif" font-size="10.00">Acciones</text>
</a>
</g>
</g>
<!-- Node2 -->
<g id="node2" class="node">
<title>Node2</title>
<g id="a_node2"><a xlink:href="classABBEmpresas.html#a6ccc64afaf894799cf66b3e46db34674" target="_top" xlink:title="Devuelve una lista ordenada de empresas (inorden).">
<polygon fill="white" stroke="black" points="182,-49.5 182,-79.5 358,-79.5 358,-49.5 182,-49.5"/>
<text text-anchor="start" x="190" y="-67.5" font-family="Helvetica,sans-Serif" font-size="10.00">ABBEmpresas::obtenerEmpresas</text>
<text text-anchor="middle" x="270" y="-56.5" font-family="Helvetica,sans-Serif" font-size="10.00">Ordenadas</text>
</a>
</g>
</g>
<!-- Node1&#45;&gt;Node2 -->
<g id="edge1" class="edge">
<title>Node1&#45;&gt;Node2</title>
<path fill="none" stroke="midnightblue" d="M146.06,-48.74C154.4,-49.81 163.01,-50.91 171.62,-52.02"/>
<polygon fill="midnightblue" stroke="midnightblue" points="171.35,-55.51 181.71,-53.31 172.24,-48.57 171.35,-55.51"/>
</g>
<!-- Node3 -->
<g id="node3" class="node">
<title>Node3</title>
<g id="a_node3"><a xlink:href="classColaPrioridadNoticias.html#a9c3a7f5944aa0f85f3ebf69c1db5eaf7" target="_top" xlink:title="Llena un vector con punteros a todas las noticias en la cola (en orden actual).">
<polygon fill="white" stroke="black" points="209,-0.5 209,-30.5 331,-30.5 331,-0.5 209,-0.5"/>
<text text-anchor="start" x="217" y="-18.5" font-family="Helvetica,sans-Serif" font-size="10.00">ColaPrioridadNoticias</text>
<text text-anchor="middle" x="270" y="-7.5" font-family="Helvetica,sans-Serif" font-size="10.00">::obtenerNoticias</text>
</a>
</g>
</g>
<!-- Node1&#45;&gt;Node3 -->
<g id="edge2" class="edge">
<title>Node1&#45;&gt;Node3</title>
<path fill="none" stroke="midnightblue" d="M146.06,-30.63C163.29,-28.51 181.66,-26.25 198.81,-24.14"/>
<polygon fill="midnightblue" stroke="midnightblue" points="199.24,-27.61 208.74,-22.92 198.39,-20.66 199.24,-27.61"/>
</g>
</g>
</svg>
