<?xml version="1.0" encoding="UTF-8" standalone="no"?>
<!DOCTYPE svg PUBLIC "-//W3C//DTD SVG 1.1//EN"
 "http://www.w3.org/Graphics/SVG/1.1/DTD/svg11.dtd">
<!-- Generated by graphviz version 2.43.0 (0)
 -->
<!-- Title: Nodo Pages: 1 -->
<svg width="136pt" height="66pt"
 viewBox="0.00 0.00 136.00 66.00" xmlns="http://www.w3.org/2000/svg" xmlns:xlink="http://www.w3.org/1999/xlink">
<g id="graph0" class="graph" transform="scale(1 1) rotate(0) translate(4 62)">
<title>Nodo</title>
<polygon fill="white" stroke="transparent" points="-4,4 -4,-62 132,-62 132,4 -4,4"/>
<!-- Node1 -->
<g id="node1" class="node">
<title>Node1</title>
<g id="a_node1"><a xlink:title="Nodo simple para la implementación de una pila.">
<polygon fill="#bfbfbf" stroke="black" points="0,-0.5 0,-57.5 53,-57.5 53,-0.5 0,-0.5"/>
<text text-anchor="middle" x="26.5" y="-45.5" font-family="Helvetica,sans-Serif" font-size="10.00">Nodo</text>
<polyline fill="none" stroke="black" points="0,-38.5 53,-38.5 "/>
<text text-anchor="start" x="8" y="-26.5" font-family="Helvetica,sans-Serif" font-size="10.00">+ valor</text>
<polyline fill="none" stroke="black" points="0,-19.5 53,-19.5 "/>
<text text-anchor="middle" x="26.5" y="-7.5" font-family="Helvetica,sans-Serif" font-size="10.00"> </text>
</a>
</g>
</g>
<!-- Node1&#45;&gt;Node1 -->
<g id="edge1" class="edge">
<title>Node1&#45;&gt;Node1</title>
<path fill="none" stroke="#404040" d="M53.44,-39.49C63.11,-39.72 71,-36.22 71,-29 71,-25.28 68.9,-22.55 65.55,-20.8"/>
<polygon fill="none" stroke="#404040" points="65.23,-20.74 58.59,-23.56 53.44,-18.51 60.08,-15.7 65.23,-20.74"/>
<text text-anchor="middle" x="99.5" y="-26.5" font-family="Helvetica,sans-Serif" font-size="10.00"> +siguiente</text>
</g>
</g>
</svg>
