<?xml version="1.0" encoding="UTF-8" standalone="no"?>
<!DOCTYPE svg PUBLIC "-//W3C//DTD SVG 1.1//EN"
 "http://www.w3.org/Graphics/SVG/1.1/DTD/svg11.dtd">
<!-- Generated by graphviz version 2.43.0 (0)
 -->
<!-- Title: Portafolio Pages: 1 -->
<svg width="140pt" height="369pt"
 viewBox="0.00 0.00 140.00 369.00" xmlns="http://www.w3.org/2000/svg" xmlns:xlink="http://www.w3.org/1999/xlink">
<g id="graph0" class="graph" transform="scale(1 1) rotate(0) translate(4 365)">
<title>Portafolio</title>
<polygon fill="white" stroke="transparent" points="-4,4 -4,-365 136,-365 136,4 -4,4"/>
<!-- Node1 -->
<g id="node1" class="node">
<title>Node1</title>
<g id="a_node1"><a xlink:title=" ">
<polygon fill="#bfbfbf" stroke="black" points="0,-0.5 0,-134.5 132,-134.5 132,-0.5 0,-0.5"/>
<text text-anchor="middle" x="66" y="-122.5" font-family="Helvetica,sans-Serif" font-size="10.00">Portafolio</text>
<polyline fill="none" stroke="black" points="0,-115.5 132,-115.5 "/>
<text text-anchor="start" x="8" y="-103.5" font-family="Helvetica,sans-Serif" font-size="10.00">&#45; nombreUsuario</text>
<polyline fill="none" stroke="black" points="0,-96.5 132,-96.5 "/>
<text text-anchor="start" x="8" y="-84.5" font-family="Helvetica,sans-Serif" font-size="10.00">+ agregarActivo()</text>
<text text-anchor="start" x="8" y="-73.5" font-family="Helvetica,sans-Serif" font-size="10.00">+ eliminarActivo()</text>
<text text-anchor="start" x="8" y="-62.5" font-family="Helvetica,sans-Serif" font-size="10.00">+ mostrar()</text>
<text text-anchor="start" x="8" y="-51.5" font-family="Helvetica,sans-Serif" font-size="10.00">+ obtenerActivos()</text>
<text text-anchor="start" x="8" y="-40.5" font-family="Helvetica,sans-Serif" font-size="10.00">+ ordenarActivos()</text>
<text text-anchor="start" x="8" y="-29.5" font-family="Helvetica,sans-Serif" font-size="10.00">+ Portafolio()</text>
<text text-anchor="start" x="8" y="-18.5" font-family="Helvetica,sans-Serif" font-size="10.00">+ recomendarCompra()</text>
<text text-anchor="start" x="8" y="-7.5" font-family="Helvetica,sans-Serif" font-size="10.00">+ tieneActivo()</text>
</a>
</g>
</g>
<!-- Node2 -->
<g id="node2" class="node">
<title>Node2</title>
<g id="a_node2"><a xlink:href="classMiVector.html" target="_top" xlink:title=" ">
<polygon fill="white" stroke="black" points="11,-182.5 11,-360.5 121,-360.5 121,-182.5 11,-182.5"/>
<text text-anchor="middle" x="66" y="-348.5" font-family="Helvetica,sans-Serif" font-size="10.00">MiVector&lt; string &gt;</text>
<polyline fill="none" stroke="black" points="11,-341.5 121,-341.5 "/>
<text text-anchor="start" x="19" y="-329.5" font-family="Helvetica,sans-Serif" font-size="10.00">&#45; cantidad</text>
<text text-anchor="start" x="19" y="-318.5" font-family="Helvetica,sans-Serif" font-size="10.00">&#45; capacidad</text>
<text text-anchor="start" x="19" y="-307.5" font-family="Helvetica,sans-Serif" font-size="10.00">&#45; datos</text>
<polyline fill="none" stroke="black" points="11,-300.5 121,-300.5 "/>
<text text-anchor="start" x="19" y="-288.5" font-family="Helvetica,sans-Serif" font-size="10.00">+ eliminar()</text>
<text text-anchor="start" x="19" y="-277.5" font-family="Helvetica,sans-Serif" font-size="10.00">+ empty()</text>
<text text-anchor="start" x="19" y="-266.5" font-family="Helvetica,sans-Serif" font-size="10.00">+ miPop()</text>
<text text-anchor="start" x="19" y="-255.5" font-family="Helvetica,sans-Serif" font-size="10.00">+ miPush()</text>
<text text-anchor="start" x="19" y="-244.5" font-family="Helvetica,sans-Serif" font-size="10.00">+ MiVector()</text>
<text text-anchor="start" x="19" y="-233.5" font-family="Helvetica,sans-Serif" font-size="10.00">+ operator[]()</text>
<text text-anchor="start" x="19" y="-222.5" font-family="Helvetica,sans-Serif" font-size="10.00">+ operator[]()</text>
<text text-anchor="start" x="19" y="-211.5" font-family="Helvetica,sans-Serif" font-size="10.00">+ ordenar()</text>
<text text-anchor="start" x="19" y="-200.5" font-family="Helvetica,sans-Serif" font-size="10.00">+ size()</text>
<text text-anchor="start" x="19" y="-189.5" font-family="Helvetica,sans-Serif" font-size="10.00">+ ~MiVector()</text>
</a>
</g>
</g>
<!-- Node2&#45;&gt;Node1 -->
<g id="edge1" class="edge">
<title>Node2&#45;&gt;Node1</title>
<path fill="none" stroke="#404040" d="M66,-182.49C66,-170.57 66,-158.41 66,-146.68"/>
<polygon fill="none" stroke="#404040" points="66,-146.65 62,-140.65 66,-134.65 70,-140.65 66,-146.65"/>
<text text-anchor="middle" x="87.5" y="-156" font-family="Helvetica,sans-Serif" font-size="10.00"> &#45;activos</text>
</g>
</g>
</svg>
