<?xml version="1.0" encoding="UTF-8" standalone="no"?>
<!DOCTYPE svg PUBLIC "-//W3C//DTD SVG 1.1//EN"
 "http://www.w3.org/Graphics/SVG/1.1/DTD/svg11.dtd">
<!-- Generated by graphviz version 2.43.0 (0)
 -->
<!-- Title: ABBEmpresas Pages: 1 -->
<svg width="221pt" height="529pt"
 viewBox="0.00 0.00 220.50 529.00" xmlns="http://www.w3.org/2000/svg" xmlns:xlink="http://www.w3.org/1999/xlink">
<g id="graph0" class="graph" transform="scale(1 1) rotate(0) translate(4 525)">
<title>ABBEmpresas</title>
<polygon fill="white" stroke="transparent" points="-4,4 -4,-525 216.5,-525 216.5,4 -4,4"/>
<!-- Node1 -->
<g id="node1" class="node">
<title>Node1</title>
<g id="a_node1"><a xlink:title="Árbol binario de búsqueda (ABB) para gestionar empresas.">
<polygon fill="#bfbfbf" stroke="black" points="0,-0.5 0,-244.5 192,-244.5 192,-0.5 0,-0.5"/>
<text text-anchor="middle" x="96" y="-232.5" font-family="Helvetica,sans-Serif" font-size="10.00">ABBEmpresas</text>
<polyline fill="none" stroke="black" points="0,-225.5 192,-225.5 "/>
<text text-anchor="middle" x="96" y="-213.5" font-family="Helvetica,sans-Serif" font-size="10.00"> </text>
<polyline fill="none" stroke="black" points="0,-206.5 192,-206.5 "/>
<text text-anchor="start" x="8" y="-194.5" font-family="Helvetica,sans-Serif" font-size="10.00">+ ABBEmpresas()</text>
<text text-anchor="start" x="8" y="-183.5" font-family="Helvetica,sans-Serif" font-size="10.00">+ agregarPrecio()</text>
<text text-anchor="start" x="8" y="-172.5" font-family="Helvetica,sans-Serif" font-size="10.00">+ ajustarPreciosPorNoticia()</text>
<text text-anchor="start" x="8" y="-161.5" font-family="Helvetica,sans-Serif" font-size="10.00">+ ajustarPreciosPorNoticia()</text>
<text text-anchor="start" x="8" y="-150.5" font-family="Helvetica,sans-Serif" font-size="10.00">+ buscarEmpresa()</text>
<text text-anchor="start" x="8" y="-139.5" font-family="Helvetica,sans-Serif" font-size="10.00">+ buscarEmpresasPorRangoPrecio()</text>
<text text-anchor="start" x="8" y="-128.5" font-family="Helvetica,sans-Serif" font-size="10.00">+ imprimirEmpresa()</text>
<text text-anchor="start" x="8" y="-117.5" font-family="Helvetica,sans-Serif" font-size="10.00">+ imprimirEmpresas()</text>
<text text-anchor="start" x="8" y="-106.5" font-family="Helvetica,sans-Serif" font-size="10.00">+ imprimirEmpresas()</text>
<text text-anchor="start" x="8" y="-95.5" font-family="Helvetica,sans-Serif" font-size="10.00">+ imprimirEmpresasPorSector()</text>
<text text-anchor="start" x="8" y="-84.5" font-family="Helvetica,sans-Serif" font-size="10.00">y 7 más...</text>
<text text-anchor="start" x="8" y="-73.5" font-family="Helvetica,sans-Serif" font-size="10.00">+ merge()</text>
<text text-anchor="start" x="8" y="-62.5" font-family="Helvetica,sans-Serif" font-size="10.00">+ mergeSort()</text>
<text text-anchor="start" x="8" y="-51.5" font-family="Helvetica,sans-Serif" font-size="10.00">&#45; buscar()</text>
<text text-anchor="start" x="8" y="-40.5" font-family="Helvetica,sans-Serif" font-size="10.00">&#45; destruir()</text>
<text text-anchor="start" x="8" y="-29.5" font-family="Helvetica,sans-Serif" font-size="10.00">&#45; inicializarEmpresas()</text>
<text text-anchor="start" x="8" y="-18.5" font-family="Helvetica,sans-Serif" font-size="10.00">&#45; inorden()</text>
<text text-anchor="start" x="8" y="-7.5" font-family="Helvetica,sans-Serif" font-size="10.00">&#45; insertar()</text>
</a>
</g>
</g>
<!-- Node2 -->
<g id="node2" class="node">
<title>Node2</title>
<g id="a_node2"><a xlink:href="structEmpresa.html" target="_top" xlink:title="Nodo de ABB que representa una empresa.">
<polygon fill="white" stroke="black" points="51.5,-292.5 51.5,-382.5 140.5,-382.5 140.5,-292.5 51.5,-292.5"/>
<text text-anchor="middle" x="96" y="-370.5" font-family="Helvetica,sans-Serif" font-size="10.00">Empresa</text>
<polyline fill="none" stroke="black" points="51.5,-363.5 140.5,-363.5 "/>
<text text-anchor="start" x="59.5" y="-351.5" font-family="Helvetica,sans-Serif" font-size="10.00">+ nombre</text>
<text text-anchor="start" x="59.5" y="-340.5" font-family="Helvetica,sans-Serif" font-size="10.00">+ precioActual</text>
<text text-anchor="start" x="59.5" y="-329.5" font-family="Helvetica,sans-Serif" font-size="10.00">+ sector</text>
<text text-anchor="start" x="59.5" y="-318.5" font-family="Helvetica,sans-Serif" font-size="10.00">+ ticker</text>
<polyline fill="none" stroke="black" points="51.5,-311.5 140.5,-311.5 "/>
<text text-anchor="start" x="59.5" y="-299.5" font-family="Helvetica,sans-Serif" font-size="10.00">+ Empresa()</text>
</a>
</g>
</g>
<!-- Node2&#45;&gt;Node1 -->
<g id="edge1" class="edge">
<title>Node2&#45;&gt;Node1</title>
<path fill="none" stroke="#404040" d="M96,-292.37C96,-281.65 96,-269.64 96,-257.09"/>
<polygon fill="none" stroke="#404040" points="96,-256.92 92,-250.92 96,-244.92 100,-250.92 96,-256.92"/>
<text text-anchor="middle" x="108.5" y="-266" font-family="Helvetica,sans-Serif" font-size="10.00"> &#45;raiz</text>
</g>
<!-- Node2&#45;&gt;Node2 -->
<g id="edge2" class="edge">
<title>Node2&#45;&gt;Node2</title>
<path fill="none" stroke="#404040" d="M140.66,-349.97C150.95,-348.89 158.5,-344.74 158.5,-337.5 158.5,-333.54 156.24,-330.5 152.51,-328.39"/>
<polygon fill="none" stroke="#404040" points="152.21,-328.3 145.34,-330.52 140.66,-325.03 147.53,-322.82 152.21,-328.3"/>
<text text-anchor="middle" x="185.5" y="-340.5" font-family="Helvetica,sans-Serif" font-size="10.00"> +derecha</text>
<text text-anchor="middle" x="185.5" y="-329.5" font-family="Helvetica,sans-Serif" font-size="10.00">+izquierda</text>
</g>
<!-- Node3 -->
<g id="node3" class="node">
<title>Node3</title>
<g id="a_node3"><a xlink:href="classMultilistaPrecio.html" target="_top" xlink:title="Multilista para historial de precios de una acción.">
<polygon fill="white" stroke="red" points="40.5,-430.5 40.5,-520.5 151.5,-520.5 151.5,-430.5 40.5,-430.5"/>
<text text-anchor="middle" x="96" y="-508.5" font-family="Helvetica,sans-Serif" font-size="10.00">MultilistaPrecio</text>
<polyline fill="none" stroke="red" points="40.5,-501.5 151.5,-501.5 "/>
<text text-anchor="middle" x="96" y="-489.5" font-family="Helvetica,sans-Serif" font-size="10.00"> </text>
<polyline fill="none" stroke="red" points="40.5,-482.5 151.5,-482.5 "/>
<text text-anchor="start" x="48.5" y="-470.5" font-family="Helvetica,sans-Serif" font-size="10.00">+ agregarPrecio()</text>
<text text-anchor="start" x="48.5" y="-459.5" font-family="Helvetica,sans-Serif" font-size="10.00">+ imprimir()</text>
<text text-anchor="start" x="48.5" y="-448.5" font-family="Helvetica,sans-Serif" font-size="10.00">+ MultilistaPrecio()</text>
<text text-anchor="start" x="48.5" y="-437.5" font-family="Helvetica,sans-Serif" font-size="10.00">+ promedioMovil()</text>
</a>
</g>
</g>
<!-- Node3&#45;&gt;Node2 -->
<g id="edge3" class="edge">
<title>Node3&#45;&gt;Node2</title>
<path fill="none" stroke="#404040" d="M96,-430.34C96,-419.06 96,-406.78 96,-394.97"/>
<polygon fill="none" stroke="#404040" points="96,-394.9 92,-388.9 96,-382.9 100,-388.9 96,-394.9"/>
<text text-anchor="middle" x="139.5" y="-404" font-family="Helvetica,sans-Serif" font-size="10.00"> +historialPrecios</text>
</g>
</g>
</svg>
