<?xml version="1.0" encoding="UTF-8" standalone="no"?>
<!DOCTYPE svg PUBLIC "-//W3C//DTD SVG 1.1//EN"
 "http://www.w3.org/Graphics/SVG/1.1/DTD/svg11.dtd">
<!-- Generated by graphviz version 2.43.0 (0)
 -->
<!-- Title: MiVector::empty Pages: 1 -->
<svg width="361pt" height="66pt"
 viewBox="0.00 0.00 361.00 66.00" xmlns="http://www.w3.org/2000/svg" xmlns:xlink="http://www.w3.org/1999/xlink">
<g id="graph0" class="graph" transform="scale(1 1) rotate(0) translate(4 62)">
<title>MiVector::empty</title>
<polygon fill="white" stroke="transparent" points="-4,4 -4,-62 357,-62 357,4 -4,4"/>
<!-- Node1 -->
<g id="node1" class="node">
<title>Node1</title>
<g id="a_node1"><a xlink:title="Verifica si el vector está vacío.">
<polygon fill="#bfbfbf" stroke="black" points="256,-19.5 256,-38.5 353,-38.5 353,-19.5 256,-19.5"/>
<text text-anchor="middle" x="304.5" y="-26.5" font-family="Helvetica,sans-Serif" font-size="10.00">MiVector::empty</text>
</a>
</g>
</g>
<!-- Node2 -->
<g id="node2" class="node">
<title>Node2</title>
<g id="a_node2"><a xlink:href="classPortafolio.html#a0fd1f6dd832435c9c7180a2701058748" target="_top" xlink:title=" ">
<polygon fill="white" stroke="black" points="94.5,-38.5 94.5,-57.5 202.5,-57.5 202.5,-38.5 94.5,-38.5"/>
<text text-anchor="middle" x="148.5" y="-45.5" font-family="Helvetica,sans-Serif" font-size="10.00">Portafolio::mostrar</text>
</a>
</g>
</g>
<!-- Node1&#45;&gt;Node2 -->
<g id="edge1" class="edge">
<title>Node1&#45;&gt;Node2</title>
<path fill="none" stroke="midnightblue" d="M245.57,-36.15C231.51,-37.88 216.55,-39.73 202.72,-41.43"/>
<polygon fill="midnightblue" stroke="midnightblue" points="246.12,-39.61 255.62,-34.91 245.26,-32.66 246.12,-39.61"/>
</g>
<!-- Node4 -->
<g id="node4" class="node">
<title>Node4</title>
<g id="a_node4"><a xlink:href="classPortafolio.html#af8bfef7dde343b4fe1fb483047865656" target="_top" xlink:title=" ">
<polygon fill="white" stroke="black" points="77,-0.5 77,-19.5 220,-19.5 220,-0.5 77,-0.5"/>
<text text-anchor="middle" x="148.5" y="-7.5" font-family="Helvetica,sans-Serif" font-size="10.00">Portafolio::ordenarActivos</text>
</a>
</g>
</g>
<!-- Node1&#45;&gt;Node4 -->
<g id="edge3" class="edge">
<title>Node1&#45;&gt;Node4</title>
<path fill="none" stroke="midnightblue" d="M245.68,-21.87C237.38,-20.84 228.76,-19.78 220.25,-18.73"/>
<polygon fill="midnightblue" stroke="midnightblue" points="245.26,-25.34 255.62,-23.09 246.12,-18.39 245.26,-25.34"/>
</g>
<!-- Node3 -->
<g id="node3" class="node">
<title>Node3</title>
<g id="a_node3"><a xlink:href="codigo_8cpp.html#ae66f6b31b5ad750f1fe042a706a4e3d4" target="_top" xlink:title="Función principal del programa.">
<polygon fill="white" stroke="black" points="0,-38.5 0,-57.5 41,-57.5 41,-38.5 0,-38.5"/>
<text text-anchor="middle" x="20.5" y="-45.5" font-family="Helvetica,sans-Serif" font-size="10.00">main</text>
</a>
</g>
</g>
<!-- Node2&#45;&gt;Node3 -->
<g id="edge2" class="edge">
<title>Node2&#45;&gt;Node3</title>
<path fill="none" stroke="midnightblue" d="M84.2,-48C68.58,-48 52.98,-48 41.25,-48"/>
<polygon fill="midnightblue" stroke="midnightblue" points="84.43,-51.5 94.43,-48 84.43,-44.5 84.43,-51.5"/>
</g>
</g>
</svg>
