<?xml version="1.0" encoding="UTF-8" standalone="no"?>
<!DOCTYPE svg PUBLIC "-//W3C//DTD SVG 1.1//EN"
 "http://www.w3.org/Graphics/SVG/1.1/DTD/svg11.dtd">
<!-- Generated by graphviz version 2.43.0 (0)
 -->
<!-- Title: Noticia Pages: 1 -->
<svg width="184pt" height="121pt"
 viewBox="0.00 0.00 184.00 121.00" xmlns="http://www.w3.org/2000/svg" xmlns:xlink="http://www.w3.org/1999/xlink">
<g id="graph0" class="graph" transform="scale(1 1) rotate(0) translate(4 117)">
<title>Noticia</title>
<polygon fill="white" stroke="transparent" points="-4,4 -4,-117 180,-117 180,4 -4,4"/>
<!-- Node1 -->
<g id="node1" class="node">
<title>Node1</title>
<g id="a_node1"><a xlink:title="Estructura que representa una noticia con impacto, título, descripción, sector afectado,...">
<polygon fill="#bfbfbf" stroke="black" points="0,-0.5 0,-112.5 101,-112.5 101,-0.5 0,-0.5"/>
<text text-anchor="middle" x="50.5" y="-100.5" font-family="Helvetica,sans-Serif" font-size="10.00">Noticia</text>
<polyline fill="none" stroke="black" points="0,-93.5 101,-93.5 "/>
<text text-anchor="start" x="8" y="-81.5" font-family="Helvetica,sans-Serif" font-size="10.00">+ descripcion</text>
<text text-anchor="start" x="8" y="-70.5" font-family="Helvetica,sans-Serif" font-size="10.00">+ esPositiva</text>
<text text-anchor="start" x="8" y="-59.5" font-family="Helvetica,sans-Serif" font-size="10.00">+ fecha</text>
<text text-anchor="start" x="8" y="-48.5" font-family="Helvetica,sans-Serif" font-size="10.00">+ impacto</text>
<text text-anchor="start" x="8" y="-37.5" font-family="Helvetica,sans-Serif" font-size="10.00">+ sectorAfectado</text>
<text text-anchor="start" x="8" y="-26.5" font-family="Helvetica,sans-Serif" font-size="10.00">+ titulo</text>
<polyline fill="none" stroke="black" points="0,-19.5 101,-19.5 "/>
<text text-anchor="start" x="8" y="-7.5" font-family="Helvetica,sans-Serif" font-size="10.00">+ Noticia()</text>
</a>
</g>
</g>
<!-- Node1&#45;&gt;Node1 -->
<g id="edge1" class="edge">
<title>Node1&#45;&gt;Node1</title>
<path fill="none" stroke="#404040" d="M101.28,-76.7C111.61,-74.5 119,-67.77 119,-56.5 119,-49.99 116.53,-44.99 112.45,-41.51"/>
<polygon fill="none" stroke="#404040" points="112.16,-41.37 105.03,-42.46 101.28,-36.3 108.41,-35.21 112.16,-41.37"/>
<text text-anchor="middle" x="147.5" y="-54" font-family="Helvetica,sans-Serif" font-size="10.00"> +siguiente</text>
</g>
</g>
</svg>
