<?xml version="1.0" encoding="UTF-8" standalone="no"?>
<!DOCTYPE svg PUBLIC "-//W3C//DTD SVG 1.1//EN"
 "http://www.w3.org/Graphics/SVG/1.1/DTD/svg11.dtd">
<!-- Generated by graphviz version 2.43.0 (0)
 -->
<!-- Title: ColaPrioridadNoticias Pages: 1 -->
<svg width="208pt" height="369pt"
 viewBox="0.00 0.00 208.00 369.00" xmlns="http://www.w3.org/2000/svg" xmlns:xlink="http://www.w3.org/1999/xlink">
<g id="graph0" class="graph" transform="scale(1 1) rotate(0) translate(4 365)">
<title>ColaPrioridadNoticias</title>
<polygon fill="white" stroke="transparent" points="-4,4 -4,-365 204,-365 204,4 -4,4"/>
<!-- Node1 -->
<g id="node1" class="node">
<title>Node1</title>
<g id="a_node1"><a xlink:title="Clase que implementa una cola de prioridad para noticias, ordenadas por impacto.">
<polygon fill="#bfbfbf" stroke="black" points="0,-0.5 0,-211.5 149,-211.5 149,-0.5 0,-0.5"/>
<text text-anchor="middle" x="74.5" y="-199.5" font-family="Helvetica,sans-Serif" font-size="10.00">ColaPrioridadNoticias</text>
<polyline fill="none" stroke="black" points="0,-192.5 149,-192.5 "/>
<text text-anchor="middle" x="74.5" y="-180.5" font-family="Helvetica,sans-Serif" font-size="10.00"> </text>
<polyline fill="none" stroke="black" points="0,-173.5 149,-173.5 "/>
<text text-anchor="start" x="8" y="-161.5" font-family="Helvetica,sans-Serif" font-size="10.00">+ ColaPrioridadNoticias()</text>
<text text-anchor="start" x="8" y="-150.5" font-family="Helvetica,sans-Serif" font-size="10.00">+ estaVacia()</text>
<text text-anchor="start" x="8" y="-139.5" font-family="Helvetica,sans-Serif" font-size="10.00">+ insertar()</text>
<text text-anchor="start" x="8" y="-128.5" font-family="Helvetica,sans-Serif" font-size="10.00">+ mostrar()</text>
<text text-anchor="start" x="8" y="-117.5" font-family="Helvetica,sans-Serif" font-size="10.00">+ buscarPorSector()</text>
<text text-anchor="start" x="8" y="-106.5" font-family="Helvetica,sans-Serif" font-size="10.00">+ buscarPorPalabraClave()</text>
<text text-anchor="start" x="8" y="-95.5" font-family="Helvetica,sans-Serif" font-size="10.00">+ hayAlertaDeCrisis()</text>
<text text-anchor="start" x="8" y="-84.5" font-family="Helvetica,sans-Serif" font-size="10.00">+ promedioImpacto()</text>
<text text-anchor="start" x="8" y="-73.5" font-family="Helvetica,sans-Serif" font-size="10.00">+ extraer()</text>
<text text-anchor="start" x="8" y="-62.5" font-family="Helvetica,sans-Serif" font-size="10.00">+ obtenerNoticias()</text>
<text text-anchor="start" x="8" y="-51.5" font-family="Helvetica,sans-Serif" font-size="10.00">+ dividir()</text>
<text text-anchor="start" x="8" y="-40.5" font-family="Helvetica,sans-Serif" font-size="10.00">+ fusionar()</text>
<text text-anchor="start" x="8" y="-29.5" font-family="Helvetica,sans-Serif" font-size="10.00">+ mergeSort()</text>
<text text-anchor="start" x="8" y="-18.5" font-family="Helvetica,sans-Serif" font-size="10.00">+ ordenarPorFecha()</text>
<text text-anchor="start" x="8" y="-7.5" font-family="Helvetica,sans-Serif" font-size="10.00">+ ~ColaPrioridadNoticias()</text>
</a>
</g>
</g>
<!-- Node2 -->
<g id="node2" class="node">
<title>Node2</title>
<g id="a_node2"><a xlink:href="structNoticia.html" target="_top" xlink:title="Estructura que representa una noticia con impacto, título, descripción, sector afectado,...">
<polygon fill="white" stroke="black" points="24,-259.5 24,-360.5 125,-360.5 125,-259.5 24,-259.5"/>
<text text-anchor="middle" x="74.5" y="-348.5" font-family="Helvetica,sans-Serif" font-size="10.00">Noticia</text>
<polyline fill="none" stroke="black" points="24,-341.5 125,-341.5 "/>
<text text-anchor="start" x="32" y="-329.5" font-family="Helvetica,sans-Serif" font-size="10.00">+ impacto</text>
<text text-anchor="start" x="32" y="-318.5" font-family="Helvetica,sans-Serif" font-size="10.00">+ titulo</text>
<text text-anchor="start" x="32" y="-307.5" font-family="Helvetica,sans-Serif" font-size="10.00">+ descripcion</text>
<text text-anchor="start" x="32" y="-296.5" font-family="Helvetica,sans-Serif" font-size="10.00">+ sectorAfectado</text>
<text text-anchor="start" x="32" y="-285.5" font-family="Helvetica,sans-Serif" font-size="10.00">+ fecha</text>
<polyline fill="none" stroke="black" points="24,-278.5 125,-278.5 "/>
<text text-anchor="start" x="32" y="-266.5" font-family="Helvetica,sans-Serif" font-size="10.00">+ Noticia()</text>
</a>
</g>
</g>
<!-- Node2&#45;&gt;Node1 -->
<g id="edge1" class="edge">
<title>Node2&#45;&gt;Node1</title>
<path fill="none" stroke="#404040" d="M74.5,-259.33C74.5,-248.46 74.5,-236.52 74.5,-224.25"/>
<polygon fill="none" stroke="#404040" points="74.5,-223.89 70.5,-217.89 74.5,-211.89 78.5,-217.89 74.5,-223.89"/>
<text text-anchor="middle" x="93" y="-233" font-family="Helvetica,sans-Serif" font-size="10.00"> &#45;frente</text>
</g>
<!-- Node2&#45;&gt;Node2 -->
<g id="edge2" class="edge">
<title>Node2&#45;&gt;Node2</title>
<path fill="none" stroke="#404040" d="M125.28,-323.35C135.61,-321.89 143,-317.44 143,-310 143,-305.81 140.66,-302.57 136.78,-300.28"/>
<polygon fill="none" stroke="#404040" points="136.73,-300.27 129.8,-302.27 125.28,-296.65 132.21,-294.65 136.73,-300.27"/>
<text text-anchor="middle" x="171.5" y="-307.5" font-family="Helvetica,sans-Serif" font-size="10.00"> +siguiente</text>
</g>
</g>
</svg>
