<?xml version="1.0" encoding="UTF-8" standalone="no"?>
<!DOCTYPE svg PUBLIC "-//W3C//DTD SVG 1.1//EN"
 "http://www.w3.org/Graphics/SVG/1.1/DTD/svg11.dtd">
<!-- Generated by graphviz version 2.43.0 (0)
 -->
<!-- Title: Pila::push Pages: 1 -->
<svg width="443pt" height="66pt"
 viewBox="0.00 0.00 443.00 66.00" xmlns="http://www.w3.org/2000/svg" xmlns:xlink="http://www.w3.org/1999/xlink">
<g id="graph0" class="graph" transform="scale(1 1) rotate(0) translate(4 62)">
<title>Pila::push</title>
<polygon fill="white" stroke="transparent" points="-4,4 -4,-62 439,-62 439,4 -4,4"/>
<!-- Node1 -->
<g id="node1" class="node">
<title>Node1</title>
<g id="a_node1"><a xlink:title="Agrega un nuevo elemento a la cima de la pila.">
<polygon fill="#bfbfbf" stroke="black" points="371,-19.5 371,-38.5 435,-38.5 435,-19.5 371,-19.5"/>
<text text-anchor="middle" x="403" y="-26.5" font-family="Helvetica,sans-Serif" font-size="10.00">Pila::push</text>
</a>
</g>
</g>
<!-- Node2 -->
<g id="node2" class="node">
<title>Node2</title>
<g id="a_node2"><a xlink:href="classPortafolio.html#a0f318f5e76a14783e28f2661d894c369" target="_top" xlink:title="Agrega un activo al portafolio (al tope de la pila).">
<polygon fill="white" stroke="black" points="78.5,-38.5 78.5,-57.5 216.5,-57.5 216.5,-38.5 78.5,-38.5"/>
<text text-anchor="middle" x="147.5" y="-45.5" font-family="Helvetica,sans-Serif" font-size="10.00">Portafolio::agregarActivo</text>
</a>
</g>
</g>
<!-- Node1&#45;&gt;Node2 -->
<g id="edge1" class="edge">
<title>Node1&#45;&gt;Node2</title>
<path fill="none" stroke="midnightblue" d="M360.48,-32.11C321.49,-35.03 262.46,-39.46 216.58,-42.9"/>
<polygon fill="midnightblue" stroke="midnightblue" points="361.21,-35.57 370.92,-31.33 360.68,-28.59 361.21,-35.57"/>
</g>
<!-- Node4 -->
<g id="node4" class="node">
<title>Node4</title>
<g id="a_node4"><a xlink:href="classPila.html#a83f565e49638c5a19da1484aa3dc0d00" target="_top" xlink:title="Elimina la primera aparición de un valor específico.">
<polygon fill="white" stroke="black" points="254,-0.5 254,-19.5 335,-19.5 335,-0.5 254,-0.5"/>
<text text-anchor="middle" x="294.5" y="-7.5" font-family="Helvetica,sans-Serif" font-size="10.00">Pila::eliminar</text>
</a>
</g>
</g>
<!-- Node1&#45;&gt;Node4 -->
<g id="edge3" class="edge">
<title>Node1&#45;&gt;Node4</title>
<path fill="none" stroke="midnightblue" d="M360.88,-21.66C352.44,-20.16 343.56,-18.57 335.17,-17.08"/>
<polygon fill="midnightblue" stroke="midnightblue" points="360.45,-25.14 370.91,-23.45 361.68,-18.25 360.45,-25.14"/>
</g>
<!-- Node3 -->
<g id="node3" class="node">
<title>Node3</title>
<g id="a_node3"><a xlink:href="codigo_8cpp.html#ae66f6b31b5ad750f1fe042a706a4e3d4" target="_top" xlink:title="Función principal del programa.">
<polygon fill="white" stroke="black" points="0,-19.5 0,-38.5 41,-38.5 41,-19.5 0,-19.5"/>
<text text-anchor="middle" x="20.5" y="-26.5" font-family="Helvetica,sans-Serif" font-size="10.00">main</text>
</a>
</g>
</g>
<!-- Node2&#45;&gt;Node3 -->
<g id="edge2" class="edge">
<title>Node2&#45;&gt;Node3</title>
<path fill="none" stroke="midnightblue" d="M73.54,-36.91C61.63,-35.1 50.24,-33.37 41.17,-31.99"/>
<polygon fill="midnightblue" stroke="midnightblue" points="73.22,-40.4 83.63,-38.44 74.27,-33.48 73.22,-40.4"/>
</g>
<!-- Node5 -->
<g id="node5" class="node">
<title>Node5</title>
<g id="a_node5"><a xlink:href="classPortafolio.html#a2a3d95a628382a88d45d666982538b4e" target="_top" xlink:title="Elimina un activo específico del portafolio.">
<polygon fill="white" stroke="black" points="77,-0.5 77,-19.5 218,-19.5 218,-0.5 77,-0.5"/>
<text text-anchor="middle" x="147.5" y="-7.5" font-family="Helvetica,sans-Serif" font-size="10.00">Portafolio::eliminarActivo</text>
</a>
</g>
</g>
<!-- Node4&#45;&gt;Node5 -->
<g id="edge4" class="edge">
<title>Node4&#45;&gt;Node5</title>
<path fill="none" stroke="midnightblue" d="M243.71,-10C235.48,-10 226.81,-10 218.19,-10"/>
<polygon fill="midnightblue" stroke="midnightblue" points="243.88,-13.5 253.88,-10 243.88,-6.5 243.88,-13.5"/>
</g>
<!-- Node5&#45;&gt;Node3 -->
<g id="edge5" class="edge">
<title>Node5&#45;&gt;Node3</title>
<path fill="none" stroke="midnightblue" d="M73.54,-21.09C61.63,-22.9 50.24,-24.63 41.17,-26.01"/>
<polygon fill="midnightblue" stroke="midnightblue" points="74.27,-24.52 83.63,-19.56 73.22,-17.6 74.27,-24.52"/>
</g>
</g>
</svg>
