<?xml version="1.0" encoding="UTF-8" standalone="no"?>
<!DOCTYPE svg PUBLIC "-//W3C//DTD SVG 1.1//EN"
 "http://www.w3.org/Graphics/SVG/1.1/DTD/svg11.dtd">
<!-- Generated by graphviz version 2.43.0 (0)
 -->
<!-- Title: Pila::eliminar Pages: 1 -->
<svg width="205pt" height="142pt"
 viewBox="0.00 0.00 205.00 142.00" xmlns="http://www.w3.org/2000/svg" xmlns:xlink="http://www.w3.org/1999/xlink">
<g id="graph0" class="graph" transform="scale(1 1) rotate(0) translate(4 138)">
<title>Pila::eliminar</title>
<polygon fill="white" stroke="transparent" points="-4,4 -4,-138 201,-138 201,4 -4,4"/>
<!-- Node1 -->
<g id="node1" class="node">
<title>Node1</title>
<g id="a_node1"><a xlink:title="Elimina la primera aparición de un valor específico.">
<polygon fill="#bfbfbf" stroke="black" points="0,-57.5 0,-76.5 81,-76.5 81,-57.5 0,-57.5"/>
<text text-anchor="middle" x="40.5" y="-64.5" font-family="Helvetica,sans-Serif" font-size="10.00">Pila::eliminar</text>
</a>
</g>
</g>
<!-- Node2 -->
<g id="node2" class="node">
<title>Node2</title>
<g id="a_node2"><a xlink:href="classPila.html#a15420d1c215037d91a6908f5b5533e8a" target="_top" xlink:title="Verifica si la pila está vacía.">
<polygon fill="white" stroke="black" points="117,-114.5 117,-133.5 197,-133.5 197,-114.5 117,-114.5"/>
<text text-anchor="middle" x="157" y="-121.5" font-family="Helvetica,sans-Serif" font-size="10.00">Pila::isEmpty</text>
</a>
</g>
</g>
<!-- Node1&#45;&gt;Node2 -->
<g id="edge1" class="edge">
<title>Node1&#45;&gt;Node2</title>
<path fill="none" stroke="midnightblue" d="M60.39,-76.59C75.64,-84.32 97.67,-95.43 117,-105 120.2,-106.59 123.56,-108.24 126.9,-109.87"/>
<polygon fill="midnightblue" stroke="midnightblue" points="125.61,-113.14 136.14,-114.38 128.69,-106.85 125.61,-113.14"/>
</g>
<!-- Node3 -->
<g id="node3" class="node">
<title>Node3</title>
<g id="a_node3"><a xlink:href="classPila.html#a81d09f97e002ddd279bf43b93b0cb372" target="_top" xlink:title="Elimina el elemento en la cima de la pila.">
<polygon fill="white" stroke="black" points="127.5,-76.5 127.5,-95.5 186.5,-95.5 186.5,-76.5 127.5,-76.5"/>
<text text-anchor="middle" x="157" y="-83.5" font-family="Helvetica,sans-Serif" font-size="10.00">Pila::pop</text>
</a>
</g>
</g>
<!-- Node1&#45;&gt;Node3 -->
<g id="edge2" class="edge">
<title>Node1&#45;&gt;Node3</title>
<path fill="none" stroke="midnightblue" d="M81.23,-73.59C92.8,-75.51 105.43,-77.61 116.96,-79.52"/>
<polygon fill="midnightblue" stroke="midnightblue" points="116.73,-83.03 127.17,-81.22 117.88,-76.13 116.73,-83.03"/>
</g>
<!-- Node4 -->
<g id="node4" class="node">
<title>Node4</title>
<g id="a_node4"><a xlink:href="classPila.html#ab0e03bdc398980d2fa802648a2eb7d8f" target="_top" xlink:title="Agrega un nuevo elemento a la cima de la pila.">
<polygon fill="white" stroke="black" points="125,-38.5 125,-57.5 189,-57.5 189,-38.5 125,-38.5"/>
<text text-anchor="middle" x="157" y="-45.5" font-family="Helvetica,sans-Serif" font-size="10.00">Pila::push</text>
</a>
</g>
</g>
<!-- Node1&#45;&gt;Node4 -->
<g id="edge3" class="edge">
<title>Node1&#45;&gt;Node4</title>
<path fill="none" stroke="midnightblue" d="M81.23,-60.41C91.99,-58.62 103.68,-56.68 114.54,-54.88"/>
<polygon fill="midnightblue" stroke="midnightblue" points="115.35,-58.29 124.64,-53.2 114.21,-51.39 115.35,-58.29"/>
</g>
<!-- Node5 -->
<g id="node5" class="node">
<title>Node5</title>
<g id="a_node5"><a xlink:href="classPila.html#a4a411a01fdc6c1463a5010371d061f4e" target="_top" xlink:title="Devuelve el elemento en la cima de la pila sin eliminarlo.">
<polygon fill="white" stroke="black" points="129,-0.5 129,-19.5 185,-19.5 185,-0.5 129,-0.5"/>
<text text-anchor="middle" x="157" y="-7.5" font-family="Helvetica,sans-Serif" font-size="10.00">Pila::top</text>
</a>
</g>
</g>
<!-- Node1&#45;&gt;Node5 -->
<g id="edge4" class="edge">
<title>Node1&#45;&gt;Node5</title>
<path fill="none" stroke="midnightblue" d="M60.39,-57.41C75.64,-49.68 97.67,-38.57 117,-29 120.2,-27.41 123.56,-25.76 126.9,-24.13"/>
<polygon fill="midnightblue" stroke="midnightblue" points="128.69,-27.15 136.14,-19.62 125.61,-20.86 128.69,-27.15"/>
</g>
</g>
</svg>
