<?xml version="1.0" encoding="UTF-8" standalone="no"?>
<!DOCTYPE svg PUBLIC "-//W3C//DTD SVG 1.1//EN"
 "http://www.w3.org/Graphics/SVG/1.1/DTD/svg11.dtd">
<!-- Generated by graphviz version 2.43.0 (0)
 -->
<!-- Title: ABBEmpresas::buscarEmpresa Pages: 1 -->
<svg width="440pt" height="56pt"
 viewBox="0.00 0.00 440.00 55.50" xmlns="http://www.w3.org/2000/svg" xmlns:xlink="http://www.w3.org/1999/xlink">
<g id="graph0" class="graph" transform="scale(1 1) rotate(0) translate(4 51.5)">
<title>ABBEmpresas::buscarEmpresa</title>
<polygon fill="white" stroke="transparent" points="-4,4 -4,-51.5 436,-51.5 436,4 -4,4"/>
<!-- Node1 -->
<g id="node1" class="node">
<title>Node1</title>
<g id="a_node1"><a xlink:title="Busca una empresa por ticker.">
<polygon fill="#bfbfbf" stroke="black" points="266,-28 266,-47 432,-47 432,-28 266,-28"/>
<text text-anchor="middle" x="349" y="-35" font-family="Helvetica,sans-Serif" font-size="10.00">ABBEmpresas::buscarEmpresa</text>
</a>
</g>
</g>
<!-- Node2 -->
<g id="node2" class="node">
<title>Node2</title>
<g id="a_node2"><a xlink:href="codigo_8cpp.html#ae66f6b31b5ad750f1fe042a706a4e3d4" target="_top" xlink:title="Función principal del programa.">
<polygon fill="white" stroke="black" points="0,-28 0,-47 41,-47 41,-28 0,-28"/>
<text text-anchor="middle" x="20.5" y="-35" font-family="Helvetica,sans-Serif" font-size="10.00">main</text>
</a>
</g>
</g>
<!-- Node1&#45;&gt;Node2 -->
<g id="edge1" class="edge">
<title>Node1&#45;&gt;Node2</title>
<path fill="none" stroke="midnightblue" d="M255.58,-40.26C203.19,-41.4 136.42,-42.1 77,-40.5 65.04,-40.18 51.64,-39.46 41.01,-38.81"/>
<polygon fill="midnightblue" stroke="midnightblue" points="255.94,-43.76 265.86,-40.03 255.79,-36.76 255.94,-43.76"/>
</g>
<!-- Node3 -->
<g id="node3" class="node">
<title>Node3</title>
<g id="a_node3"><a xlink:href="noticia_8h.html#a80268dccce1ece0cbb6406c81d50baed" target="_top" xlink:title="Muestra los cambios de precio de una empresa por cada noticia que la afectó, mostrando el precio ante...">
<polygon fill="white" stroke="black" points="77,-0.5 77,-30.5 230,-30.5 230,-0.5 77,-0.5"/>
<text text-anchor="start" x="85" y="-18.5" font-family="Helvetica,sans-Serif" font-size="10.00">mostrarCambiosPorNoticias</text>
<text text-anchor="middle" x="153.5" y="-7.5" font-family="Helvetica,sans-Serif" font-size="10.00">Empresa</text>
</a>
</g>
</g>
<!-- Node1&#45;&gt;Node3 -->
<g id="edge2" class="edge">
<title>Node1&#45;&gt;Node3</title>
<path fill="none" stroke="midnightblue" d="M255.89,-27.03C247.29,-26.05 238.65,-25.07 230.23,-24.11"/>
<polygon fill="midnightblue" stroke="midnightblue" points="255.61,-30.52 265.94,-28.17 256.4,-23.56 255.61,-30.52"/>
</g>
<!-- Node3&#45;&gt;Node2 -->
<g id="edge3" class="edge">
<title>Node3&#45;&gt;Node2</title>
<path fill="none" stroke="midnightblue" d="M66.67,-29.91C57.26,-31.5 48.46,-32.97 41.18,-34.2"/>
<polygon fill="midnightblue" stroke="midnightblue" points="67.39,-33.34 76.68,-28.23 66.23,-26.44 67.39,-33.34"/>
</g>
</g>
</svg>
