<?xml version="1.0" encoding="UTF-8" standalone="no"?>
<!DOCTYPE svg PUBLIC "-//W3C//DTD SVG 1.1//EN"
 "http://www.w3.org/Graphics/SVG/1.1/DTD/svg11.dtd">
<!-- Generated by graphviz version 2.43.0 (0)
 -->
<!-- Title: MultilistaPrecio Pages: 1 -->
<svg width="184pt" height="215pt"
 viewBox="0.00 0.00 184.00 215.00" xmlns="http://www.w3.org/2000/svg" xmlns:xlink="http://www.w3.org/1999/xlink">
<g id="graph0" class="graph" transform="scale(1 1) rotate(0) translate(4 211)">
<title>MultilistaPrecio</title>
<polygon fill="white" stroke="transparent" points="-4,4 -4,-211 180,-211 180,4 -4,4"/>
<!-- Node1 -->
<g id="node1" class="node">
<title>Node1</title>
<g id="a_node1"><a xlink:title="Multilista para historial de precios de una acción.">
<polygon fill="#bfbfbf" stroke="black" points="0,-0.5 0,-90.5 111,-90.5 111,-0.5 0,-0.5"/>
<text text-anchor="middle" x="55.5" y="-78.5" font-family="Helvetica,sans-Serif" font-size="10.00">MultilistaPrecio</text>
<polyline fill="none" stroke="black" points="0,-71.5 111,-71.5 "/>
<text text-anchor="middle" x="55.5" y="-59.5" font-family="Helvetica,sans-Serif" font-size="10.00"> </text>
<polyline fill="none" stroke="black" points="0,-52.5 111,-52.5 "/>
<text text-anchor="start" x="8" y="-40.5" font-family="Helvetica,sans-Serif" font-size="10.00">+ MultilistaPrecio()</text>
<text text-anchor="start" x="8" y="-29.5" font-family="Helvetica,sans-Serif" font-size="10.00">+ agregarPrecio()</text>
<text text-anchor="start" x="8" y="-18.5" font-family="Helvetica,sans-Serif" font-size="10.00">+ promedioMovil()</text>
<text text-anchor="start" x="8" y="-7.5" font-family="Helvetica,sans-Serif" font-size="10.00">+ imprimir()</text>
</a>
</g>
</g>
<!-- Node2 -->
<g id="node2" class="node">
<title>Node2</title>
<g id="a_node2"><a xlink:href="structNodoPrecio.html" target="_top" xlink:title="Nodo para la multilista de precios históricos de una acción.">
<polygon fill="white" stroke="black" points="10,-138.5 10,-206.5 101,-206.5 101,-138.5 10,-138.5"/>
<text text-anchor="middle" x="55.5" y="-194.5" font-family="Helvetica,sans-Serif" font-size="10.00">NodoPrecio</text>
<polyline fill="none" stroke="black" points="10,-187.5 101,-187.5 "/>
<text text-anchor="start" x="18" y="-175.5" font-family="Helvetica,sans-Serif" font-size="10.00">+ fecha</text>
<text text-anchor="start" x="18" y="-164.5" font-family="Helvetica,sans-Serif" font-size="10.00">+ precioCierre</text>
<polyline fill="none" stroke="black" points="10,-157.5 101,-157.5 "/>
<text text-anchor="start" x="18" y="-145.5" font-family="Helvetica,sans-Serif" font-size="10.00">+ NodoPrecio()</text>
</a>
</g>
</g>
<!-- Node2&#45;&gt;Node1 -->
<g id="edge1" class="edge">
<title>Node2&#45;&gt;Node1</title>
<path fill="none" stroke="#404040" d="M55.5,-138.33C55.5,-127.37 55.5,-114.86 55.5,-102.67"/>
<polygon fill="none" stroke="#404040" points="55.5,-102.66 51.5,-96.66 55.5,-90.66 59.5,-96.66 55.5,-102.66"/>
<text text-anchor="middle" x="78.5" y="-112" font-family="Helvetica,sans-Serif" font-size="10.00"> +cabeza</text>
</g>
<!-- Node2&#45;&gt;Node2 -->
<g id="edge2" class="edge">
<title>Node2&#45;&gt;Node2</title>
<path fill="none" stroke="#404040" d="M101.16,-183.11C111.47,-182.15 119,-178.62 119,-172.5 119,-169.15 116.75,-166.58 113.02,-164.78"/>
<polygon fill="none" stroke="#404040" points="112.82,-164.73 106.05,-167.2 101.16,-161.89 107.94,-159.42 112.82,-164.73"/>
<text text-anchor="middle" x="147.5" y="-170" font-family="Helvetica,sans-Serif" font-size="10.00"> +siguiente</text>
</g>
</g>
</svg>
