<?xml version="1.0" encoding="UTF-8" standalone="no"?>
<!DOCTYPE svg PUBLIC "-//W3C//DTD SVG 1.1//EN"
 "http://www.w3.org/Graphics/SVG/1.1/DTD/svg11.dtd">
<!-- Generated by graphviz version 2.43.0 (0)
 -->
<!-- Title: ABBEmpresas Pages: 1 -->
<svg width="215pt" height="645pt"
 viewBox="0.00 0.00 215.00 645.00" xmlns="http://www.w3.org/2000/svg" xmlns:xlink="http://www.w3.org/1999/xlink">
<g id="graph0" class="graph" transform="scale(1 1) rotate(0) translate(4 641)">
<title>ABBEmpresas</title>
<polygon fill="white" stroke="transparent" points="-4,4 -4,-641 211,-641 211,4 -4,4"/>
<!-- Node1 -->
<g id="node1" class="node">
<title>Node1</title>
<g id="a_node1"><a xlink:title="Árbol binario de búsqueda (ABB) para gestionar empresas.">
<polygon fill="#bfbfbf" stroke="black" points="0,-0.5 0,-244.5 173,-244.5 173,-0.5 0,-0.5"/>
<text text-anchor="middle" x="86.5" y="-232.5" font-family="Helvetica,sans-Serif" font-size="10.00">ABBEmpresas</text>
<polyline fill="none" stroke="black" points="0,-225.5 173,-225.5 "/>
<text text-anchor="middle" x="86.5" y="-213.5" font-family="Helvetica,sans-Serif" font-size="10.00"> </text>
<polyline fill="none" stroke="black" points="0,-206.5 173,-206.5 "/>
<text text-anchor="start" x="8" y="-194.5" font-family="Helvetica,sans-Serif" font-size="10.00">+ ABBEmpresas()</text>
<text text-anchor="start" x="8" y="-183.5" font-family="Helvetica,sans-Serif" font-size="10.00">+ ~ABBEmpresas()</text>
<text text-anchor="start" x="8" y="-172.5" font-family="Helvetica,sans-Serif" font-size="10.00">+ insertarEmpresa()</text>
<text text-anchor="start" x="8" y="-161.5" font-family="Helvetica,sans-Serif" font-size="10.00">+ buscarEmpresa()</text>
<text text-anchor="start" x="8" y="-150.5" font-family="Helvetica,sans-Serif" font-size="10.00">+ agregarPrecio()</text>
<text text-anchor="start" x="8" y="-139.5" font-family="Helvetica,sans-Serif" font-size="10.00">+ obtenerEmpresasOrdenadas()</text>
<text text-anchor="start" x="8" y="-128.5" font-family="Helvetica,sans-Serif" font-size="10.00">+ imprimirEmpresas()</text>
<text text-anchor="start" x="8" y="-117.5" font-family="Helvetica,sans-Serif" font-size="10.00">+ imprimirPorPrecio()</text>
<text text-anchor="start" x="8" y="-106.5" font-family="Helvetica,sans-Serif" font-size="10.00">+ imprimirEmpresasPorSector()</text>
<text text-anchor="start" x="8" y="-95.5" font-family="Helvetica,sans-Serif" font-size="10.00">+ promedioPrecioPorSector()</text>
<text text-anchor="start" x="8" y="-84.5" font-family="Helvetica,sans-Serif" font-size="10.00">y 7 más...</text>
<text text-anchor="start" x="8" y="-73.5" font-family="Helvetica,sans-Serif" font-size="10.00">+ merge()</text>
<text text-anchor="start" x="8" y="-62.5" font-family="Helvetica,sans-Serif" font-size="10.00">+ mergeSort()</text>
<text text-anchor="start" x="8" y="-51.5" font-family="Helvetica,sans-Serif" font-size="10.00">&#45; insertar()</text>
<text text-anchor="start" x="8" y="-40.5" font-family="Helvetica,sans-Serif" font-size="10.00">&#45; buscar()</text>
<text text-anchor="start" x="8" y="-29.5" font-family="Helvetica,sans-Serif" font-size="10.00">&#45; inorden()</text>
<text text-anchor="start" x="8" y="-18.5" font-family="Helvetica,sans-Serif" font-size="10.00">&#45; destruir()</text>
<text text-anchor="start" x="8" y="-7.5" font-family="Helvetica,sans-Serif" font-size="10.00">&#45; inicializarEmpresas()</text>
</a>
</g>
</g>
<!-- Node2 -->
<g id="node2" class="node">
<title>Node2</title>
<g id="a_node2"><a xlink:href="structEmpresa.html" target="_top" xlink:title="Nodo de ABB que representa una empresa.">
<polygon fill="white" stroke="black" points="42,-292.5 42,-382.5 131,-382.5 131,-292.5 42,-292.5"/>
<text text-anchor="middle" x="86.5" y="-370.5" font-family="Helvetica,sans-Serif" font-size="10.00">Empresa</text>
<polyline fill="none" stroke="black" points="42,-363.5 131,-363.5 "/>
<text text-anchor="start" x="50" y="-351.5" font-family="Helvetica,sans-Serif" font-size="10.00">+ ticker</text>
<text text-anchor="start" x="50" y="-340.5" font-family="Helvetica,sans-Serif" font-size="10.00">+ nombre</text>
<text text-anchor="start" x="50" y="-329.5" font-family="Helvetica,sans-Serif" font-size="10.00">+ sector</text>
<text text-anchor="start" x="50" y="-318.5" font-family="Helvetica,sans-Serif" font-size="10.00">+ precioActual</text>
<polyline fill="none" stroke="black" points="42,-311.5 131,-311.5 "/>
<text text-anchor="start" x="50" y="-299.5" font-family="Helvetica,sans-Serif" font-size="10.00">+ Empresa()</text>
</a>
</g>
</g>
<!-- Node2&#45;&gt;Node1 -->
<g id="edge1" class="edge">
<title>Node2&#45;&gt;Node1</title>
<path fill="none" stroke="#404040" d="M86.5,-292.37C86.5,-281.65 86.5,-269.64 86.5,-257.09"/>
<polygon fill="none" stroke="#404040" points="86.5,-256.92 82.5,-250.92 86.5,-244.92 90.5,-250.92 86.5,-256.92"/>
<text text-anchor="middle" x="99" y="-266" font-family="Helvetica,sans-Serif" font-size="10.00"> &#45;raiz</text>
</g>
<!-- Node2&#45;&gt;Node2 -->
<g id="edge2" class="edge">
<title>Node2&#45;&gt;Node2</title>
<path fill="none" stroke="#404040" d="M131.16,-349.97C141.45,-348.89 149,-344.74 149,-337.5 149,-333.54 146.74,-330.5 143.01,-328.39"/>
<polygon fill="none" stroke="#404040" points="142.71,-328.3 135.84,-330.52 131.16,-325.03 138.03,-322.82 142.71,-328.3"/>
<text text-anchor="middle" x="176" y="-340.5" font-family="Helvetica,sans-Serif" font-size="10.00"> +derecha</text>
<text text-anchor="middle" x="176" y="-329.5" font-family="Helvetica,sans-Serif" font-size="10.00">+izquierda</text>
</g>
<!-- Node3 -->
<g id="node3" class="node">
<title>Node3</title>
<g id="a_node3"><a xlink:href="classMultilistaPrecio.html" target="_top" xlink:title="Multilista para historial de precios de una acción.">
<polygon fill="white" stroke="black" points="31,-430.5 31,-520.5 142,-520.5 142,-430.5 31,-430.5"/>
<text text-anchor="middle" x="86.5" y="-508.5" font-family="Helvetica,sans-Serif" font-size="10.00">MultilistaPrecio</text>
<polyline fill="none" stroke="black" points="31,-501.5 142,-501.5 "/>
<text text-anchor="middle" x="86.5" y="-489.5" font-family="Helvetica,sans-Serif" font-size="10.00"> </text>
<polyline fill="none" stroke="black" points="31,-482.5 142,-482.5 "/>
<text text-anchor="start" x="39" y="-470.5" font-family="Helvetica,sans-Serif" font-size="10.00">+ MultilistaPrecio()</text>
<text text-anchor="start" x="39" y="-459.5" font-family="Helvetica,sans-Serif" font-size="10.00">+ agregarPrecio()</text>
<text text-anchor="start" x="39" y="-448.5" font-family="Helvetica,sans-Serif" font-size="10.00">+ promedioMovil()</text>
<text text-anchor="start" x="39" y="-437.5" font-family="Helvetica,sans-Serif" font-size="10.00">+ imprimir()</text>
</a>
</g>
</g>
<!-- Node3&#45;&gt;Node2 -->
<g id="edge3" class="edge">
<title>Node3&#45;&gt;Node2</title>
<path fill="none" stroke="#404040" d="M86.5,-430.34C86.5,-419.06 86.5,-406.78 86.5,-394.97"/>
<polygon fill="none" stroke="#404040" points="86.5,-394.9 82.5,-388.9 86.5,-382.9 90.5,-388.9 86.5,-394.9"/>
<text text-anchor="middle" x="130" y="-404" font-family="Helvetica,sans-Serif" font-size="10.00"> +historialPrecios</text>
</g>
<!-- Node4 -->
<g id="node4" class="node">
<title>Node4</title>
<g id="a_node4"><a xlink:href="structNodoPrecio.html" target="_top" xlink:title="Nodo para la multilista de precios históricos de una acción.">
<polygon fill="white" stroke="black" points="41,-568.5 41,-636.5 132,-636.5 132,-568.5 41,-568.5"/>
<text text-anchor="middle" x="86.5" y="-624.5" font-family="Helvetica,sans-Serif" font-size="10.00">NodoPrecio</text>
<polyline fill="none" stroke="black" points="41,-617.5 132,-617.5 "/>
<text text-anchor="start" x="49" y="-605.5" font-family="Helvetica,sans-Serif" font-size="10.00">+ fecha</text>
<text text-anchor="start" x="49" y="-594.5" font-family="Helvetica,sans-Serif" font-size="10.00">+ precioCierre</text>
<polyline fill="none" stroke="black" points="41,-587.5 132,-587.5 "/>
<text text-anchor="start" x="49" y="-575.5" font-family="Helvetica,sans-Serif" font-size="10.00">+ NodoPrecio()</text>
</a>
</g>
</g>
<!-- Node4&#45;&gt;Node3 -->
<g id="edge4" class="edge">
<title>Node4&#45;&gt;Node3</title>
<path fill="none" stroke="#404040" d="M86.5,-568.33C86.5,-557.37 86.5,-544.86 86.5,-532.67"/>
<polygon fill="none" stroke="#404040" points="86.5,-532.66 82.5,-526.66 86.5,-520.66 90.5,-526.66 86.5,-532.66"/>
<text text-anchor="middle" x="109.5" y="-542" font-family="Helvetica,sans-Serif" font-size="10.00"> +cabeza</text>
</g>
<!-- Node4&#45;&gt;Node4 -->
<g id="edge5" class="edge">
<title>Node4&#45;&gt;Node4</title>
<path fill="none" stroke="#404040" d="M132.16,-613.11C142.47,-612.15 150,-608.62 150,-602.5 150,-599.15 147.75,-596.58 144.02,-594.78"/>
<polygon fill="none" stroke="#404040" points="143.82,-594.73 137.05,-597.2 132.16,-591.89 138.94,-589.42 143.82,-594.73"/>
<text text-anchor="middle" x="178.5" y="-600" font-family="Helvetica,sans-Serif" font-size="10.00"> +siguiente</text>
</g>
</g>
</svg>
