<?xml version="1.0" encoding="UTF-8" standalone="no"?>
<!DOCTYPE svg PUBLIC "-//W3C//DTD SVG 1.1//EN"
 "http://www.w3.org/Graphics/SVG/1.1/DTD/svg11.dtd">
<!-- Generated by graphviz version 2.43.0 (0)
 -->
<!-- Title: ColaPrioridadNoticias::obtenerNoticias Pages: 1 -->
<svg width="396pt" height="88pt"
 viewBox="0.00 0.00 396.00 88.00" xmlns="http://www.w3.org/2000/svg" xmlns:xlink="http://www.w3.org/1999/xlink">
<g id="graph0" class="graph" transform="scale(1 1) rotate(0) translate(4 84)">
<title>ColaPrioridadNoticias::obtenerNoticias</title>
<polygon fill="white" stroke="transparent" points="-4,4 -4,-84 392,-84 392,4 -4,4"/>
<!-- Node1 -->
<g id="node1" class="node">
<title>Node1</title>
<g id="a_node1"><a xlink:title="Llena un vector con punteros a todas las noticias en la cola (en orden actual).">
<polygon fill="#bfbfbf" stroke="black" points="266,-24.5 266,-54.5 388,-54.5 388,-24.5 266,-24.5"/>
<text text-anchor="start" x="274" y="-42.5" font-family="Helvetica,sans-Serif" font-size="10.00">ColaPrioridadNoticias</text>
<text text-anchor="middle" x="327" y="-31.5" font-family="Helvetica,sans-Serif" font-size="10.00">::obtenerNoticias</text>
</a>
</g>
</g>
<!-- Node2 -->
<g id="node2" class="node">
<title>Node2</title>
<g id="a_node2"><a xlink:href="noticia_8h.html#a80268dccce1ece0cbb6406c81d50baed" target="_top" xlink:title="Muestra los cambios de precio de una empresa por cada noticia que la afectó, mostrando el precio ante...">
<polygon fill="white" stroke="black" points="77,-49.5 77,-79.5 230,-79.5 230,-49.5 77,-49.5"/>
<text text-anchor="start" x="85" y="-67.5" font-family="Helvetica,sans-Serif" font-size="10.00">mostrarCambiosPorNoticias</text>
<text text-anchor="middle" x="153.5" y="-56.5" font-family="Helvetica,sans-Serif" font-size="10.00">Empresa</text>
</a>
</g>
</g>
<!-- Node1&#45;&gt;Node2 -->
<g id="edge1" class="edge">
<title>Node1&#45;&gt;Node2</title>
<path fill="none" stroke="midnightblue" d="M255.44,-49.79C247.06,-51.01 238.49,-52.26 230.05,-53.49"/>
<polygon fill="midnightblue" stroke="midnightblue" points="256.14,-53.22 265.54,-48.31 255.14,-46.29 256.14,-53.22"/>
</g>
<!-- Node4 -->
<g id="node4" class="node">
<title>Node4</title>
<g id="a_node4"><a xlink:href="noticia_8h.html#a7242f8be6bf0222aa3c0397c220cd251" target="_top" xlink:title="Muestra el impacto de las noticias en las acciones de las empresas.">
<polygon fill="white" stroke="black" points="80.5,-0.5 80.5,-30.5 226.5,-30.5 226.5,-0.5 80.5,-0.5"/>
<text text-anchor="start" x="88.5" y="-18.5" font-family="Helvetica,sans-Serif" font-size="10.00">mostrarImpactoNoticiasEn</text>
<text text-anchor="middle" x="153.5" y="-7.5" font-family="Helvetica,sans-Serif" font-size="10.00">Acciones</text>
</a>
</g>
</g>
<!-- Node1&#45;&gt;Node4 -->
<g id="edge3" class="edge">
<title>Node1&#45;&gt;Node4</title>
<path fill="none" stroke="midnightblue" d="M255.4,-29.62C245.95,-28.3 236.24,-26.94 226.76,-25.61"/>
<polygon fill="midnightblue" stroke="midnightblue" points="255.15,-33.12 265.54,-31.04 256.12,-26.19 255.15,-33.12"/>
</g>
<!-- Node3 -->
<g id="node3" class="node">
<title>Node3</title>
<g id="a_node3"><a xlink:href="codigo_8cpp.html#ae66f6b31b5ad750f1fe042a706a4e3d4" target="_top" xlink:title="Función principal del programa.">
<polygon fill="white" stroke="black" points="0,-30 0,-49 41,-49 41,-30 0,-30"/>
<text text-anchor="middle" x="20.5" y="-37" font-family="Helvetica,sans-Serif" font-size="10.00">main</text>
</a>
</g>
</g>
<!-- Node2&#45;&gt;Node3 -->
<g id="edge2" class="edge">
<title>Node2&#45;&gt;Node3</title>
<path fill="none" stroke="midnightblue" d="M66.67,-48.12C57.26,-46.32 48.46,-44.65 41.18,-43.26"/>
<polygon fill="midnightblue" stroke="midnightblue" points="66.2,-51.59 76.68,-50.03 67.51,-44.72 66.2,-51.59"/>
</g>
<!-- Node4&#45;&gt;Node3 -->
<g id="edge4" class="edge">
<title>Node4&#45;&gt;Node3</title>
<path fill="none" stroke="midnightblue" d="M70.39,-30.54C59.56,-32.53 49.38,-34.39 41.14,-35.9"/>
<polygon fill="midnightblue" stroke="midnightblue" points="71.28,-33.94 80.49,-28.69 70.02,-27.05 71.28,-33.94"/>
</g>
</g>
</svg>
