<?xml version="1.0" encoding="UTF-8" standalone="no"?>
<!DOCTYPE svg PUBLIC "-//W3C//DTD SVG 1.1//EN"
 "http://www.w3.org/Graphics/SVG/1.1/DTD/svg11.dtd">
<!-- Generated by graphviz version 2.43.0 (0)
 -->
<!-- Title: Pila Pages: 1 -->
<svg width="148pt" height="248pt"
 viewBox="0.00 0.00 148.00 248.00" xmlns="http://www.w3.org/2000/svg" xmlns:xlink="http://www.w3.org/1999/xlink">
<g id="graph0" class="graph" transform="scale(1 1) rotate(0) translate(4 244)">
<title>Pila</title>
<polygon fill="white" stroke="transparent" points="-4,4 -4,-244 144,-244 144,4 -4,4"/>
<!-- Node1 -->
<g id="node1" class="node">
<title>Node1</title>
<g id="a_node1"><a xlink:title="Implementación de una pila LIFO con nodos enlazados.">
<polygon fill="#bfbfbf" stroke="black" points="0,-0.5 0,-134.5 77,-134.5 77,-0.5 0,-0.5"/>
<text text-anchor="middle" x="38.5" y="-122.5" font-family="Helvetica,sans-Serif" font-size="10.00">Pila</text>
<polyline fill="none" stroke="black" points="0,-115.5 77,-115.5 "/>
<text text-anchor="middle" x="38.5" y="-103.5" font-family="Helvetica,sans-Serif" font-size="10.00"> </text>
<polyline fill="none" stroke="black" points="0,-96.5 77,-96.5 "/>
<text text-anchor="start" x="8" y="-84.5" font-family="Helvetica,sans-Serif" font-size="10.00">+ Pila()</text>
<text text-anchor="start" x="8" y="-73.5" font-family="Helvetica,sans-Serif" font-size="10.00">+ push()</text>
<text text-anchor="start" x="8" y="-62.5" font-family="Helvetica,sans-Serif" font-size="10.00">+ top()</text>
<text text-anchor="start" x="8" y="-51.5" font-family="Helvetica,sans-Serif" font-size="10.00">+ pop()</text>
<text text-anchor="start" x="8" y="-40.5" font-family="Helvetica,sans-Serif" font-size="10.00">+ isEmpty()</text>
<text text-anchor="start" x="8" y="-29.5" font-family="Helvetica,sans-Serif" font-size="10.00">+ imprimir()</text>
<text text-anchor="start" x="8" y="-18.5" font-family="Helvetica,sans-Serif" font-size="10.00">+ eliminar()</text>
<text text-anchor="start" x="8" y="-7.5" font-family="Helvetica,sans-Serif" font-size="10.00">+ ~Pila()</text>
</a>
</g>
</g>
<!-- Node2 -->
<g id="node2" class="node">
<title>Node2</title>
<g id="a_node2"><a xlink:href="structNodo.html" target="_top" xlink:title="Nodo simple para la implementación de una pila.">
<polygon fill="white" stroke="black" points="12,-182.5 12,-239.5 65,-239.5 65,-182.5 12,-182.5"/>
<text text-anchor="middle" x="38.5" y="-227.5" font-family="Helvetica,sans-Serif" font-size="10.00">Nodo</text>
<polyline fill="none" stroke="black" points="12,-220.5 65,-220.5 "/>
<text text-anchor="start" x="20" y="-208.5" font-family="Helvetica,sans-Serif" font-size="10.00">+ valor</text>
<polyline fill="none" stroke="black" points="12,-201.5 65,-201.5 "/>
<text text-anchor="middle" x="38.5" y="-189.5" font-family="Helvetica,sans-Serif" font-size="10.00"> </text>
</a>
</g>
</g>
<!-- Node2&#45;&gt;Node1 -->
<g id="edge1" class="edge">
<title>Node2&#45;&gt;Node1</title>
<path fill="none" stroke="#404040" d="M38.5,-182.38C38.5,-172.02 38.5,-159.66 38.5,-146.97"/>
<polygon fill="none" stroke="#404040" points="38.5,-146.75 34.5,-140.75 38.5,-134.75 42.5,-140.75 38.5,-146.75"/>
<text text-anchor="middle" x="54" y="-156" font-family="Helvetica,sans-Serif" font-size="10.00"> &#45;cima</text>
</g>
<!-- Node2&#45;&gt;Node2 -->
<g id="edge2" class="edge">
<title>Node2&#45;&gt;Node2</title>
<path fill="none" stroke="#404040" d="M65.44,-220.74C75.11,-220.95 83,-217.7 83,-211 83,-207.54 80.9,-205.01 77.55,-203.39"/>
<polygon fill="none" stroke="#404040" points="77.26,-203.34 70.65,-206.24 65.44,-201.26 72.04,-198.36 77.26,-203.34"/>
<text text-anchor="middle" x="111.5" y="-208.5" font-family="Helvetica,sans-Serif" font-size="10.00"> +siguiente</text>
</g>
</g>
</svg>
