<?xml version="1.0" encoding="UTF-8" standalone="no"?>
<!DOCTYPE svg PUBLIC "-//W3C//DTD SVG 1.1//EN"
 "http://www.w3.org/Graphics/SVG/1.1/DTD/svg11.dtd">
<!-- Generated by graphviz version 2.43.0 (0)
 -->
<!-- Title: Pila::isEmpty Pages: 1 -->
<svg width="521pt" height="154pt"
 viewBox="0.00 0.00 521.00 154.00" xmlns="http://www.w3.org/2000/svg" xmlns:xlink="http://www.w3.org/1999/xlink">
<g id="graph0" class="graph" transform="scale(1 1) rotate(0) translate(4 150)">
<title>Pila::isEmpty</title>
<polygon fill="white" stroke="transparent" points="-4,4 -4,-150 517,-150 517,4 -4,4"/>
<!-- Node1 -->
<g id="node1" class="node">
<title>Node1</title>
<g id="a_node1"><a xlink:title="Verifica si la pila está vacía.">
<polygon fill="#bfbfbf" stroke="black" points="433,-60.5 433,-79.5 513,-79.5 513,-60.5 433,-60.5"/>
<text text-anchor="middle" x="473" y="-67.5" font-family="Helvetica,sans-Serif" font-size="10.00">Pila::isEmpty</text>
</a>
</g>
</g>
<!-- Node2 -->
<g id="node2" class="node">
<title>Node2</title>
<g id="a_node2"><a xlink:href="classPila.html#a83f565e49638c5a19da1484aa3dc0d00" target="_top" xlink:title="Elimina la primera aparición de un valor específico.">
<polygon fill="white" stroke="black" points="285,-126.5 285,-145.5 366,-145.5 366,-126.5 285,-126.5"/>
<text text-anchor="middle" x="325.5" y="-133.5" font-family="Helvetica,sans-Serif" font-size="10.00">Pila::eliminar</text>
</a>
</g>
</g>
<!-- Node1&#45;&gt;Node2 -->
<g id="edge1" class="edge">
<title>Node1&#45;&gt;Node2</title>
<path fill="none" stroke="midnightblue" d="M451.1,-85.46C436.55,-95.62 416.36,-108.55 397,-117 387.36,-121.21 376.56,-124.69 366.36,-127.46"/>
<polygon fill="midnightblue" stroke="midnightblue" points="453.27,-88.22 459.38,-79.56 449.2,-82.52 453.27,-88.22"/>
</g>
<!-- Node5 -->
<g id="node5" class="node">
<title>Node5</title>
<g id="a_node5"><a xlink:href="classPortafolio.html#a89e48511af8ac261a2b18deb6d3ce460" target="_top" xlink:title="Elimina el último activo agregado (pop).">
<polygon fill="white" stroke="black" points="254,-77 254,-107 397,-107 397,-77 254,-77"/>
<text text-anchor="start" x="262" y="-95" font-family="Helvetica,sans-Serif" font-size="10.00">Portafolio::eliminarUltimo</text>
<text text-anchor="middle" x="325.5" y="-84" font-family="Helvetica,sans-Serif" font-size="10.00">Activo</text>
</a>
</g>
</g>
<!-- Node1&#45;&gt;Node5 -->
<g id="edge4" class="edge">
<title>Node1&#45;&gt;Node5</title>
<path fill="none" stroke="midnightblue" d="M422.5,-77.48C414.29,-78.73 405.63,-80.03 397.02,-81.34"/>
<polygon fill="midnightblue" stroke="midnightblue" points="423.26,-80.91 432.63,-75.95 422.21,-73.99 423.26,-80.91"/>
</g>
<!-- Node6 -->
<g id="node6" class="node">
<title>Node6</title>
<g id="a_node6"><a xlink:href="classPortafolio.html#a0fd1f6dd832435c9c7180a2701058748" target="_top" xlink:title="Muestra el contenido del portafolio.">
<polygon fill="white" stroke="black" points="93.5,-63.5 93.5,-82.5 201.5,-82.5 201.5,-63.5 93.5,-63.5"/>
<text text-anchor="middle" x="147.5" y="-70.5" font-family="Helvetica,sans-Serif" font-size="10.00">Portafolio::mostrar</text>
</a>
</g>
</g>
<!-- Node1&#45;&gt;Node6 -->
<g id="edge5" class="edge">
<title>Node1&#45;&gt;Node6</title>
<path fill="none" stroke="midnightblue" d="M422.5,-67.74C413.99,-67.43 405.24,-67.16 397,-67 333.46,-65.73 317.53,-65.19 254,-67 236.95,-67.48 218.36,-68.41 201.6,-69.39"/>
<polygon fill="midnightblue" stroke="midnightblue" points="422.57,-71.24 432.7,-68.13 422.84,-64.25 422.57,-71.24"/>
</g>
<!-- Node7 -->
<g id="node7" class="node">
<title>Node7</title>
<g id="a_node7"><a xlink:href="classPortafolio.html#af8bfef7dde343b4fe1fb483047865656" target="_top" xlink:title="Ordena los activos del portafolio en orden alfabético ascendente (A&#45;Z).">
<polygon fill="white" stroke="black" points="254,-0.5 254,-19.5 397,-19.5 397,-0.5 254,-0.5"/>
<text text-anchor="middle" x="325.5" y="-7.5" font-family="Helvetica,sans-Serif" font-size="10.00">Portafolio::ordenarActivos</text>
</a>
</g>
</g>
<!-- Node1&#45;&gt;Node7 -->
<g id="edge7" class="edge">
<title>Node1&#45;&gt;Node7</title>
<path fill="none" stroke="midnightblue" d="M444.38,-55.77C430.36,-48.8 412.97,-40.52 397,-34 384.19,-28.77 369.78,-23.72 357.33,-19.61"/>
<polygon fill="midnightblue" stroke="midnightblue" points="442.97,-58.98 453.48,-60.35 446.12,-52.72 442.97,-58.98"/>
</g>
<!-- Node3 -->
<g id="node3" class="node">
<title>Node3</title>
<g id="a_node3"><a xlink:href="classPortafolio.html#a2a3d95a628382a88d45d666982538b4e" target="_top" xlink:title="Elimina un activo específico del portafolio.">
<polygon fill="white" stroke="black" points="77,-113.5 77,-132.5 218,-132.5 218,-113.5 77,-113.5"/>
<text text-anchor="middle" x="147.5" y="-120.5" font-family="Helvetica,sans-Serif" font-size="10.00">Portafolio::eliminarActivo</text>
</a>
</g>
</g>
<!-- Node2&#45;&gt;Node3 -->
<g id="edge2" class="edge">
<title>Node2&#45;&gt;Node3</title>
<path fill="none" stroke="midnightblue" d="M274.59,-132.31C257.11,-131.02 237.15,-129.55 218.34,-128.16"/>
<polygon fill="midnightblue" stroke="midnightblue" points="274.33,-135.8 284.56,-133.05 274.85,-128.82 274.33,-135.8"/>
</g>
<!-- Node4 -->
<g id="node4" class="node">
<title>Node4</title>
<g id="a_node4"><a xlink:href="codigo_8cpp.html#ae66f6b31b5ad750f1fe042a706a4e3d4" target="_top" xlink:title="Función principal del programa.">
<polygon fill="white" stroke="black" points="0,-82.5 0,-101.5 41,-101.5 41,-82.5 0,-82.5"/>
<text text-anchor="middle" x="20.5" y="-89.5" font-family="Helvetica,sans-Serif" font-size="10.00">main</text>
</a>
</g>
</g>
<!-- Node3&#45;&gt;Node4 -->
<g id="edge3" class="edge">
<title>Node3&#45;&gt;Node4</title>
<path fill="none" stroke="midnightblue" d="M98.14,-111.01C78.32,-106.09 56.5,-100.68 41.22,-96.89"/>
<polygon fill="midnightblue" stroke="midnightblue" points="97.43,-114.44 107.98,-113.45 99.11,-107.64 97.43,-114.44"/>
</g>
<!-- Node6&#45;&gt;Node4 -->
<g id="edge6" class="edge">
<title>Node6&#45;&gt;Node4</title>
<path fill="none" stroke="midnightblue" d="M83.45,-82.58C68.11,-84.91 52.83,-87.24 41.27,-88.99"/>
<polygon fill="midnightblue" stroke="midnightblue" points="84.13,-86.02 93.49,-81.06 83.08,-79.1 84.13,-86.02"/>
</g>
</g>
</svg>
