<?xml version="1.0" encoding="UTF-8" standalone="no"?>
<!DOCTYPE svg PUBLIC "-//W3C//DTD SVG 1.1//EN"
 "http://www.w3.org/Graphics/SVG/1.1/DTD/svg11.dtd">
<!-- Generated by graphviz version 2.43.0 (0)
 -->
<!-- Title: codigo.cpp Pages: 1 -->
<svg width="325pt" height="196pt"
 viewBox="0.00 0.00 325.00 196.00" xmlns="http://www.w3.org/2000/svg" xmlns:xlink="http://www.w3.org/1999/xlink">
<g id="graph0" class="graph" transform="scale(1 1) rotate(0) translate(4 192)">
<title>codigo.cpp</title>
<polygon fill="white" stroke="transparent" points="-4,4 -4,-192 321,-192 321,4 -4,4"/>
<!-- Node1 -->
<g id="node1" class="node">
<title>Node1</title>
<g id="a_node1"><a xlink:title=" ">
<polygon fill="#bfbfbf" stroke="black" points="130,-168.5 130,-187.5 199,-187.5 199,-168.5 130,-168.5"/>
<text text-anchor="middle" x="164.5" y="-175.5" font-family="Helvetica,sans-Serif" font-size="10.00">codigo.cpp</text>
</a>
</g>
</g>
<!-- Node2 -->
<g id="node2" class="node">
<title>Node2</title>
<g id="a_node2"><a xlink:href="empresa_8h.html" target="_top" xlink:title=" ">
<polygon fill="white" stroke="black" points="101.5,-56.5 101.5,-75.5 169.5,-75.5 169.5,-56.5 101.5,-56.5"/>
<text text-anchor="middle" x="135.5" y="-63.5" font-family="Helvetica,sans-Serif" font-size="10.00">empresa.h</text>
</a>
</g>
</g>
<!-- Node1&#45;&gt;Node2 -->
<g id="edge1" class="edge">
<title>Node1&#45;&gt;Node2</title>
<path fill="none" stroke="midnightblue" d="M162.22,-168.37C157.52,-150.54 146.65,-109.3 140.32,-85.27"/>
<polygon fill="midnightblue" stroke="midnightblue" points="143.7,-84.37 137.77,-75.59 136.93,-86.15 143.7,-84.37"/>
</g>
<!-- Node8 -->
<g id="node8" class="node">
<title>Node8</title>
<g id="a_node8"><a xlink:href="noticia_8h.html" target="_top" xlink:title=" ">
<polygon fill="white" stroke="black" points="164,-112.5 164,-131.5 223,-131.5 223,-112.5 164,-112.5"/>
<text text-anchor="middle" x="193.5" y="-119.5" font-family="Helvetica,sans-Serif" font-size="10.00">noticia.h</text>
</a>
</g>
</g>
<!-- Node1&#45;&gt;Node8 -->
<g id="edge7" class="edge">
<title>Node1&#45;&gt;Node8</title>
<path fill="none" stroke="midnightblue" d="M169.29,-168.08C173.26,-160.69 179.03,-149.95 183.93,-140.81"/>
<polygon fill="midnightblue" stroke="midnightblue" points="187.15,-142.22 188.8,-131.75 180.99,-138.91 187.15,-142.22"/>
</g>
<!-- Node3 -->
<g id="node3" class="node">
<title>Node3</title>
<g id="a_node3"><a xlink:title=" ">
<polygon fill="white" stroke="#bfbfbf" points="129.5,-0.5 129.5,-19.5 189.5,-19.5 189.5,-0.5 129.5,-0.5"/>
<text text-anchor="middle" x="159.5" y="-7.5" font-family="Helvetica,sans-Serif" font-size="10.00">iostream</text>
</a>
</g>
</g>
<!-- Node2&#45;&gt;Node3 -->
<g id="edge2" class="edge">
<title>Node2&#45;&gt;Node3</title>
<path fill="none" stroke="midnightblue" d="M139.46,-56.08C142.71,-48.77 147.42,-38.18 151.45,-29.1"/>
<polygon fill="midnightblue" stroke="midnightblue" points="154.75,-30.31 155.61,-19.75 148.35,-27.47 154.75,-30.31"/>
</g>
<!-- Node4 -->
<g id="node4" class="node">
<title>Node4</title>
<g id="a_node4"><a xlink:title=" ">
<polygon fill="white" stroke="#bfbfbf" points="207.5,-0.5 207.5,-19.5 251.5,-19.5 251.5,-0.5 207.5,-0.5"/>
<text text-anchor="middle" x="229.5" y="-7.5" font-family="Helvetica,sans-Serif" font-size="10.00">string</text>
</a>
</g>
</g>
<!-- Node2&#45;&gt;Node4 -->
<g id="edge3" class="edge">
<title>Node2&#45;&gt;Node4</title>
<path fill="none" stroke="midnightblue" d="M150.6,-56.32C165.4,-47.82 188.19,-34.73 205.48,-24.8"/>
<polygon fill="midnightblue" stroke="midnightblue" points="207.51,-27.67 214.43,-19.65 204.02,-21.6 207.51,-27.67"/>
</g>
<!-- Node5 -->
<g id="node5" class="node">
<title>Node5</title>
<g id="a_node5"><a xlink:title=" ">
<polygon fill="white" stroke="#bfbfbf" points="270,-0.5 270,-19.5 317,-19.5 317,-0.5 270,-0.5"/>
<text text-anchor="middle" x="293.5" y="-7.5" font-family="Helvetica,sans-Serif" font-size="10.00">vector</text>
</a>
</g>
</g>
<!-- Node2&#45;&gt;Node5 -->
<g id="edge4" class="edge">
<title>Node2&#45;&gt;Node5</title>
<path fill="none" stroke="midnightblue" d="M160.54,-56.44C187.51,-47.23 230.55,-32.51 260.33,-22.34"/>
<polygon fill="midnightblue" stroke="midnightblue" points="261.54,-25.62 269.87,-19.08 259.28,-19 261.54,-25.62"/>
</g>
<!-- Node6 -->
<g id="node6" class="node">
<title>Node6</title>
<g id="a_node6"><a xlink:title=" ">
<polygon fill="white" stroke="#bfbfbf" points="0,-0.5 0,-19.5 49,-19.5 49,-0.5 0,-0.5"/>
<text text-anchor="middle" x="24.5" y="-7.5" font-family="Helvetica,sans-Serif" font-size="10.00">cstdlib</text>
</a>
</g>
</g>
<!-- Node2&#45;&gt;Node6 -->
<g id="edge5" class="edge">
<title>Node2&#45;&gt;Node6</title>
<path fill="none" stroke="midnightblue" d="M117.67,-56.32C99.78,-47.62 72.02,-34.12 51.45,-24.11"/>
<polygon fill="midnightblue" stroke="midnightblue" points="52.81,-20.88 42.29,-19.65 49.75,-27.18 52.81,-20.88"/>
</g>
<!-- Node7 -->
<g id="node7" class="node">
<title>Node7</title>
<g id="a_node7"><a xlink:title=" ">
<polygon fill="white" stroke="#bfbfbf" points="67.5,-0.5 67.5,-19.5 111.5,-19.5 111.5,-0.5 67.5,-0.5"/>
<text text-anchor="middle" x="89.5" y="-7.5" font-family="Helvetica,sans-Serif" font-size="10.00">ctime</text>
</a>
</g>
</g>
<!-- Node2&#45;&gt;Node7 -->
<g id="edge6" class="edge">
<title>Node2&#45;&gt;Node7</title>
<path fill="none" stroke="midnightblue" d="M127.9,-56.08C121.27,-48.3 111.48,-36.8 103.44,-27.37"/>
<polygon fill="midnightblue" stroke="midnightblue" points="106.1,-25.09 96.95,-19.75 100.77,-29.63 106.1,-25.09"/>
</g>
<!-- Node8&#45;&gt;Node2 -->
<g id="edge13" class="edge">
<title>Node8&#45;&gt;Node2</title>
<path fill="none" stroke="midnightblue" d="M184.18,-112.32C175.61,-104.34 162.69,-92.31 152.31,-82.65"/>
<polygon fill="midnightblue" stroke="midnightblue" points="154.69,-80.09 144.99,-75.83 149.92,-85.21 154.69,-80.09"/>
</g>
<!-- Node8&#45;&gt;Node3 -->
<g id="edge8" class="edge">
<title>Node8&#45;&gt;Node3</title>
<path fill="none" stroke="midnightblue" d="M192.02,-112.46C189.73,-99.91 184.92,-75.83 178.5,-56 175.56,-46.92 171.54,-37.13 167.95,-29.01"/>
<polygon fill="midnightblue" stroke="midnightblue" points="171.08,-27.44 163.75,-19.79 164.71,-30.34 171.08,-27.44"/>
</g>
<!-- Node8&#45;&gt;Node4 -->
<g id="edge9" class="edge">
<title>Node8&#45;&gt;Node4</title>
<path fill="none" stroke="midnightblue" d="M196.32,-112.37C202.16,-94.54 215.66,-53.3 223.52,-29.27"/>
<polygon fill="midnightblue" stroke="midnightblue" points="226.9,-30.18 226.69,-19.59 220.25,-28.01 226.9,-30.18"/>
</g>
<!-- Node8&#45;&gt;Node5 -->
<g id="edge10" class="edge">
<title>Node8&#45;&gt;Node5</title>
<path fill="none" stroke="midnightblue" d="M201.35,-112.37C218.07,-93.97 257.44,-50.67 278.91,-27.05"/>
<polygon fill="midnightblue" stroke="midnightblue" points="281.55,-29.35 285.69,-19.59 276.37,-24.64 281.55,-29.35"/>
</g>
<!-- Node8&#45;&gt;Node6 -->
<g id="edge11" class="edge">
<title>Node8&#45;&gt;Node6</title>
<path fill="none" stroke="midnightblue" d="M163.72,-113.42C139.74,-106.35 105.95,-94.14 80.5,-76 62.19,-62.95 46.01,-42.69 35.8,-28.26"/>
<polygon fill="midnightblue" stroke="midnightblue" points="38.53,-26.05 30,-19.76 32.75,-29.99 38.53,-26.05"/>
</g>
<!-- Node8&#45;&gt;Node7 -->
<g id="edge12" class="edge">
<title>Node8&#45;&gt;Node7</title>
<path fill="none" stroke="midnightblue" d="M163.77,-116.37C140.19,-110.99 108.62,-99.62 92.5,-76 83.35,-62.6 83.53,-43.78 85.44,-29.84"/>
<polygon fill="midnightblue" stroke="midnightblue" points="88.9,-30.35 87.2,-19.9 82.01,-29.13 88.9,-30.35"/>
</g>
</g>
</svg>
