<?xml version="1.0" encoding="UTF-8" standalone="no"?>
<!DOCTYPE svg PUBLIC "-//W3C//DTD SVG 1.1//EN"
 "http://www.w3.org/Graphics/SVG/1.1/DTD/svg11.dtd">
<!-- Generated by graphviz version 2.43.0 (0)
 -->
<!-- Title: main Pages: 1 -->
<svg width="478pt" height="1246pt"
 viewBox="0.00 0.00 478.00 1246.00" xmlns="http://www.w3.org/2000/svg" xmlns:xlink="http://www.w3.org/1999/xlink">
<g id="graph0" class="graph" transform="scale(1 1) rotate(0) translate(4 1242)">
<title>main</title>
<polygon fill="white" stroke="transparent" points="-4,4 -4,-1242 474,-1242 474,4 -4,4"/>
<!-- Node1 -->
<g id="node1" class="node">
<title>Node1</title>
<g id="a_node1"><a xlink:title="Función principal del programa.">
<polygon fill="#bfbfbf" stroke="black" points="0,-606 0,-625 41,-625 41,-606 0,-606"/>
<text text-anchor="middle" x="20.5" y="-613" font-family="Helvetica,sans-Serif" font-size="10.00">main</text>
</a>
</g>
</g>
<!-- Node2 -->
<g id="node2" class="node">
<title>Node2</title>
<g id="a_node2"><a xlink:href="classABBEmpresas.html#ae84bb76dc229040e7e343cafabb76383" target="_top" xlink:title="Ajusta los precios de las empresas de un sector según el impacto de una noticia.">
<polygon fill="white" stroke="black" points="87.5,-1207.5 87.5,-1237.5 247.5,-1237.5 247.5,-1207.5 87.5,-1207.5"/>
<text text-anchor="start" x="95.5" y="-1225.5" font-family="Helvetica,sans-Serif" font-size="10.00">ABBEmpresas::ajustarPrecios</text>
<text text-anchor="middle" x="167.5" y="-1214.5" font-family="Helvetica,sans-Serif" font-size="10.00">PorNoticia</text>
</a>
</g>
</g>
<!-- Node1&#45;&gt;Node2 -->
<g id="edge1" class="edge">
<title>Node1&#45;&gt;Node2</title>
<path fill="none" stroke="midnightblue" d="M21.8,-625.12C24.13,-696.78 40.13,-1146.12 77,-1192.5 79.75,-1195.96 82.92,-1199.03 86.39,-1201.75"/>
<polygon fill="midnightblue" stroke="midnightblue" points="84.69,-1204.82 94.95,-1207.46 88.58,-1199 84.69,-1204.82"/>
</g>
<!-- Node3 -->
<g id="node3" class="node">
<title>Node3</title>
<g id="a_node3"><a xlink:href="classABBEmpresas.html#a705d67b6d795dffea3edf70150e0288d" target="_top" xlink:title="Busca una empresa por ticker.">
<polygon fill="white" stroke="black" points="299,-562 299,-581 465,-581 465,-562 299,-562"/>
<text text-anchor="middle" x="382" y="-569" font-family="Helvetica,sans-Serif" font-size="10.00">ABBEmpresas::buscarEmpresa</text>
</a>
</g>
</g>
<!-- Node1&#45;&gt;Node3 -->
<g id="edge2" class="edge">
<title>Node1&#45;&gt;Node3</title>
<path fill="none" stroke="midnightblue" d="M21.72,-625.13C23.44,-694.96 35.61,-1122.12 77,-1159.5 106.85,-1186.46 226.78,-1184.86 258,-1159.5 349.3,-1085.32 375.2,-685.27 380.07,-591.28"/>
<polygon fill="midnightblue" stroke="midnightblue" points="383.57,-591.32 380.57,-581.16 376.58,-590.98 383.57,-591.32"/>
</g>
<!-- Node4 -->
<g id="node4" class="node">
<title>Node4</title>
<g id="a_node4"><a xlink:href="classABBEmpresas.html#a69e48005487af9a9c02acb869e0a8e56" target="_top" xlink:title="Devuelve una lista de empresas cuyo precio actual está en el rango [minPrecio, maxPrecio].">
<polygon fill="white" stroke="black" points="82,-1119.5 82,-1149.5 253,-1149.5 253,-1119.5 82,-1119.5"/>
<text text-anchor="start" x="90" y="-1137.5" font-family="Helvetica,sans-Serif" font-size="10.00">ABBEmpresas::buscarEmpresas</text>
<text text-anchor="middle" x="167.5" y="-1126.5" font-family="Helvetica,sans-Serif" font-size="10.00">PorRangoPrecio</text>
</a>
</g>
</g>
<!-- Node1&#45;&gt;Node4 -->
<g id="edge3" class="edge">
<title>Node1&#45;&gt;Node4</title>
<path fill="none" stroke="midnightblue" d="M21.95,-625.41C25.04,-691.96 44.09,-1072.23 77,-1110.5 77.73,-1111.35 78.5,-1112.18 79.28,-1112.98"/>
<polygon fill="midnightblue" stroke="midnightblue" points="77.06,-1115.68 86.97,-1119.43 81.56,-1110.32 77.06,-1115.68"/>
</g>
<!-- Node5 -->
<g id="node5" class="node">
<title>Node5</title>
<g id="a_node5"><a xlink:href="classColaPrioridadNoticias.html#ab833342c4584745a79424087c99eb1e9" target="_top" xlink:title="Busca y muestra noticias cuyo título contiene una palabra clave.">
<polygon fill="white" stroke="black" points="100.5,-1070.5 100.5,-1100.5 234.5,-1100.5 234.5,-1070.5 100.5,-1070.5"/>
<text text-anchor="start" x="108.5" y="-1088.5" font-family="Helvetica,sans-Serif" font-size="10.00">ColaPrioridadNoticias</text>
<text text-anchor="middle" x="167.5" y="-1077.5" font-family="Helvetica,sans-Serif" font-size="10.00">::buscarPorPalabraClave</text>
</a>
</g>
</g>
<!-- Node1&#45;&gt;Node5 -->
<g id="edge4" class="edge">
<title>Node1&#45;&gt;Node5</title>
<path fill="none" stroke="midnightblue" d="M21.3,-625.1C20.26,-683.74 17.7,-993.38 77,-1061.5 80.99,-1066.09 85.76,-1069.84 90.98,-1072.91"/>
<polygon fill="midnightblue" stroke="midnightblue" points="89.63,-1076.15 100.14,-1077.45 92.74,-1069.88 89.63,-1076.15"/>
</g>
<!-- Node6 -->
<g id="node6" class="node">
<title>Node6</title>
<g id="a_node6"><a xlink:href="classColaPrioridadNoticias.html#ab0f4086eabcc4d2f9935f9f64527aa7c" target="_top" xlink:title="Busca y muestra noticias que pertenecen a un sector específico.">
<polygon fill="white" stroke="black" points="106.5,-1021.5 106.5,-1051.5 228.5,-1051.5 228.5,-1021.5 106.5,-1021.5"/>
<text text-anchor="start" x="114.5" y="-1039.5" font-family="Helvetica,sans-Serif" font-size="10.00">ColaPrioridadNoticias</text>
<text text-anchor="middle" x="167.5" y="-1028.5" font-family="Helvetica,sans-Serif" font-size="10.00">::buscarPorSector</text>
</a>
</g>
</g>
<!-- Node1&#45;&gt;Node6 -->
<g id="edge5" class="edge">
<title>Node1&#45;&gt;Node6</title>
<path fill="none" stroke="midnightblue" d="M21.47,-625.07C21.52,-679.65 24.43,-951.42 77,-1011.5 82.38,-1017.65 89.13,-1022.34 96.5,-1025.91"/>
<polygon fill="midnightblue" stroke="midnightblue" points="95.53,-1029.3 106.11,-1029.87 98.19,-1022.83 95.53,-1029.3"/>
</g>
<!-- Node7 -->
<g id="node7" class="node">
<title>Node7</title>
<g id="a_node7"><a xlink:href="noticia_8h.html#af24bef6e352d3ace928987de260bb7e6" target="_top" xlink:title="Calcula el porcentaje de ajuste según el impacto.">
<polygon fill="white" stroke="black" points="99,-983 99,-1002 236,-1002 236,-983 99,-983"/>
<text text-anchor="middle" x="167.5" y="-990" font-family="Helvetica,sans-Serif" font-size="10.00">calcularPorcentajeAjuste</text>
</a>
</g>
</g>
<!-- Node1&#45;&gt;Node7 -->
<g id="edge6" class="edge">
<title>Node1&#45;&gt;Node7</title>
<path fill="none" stroke="midnightblue" d="M21.57,-625.2C22.17,-677.07 27.62,-921.3 77,-973.5 80.66,-977.37 84.89,-980.55 89.49,-983.15"/>
<polygon fill="midnightblue" stroke="midnightblue" points="88.18,-986.41 98.72,-987.49 91.16,-980.07 88.18,-986.41"/>
</g>
<!-- Node8 -->
<g id="node8" class="node">
<title>Node8</title>
<g id="a_node8"><a xlink:href="noticia_8h.html#a6370066b96779b15f4c092365be9553b" target="_top" xlink:title="Genera un string de fecha con formato &quot;YYYY&#45;MM&#45;DD&quot; a partir de un número de días desde el inicio.">
<polygon fill="white" stroke="black" points="126,-945 126,-964 209,-964 209,-945 126,-945"/>
<text text-anchor="middle" x="167.5" y="-952" font-family="Helvetica,sans-Serif" font-size="10.00">generarFecha</text>
</a>
</g>
</g>
<!-- Node1&#45;&gt;Node8 -->
<g id="edge7" class="edge">
<title>Node1&#45;&gt;Node8</title>
<path fill="none" stroke="midnightblue" d="M21.77,-625.11C23.3,-673.45 32.6,-889.41 77,-935.5 87.02,-945.9 101.21,-951.31 115.35,-953.96"/>
<polygon fill="midnightblue" stroke="midnightblue" points="115.18,-957.48 125.58,-955.44 116.18,-950.55 115.18,-957.48"/>
</g>
<!-- Node9 -->
<g id="node9" class="node">
<title>Node9</title>
<g id="a_node9"><a xlink:href="classColaPrioridadNoticias.html#afccedcf2a79e14243c3d685f2fcf9e5a" target="_top" xlink:title="Detecta si hay una alerta de crisis (3 o más noticias con impacto &gt;= 8).">
<polygon fill="white" stroke="black" points="106.5,-895.5 106.5,-925.5 228.5,-925.5 228.5,-895.5 106.5,-895.5"/>
<text text-anchor="start" x="114.5" y="-913.5" font-family="Helvetica,sans-Serif" font-size="10.00">ColaPrioridadNoticias</text>
<text text-anchor="middle" x="167.5" y="-902.5" font-family="Helvetica,sans-Serif" font-size="10.00">::hayAlertaDeCrisis</text>
</a>
</g>
</g>
<!-- Node1&#45;&gt;Node9 -->
<g id="edge8" class="edge">
<title>Node1&#45;&gt;Node9</title>
<path fill="none" stroke="midnightblue" d="M22.17,-625.26C25.37,-668.98 40.44,-846.3 77,-885.5 82.49,-891.39 89.25,-895.93 96.56,-899.43"/>
<polygon fill="midnightblue" stroke="midnightblue" points="95.49,-902.78 106.07,-903.33 98.15,-896.3 95.49,-902.78"/>
</g>
<!-- Node10 -->
<g id="node10" class="node">
<title>Node10</title>
<g id="a_node10"><a xlink:href="classABBEmpresas.html#ae66f600b3457f3e6aeb09840d9188dcc" target="_top" xlink:title="Imprime la información de una empresa en formato de tabla.">
<polygon fill="white" stroke="black" points="79.5,-857 79.5,-876 255.5,-876 255.5,-857 79.5,-857"/>
<text text-anchor="middle" x="167.5" y="-864" font-family="Helvetica,sans-Serif" font-size="10.00">ABBEmpresas::imprimirEmpresa</text>
</a>
</g>
</g>
<!-- Node1&#45;&gt;Node10 -->
<g id="edge9" class="edge">
<title>Node1&#45;&gt;Node10</title>
<path fill="none" stroke="midnightblue" d="M22.46,-625.26C26.6,-665.19 44.15,-815.49 77,-847.5 78.45,-848.91 79.98,-850.23 81.57,-851.47"/>
<polygon fill="midnightblue" stroke="midnightblue" points="79.74,-854.45 90.04,-856.92 83.53,-848.56 79.74,-854.45"/>
</g>
<!-- Node11 -->
<g id="node11" class="node">
<title>Node11</title>
<g id="a_node11"><a xlink:href="classABBEmpresas.html#a66382212802e5ab39724152cb88a0912" target="_top" xlink:title="Imprime todas las empresas y su precio actual por consola.">
<polygon fill="white" stroke="black" points="77,-819 77,-838 258,-838 258,-819 77,-819"/>
<text text-anchor="middle" x="167.5" y="-826" font-family="Helvetica,sans-Serif" font-size="10.00">ABBEmpresas::imprimirEmpresas</text>
</a>
</g>
</g>
<!-- Node1&#45;&gt;Node11 -->
<g id="edge10" class="edge">
<title>Node1&#45;&gt;Node11</title>
<path fill="none" stroke="midnightblue" d="M21.06,-625.32C20.23,-657.15 22.18,-758.36 77,-809.5 78.52,-810.92 80.13,-812.25 81.8,-813.48"/>
<polygon fill="midnightblue" stroke="midnightblue" points="80.3,-816.67 90.65,-818.95 83.98,-810.72 80.3,-816.67"/>
</g>
<!-- Node12 -->
<g id="node12" class="node">
<title>Node12</title>
<g id="a_node12"><a xlink:href="classABBEmpresas.html#af19e68352e97995e93431e69aec215b5" target="_top" xlink:title="Imprime todas las empresas de un sector específico.">
<polygon fill="white" stroke="black" points="77,-769.5 77,-799.5 258,-799.5 258,-769.5 77,-769.5"/>
<text text-anchor="start" x="85" y="-787.5" font-family="Helvetica,sans-Serif" font-size="10.00">ABBEmpresas::imprimirEmpresas</text>
<text text-anchor="middle" x="167.5" y="-776.5" font-family="Helvetica,sans-Serif" font-size="10.00">PorSector</text>
</a>
</g>
</g>
<!-- Node1&#45;&gt;Node12 -->
<g id="edge11" class="edge">
<title>Node1&#45;&gt;Node12</title>
<path fill="none" stroke="midnightblue" d="M22.27,-625.3C24.85,-651.39 35.56,-723.14 77,-760.5 78.31,-761.68 79.68,-762.81 81.09,-763.88"/>
<polygon fill="midnightblue" stroke="midnightblue" points="79.34,-766.92 89.63,-769.45 83.16,-761.06 79.34,-766.92"/>
</g>
<!-- Node13 -->
<g id="node13" class="node">
<title>Node13</title>
<g id="a_node13"><a xlink:href="classABBEmpresas.html#a5475778344348be4a823d4f35da3ab9d" target="_top" xlink:title="Imprime empresas ordenadas por precio actual (de mayor a menor).">
<polygon fill="white" stroke="black" points="93,-720.5 93,-750.5 242,-750.5 242,-720.5 93,-720.5"/>
<text text-anchor="start" x="101" y="-738.5" font-family="Helvetica,sans-Serif" font-size="10.00">ABBEmpresas::imprimirPor</text>
<text text-anchor="middle" x="167.5" y="-727.5" font-family="Helvetica,sans-Serif" font-size="10.00">Precio</text>
</a>
</g>
</g>
<!-- Node1&#45;&gt;Node13 -->
<g id="edge12" class="edge">
<title>Node1&#45;&gt;Node13</title>
<path fill="none" stroke="midnightblue" d="M24.28,-625.06C30.43,-644.46 47.06,-688.54 77,-711.5 79.12,-713.13 81.35,-714.65 83.65,-716.06"/>
<polygon fill="midnightblue" stroke="midnightblue" points="82.42,-719.37 92.88,-721.02 85.73,-713.21 82.42,-719.37"/>
</g>
<!-- Node14 -->
<g id="node14" class="node">
<title>Node14</title>
<g id="a_node14"><a xlink:href="classColaPrioridadNoticias.html#ac7aedfac4289f61343f4f28bf6b1cc35" target="_top" xlink:title="Inserta una noticia en la cola de prioridad según su impacto.">
<polygon fill="white" stroke="black" points="106.5,-671.5 106.5,-701.5 228.5,-701.5 228.5,-671.5 106.5,-671.5"/>
<text text-anchor="start" x="114.5" y="-689.5" font-family="Helvetica,sans-Serif" font-size="10.00">ColaPrioridadNoticias</text>
<text text-anchor="middle" x="167.5" y="-678.5" font-family="Helvetica,sans-Serif" font-size="10.00">::insertar</text>
</a>
</g>
</g>
<!-- Node1&#45;&gt;Node14 -->
<g id="edge13" class="edge">
<title>Node1&#45;&gt;Node14</title>
<path fill="none" stroke="midnightblue" d="M30.37,-625.24C40.61,-635.9 58.43,-652.78 77,-662.5 83.13,-665.71 89.72,-668.52 96.45,-670.97"/>
<polygon fill="midnightblue" stroke="midnightblue" points="95.78,-674.43 106.38,-674.31 98.02,-667.8 95.78,-674.43"/>
</g>
<!-- Node15 -->
<g id="node15" class="node">
<title>Node15</title>
<g id="a_node15"><a xlink:href="classColaPrioridadNoticias.html#acf945e1aec8cf586d6b87382a1a9a9e2" target="_top" xlink:title="Muestra todas las noticias en la cola, en orden de prioridad.">
<polygon fill="white" stroke="black" points="106.5,-622.5 106.5,-652.5 228.5,-652.5 228.5,-622.5 106.5,-622.5"/>
<text text-anchor="start" x="114.5" y="-640.5" font-family="Helvetica,sans-Serif" font-size="10.00">ColaPrioridadNoticias</text>
<text text-anchor="middle" x="167.5" y="-629.5" font-family="Helvetica,sans-Serif" font-size="10.00">::mostrar</text>
</a>
</g>
</g>
<!-- Node1&#45;&gt;Node15 -->
<g id="edge14" class="edge">
<title>Node1&#45;&gt;Node15</title>
<path fill="none" stroke="midnightblue" d="M41.06,-618.47C55.47,-620.65 76.03,-623.77 96.34,-626.85"/>
<polygon fill="midnightblue" stroke="midnightblue" points="95.85,-630.32 106.26,-628.36 96.9,-623.4 95.85,-630.32"/>
</g>
<!-- Node16 -->
<g id="node16" class="node">
<title>Node16</title>
<g id="a_node16"><a xlink:href="noticia_8h.html#af7db67c9b2b44a23312346ae3cf2a20f" target="_top" xlink:title="Muestra el ajuste aplicado a los precios de un sector.">
<polygon fill="white" stroke="black" points="109.5,-584 109.5,-603 225.5,-603 225.5,-584 109.5,-584"/>
<text text-anchor="middle" x="167.5" y="-591" font-family="Helvetica,sans-Serif" font-size="10.00">mostrarAjusteSector</text>
</a>
</g>
</g>
<!-- Node1&#45;&gt;Node16 -->
<g id="edge15" class="edge">
<title>Node1&#45;&gt;Node16</title>
<path fill="none" stroke="midnightblue" d="M41.06,-612.53C56.2,-610.23 78.13,-606.91 99.43,-603.68"/>
<polygon fill="midnightblue" stroke="midnightblue" points="100.11,-607.11 109.48,-602.15 99.06,-600.19 100.11,-607.11"/>
</g>
<!-- Node17 -->
<g id="node17" class="node">
<title>Node17</title>
<g id="a_node17"><a xlink:href="noticia_8h.html#a80268dccce1ece0cbb6406c81d50baed" target="_top" xlink:title="Muestra los cambios de precio de una empresa por cada noticia que la afectó, mostrando el precio ante...">
<polygon fill="white" stroke="black" points="91,-534.5 91,-564.5 244,-564.5 244,-534.5 91,-534.5"/>
<text text-anchor="start" x="99" y="-552.5" font-family="Helvetica,sans-Serif" font-size="10.00">mostrarCambiosPorNoticias</text>
<text text-anchor="middle" x="167.5" y="-541.5" font-family="Helvetica,sans-Serif" font-size="10.00">Empresa</text>
</a>
</g>
</g>
<!-- Node1&#45;&gt;Node17 -->
<g id="edge16" class="edge">
<title>Node1&#45;&gt;Node17</title>
<path fill="none" stroke="midnightblue" d="M32.2,-605.73C42.84,-596.48 59.99,-582.81 77,-574.5 81.68,-572.21 86.61,-570.11 91.64,-568.17"/>
<polygon fill="midnightblue" stroke="midnightblue" points="93.19,-571.33 101.41,-564.65 90.82,-564.74 93.19,-571.33"/>
</g>
<!-- Node19 -->
<g id="node19" class="node">
<title>Node19</title>
<g id="a_node19"><a xlink:href="noticia_8h.html#a7242f8be6bf0222aa3c0397c220cd251" target="_top" xlink:title="Muestra el impacto de las noticias en las acciones de las empresas.">
<polygon fill="white" stroke="black" points="94.5,-485.5 94.5,-515.5 240.5,-515.5 240.5,-485.5 94.5,-485.5"/>
<text text-anchor="start" x="102.5" y="-503.5" font-family="Helvetica,sans-Serif" font-size="10.00">mostrarImpactoNoticiasEn</text>
<text text-anchor="middle" x="167.5" y="-492.5" font-family="Helvetica,sans-Serif" font-size="10.00">Acciones</text>
</a>
</g>
</g>
<!-- Node1&#45;&gt;Node19 -->
<g id="edge19" class="edge">
<title>Node1&#45;&gt;Node19</title>
<path fill="none" stroke="midnightblue" d="M24.68,-605.99C31.35,-587.56 48.55,-546.92 77,-525.5 79.64,-523.51 82.44,-521.68 85.34,-519.99"/>
<polygon fill="midnightblue" stroke="midnightblue" points="87.04,-523.05 94.33,-515.36 83.84,-516.83 87.04,-523.05"/>
</g>
<!-- Node20 -->
<g id="node20" class="node">
<title>Node20</title>
<g id="a_node20"><a xlink:href="classABBEmpresas.html#a6ccc64afaf894799cf66b3e46db34674" target="_top" xlink:title="Devuelve una lista ordenada de empresas (inorden).">
<polygon fill="white" stroke="black" points="294,-463.5 294,-493.5 470,-493.5 470,-463.5 294,-463.5"/>
<text text-anchor="start" x="302" y="-481.5" font-family="Helvetica,sans-Serif" font-size="10.00">ABBEmpresas::obtenerEmpresas</text>
<text text-anchor="middle" x="382" y="-470.5" font-family="Helvetica,sans-Serif" font-size="10.00">Ordenadas</text>
</a>
</g>
</g>
<!-- Node1&#45;&gt;Node20 -->
<g id="edge28" class="edge">
<title>Node1&#45;&gt;Node20</title>
<path fill="none" stroke="midnightblue" d="M21.88,-605.8C23.49,-579.38 32.01,-506.06 77,-475.5 151.34,-425.01 261.26,-443 326.56,-460.72"/>
<polygon fill="midnightblue" stroke="midnightblue" points="325.67,-464.11 336.25,-463.44 327.56,-457.37 325.67,-464.11"/>
</g>
<!-- Node21 -->
<g id="node21" class="node">
<title>Node21</title>
<g id="a_node21"><a xlink:href="codigo_8cpp.html#a18fa8d8d51312c04f847fd499a5fca9b" target="_top" xlink:title="Muestra el submenú de opciones relacionadas con empresas.">
<polygon fill="white" stroke="black" points="105,-409 105,-428 230,-428 230,-409 105,-409"/>
<text text-anchor="middle" x="167.5" y="-416" font-family="Helvetica,sans-Serif" font-size="10.00">mostrarMenuEmpresa</text>
</a>
</g>
</g>
<!-- Node1&#45;&gt;Node21 -->
<g id="edge22" class="edge">
<title>Node1&#45;&gt;Node21</title>
<path fill="none" stroke="midnightblue" d="M21.57,-605.6C22.36,-576.16 28.81,-488.41 77,-442.5 82.37,-437.39 88.7,-433.34 95.47,-430.14"/>
<polygon fill="midnightblue" stroke="midnightblue" points="97.01,-433.29 104.94,-426.27 94.36,-426.81 97.01,-433.29"/>
</g>
<!-- Node22 -->
<g id="node22" class="node">
<title>Node22</title>
<g id="a_node22"><a xlink:href="codigo_8cpp.html#a476b760037c5062b609f62bcf13f21ef" target="_top" xlink:title="Muestra el menú principal para elegir entre opciones por empresa, sector o noticias.">
<polygon fill="white" stroke="black" points="105.5,-371 105.5,-390 229.5,-390 229.5,-371 105.5,-371"/>
<text text-anchor="middle" x="167.5" y="-378" font-family="Helvetica,sans-Serif" font-size="10.00">mostrarMenuPrincipal</text>
</a>
</g>
</g>
<!-- Node1&#45;&gt;Node22 -->
<g id="edge23" class="edge">
<title>Node1&#45;&gt;Node22</title>
<path fill="none" stroke="midnightblue" d="M22.63,-605.9C27.28,-567.94 46.18,-429.04 77,-399.5 82.36,-394.36 88.75,-390.47 95.61,-387.53"/>
<polygon fill="midnightblue" stroke="midnightblue" points="96.97,-390.76 105.21,-384.1 94.61,-384.17 96.97,-390.76"/>
</g>
<!-- Node23 -->
<g id="node23" class="node">
<title>Node23</title>
<g id="a_node23"><a xlink:href="codigo_8cpp.html#a94581a9b3feac964bdced8cdc15e8484" target="_top" xlink:title="Muestra el submenú de opciones relacionadas con sectores.">
<polygon fill="white" stroke="black" points="111,-333 111,-352 224,-352 224,-333 111,-333"/>
<text text-anchor="middle" x="167.5" y="-340" font-family="Helvetica,sans-Serif" font-size="10.00">mostrarMenuSector</text>
</a>
</g>
</g>
<!-- Node1&#45;&gt;Node23 -->
<g id="edge24" class="edge">
<title>Node1&#45;&gt;Node23</title>
<path fill="none" stroke="midnightblue" d="M22.23,-605.98C25.61,-564.13 41.23,-397.06 77,-361.5 83.62,-354.92 91.91,-350.36 100.77,-347.24"/>
<polygon fill="midnightblue" stroke="midnightblue" points="101.92,-350.55 110.54,-344.39 99.96,-343.83 101.92,-350.55"/>
</g>
<!-- Node24 -->
<g id="node24" class="node">
<title>Node24</title>
<g id="a_node24"><a xlink:href="codigo_8cpp.html#a15ca712c518aa6cdc4fabc8b3fa84692" target="_top" xlink:title="Muestra el submenú de opciones relacionadas con simulación y noticias financieras.">
<polygon fill="white" stroke="black" points="99.5,-295 99.5,-314 235.5,-314 235.5,-295 99.5,-295"/>
<text text-anchor="middle" x="167.5" y="-302" font-family="Helvetica,sans-Serif" font-size="10.00">mostrarMenuSimulacion</text>
</a>
</g>
</g>
<!-- Node1&#45;&gt;Node24 -->
<g id="edge25" class="edge">
<title>Node1&#45;&gt;Node24</title>
<path fill="none" stroke="midnightblue" d="M21.94,-605.82C24.24,-559.97 36.3,-365.08 77,-323.5 80.79,-319.63 85.16,-316.45 89.89,-313.85"/>
<polygon fill="midnightblue" stroke="midnightblue" points="91.72,-316.86 99.37,-309.53 88.82,-310.49 91.72,-316.86"/>
</g>
<!-- Node25 -->
<g id="node25" class="node">
<title>Node25</title>
<g id="a_node25"><a xlink:href="classABBEmpresas.html#a77be3c43461441d10f9dd6f03d24604d" target="_top" xlink:title="Devuelve la empresa con el precio actual más bajo.">
<polygon fill="white" stroke="black" points="82,-245.5 82,-275.5 253,-275.5 253,-245.5 82,-245.5"/>
<text text-anchor="start" x="90" y="-263.5" font-family="Helvetica,sans-Serif" font-size="10.00">ABBEmpresas::obtenerEmpresa</text>
<text text-anchor="middle" x="167.5" y="-252.5" font-family="Helvetica,sans-Serif" font-size="10.00">MasBarata</text>
</a>
</g>
</g>
<!-- Node1&#45;&gt;Node25 -->
<g id="edge26" class="edge">
<title>Node1&#45;&gt;Node25</title>
<path fill="none" stroke="midnightblue" d="M21.77,-605.97C23.33,-557.05 32.81,-334.63 77,-285.5 78.19,-284.18 79.44,-282.93 80.74,-281.74"/>
<polygon fill="midnightblue" stroke="midnightblue" points="82.95,-284.46 88.78,-275.61 78.7,-278.89 82.95,-284.46"/>
</g>
<!-- Node26 -->
<g id="node26" class="node">
<title>Node26</title>
<g id="a_node26"><a xlink:href="classABBEmpresas.html#a9773e3023fbdf2197242337670da6941" target="_top" xlink:title="Devuelve la empresa con el precio actual más alto.">
<polygon fill="white" stroke="black" points="82,-196.5 82,-226.5 253,-226.5 253,-196.5 82,-196.5"/>
<text text-anchor="start" x="90" y="-214.5" font-family="Helvetica,sans-Serif" font-size="10.00">ABBEmpresas::obtenerEmpresa</text>
<text text-anchor="middle" x="167.5" y="-203.5" font-family="Helvetica,sans-Serif" font-size="10.00">MasCara</text>
</a>
</g>
</g>
<!-- Node1&#45;&gt;Node26 -->
<g id="edge27" class="edge">
<title>Node1&#45;&gt;Node26</title>
<path fill="none" stroke="midnightblue" d="M21.53,-605.97C21.87,-552.74 26.16,-292.67 77,-235.5 77.75,-234.66 78.52,-233.85 79.32,-233.06"/>
<polygon fill="midnightblue" stroke="midnightblue" points="81.58,-235.73 87.1,-226.69 77.15,-230.32 81.58,-235.73"/>
</g>
<!-- Node27 -->
<g id="node27" class="node">
<title>Node27</title>
<g id="a_node27"><a xlink:href="classColaPrioridadNoticias.html#a3811c333f31595938a583b600b35bad8" target="_top" xlink:title="Ordena toda la cola de noticias cronológicamente por fecha.">
<polygon fill="white" stroke="black" points="106.5,-147.5 106.5,-177.5 228.5,-177.5 228.5,-147.5 106.5,-147.5"/>
<text text-anchor="start" x="114.5" y="-165.5" font-family="Helvetica,sans-Serif" font-size="10.00">ColaPrioridadNoticias</text>
<text text-anchor="middle" x="167.5" y="-154.5" font-family="Helvetica,sans-Serif" font-size="10.00">::ordenarPorFecha</text>
</a>
</g>
</g>
<!-- Node1&#45;&gt;Node27 -->
<g id="edge29" class="edge">
<title>Node1&#45;&gt;Node27</title>
<path fill="none" stroke="midnightblue" d="M21.35,-605.89C20.66,-548.55 19.89,-251.78 77,-186.5 82.36,-180.37 89.1,-175.73 96.47,-172.22"/>
<polygon fill="midnightblue" stroke="midnightblue" points="98.1,-175.34 106.08,-168.36 95.49,-168.84 98.1,-175.34"/>
</g>
<!-- Node28 -->
<g id="node28" class="node">
<title>Node28</title>
<g id="a_node28"><a xlink:href="classColaPrioridadNoticias.html#a3db4934bf16a4b593a39f23876a3f158" target="_top" xlink:title="Calcula el promedio del impacto de todas las noticias en la cola.">
<polygon fill="white" stroke="black" points="106.5,-98.5 106.5,-128.5 228.5,-128.5 228.5,-98.5 106.5,-98.5"/>
<text text-anchor="start" x="114.5" y="-116.5" font-family="Helvetica,sans-Serif" font-size="10.00">ColaPrioridadNoticias</text>
<text text-anchor="middle" x="167.5" y="-105.5" font-family="Helvetica,sans-Serif" font-size="10.00">::promedioImpacto</text>
</a>
</g>
</g>
<!-- Node1&#45;&gt;Node28 -->
<g id="edge30" class="edge">
<title>Node1&#45;&gt;Node28</title>
<path fill="none" stroke="midnightblue" d="M21.97,-605.93C25.22,-541.66 45.13,-174.41 77,-137.5 82.4,-131.25 89.23,-126.54 96.7,-123.01"/>
<polygon fill="midnightblue" stroke="midnightblue" points="98.45,-126.08 106.45,-119.13 95.86,-119.57 98.45,-126.08"/>
</g>
<!-- Node29 -->
<g id="node29" class="node">
<title>Node29</title>
<g id="a_node29"><a xlink:href="classMultilistaPrecio.html#aab95a547304a1d3168a6c1916ea3b757" target="_top" xlink:title="Calcula el promedio móvil de los últimos &#39;dias&#39; precios.">
<polygon fill="white" stroke="black" points="95,-49.5 95,-79.5 240,-79.5 240,-49.5 95,-49.5"/>
<text text-anchor="start" x="103" y="-67.5" font-family="Helvetica,sans-Serif" font-size="10.00">MultilistaPrecio::promedio</text>
<text text-anchor="middle" x="167.5" y="-56.5" font-family="Helvetica,sans-Serif" font-size="10.00">Movil</text>
</a>
</g>
</g>
<!-- Node1&#45;&gt;Node29 -->
<g id="edge31" class="edge">
<title>Node1&#45;&gt;Node29</title>
<path fill="none" stroke="midnightblue" d="M21.87,-605.84C24.55,-537.59 41.97,-129.51 77,-88.5 79.69,-85.36 82.73,-82.6 86.05,-80.19"/>
<polygon fill="midnightblue" stroke="midnightblue" points="88.05,-83.07 94.76,-74.87 84.4,-77.09 88.05,-83.07"/>
</g>
<!-- Node30 -->
<g id="node30" class="node">
<title>Node30</title>
<g id="a_node30"><a xlink:href="classABBEmpresas.html#a0c1aa570634d14b5cebac4cbb4ddd184" target="_top" xlink:title="Calcula el promedio del precio actual de las empresas de un sector.">
<polygon fill="white" stroke="black" points="84,-0.5 84,-30.5 251,-30.5 251,-0.5 84,-0.5"/>
<text text-anchor="start" x="92" y="-18.5" font-family="Helvetica,sans-Serif" font-size="10.00">ABBEmpresas::promedioPrecio</text>
<text text-anchor="middle" x="167.5" y="-7.5" font-family="Helvetica,sans-Serif" font-size="10.00">PorSector</text>
</a>
</g>
</g>
<!-- Node1&#45;&gt;Node30 -->
<g id="edge32" class="edge">
<title>Node1&#45;&gt;Node30</title>
<path fill="none" stroke="midnightblue" d="M21.78,-605.88C23.91,-534.17 38.79,-84.65 77,-39.5 77.73,-38.64 78.48,-37.81 79.26,-37.01"/>
<polygon fill="midnightblue" stroke="midnightblue" points="81.55,-39.66 86.9,-30.52 77.01,-34.32 81.55,-39.66"/>
</g>
<!-- Node17&#45;&gt;Node3 -->
<g id="edge17" class="edge">
<title>Node17&#45;&gt;Node3</title>
<path fill="none" stroke="midnightblue" d="M244.02,-557.32C258.46,-558.81 273.73,-560.39 288.63,-561.94"/>
<polygon fill="midnightblue" stroke="midnightblue" points="288.57,-565.45 298.87,-563 289.29,-558.49 288.57,-565.45"/>
</g>
<!-- Node18 -->
<g id="node18" class="node">
<title>Node18</title>
<g id="a_node18"><a xlink:href="classColaPrioridadNoticias.html#a9c3a7f5944aa0f85f3ebf69c1db5eaf7" target="_top" xlink:title="Llena un vector con punteros a todas las noticias en la cola (en orden actual).">
<polygon fill="white" stroke="black" points="321,-512.5 321,-542.5 443,-542.5 443,-512.5 321,-512.5"/>
<text text-anchor="start" x="329" y="-530.5" font-family="Helvetica,sans-Serif" font-size="10.00">ColaPrioridadNoticias</text>
<text text-anchor="middle" x="382" y="-519.5" font-family="Helvetica,sans-Serif" font-size="10.00">::obtenerNoticias</text>
</a>
</g>
</g>
<!-- Node17&#45;&gt;Node18 -->
<g id="edge18" class="edge">
<title>Node17&#45;&gt;Node18</title>
<path fill="none" stroke="midnightblue" d="M244.02,-541.68C265.75,-539.43 289.35,-536.99 310.75,-534.77"/>
<polygon fill="midnightblue" stroke="midnightblue" points="311.15,-538.25 320.73,-533.74 310.43,-531.29 311.15,-538.25"/>
</g>
<!-- Node19&#45;&gt;Node18 -->
<g id="edge21" class="edge">
<title>Node19&#45;&gt;Node18</title>
<path fill="none" stroke="midnightblue" d="M240.74,-509.68C263.38,-512.56 288.33,-515.73 310.82,-518.58"/>
<polygon fill="midnightblue" stroke="midnightblue" points="310.61,-522.08 320.97,-519.87 311.49,-515.14 310.61,-522.08"/>
</g>
<!-- Node19&#45;&gt;Node20 -->
<g id="edge20" class="edge">
<title>Node19&#45;&gt;Node20</title>
<path fill="none" stroke="midnightblue" d="M240.74,-493.02C254.62,-491.58 269.37,-490.06 283.89,-488.55"/>
<polygon fill="midnightblue" stroke="midnightblue" points="284.3,-492.03 293.89,-487.52 283.58,-485.07 284.3,-492.03"/>
</g>
</g>
</svg>
