<?xml version="1.0" encoding="UTF-8" standalone="no"?>
<!DOCTYPE svg PUBLIC "-//W3C//DTD SVG 1.1//EN"
 "http://www.w3.org/Graphics/SVG/1.1/DTD/svg11.dtd">
<!-- Generated by graphviz version 2.43.0 (0)
 -->
<!-- Title: empresa.h Pages: 1 -->
<svg width="101pt" height="140pt"
 viewBox="0.00 0.00 101.00 140.00" xmlns="http://www.w3.org/2000/svg" xmlns:xlink="http://www.w3.org/1999/xlink">
<g id="graph0" class="graph" transform="scale(1 1) rotate(0) translate(4 136)">
<title>empresa.h</title>
<polygon fill="white" stroke="transparent" points="-4,4 -4,-136 97,-136 97,4 -4,4"/>
<!-- Node1 -->
<g id="node1" class="node">
<title>Node1</title>
<g id="a_node1"><a xlink:title=" ">
<polygon fill="#bfbfbf" stroke="black" points="0.5,-112.5 0.5,-131.5 68.5,-131.5 68.5,-112.5 0.5,-112.5"/>
<text text-anchor="middle" x="34.5" y="-119.5" font-family="Helvetica,sans-Serif" font-size="10.00">empresa.h</text>
</a>
</g>
</g>
<!-- Node2 -->
<g id="node2" class="node">
<title>Node2</title>
<g id="a_node2"><a xlink:href="codigo_8cpp.html" target="_top" xlink:title=" ">
<polygon fill="white" stroke="black" points="0,-0.5 0,-19.5 69,-19.5 69,-0.5 0,-0.5"/>
<text text-anchor="middle" x="34.5" y="-7.5" font-family="Helvetica,sans-Serif" font-size="10.00">codigo.cpp</text>
</a>
</g>
</g>
<!-- Node1&#45;&gt;Node2 -->
<g id="edge1" class="edge">
<title>Node1&#45;&gt;Node2</title>
<path fill="none" stroke="midnightblue" d="M28.97,-102.19C25.81,-89.24 22.78,-71.62 24.5,-56 25.91,-43.11 29.54,-28.52 32.02,-19.53"/>
<polygon fill="midnightblue" stroke="midnightblue" points="25.68,-103.46 31.66,-112.2 32.44,-101.63 25.68,-103.46"/>
</g>
<!-- Node3 -->
<g id="node3" class="node">
<title>Node3</title>
<g id="a_node3"><a xlink:href="noticia_8h.html" target="_top" xlink:title=" ">
<polygon fill="white" stroke="black" points="34,-56.5 34,-75.5 93,-75.5 93,-56.5 34,-56.5"/>
<text text-anchor="middle" x="63.5" y="-63.5" font-family="Helvetica,sans-Serif" font-size="10.00">noticia.h</text>
</a>
</g>
</g>
<!-- Node1&#45;&gt;Node3 -->
<g id="edge2" class="edge">
<title>Node1&#45;&gt;Node3</title>
<path fill="none" stroke="midnightblue" d="M44.18,-102.98C49.1,-93.82 54.86,-83.09 58.8,-75.75"/>
<polygon fill="midnightblue" stroke="midnightblue" points="40.94,-101.62 39.29,-112.08 47.1,-104.93 40.94,-101.62"/>
</g>
<!-- Node3&#45;&gt;Node2 -->
<g id="edge3" class="edge">
<title>Node3&#45;&gt;Node2</title>
<path fill="none" stroke="midnightblue" d="M53.82,-46.98C48.9,-37.82 43.14,-27.09 39.2,-19.75"/>
<polygon fill="midnightblue" stroke="midnightblue" points="50.9,-48.93 58.71,-56.08 57.06,-45.62 50.9,-48.93"/>
</g>
</g>
</svg>
