<?xml version="1.0" encoding="UTF-8" standalone="no"?>
<!DOCTYPE svg PUBLIC "-//W3C//DTD SVG 1.1//EN"
 "http://www.w3.org/Graphics/SVG/1.1/DTD/svg11.dtd">
<!-- Generated by graphviz version 2.43.0 (0)
 -->
<!-- Title: mostrarCambiosPorNoticiasEmpresa Pages: 1 -->
<svg width="363pt" height="78pt"
 viewBox="0.00 0.00 363.00 77.50" xmlns="http://www.w3.org/2000/svg" xmlns:xlink="http://www.w3.org/1999/xlink">
<g id="graph0" class="graph" transform="scale(1 1) rotate(0) translate(4 73.5)">
<title>mostrarCambiosPorNoticiasEmpresa</title>
<polygon fill="white" stroke="transparent" points="-4,4 -4,-73.5 359,-73.5 359,4 -4,4"/>
<!-- Node1 -->
<g id="node1" class="node">
<title>Node1</title>
<g id="a_node1"><a xlink:title="Muestra los cambios de precio de una empresa por cada noticia que la afectó, mostrando el precio ante...">
<polygon fill="#bfbfbf" stroke="black" points="0,-22.5 0,-52.5 153,-52.5 153,-22.5 0,-22.5"/>
<text text-anchor="start" x="8" y="-40.5" font-family="Helvetica,sans-Serif" font-size="10.00">mostrarCambiosPorNoticias</text>
<text text-anchor="middle" x="76.5" y="-29.5" font-family="Helvetica,sans-Serif" font-size="10.00">Empresa</text>
</a>
</g>
</g>
<!-- Node2 -->
<g id="node2" class="node">
<title>Node2</title>
<g id="a_node2"><a xlink:href="classABBEmpresas.html#a705d67b6d795dffea3edf70150e0288d" target="_top" xlink:title="Busca una empresa por ticker.">
<polygon fill="white" stroke="black" points="189,-50 189,-69 355,-69 355,-50 189,-50"/>
<text text-anchor="middle" x="272" y="-57" font-family="Helvetica,sans-Serif" font-size="10.00">ABBEmpresas::buscarEmpresa</text>
</a>
</g>
</g>
<!-- Node1&#45;&gt;Node2 -->
<g id="edge1" class="edge">
<title>Node1&#45;&gt;Node2</title>
<path fill="none" stroke="midnightblue" d="M153.14,-46.1C161.52,-47.05 170.13,-48.03 178.68,-49"/>
<polygon fill="midnightblue" stroke="midnightblue" points="178.36,-52.49 188.69,-50.14 179.15,-45.53 178.36,-52.49"/>
</g>
<!-- Node3 -->
<g id="node3" class="node">
<title>Node3</title>
<g id="a_node3"><a xlink:href="classColaPrioridadNoticias.html#a9c3a7f5944aa0f85f3ebf69c1db5eaf7" target="_top" xlink:title="Llena un vector con punteros a todas las noticias en la cola (en orden actual).">
<polygon fill="white" stroke="black" points="211,-0.5 211,-30.5 333,-30.5 333,-0.5 211,-0.5"/>
<text text-anchor="start" x="219" y="-18.5" font-family="Helvetica,sans-Serif" font-size="10.00">ColaPrioridadNoticias</text>
<text text-anchor="middle" x="272" y="-7.5" font-family="Helvetica,sans-Serif" font-size="10.00">::obtenerNoticias</text>
</a>
</g>
</g>
<!-- Node1&#45;&gt;Node3 -->
<g id="edge2" class="edge">
<title>Node1&#45;&gt;Node3</title>
<path fill="none" stroke="midnightblue" d="M153.14,-28.9C168.88,-27.11 185.4,-25.23 200.93,-23.47"/>
<polygon fill="midnightblue" stroke="midnightblue" points="201.43,-26.93 210.97,-22.32 200.64,-19.98 201.43,-26.93"/>
</g>
</g>
</svg>
