<?xml version="1.0" encoding="UTF-8" standalone="no"?>
<!DOCTYPE svg PUBLIC "-//W3C//DTD SVG 1.1//EN"
 "http://www.w3.org/Graphics/SVG/1.1/DTD/svg11.dtd">
<!-- Generated by graphviz version 2.43.0 (0)
 -->
<!-- Title: generarNoticiasAleatorias Pages: 1 -->
<svg width="309pt" height="78pt"
 viewBox="0.00 0.00 309.00 77.50" xmlns="http://www.w3.org/2000/svg" xmlns:xlink="http://www.w3.org/1999/xlink">
<g id="graph0" class="graph" transform="scale(1 1) rotate(0) translate(4 73.5)">
<title>generarNoticiasAleatorias</title>
<polygon fill="white" stroke="transparent" points="-4,4 -4,-73.5 305,-73.5 305,4 -4,4"/>
<!-- Node1 -->
<g id="node1" class="node">
<title>Node1</title>
<g id="a_node1"><a xlink:title="Genera noticias aleatorias y las inserta en la cola de prioridad.">
<polygon fill="#bfbfbf" stroke="black" points="0,-28 0,-47 143,-47 143,-28 0,-28"/>
<text text-anchor="middle" x="71.5" y="-35" font-family="Helvetica,sans-Serif" font-size="10.00">generarNoticiasAleatorias</text>
</a>
</g>
</g>
<!-- Node2 -->
<g id="node2" class="node">
<title>Node2</title>
<g id="a_node2"><a xlink:href="noticia_8h.html#a6370066b96779b15f4c092365be9553b" target="_top" xlink:title="Genera un string de fecha con formato &quot;YYYY&#45;MM&#45;DD&quot; a partir de un número de días desde el inicio.">
<polygon fill="white" stroke="black" points="198.5,-50 198.5,-69 281.5,-69 281.5,-50 198.5,-50"/>
<text text-anchor="middle" x="240" y="-57" font-family="Helvetica,sans-Serif" font-size="10.00">generarFecha</text>
</a>
</g>
</g>
<!-- Node1&#45;&gt;Node2 -->
<g id="edge1" class="edge">
<title>Node1&#45;&gt;Node2</title>
<path fill="none" stroke="midnightblue" d="M143.11,-46.83C158.23,-48.83 173.92,-50.9 188.12,-52.78"/>
<polygon fill="midnightblue" stroke="midnightblue" points="187.8,-56.26 198.17,-54.1 188.71,-49.33 187.8,-56.26"/>
</g>
<!-- Node3 -->
<g id="node3" class="node">
<title>Node3</title>
<g id="a_node3"><a xlink:href="classColaPrioridadNoticias.html#ac7aedfac4289f61343f4f28bf6b1cc35" target="_top" xlink:title="Inserta una noticia en la cola de prioridad según su impacto.">
<polygon fill="white" stroke="black" points="179,-0.5 179,-30.5 301,-30.5 301,-0.5 179,-0.5"/>
<text text-anchor="start" x="187" y="-18.5" font-family="Helvetica,sans-Serif" font-size="10.00">ColaPrioridadNoticias</text>
<text text-anchor="middle" x="240" y="-7.5" font-family="Helvetica,sans-Serif" font-size="10.00">::insertar</text>
</a>
</g>
</g>
<!-- Node1&#45;&gt;Node3 -->
<g id="edge2" class="edge">
<title>Node1&#45;&gt;Node3</title>
<path fill="none" stroke="midnightblue" d="M143.11,-28.17C151.55,-27.05 160.18,-25.92 168.62,-24.8"/>
<polygon fill="midnightblue" stroke="midnightblue" points="169.34,-28.23 178.8,-23.45 168.43,-21.29 169.34,-28.23"/>
</g>
</g>
</svg>
