<?xml version="1.0" encoding="UTF-8" standalone="no"?>
<!DOCTYPE svg PUBLIC "-//W3C//DTD SVG 1.1//EN"
 "http://www.w3.org/Graphics/SVG/1.1/DTD/svg11.dtd">
<!-- Generated by graphviz version 2.43.0 (0)
 -->
<!-- Title: portafolio.h Pages: 1 -->
<svg width="466pt" height="196pt"
 viewBox="0.00 0.00 465.50 196.00" xmlns="http://www.w3.org/2000/svg" xmlns:xlink="http://www.w3.org/1999/xlink">
<g id="graph0" class="graph" transform="scale(1 1) rotate(0) translate(4 192)">
<title>portafolio.h</title>
<polygon fill="white" stroke="transparent" points="-4,4 -4,-192 461.5,-192 461.5,4 -4,4"/>
<!-- Node1 -->
<g id="node1" class="node">
<title>Node1</title>
<g id="a_node1"><a xlink:title="Define la clase Portafolio y la estructura de pila para gestionar activos de usuario.">
<polygon fill="#bfbfbf" stroke="black" points="140.5,-168.5 140.5,-187.5 213.5,-187.5 213.5,-168.5 140.5,-168.5"/>
<text text-anchor="middle" x="177" y="-175.5" font-family="Helvetica,sans-Serif" font-size="10.00">portafolio.h</text>
</a>
</g>
</g>
<!-- Node2 -->
<g id="node2" class="node">
<title>Node2</title>
<g id="a_node2"><a xlink:title=" ">
<polygon fill="white" stroke="#bfbfbf" points="0,-0.5 0,-19.5 60,-19.5 60,-0.5 0,-0.5"/>
<text text-anchor="middle" x="30" y="-7.5" font-family="Helvetica,sans-Serif" font-size="10.00">iostream</text>
</a>
</g>
</g>
<!-- Node1&#45;&gt;Node2 -->
<g id="edge1" class="edge">
<title>Node1&#45;&gt;Node2</title>
<path fill="none" stroke="midnightblue" d="M149.6,-168.48C130.34,-161.32 105.08,-149.44 88,-132 59.04,-102.42 42.34,-55.6 34.83,-29.73"/>
<polygon fill="midnightblue" stroke="midnightblue" points="38.11,-28.46 32.09,-19.75 31.36,-30.32 38.11,-28.46"/>
</g>
<!-- Node3 -->
<g id="node3" class="node">
<title>Node3</title>
<g id="a_node3"><a xlink:title=" ">
<polygon fill="white" stroke="#bfbfbf" points="81,-0.5 81,-19.5 125,-19.5 125,-0.5 81,-0.5"/>
<text text-anchor="middle" x="103" y="-7.5" font-family="Helvetica,sans-Serif" font-size="10.00">string</text>
</a>
</g>
</g>
<!-- Node1&#45;&gt;Node3 -->
<g id="edge2" class="edge">
<title>Node1&#45;&gt;Node3</title>
<path fill="none" stroke="midnightblue" d="M148.63,-168.49C131.25,-161.65 110.4,-150.13 100,-132 81.51,-99.77 89.99,-54.33 97.01,-29.31"/>
<polygon fill="midnightblue" stroke="midnightblue" points="100.39,-30.24 99.94,-19.65 93.69,-28.21 100.39,-30.24"/>
</g>
<!-- Node4 -->
<g id="node4" class="node">
<title>Node4</title>
<g id="a_node4"><a xlink:title=" ">
<polygon fill="white" stroke="#bfbfbf" points="294.5,-0.5 294.5,-19.5 343.5,-19.5 343.5,-0.5 294.5,-0.5"/>
<text text-anchor="middle" x="319" y="-7.5" font-family="Helvetica,sans-Serif" font-size="10.00">cstdlib</text>
</a>
</g>
</g>
<!-- Node1&#45;&gt;Node4 -->
<g id="edge3" class="edge">
<title>Node1&#45;&gt;Node4</title>
<path fill="none" stroke="midnightblue" d="M197.45,-168.36C213.76,-160.68 236.39,-148.16 252,-132 281.78,-101.17 302.6,-54.51 312.48,-29.08"/>
<polygon fill="midnightblue" stroke="midnightblue" points="315.81,-30.18 316.04,-19.59 309.25,-27.72 315.81,-30.18"/>
</g>
<!-- Node5 -->
<g id="node5" class="node">
<title>Node5</title>
<g id="a_node5"><a xlink:title=" ">
<polygon fill="white" stroke="#bfbfbf" points="232,-0.5 232,-19.5 276,-19.5 276,-0.5 232,-0.5"/>
<text text-anchor="middle" x="254" y="-7.5" font-family="Helvetica,sans-Serif" font-size="10.00">ctime</text>
</a>
</g>
</g>
<!-- Node1&#45;&gt;Node5 -->
<g id="edge4" class="edge">
<title>Node1&#45;&gt;Node5</title>
<path fill="none" stroke="midnightblue" d="M188.89,-168.36C209.32,-152.68 250.39,-117.32 266,-76 271.76,-60.75 267.43,-42.42 262.44,-29.11"/>
<polygon fill="midnightblue" stroke="midnightblue" points="265.58,-27.54 258.47,-19.68 259.12,-30.25 265.58,-27.54"/>
</g>
<!-- Node6 -->
<g id="node6" class="node">
<title>Node6</title>
<g id="a_node6"><a xlink:title=" ">
<polygon fill="white" stroke="#bfbfbf" points="143.5,-0.5 143.5,-19.5 190.5,-19.5 190.5,-0.5 143.5,-0.5"/>
<text text-anchor="middle" x="167" y="-7.5" font-family="Helvetica,sans-Serif" font-size="10.00">vector</text>
</a>
</g>
</g>
<!-- Node1&#45;&gt;Node6 -->
<g id="edge5" class="edge">
<title>Node1&#45;&gt;Node6</title>
<path fill="none" stroke="midnightblue" d="M154.21,-168.47C138.67,-161.32 119.29,-149.44 110,-132 90.28,-94.99 126.74,-49.99 149.94,-26.68"/>
<polygon fill="midnightblue" stroke="midnightblue" points="152.45,-29.12 157.2,-19.65 147.58,-24.09 152.45,-29.12"/>
</g>
<!-- Node7 -->
<g id="node7" class="node">
<title>Node7</title>
<g id="a_node7"><a xlink:title=" ">
<polygon fill="white" stroke="#bfbfbf" points="410.5,-112.5 410.5,-131.5 457.5,-131.5 457.5,-112.5 410.5,-112.5"/>
<text text-anchor="middle" x="434" y="-119.5" font-family="Helvetica,sans-Serif" font-size="10.00">cmath</text>
</a>
</g>
</g>
<!-- Node1&#45;&gt;Node7 -->
<g id="edge6" class="edge">
<title>Node1&#45;&gt;Node7</title>
<path fill="none" stroke="midnightblue" d="M213.88,-169.77C257.47,-161.15 332.14,-146.12 396,-132 397.45,-131.68 398.93,-131.35 400.42,-131.01"/>
<polygon fill="midnightblue" stroke="midnightblue" points="401.35,-134.39 410.31,-128.73 399.78,-127.57 401.35,-134.39"/>
</g>
<!-- Node8 -->
<g id="node8" class="node">
<title>Node8</title>
<g id="a_node8"><a xlink:href="empresa_8h.html" target="_top" xlink:title="Define las estructuras y clases para la gestión de empresas y sus precios históricos.">
<polygon fill="white" stroke="black" points="172,-56.5 172,-75.5 240,-75.5 240,-56.5 172,-56.5"/>
<text text-anchor="middle" x="206" y="-63.5" font-family="Helvetica,sans-Serif" font-size="10.00">empresa.h</text>
</a>
</g>
</g>
<!-- Node1&#45;&gt;Node8 -->
<g id="edge7" class="edge">
<title>Node1&#45;&gt;Node8</title>
<path fill="none" stroke="midnightblue" d="M179.28,-168.37C183.98,-150.54 194.85,-109.3 201.18,-85.27"/>
<polygon fill="midnightblue" stroke="midnightblue" points="204.57,-86.15 203.73,-75.59 197.8,-84.37 204.57,-86.15"/>
</g>
<!-- Node9 -->
<g id="node9" class="node">
<title>Node9</title>
<g id="a_node9"><a xlink:href="noticia_8h.html" target="_top" xlink:title="Define la estructura Noticia y la clase ColaPrioridadNoticias para la gestión de noticias financieras...">
<polygon fill="white" stroke="black" points="118.5,-112.5 118.5,-131.5 177.5,-131.5 177.5,-112.5 118.5,-112.5"/>
<text text-anchor="middle" x="148" y="-119.5" font-family="Helvetica,sans-Serif" font-size="10.00">noticia.h</text>
</a>
</g>
</g>
<!-- Node1&#45;&gt;Node9 -->
<g id="edge13" class="edge">
<title>Node1&#45;&gt;Node9</title>
<path fill="none" stroke="midnightblue" d="M172.21,-168.08C168.24,-160.69 162.47,-149.95 157.57,-140.81"/>
<polygon fill="midnightblue" stroke="midnightblue" points="160.51,-138.91 152.7,-131.75 154.35,-142.22 160.51,-138.91"/>
</g>
<!-- Node8&#45;&gt;Node2 -->
<g id="edge8" class="edge">
<title>Node8&#45;&gt;Node2</title>
<path fill="none" stroke="midnightblue" d="M178.11,-56.44C148.25,-47.28 100.69,-32.69 67.54,-22.52"/>
<polygon fill="midnightblue" stroke="midnightblue" points="68.34,-19.1 57.76,-19.52 66.29,-25.8 68.34,-19.1"/>
</g>
<!-- Node8&#45;&gt;Node3 -->
<g id="edge9" class="edge">
<title>Node8&#45;&gt;Node3</title>
<path fill="none" stroke="midnightblue" d="M189.45,-56.32C173.01,-47.7 147.57,-34.36 128.53,-24.39"/>
<polygon fill="midnightblue" stroke="midnightblue" points="129.99,-21.2 119.51,-19.65 126.74,-27.4 129.99,-21.2"/>
</g>
<!-- Node8&#45;&gt;Node4 -->
<g id="edge11" class="edge">
<title>Node8&#45;&gt;Node4</title>
<path fill="none" stroke="midnightblue" d="M223.91,-56.44C242.25,-47.68 271.01,-33.94 292.09,-23.86"/>
<polygon fill="midnightblue" stroke="midnightblue" points="293.67,-26.99 301.18,-19.52 290.65,-20.67 293.67,-26.99"/>
</g>
<!-- Node8&#45;&gt;Node5 -->
<g id="edge12" class="edge">
<title>Node8&#45;&gt;Node5</title>
<path fill="none" stroke="midnightblue" d="M213.93,-56.08C220.85,-48.3 231.07,-36.8 239.45,-27.37"/>
<polygon fill="midnightblue" stroke="midnightblue" points="242.19,-29.55 246.22,-19.75 236.96,-24.9 242.19,-29.55"/>
</g>
<!-- Node8&#45;&gt;Node6 -->
<g id="edge10" class="edge">
<title>Node8&#45;&gt;Node6</title>
<path fill="none" stroke="midnightblue" d="M199.56,-56.08C194.05,-48.46 185.97,-37.26 179.24,-27.94"/>
<polygon fill="midnightblue" stroke="midnightblue" points="182.01,-25.81 173.32,-19.75 176.34,-29.91 182.01,-25.81"/>
</g>
<!-- Node9&#45;&gt;Node2 -->
<g id="edge14" class="edge">
<title>Node9&#45;&gt;Node2</title>
<path fill="none" stroke="midnightblue" d="M138.74,-112.37C118.84,-93.81 71.74,-49.91 46.56,-26.44"/>
<polygon fill="midnightblue" stroke="midnightblue" points="48.92,-23.85 39.22,-19.59 44.14,-28.97 48.92,-23.85"/>
</g>
<!-- Node9&#45;&gt;Node3 -->
<g id="edge15" class="edge">
<title>Node9&#45;&gt;Node3</title>
<path fill="none" stroke="midnightblue" d="M144.47,-112.37C137.14,-94.46 120.15,-52.92 110.34,-28.95"/>
<polygon fill="midnightblue" stroke="midnightblue" points="113.54,-27.52 106.51,-19.59 107.06,-30.17 113.54,-27.52"/>
</g>
<!-- Node9&#45;&gt;Node4 -->
<g id="edge17" class="edge">
<title>Node9&#45;&gt;Node4</title>
<path fill="none" stroke="midnightblue" d="M177.72,-114.28C202.93,-107.56 239.16,-95.39 266,-76 283.82,-63.13 299.05,-42.84 308.55,-28.36"/>
<polygon fill="midnightblue" stroke="midnightblue" points="311.56,-30.14 313.93,-19.81 305.64,-26.4 311.56,-30.14"/>
</g>
<!-- Node9&#45;&gt;Node5 -->
<g id="edge18" class="edge">
<title>Node9&#45;&gt;Node5</title>
<path fill="none" stroke="midnightblue" d="M177.54,-116.24C201.01,-110.78 232.52,-99.37 249,-76 258.37,-62.72 258.8,-43.88 257.37,-29.9"/>
<polygon fill="midnightblue" stroke="midnightblue" points="260.83,-29.35 255.96,-19.93 253.9,-30.33 260.83,-29.35"/>
</g>
<!-- Node9&#45;&gt;Node6 -->
<g id="edge16" class="edge">
<title>Node9&#45;&gt;Node6</title>
<path fill="none" stroke="midnightblue" d="M149.49,-112.37C152.56,-94.62 159.63,-53.67 163.79,-29.6"/>
<polygon fill="midnightblue" stroke="midnightblue" points="167.26,-30.04 165.52,-19.59 160.36,-28.85 167.26,-30.04"/>
</g>
<!-- Node9&#45;&gt;Node8 -->
<g id="edge19" class="edge">
<title>Node9&#45;&gt;Node8</title>
<path fill="none" stroke="midnightblue" d="M157.32,-112.32C165.89,-104.34 178.81,-92.31 189.19,-82.65"/>
<polygon fill="midnightblue" stroke="midnightblue" points="191.58,-85.21 196.51,-75.83 186.81,-80.09 191.58,-85.21"/>
</g>
</g>
</svg>
