<?xml version="1.0" encoding="UTF-8" standalone="no"?>
<!DOCTYPE svg PUBLIC "-//W3C//DTD SVG 1.1//EN"
 "http://www.w3.org/Graphics/SVG/1.1/DTD/svg11.dtd">
<!-- Generated by graphviz version 2.43.0 (0)
 -->
<!-- Title: Empresa Pages: 1 -->
<svg width="184pt" height="353pt"
 viewBox="0.00 0.00 184.00 353.00" xmlns="http://www.w3.org/2000/svg" xmlns:xlink="http://www.w3.org/1999/xlink">
<g id="graph0" class="graph" transform="scale(1 1) rotate(0) translate(4 349)">
<title>Empresa</title>
<polygon fill="white" stroke="transparent" points="-4,4 -4,-349 180,-349 180,4 -4,4"/>
<!-- Node1 -->
<g id="node1" class="node">
<title>Node1</title>
<g id="a_node1"><a xlink:title="Nodo de ABB que representa una empresa.">
<polygon fill="#bfbfbf" stroke="black" points="11,-0.5 11,-90.5 100,-90.5 100,-0.5 11,-0.5"/>
<text text-anchor="middle" x="55.5" y="-78.5" font-family="Helvetica,sans-Serif" font-size="10.00">Empresa</text>
<polyline fill="none" stroke="black" points="11,-71.5 100,-71.5 "/>
<text text-anchor="start" x="19" y="-59.5" font-family="Helvetica,sans-Serif" font-size="10.00">+ ticker</text>
<text text-anchor="start" x="19" y="-48.5" font-family="Helvetica,sans-Serif" font-size="10.00">+ nombre</text>
<text text-anchor="start" x="19" y="-37.5" font-family="Helvetica,sans-Serif" font-size="10.00">+ sector</text>
<text text-anchor="start" x="19" y="-26.5" font-family="Helvetica,sans-Serif" font-size="10.00">+ precioActual</text>
<polyline fill="none" stroke="black" points="11,-19.5 100,-19.5 "/>
<text text-anchor="start" x="19" y="-7.5" font-family="Helvetica,sans-Serif" font-size="10.00">+ Empresa()</text>
</a>
</g>
</g>
<!-- Node1&#45;&gt;Node1 -->
<g id="edge1" class="edge">
<title>Node1&#45;&gt;Node1</title>
<path fill="none" stroke="#404040" d="M100.16,-57.97C110.45,-56.89 118,-52.74 118,-45.5 118,-41.54 115.74,-38.5 112.01,-36.39"/>
<polygon fill="none" stroke="#404040" points="111.71,-36.3 104.84,-38.52 100.16,-33.03 107.03,-30.82 111.71,-36.3"/>
<text text-anchor="middle" x="145" y="-48.5" font-family="Helvetica,sans-Serif" font-size="10.00"> +derecha</text>
<text text-anchor="middle" x="145" y="-37.5" font-family="Helvetica,sans-Serif" font-size="10.00">+izquierda</text>
</g>
<!-- Node2 -->
<g id="node2" class="node">
<title>Node2</title>
<g id="a_node2"><a xlink:href="classMultilistaPrecio.html" target="_top" xlink:title="Multilista para historial de precios de una acción.">
<polygon fill="white" stroke="black" points="0,-138.5 0,-228.5 111,-228.5 111,-138.5 0,-138.5"/>
<text text-anchor="middle" x="55.5" y="-216.5" font-family="Helvetica,sans-Serif" font-size="10.00">MultilistaPrecio</text>
<polyline fill="none" stroke="black" points="0,-209.5 111,-209.5 "/>
<text text-anchor="middle" x="55.5" y="-197.5" font-family="Helvetica,sans-Serif" font-size="10.00"> </text>
<polyline fill="none" stroke="black" points="0,-190.5 111,-190.5 "/>
<text text-anchor="start" x="8" y="-178.5" font-family="Helvetica,sans-Serif" font-size="10.00">+ MultilistaPrecio()</text>
<text text-anchor="start" x="8" y="-167.5" font-family="Helvetica,sans-Serif" font-size="10.00">+ agregarPrecio()</text>
<text text-anchor="start" x="8" y="-156.5" font-family="Helvetica,sans-Serif" font-size="10.00">+ promedioMovil()</text>
<text text-anchor="start" x="8" y="-145.5" font-family="Helvetica,sans-Serif" font-size="10.00">+ imprimir()</text>
</a>
</g>
</g>
<!-- Node2&#45;&gt;Node1 -->
<g id="edge2" class="edge">
<title>Node2&#45;&gt;Node1</title>
<path fill="none" stroke="#404040" d="M55.5,-138.34C55.5,-127.06 55.5,-114.78 55.5,-102.97"/>
<polygon fill="none" stroke="#404040" points="55.5,-102.9 51.5,-96.9 55.5,-90.9 59.5,-96.9 55.5,-102.9"/>
<text text-anchor="middle" x="99" y="-112" font-family="Helvetica,sans-Serif" font-size="10.00"> +historialPrecios</text>
</g>
<!-- Node3 -->
<g id="node3" class="node">
<title>Node3</title>
<g id="a_node3"><a xlink:href="structNodoPrecio.html" target="_top" xlink:title="Nodo para la multilista de precios históricos de una acción.">
<polygon fill="white" stroke="black" points="10,-276.5 10,-344.5 101,-344.5 101,-276.5 10,-276.5"/>
<text text-anchor="middle" x="55.5" y="-332.5" font-family="Helvetica,sans-Serif" font-size="10.00">NodoPrecio</text>
<polyline fill="none" stroke="black" points="10,-325.5 101,-325.5 "/>
<text text-anchor="start" x="18" y="-313.5" font-family="Helvetica,sans-Serif" font-size="10.00">+ fecha</text>
<text text-anchor="start" x="18" y="-302.5" font-family="Helvetica,sans-Serif" font-size="10.00">+ precioCierre</text>
<polyline fill="none" stroke="black" points="10,-295.5 101,-295.5 "/>
<text text-anchor="start" x="18" y="-283.5" font-family="Helvetica,sans-Serif" font-size="10.00">+ NodoPrecio()</text>
</a>
</g>
</g>
<!-- Node3&#45;&gt;Node2 -->
<g id="edge3" class="edge">
<title>Node3&#45;&gt;Node2</title>
<path fill="none" stroke="#404040" d="M55.5,-276.33C55.5,-265.37 55.5,-252.86 55.5,-240.67"/>
<polygon fill="none" stroke="#404040" points="55.5,-240.66 51.5,-234.66 55.5,-228.66 59.5,-234.66 55.5,-240.66"/>
<text text-anchor="middle" x="78.5" y="-250" font-family="Helvetica,sans-Serif" font-size="10.00"> +cabeza</text>
</g>
<!-- Node3&#45;&gt;Node3 -->
<g id="edge4" class="edge">
<title>Node3&#45;&gt;Node3</title>
<path fill="none" stroke="#404040" d="M101.16,-321.11C111.47,-320.15 119,-316.62 119,-310.5 119,-307.15 116.75,-304.58 113.02,-302.78"/>
<polygon fill="none" stroke="#404040" points="112.82,-302.73 106.05,-305.2 101.16,-299.89 107.94,-297.42 112.82,-302.73"/>
<text text-anchor="middle" x="147.5" y="-308" font-family="Helvetica,sans-Serif" font-size="10.00"> +siguiente</text>
</g>
</g>
</svg>
