<?xml version="1.0" encoding="UTF-8" standalone="no"?>
<!DOCTYPE svg PUBLIC "-//W3C//DTD SVG 1.1//EN"
 "http://www.w3.org/Graphics/SVG/1.1/DTD/svg11.dtd">
<!-- Generated by graphviz version 2.43.0 (0)
 -->
<!-- Title: Noticia Pages: 1 -->
<svg width="184pt" height="110pt"
 viewBox="0.00 0.00 184.00 110.00" xmlns="http://www.w3.org/2000/svg" xmlns:xlink="http://www.w3.org/1999/xlink">
<g id="graph0" class="graph" transform="scale(1 1) rotate(0) translate(4 106)">
<title>Noticia</title>
<polygon fill="white" stroke="transparent" points="-4,4 -4,-106 180,-106 180,4 -4,4"/>
<!-- Node1 -->
<g id="node1" class="node">
<title>Node1</title>
<g id="a_node1"><a xlink:title="Estructura que representa una noticia con impacto, título, descripción, sector afectado,...">
<polygon fill="#bfbfbf" stroke="black" points="0,-0.5 0,-101.5 101,-101.5 101,-0.5 0,-0.5"/>
<text text-anchor="middle" x="50.5" y="-89.5" font-family="Helvetica,sans-Serif" font-size="10.00">Noticia</text>
<polyline fill="none" stroke="black" points="0,-82.5 101,-82.5 "/>
<text text-anchor="start" x="8" y="-70.5" font-family="Helvetica,sans-Serif" font-size="10.00">+ impacto</text>
<text text-anchor="start" x="8" y="-59.5" font-family="Helvetica,sans-Serif" font-size="10.00">+ titulo</text>
<text text-anchor="start" x="8" y="-48.5" font-family="Helvetica,sans-Serif" font-size="10.00">+ descripcion</text>
<text text-anchor="start" x="8" y="-37.5" font-family="Helvetica,sans-Serif" font-size="10.00">+ sectorAfectado</text>
<text text-anchor="start" x="8" y="-26.5" font-family="Helvetica,sans-Serif" font-size="10.00">+ fecha</text>
<polyline fill="none" stroke="black" points="0,-19.5 101,-19.5 "/>
<text text-anchor="start" x="8" y="-7.5" font-family="Helvetica,sans-Serif" font-size="10.00">+ Noticia()</text>
</a>
</g>
</g>
<!-- Node1&#45;&gt;Node1 -->
<g id="edge1" class="edge">
<title>Node1&#45;&gt;Node1</title>
<path fill="none" stroke="#404040" d="M101.28,-69.03C111.61,-67.07 119,-61.06 119,-51 119,-45.18 116.53,-40.72 112.45,-37.61"/>
<polygon fill="none" stroke="#404040" points="112.36,-37.58 105.29,-38.96 101.28,-32.97 108.36,-31.58 112.36,-37.58"/>
<text text-anchor="middle" x="147.5" y="-48.5" font-family="Helvetica,sans-Serif" font-size="10.00"> +siguiente</text>
</g>
</g>
</svg>
