<?xml version="1.0" encoding="UTF-8" standalone="no"?>
<!DOCTYPE svg PUBLIC "-//W3C//DTD SVG 1.1//EN"
 "http://www.w3.org/Graphics/SVG/1.1/DTD/svg11.dtd">
<!-- Generated by graphviz version 2.43.0 (0)
 -->
<!-- Title: NodoPrecio Pages: 1 -->
<svg width="174pt" height="77pt"
 viewBox="0.00 0.00 174.00 77.00" xmlns="http://www.w3.org/2000/svg" xmlns:xlink="http://www.w3.org/1999/xlink">
<g id="graph0" class="graph" transform="scale(1 1) rotate(0) translate(4 73)">
<title>NodoPrecio</title>
<polygon fill="white" stroke="transparent" points="-4,4 -4,-73 170,-73 170,4 -4,4"/>
<!-- Node1 -->
<g id="node1" class="node">
<title>Node1</title>
<g id="a_node1"><a xlink:title="Nodo para la multilista de precios históricos de una acción.">
<polygon fill="#bfbfbf" stroke="black" points="0,-0.5 0,-68.5 91,-68.5 91,-0.5 0,-0.5"/>
<text text-anchor="middle" x="45.5" y="-56.5" font-family="Helvetica,sans-Serif" font-size="10.00">NodoPrecio</text>
<polyline fill="none" stroke="black" points="0,-49.5 91,-49.5 "/>
<text text-anchor="start" x="8" y="-37.5" font-family="Helvetica,sans-Serif" font-size="10.00">+ fecha</text>
<text text-anchor="start" x="8" y="-26.5" font-family="Helvetica,sans-Serif" font-size="10.00">+ precioCierre</text>
<polyline fill="none" stroke="black" points="0,-19.5 91,-19.5 "/>
<text text-anchor="start" x="8" y="-7.5" font-family="Helvetica,sans-Serif" font-size="10.00">+ NodoPrecio()</text>
</a>
</g>
</g>
<!-- Node1&#45;&gt;Node1 -->
<g id="edge1" class="edge">
<title>Node1&#45;&gt;Node1</title>
<path fill="none" stroke="#404040" d="M91.16,-46.94C101.47,-45.82 109,-41.67 109,-34.5 109,-30.58 106.75,-27.56 103.02,-25.45"/>
<polygon fill="none" stroke="#404040" points="102.7,-25.36 95.83,-27.56 91.16,-22.06 98.03,-19.86 102.7,-25.36"/>
<text text-anchor="middle" x="137.5" y="-32" font-family="Helvetica,sans-Serif" font-size="10.00"> +siguiente</text>
</g>
</g>
</svg>
