<?xml version="1.0" encoding="UTF-8" standalone="no"?>
<!DOCTYPE svg PUBLIC "-//W3C//DTD SVG 1.1//EN"
 "http://www.w3.org/Graphics/SVG/1.1/DTD/svg11.dtd">
<!-- Generated by graphviz version 2.43.0 (0)
 -->
<!-- Title: ColaPrioridadNoticias::obtenerNoticias Pages: 1 -->
<svg width="410pt" height="127pt"
 viewBox="0.00 0.00 410.00 126.50" xmlns="http://www.w3.org/2000/svg" xmlns:xlink="http://www.w3.org/1999/xlink">
<g id="graph0" class="graph" transform="scale(1 1) rotate(0) translate(4 122.5)">
<title>ColaPrioridadNoticias::obtenerNoticias</title>
<polygon fill="white" stroke="transparent" points="-4,4 -4,-122.5 406,-122.5 406,4 -4,4"/>
<!-- Node1 -->
<g id="node1" class="node">
<title>Node1</title>
<g id="a_node1"><a xlink:title="Llena un vector con punteros a todas las noticias en la cola (en orden actual).">
<polygon fill="#bfbfbf" stroke="black" points="280,-39 280,-69 402,-69 402,-39 280,-39"/>
<text text-anchor="start" x="288" y="-57" font-family="Helvetica,sans-Serif" font-size="10.00">ColaPrioridadNoticias</text>
<text text-anchor="middle" x="341" y="-46" font-family="Helvetica,sans-Serif" font-size="10.00">::obtenerNoticias</text>
</a>
</g>
</g>
<!-- Node2 -->
<g id="node2" class="node">
<title>Node2</title>
<g id="a_node2"><a xlink:href="noticia_8h.html#a80268dccce1ece0cbb6406c81d50baed" target="_top" xlink:title="Muestra los cambios de precio de una empresa por cada noticia que la afectó, mostrando el precio ante...">
<polygon fill="white" stroke="black" points="84,-88 84,-118 237,-118 237,-88 84,-88"/>
<text text-anchor="start" x="92" y="-106" font-family="Helvetica,sans-Serif" font-size="10.00">mostrarCambiosPorNoticias</text>
<text text-anchor="middle" x="160.5" y="-95" font-family="Helvetica,sans-Serif" font-size="10.00">Empresa</text>
</a>
</g>
</g>
<!-- Node1&#45;&gt;Node2 -->
<g id="edge1" class="edge">
<title>Node1&#45;&gt;Node2</title>
<path fill="none" stroke="midnightblue" d="M275.08,-71.82C255.81,-77.11 234.9,-82.85 216.33,-87.95"/>
<polygon fill="midnightblue" stroke="midnightblue" points="276.27,-75.12 284.99,-69.1 274.42,-68.37 276.27,-75.12"/>
</g>
<!-- Node4 -->
<g id="node4" class="node">
<title>Node4</title>
<g id="a_node4"><a xlink:href="noticia_8h.html#a7242f8be6bf0222aa3c0397c220cd251" target="_top" xlink:title="Muestra el impacto de las noticias en las acciones de las empresas.">
<polygon fill="white" stroke="black" points="87.5,-39 87.5,-69 233.5,-69 233.5,-39 87.5,-39"/>
<text text-anchor="start" x="95.5" y="-57" font-family="Helvetica,sans-Serif" font-size="10.00">mostrarImpactoNoticiasEn</text>
<text text-anchor="middle" x="160.5" y="-46" font-family="Helvetica,sans-Serif" font-size="10.00">Acciones</text>
</a>
</g>
</g>
<!-- Node1&#45;&gt;Node4 -->
<g id="edge3" class="edge">
<title>Node1&#45;&gt;Node4</title>
<path fill="none" stroke="midnightblue" d="M269.37,-54C257.61,-54 245.4,-54 233.6,-54"/>
<polygon fill="midnightblue" stroke="midnightblue" points="269.57,-57.5 279.57,-54 269.57,-50.5 269.57,-57.5"/>
</g>
<!-- Node5 -->
<g id="node5" class="node">
<title>Node5</title>
<g id="a_node5"><a xlink:href="classPortafolio.html#ae6d06c70b6052cd798b31b002509e346" target="_top" xlink:title="Árbol de decisión para recomendar la compra de un activo.">
<polygon fill="white" stroke="black" points="77,-0.5 77,-19.5 244,-19.5 244,-0.5 77,-0.5"/>
<text text-anchor="middle" x="160.5" y="-7.5" font-family="Helvetica,sans-Serif" font-size="10.00">Portafolio::recomendarCompra</text>
</a>
</g>
</g>
<!-- Node1&#45;&gt;Node5 -->
<g id="edge5" class="edge">
<title>Node1&#45;&gt;Node5</title>
<path fill="none" stroke="midnightblue" d="M270.21,-36.49C261.39,-34.29 252.48,-32.09 244,-30 229.98,-26.55 214.6,-22.81 200.96,-19.51"/>
<polygon fill="midnightblue" stroke="midnightblue" points="269.55,-39.93 280.1,-38.96 271.24,-33.14 269.55,-39.93"/>
</g>
<!-- Node3 -->
<g id="node3" class="node">
<title>Node3</title>
<g id="a_node3"><a xlink:href="codigo_8cpp.html#ae66f6b31b5ad750f1fe042a706a4e3d4" target="_top" xlink:title="Función principal del programa.">
<polygon fill="white" stroke="black" points="0,-44.5 0,-63.5 41,-63.5 41,-44.5 0,-44.5"/>
<text text-anchor="middle" x="20.5" y="-51.5" font-family="Helvetica,sans-Serif" font-size="10.00">main</text>
</a>
</g>
</g>
<!-- Node2&#45;&gt;Node3 -->
<g id="edge2" class="edge">
<title>Node2&#45;&gt;Node3</title>
<path fill="none" stroke="midnightblue" d="M93.96,-84.85C88.19,-82.98 82.47,-81.02 77,-79 64.8,-74.5 51.52,-68.56 41,-63.59"/>
<polygon fill="midnightblue" stroke="midnightblue" points="93.09,-88.25 103.68,-87.92 95.2,-81.57 93.09,-88.25"/>
</g>
<!-- Node4&#45;&gt;Node3 -->
<g id="edge4" class="edge">
<title>Node4&#45;&gt;Node3</title>
<path fill="none" stroke="midnightblue" d="M76.92,-54C63.53,-54 50.85,-54 41.01,-54"/>
<polygon fill="midnightblue" stroke="midnightblue" points="77.27,-57.5 87.27,-54 77.27,-50.5 77.27,-57.5"/>
</g>
<!-- Node5&#45;&gt;Node3 -->
<g id="edge6" class="edge">
<title>Node5&#45;&gt;Node3</title>
<path fill="none" stroke="midnightblue" d="M104.29,-22C95.1,-24.39 85.72,-27.08 77,-30 64.86,-34.07 51.68,-39.71 41.22,-44.5"/>
<polygon fill="midnightblue" stroke="midnightblue" points="105.3,-25.36 114.15,-19.53 103.6,-18.57 105.3,-25.36"/>
</g>
</g>
</svg>
