<?xml version="1.0" encoding="UTF-8" standalone="no"?>
<!DOCTYPE svg PUBLIC "-//W3C//DTD SVG 1.1//EN"
 "http://www.w3.org/Graphics/SVG/1.1/DTD/svg11.dtd">
<!-- Generated by graphviz version 2.43.0 (0)
 -->
<!-- Title: ABBEmpresas::buscarEmpresa Pages: 1 -->
<svg width="454pt" height="95pt"
 viewBox="0.00 0.00 454.00 95.11" xmlns="http://www.w3.org/2000/svg" xmlns:xlink="http://www.w3.org/1999/xlink">
<g id="graph0" class="graph" transform="scale(1 1) rotate(0) translate(4 91.11)">
<title>ABBEmpresas::buscarEmpresa</title>
<polygon fill="white" stroke="transparent" points="-4,4 -4,-91.11 450,-91.11 450,4 -4,4"/>
<!-- Node1 -->
<g id="node1" class="node">
<title>Node1</title>
<g id="a_node1"><a xlink:title="Busca una empresa por ticker.">
<polygon fill="#bfbfbf" stroke="black" points="280,-44.5 280,-63.5 446,-63.5 446,-44.5 280,-44.5"/>
<text text-anchor="middle" x="363" y="-51.5" font-family="Helvetica,sans-Serif" font-size="10.00">ABBEmpresas::buscarEmpresa</text>
</a>
</g>
</g>
<!-- Node2 -->
<g id="node2" class="node">
<title>Node2</title>
<g id="a_node2"><a xlink:href="codigo_8cpp.html#ae66f6b31b5ad750f1fe042a706a4e3d4" target="_top" xlink:title="Función principal del programa.">
<polygon fill="white" stroke="black" points="0,-44.5 0,-63.5 41,-63.5 41,-44.5 0,-44.5"/>
<text text-anchor="middle" x="20.5" y="-51.5" font-family="Helvetica,sans-Serif" font-size="10.00">main</text>
</a>
</g>
</g>
<!-- Node1&#45;&gt;Node2 -->
<g id="edge1" class="edge">
<title>Node1&#45;&gt;Node2</title>
<path fill="none" stroke="midnightblue" d="M317.33,-66.04C260.79,-79.43 160.66,-96.97 77,-79 63.15,-76.03 48.6,-69.32 37.87,-63.6"/>
<polygon fill="midnightblue" stroke="midnightblue" points="318.48,-69.36 327.37,-63.6 316.83,-62.56 318.48,-69.36"/>
</g>
<!-- Node3 -->
<g id="node3" class="node">
<title>Node3</title>
<g id="a_node3"><a xlink:href="noticia_8h.html#a80268dccce1ece0cbb6406c81d50baed" target="_top" xlink:title="Muestra los cambios de precio de una empresa por cada noticia que la afectó, mostrando el precio ante...">
<polygon fill="white" stroke="black" points="84,-39 84,-69 237,-69 237,-39 84,-39"/>
<text text-anchor="start" x="92" y="-57" font-family="Helvetica,sans-Serif" font-size="10.00">mostrarCambiosPorNoticias</text>
<text text-anchor="middle" x="160.5" y="-46" font-family="Helvetica,sans-Serif" font-size="10.00">Empresa</text>
</a>
</g>
</g>
<!-- Node1&#45;&gt;Node3 -->
<g id="edge2" class="edge">
<title>Node1&#45;&gt;Node3</title>
<path fill="none" stroke="midnightblue" d="M269.84,-54C258.87,-54 247.76,-54 237.05,-54"/>
<polygon fill="midnightblue" stroke="midnightblue" points="269.87,-57.5 279.87,-54 269.87,-50.5 269.87,-57.5"/>
</g>
<!-- Node4 -->
<g id="node4" class="node">
<title>Node4</title>
<g id="a_node4"><a xlink:href="classPortafolio.html#ae6d06c70b6052cd798b31b002509e346" target="_top" xlink:title="Árbol de decisión para recomendar la compra de un activo.">
<polygon fill="white" stroke="black" points="77,-0.5 77,-19.5 244,-19.5 244,-0.5 77,-0.5"/>
<text text-anchor="middle" x="160.5" y="-7.5" font-family="Helvetica,sans-Serif" font-size="10.00">Portafolio::recomendarCompra</text>
</a>
</g>
</g>
<!-- Node1&#45;&gt;Node4 -->
<g id="edge4" class="edge">
<title>Node1&#45;&gt;Node4</title>
<path fill="none" stroke="midnightblue" d="M308.72,-42.31C276.29,-35.19 235.38,-26.21 204.92,-19.53"/>
<polygon fill="midnightblue" stroke="midnightblue" points="307.98,-45.73 318.49,-44.45 309.48,-38.89 307.98,-45.73"/>
</g>
<!-- Node3&#45;&gt;Node2 -->
<g id="edge3" class="edge">
<title>Node3&#45;&gt;Node2</title>
<path fill="none" stroke="midnightblue" d="M73.38,-54C61.34,-54 50.05,-54 41.09,-54"/>
<polygon fill="midnightblue" stroke="midnightblue" points="73.64,-57.5 83.64,-54 73.64,-50.5 73.64,-57.5"/>
</g>
<!-- Node4&#45;&gt;Node2 -->
<g id="edge5" class="edge">
<title>Node4&#45;&gt;Node2</title>
<path fill="none" stroke="midnightblue" d="M104.29,-22C95.1,-24.39 85.72,-27.08 77,-30 64.86,-34.07 51.68,-39.71 41.22,-44.5"/>
<polygon fill="midnightblue" stroke="midnightblue" points="105.3,-25.36 114.15,-19.53 103.6,-18.57 105.3,-25.36"/>
</g>
</g>
</svg>
