<?xml version="1.0" encoding="UTF-8" standalone="no"?>
<!DOCTYPE svg PUBLIC "-//W3C//DTD SVG 1.1//EN"
 "http://www.w3.org/Graphics/SVG/1.1/DTD/svg11.dtd">
<!-- Generated by graphviz version 2.43.0 (0)
 -->
<!-- Title: MiVector::size Pages: 1 -->
<svg width="349pt" height="104pt"
 viewBox="0.00 0.00 349.00 104.00" xmlns="http://www.w3.org/2000/svg" xmlns:xlink="http://www.w3.org/1999/xlink">
<g id="graph0" class="graph" transform="scale(1 1) rotate(0) translate(4 100)">
<title>MiVector::size</title>
<polygon fill="white" stroke="transparent" points="-4,4 -4,-100 345,-100 345,4 -4,4"/>
<!-- Node1 -->
<g id="node1" class="node">
<title>Node1</title>
<g id="a_node1"><a xlink:title="Obtiene el número actual de elementos en el vector.">
<polygon fill="#bfbfbf" stroke="black" points="256,-38.5 256,-57.5 341,-57.5 341,-38.5 256,-38.5"/>
<text text-anchor="middle" x="298.5" y="-45.5" font-family="Helvetica,sans-Serif" font-size="10.00">MiVector::size</text>
</a>
</g>
</g>
<!-- Node2 -->
<g id="node2" class="node">
<title>Node2</title>
<g id="a_node2"><a xlink:href="classPortafolio.html#a0fd1f6dd832435c9c7180a2701058748" target="_top" xlink:title="Muestra todos los activos del portafolio por consola.">
<polygon fill="white" stroke="black" points="94.5,-76.5 94.5,-95.5 202.5,-95.5 202.5,-76.5 94.5,-76.5"/>
<text text-anchor="middle" x="148.5" y="-83.5" font-family="Helvetica,sans-Serif" font-size="10.00">Portafolio::mostrar</text>
</a>
</g>
</g>
<!-- Node1&#45;&gt;Node2 -->
<g id="edge1" class="edge">
<title>Node1&#45;&gt;Node2</title>
<path fill="none" stroke="midnightblue" d="M250.33,-60.11C229.71,-65.4 205.89,-71.52 186.58,-76.48"/>
<polygon fill="midnightblue" stroke="midnightblue" points="251.34,-63.47 260.15,-57.59 249.6,-56.69 251.34,-63.47"/>
</g>
<!-- Node4 -->
<g id="node4" class="node">
<title>Node4</title>
<g id="a_node4"><a xlink:href="classPortafolio.html#a3f3249951cf442f25729fc3b0b3a891a" target="_top" xlink:title="Obtiene los activos del portafolio como un std::vector&lt;string&gt;.">
<polygon fill="white" stroke="black" points="77,-38.5 77,-57.5 220,-57.5 220,-38.5 77,-38.5"/>
<text text-anchor="middle" x="148.5" y="-45.5" font-family="Helvetica,sans-Serif" font-size="10.00">Portafolio::obtenerActivos</text>
</a>
</g>
</g>
<!-- Node1&#45;&gt;Node4 -->
<g id="edge3" class="edge">
<title>Node1&#45;&gt;Node4</title>
<path fill="none" stroke="midnightblue" d="M245.69,-48C237.46,-48 228.81,-48 220.23,-48"/>
<polygon fill="midnightblue" stroke="midnightblue" points="245.88,-51.5 255.88,-48 245.88,-44.5 245.88,-51.5"/>
</g>
<!-- Node5 -->
<g id="node5" class="node">
<title>Node5</title>
<g id="a_node5"><a xlink:href="classPortafolio.html#a05f128c85711795093c9ceb7d5dbadbd" target="_top" xlink:title="Verifica si el portafolio contiene un activo específico.">
<polygon fill="white" stroke="black" points="86,-0.5 86,-19.5 211,-19.5 211,-0.5 86,-0.5"/>
<text text-anchor="middle" x="148.5" y="-7.5" font-family="Helvetica,sans-Serif" font-size="10.00">Portafolio::tieneActivo</text>
</a>
</g>
</g>
<!-- Node1&#45;&gt;Node5 -->
<g id="edge5" class="edge">
<title>Node1&#45;&gt;Node5</title>
<path fill="none" stroke="midnightblue" d="M250.33,-35.89C229.71,-30.6 205.89,-24.48 186.58,-19.52"/>
<polygon fill="midnightblue" stroke="midnightblue" points="249.6,-39.31 260.15,-38.41 251.34,-32.53 249.6,-39.31"/>
</g>
<!-- Node3 -->
<g id="node3" class="node">
<title>Node3</title>
<g id="a_node3"><a xlink:href="codigo_8cpp.html#ae66f6b31b5ad750f1fe042a706a4e3d4" target="_top" xlink:title="Función principal del programa.">
<polygon fill="white" stroke="black" points="0,-57.5 0,-76.5 41,-76.5 41,-57.5 0,-57.5"/>
<text text-anchor="middle" x="20.5" y="-64.5" font-family="Helvetica,sans-Serif" font-size="10.00">main</text>
</a>
</g>
</g>
<!-- Node2&#45;&gt;Node3 -->
<g id="edge2" class="edge">
<title>Node2&#45;&gt;Node3</title>
<path fill="none" stroke="midnightblue" d="M84.2,-76.45C68.58,-74.1 52.98,-71.75 41.25,-69.98"/>
<polygon fill="midnightblue" stroke="midnightblue" points="84.02,-79.97 94.43,-78 85.06,-73.05 84.02,-79.97"/>
</g>
<!-- Node4&#45;&gt;Node3 -->
<g id="edge4" class="edge">
<title>Node4&#45;&gt;Node3</title>
<path fill="none" stroke="midnightblue" d="M73.88,-59.1C61.78,-60.93 50.22,-62.67 41.05,-64.05"/>
<polygon fill="midnightblue" stroke="midnightblue" points="74.76,-62.51 84.13,-57.56 73.72,-55.59 74.76,-62.51"/>
</g>
</g>
</svg>
