<?xml version="1.0" encoding="UTF-8" standalone="no"?>
<!DOCTYPE svg PUBLIC "-//W3C//DTD SVG 1.1//EN"
 "http://www.w3.org/Graphics/SVG/1.1/DTD/svg11.dtd">
<!-- Generated by graphviz version 2.43.0 (0)
 -->
<!-- Title: ABBEmpresas Pages: 1 -->
<!--zoomable 645 -->
<svg id="main" version="1.1" xmlns="http://www.w3.org/2000/svg" xmlns:xlink="http://www.w3.org/1999/xlink" xml:space="preserve" onload="init(evt)">
<style type="text/css"><![CDATA[
.edge:hover path { stroke: red; }
.edge:hover polygon { stroke: red; fill: red; }
]]></style>
<script type="text/javascript"><![CDATA[
var edges = document.getElementsByTagName('g');
if (edges && edges.length) {
  for (var i=0;i<edges.length;i++) {
    if (edges[i].id.substr(0,4)=='edge') {
      edges[i].setAttribute('class','edge');
    }
  }
}
]]></script>
        <defs>
                <circle id="rim" cx="0" cy="0" r="7"/>
                <circle id="rim2" cx="0" cy="0" r="3.5"/>
                <g id="zoomPlus">
                        <use xlink:href="#rim" fill="#404040">
                                <set attributeName="fill" to="#808080" begin="zoomplus.mouseover" end="zoomplus.mouseout"/>
                        </use>
                        <path d="M-4,0h8M0,-4v8" fill="none" stroke="white" stroke-width="1.5" pointer-events="none"/>
                </g>
                <g id="zoomMin">
                        <use xlink:href="#rim" fill="#404040">
                                <set attributeName="fill" to="#808080" begin="zoomminus.mouseover" end="zoomminus.mouseout"/>
                        </use>
                        <path d="M-4,0h8" fill="none" stroke="white" stroke-width="1.5" pointer-events="none"/>
                </g>
                <g id="dirArrow">
                        <path fill="none" stroke="white" stroke-width="1.5" d="M0,-3.0v7 M-2.5,-0.5L0,-3.0L2.5,-0.5"/>
                </g>
               <g id="resetDef">
                       <use xlink:href="#rim2" fill="#404040">
                               <set attributeName="fill" to="#808080" begin="reset.mouseover" end="reset.mouseout"/>
                       </use>
               </g>
        </defs>

<script type="text/javascript">
var viewWidth = 225;
var viewHeight = 645;
var sectionId = 'dynsection-0';
</script>
<script xlink:href="svgpan.js"/>
<svg id="graph" class="graph">
<g id="viewport">
<title>ABBEmpresas</title>
<polygon fill="white" stroke="transparent" points="-4,4 -4,-641 220.5,-641 220.5,4 -4,4"/>
<!-- Node1 -->
<g id="node1" class="node">
<title>Node1</title>
<g id="a_node1"><a xlink:title="Árbol binario de búsqueda (ABB) para gestionar empresas.">
<polygon fill="#bfbfbf" stroke="black" points="0,-0.5 0,-244.5 192,-244.5 192,-0.5 0,-0.5"/>
<text text-anchor="middle" x="96" y="-232.5" font-family="Helvetica,sans-Serif" font-size="10.00">ABBEmpresas</text>
<polyline fill="none" stroke="black" points="0,-225.5 192,-225.5 "/>
<text text-anchor="middle" x="96" y="-213.5" font-family="Helvetica,sans-Serif" font-size="10.00"> </text>
<polyline fill="none" stroke="black" points="0,-206.5 192,-206.5 "/>
<text text-anchor="start" x="8" y="-194.5" font-family="Helvetica,sans-Serif" font-size="10.00">+ ABBEmpresas()</text>
<text text-anchor="start" x="8" y="-183.5" font-family="Helvetica,sans-Serif" font-size="10.00">+ agregarPrecio()</text>
<text text-anchor="start" x="8" y="-172.5" font-family="Helvetica,sans-Serif" font-size="10.00">+ ajustarPreciosPorNoticia()</text>
<text text-anchor="start" x="8" y="-161.5" font-family="Helvetica,sans-Serif" font-size="10.00">+ ajustarPreciosPorNoticia()</text>
<text text-anchor="start" x="8" y="-150.5" font-family="Helvetica,sans-Serif" font-size="10.00">+ buscarEmpresa()</text>
<text text-anchor="start" x="8" y="-139.5" font-family="Helvetica,sans-Serif" font-size="10.00">+ buscarEmpresasPorRangoPrecio()</text>
<text text-anchor="start" x="8" y="-128.5" font-family="Helvetica,sans-Serif" font-size="10.00">+ imprimirEmpresa()</text>
<text text-anchor="start" x="8" y="-117.5" font-family="Helvetica,sans-Serif" font-size="10.00">+ imprimirEmpresas()</text>
<text text-anchor="start" x="8" y="-106.5" font-family="Helvetica,sans-Serif" font-size="10.00">+ imprimirEmpresas()</text>
<text text-anchor="start" x="8" y="-95.5" font-family="Helvetica,sans-Serif" font-size="10.00">+ imprimirEmpresasPorSector()</text>
<text text-anchor="start" x="8" y="-84.5" font-family="Helvetica,sans-Serif" font-size="10.00">y 7 más...</text>
<text text-anchor="start" x="8" y="-73.5" font-family="Helvetica,sans-Serif" font-size="10.00">+ merge()</text>
<text text-anchor="start" x="8" y="-62.5" font-family="Helvetica,sans-Serif" font-size="10.00">+ mergeSort()</text>
<text text-anchor="start" x="8" y="-51.5" font-family="Helvetica,sans-Serif" font-size="10.00">&#45; buscar()</text>
<text text-anchor="start" x="8" y="-40.5" font-family="Helvetica,sans-Serif" font-size="10.00">&#45; destruir()</text>
<text text-anchor="start" x="8" y="-29.5" font-family="Helvetica,sans-Serif" font-size="10.00">&#45; inicializarEmpresas()</text>
<text text-anchor="start" x="8" y="-18.5" font-family="Helvetica,sans-Serif" font-size="10.00">&#45; inorden()</text>
<text text-anchor="start" x="8" y="-7.5" font-family="Helvetica,sans-Serif" font-size="10.00">&#45; insertar()</text>
</a>
</g>
</g>
<!-- Node2 -->
<g id="node2" class="node">
<title>Node2</title>
<g id="a_node2"><a xlink:href="structEmpresa.html" target="_top" xlink:title="Nodo de ABB que representa una empresa.">
<polygon fill="white" stroke="black" points="51.5,-292.5 51.5,-382.5 140.5,-382.5 140.5,-292.5 51.5,-292.5"/>
<text text-anchor="middle" x="96" y="-370.5" font-family="Helvetica,sans-Serif" font-size="10.00">Empresa</text>
<polyline fill="none" stroke="black" points="51.5,-363.5 140.5,-363.5 "/>
<text text-anchor="start" x="59.5" y="-351.5" font-family="Helvetica,sans-Serif" font-size="10.00">+ nombre</text>
<text text-anchor="start" x="59.5" y="-340.5" font-family="Helvetica,sans-Serif" font-size="10.00">+ precioActual</text>
<text text-anchor="start" x="59.5" y="-329.5" font-family="Helvetica,sans-Serif" font-size="10.00">+ sector</text>
<text text-anchor="start" x="59.5" y="-318.5" font-family="Helvetica,sans-Serif" font-size="10.00">+ ticker</text>
<polyline fill="none" stroke="black" points="51.5,-311.5 140.5,-311.5 "/>
<text text-anchor="start" x="59.5" y="-299.5" font-family="Helvetica,sans-Serif" font-size="10.00">+ Empresa()</text>
</a>
</g>
</g>
<!-- Node2&#45;&gt;Node1 -->
<g id="edge1" class="edge">
<title>Node2&#45;&gt;Node1</title>
<path fill="none" stroke="#404040" d="M96,-292.37C96,-281.65 96,-269.64 96,-257.09"/>
<polygon fill="none" stroke="#404040" points="96,-256.92 92,-250.92 96,-244.92 100,-250.92 96,-256.92"/>
<text text-anchor="middle" x="108.5" y="-266" font-family="Helvetica,sans-Serif" font-size="10.00"> &#45;raiz</text>
</g>
<!-- Node2&#45;&gt;Node2 -->
<g id="edge2" class="edge">
<title>Node2&#45;&gt;Node2</title>
<path fill="none" stroke="#404040" d="M140.66,-349.97C150.95,-348.89 158.5,-344.74 158.5,-337.5 158.5,-333.54 156.24,-330.5 152.51,-328.39"/>
<polygon fill="none" stroke="#404040" points="152.21,-328.3 145.34,-330.52 140.66,-325.03 147.53,-322.82 152.21,-328.3"/>
<text text-anchor="middle" x="185.5" y="-340.5" font-family="Helvetica,sans-Serif" font-size="10.00"> +derecha</text>
<text text-anchor="middle" x="185.5" y="-329.5" font-family="Helvetica,sans-Serif" font-size="10.00">+izquierda</text>
</g>
<!-- Node3 -->
<g id="node3" class="node">
<title>Node3</title>
<g id="a_node3"><a xlink:href="classMultilistaPrecio.html" target="_top" xlink:title="Multilista para historial de precios de una acción.">
<polygon fill="white" stroke="black" points="40.5,-430.5 40.5,-520.5 151.5,-520.5 151.5,-430.5 40.5,-430.5"/>
<text text-anchor="middle" x="96" y="-508.5" font-family="Helvetica,sans-Serif" font-size="10.00">MultilistaPrecio</text>
<polyline fill="none" stroke="black" points="40.5,-501.5 151.5,-501.5 "/>
<text text-anchor="middle" x="96" y="-489.5" font-family="Helvetica,sans-Serif" font-size="10.00"> </text>
<polyline fill="none" stroke="black" points="40.5,-482.5 151.5,-482.5 "/>
<text text-anchor="start" x="48.5" y="-470.5" font-family="Helvetica,sans-Serif" font-size="10.00">+ agregarPrecio()</text>
<text text-anchor="start" x="48.5" y="-459.5" font-family="Helvetica,sans-Serif" font-size="10.00">+ imprimir()</text>
<text text-anchor="start" x="48.5" y="-448.5" font-family="Helvetica,sans-Serif" font-size="10.00">+ MultilistaPrecio()</text>
<text text-anchor="start" x="48.5" y="-437.5" font-family="Helvetica,sans-Serif" font-size="10.00">+ promedioMovil()</text>
</a>
</g>
</g>
<!-- Node3&#45;&gt;Node2 -->
<g id="edge3" class="edge">
<title>Node3&#45;&gt;Node2</title>
<path fill="none" stroke="#404040" d="M96,-430.34C96,-419.06 96,-406.78 96,-394.97"/>
<polygon fill="none" stroke="#404040" points="96,-394.9 92,-388.9 96,-382.9 100,-388.9 96,-394.9"/>
<text text-anchor="middle" x="139.5" y="-404" font-family="Helvetica,sans-Serif" font-size="10.00"> +historialPrecios</text>
</g>
<!-- Node4 -->
<g id="node4" class="node">
<title>Node4</title>
<g id="a_node4"><a xlink:href="structNodoPrecio.html" target="_top" xlink:title="Nodo para la multilista de precios históricos de una acción.">
<polygon fill="white" stroke="black" points="50.5,-568.5 50.5,-636.5 141.5,-636.5 141.5,-568.5 50.5,-568.5"/>
<text text-anchor="middle" x="96" y="-624.5" font-family="Helvetica,sans-Serif" font-size="10.00">NodoPrecio</text>
<polyline fill="none" stroke="black" points="50.5,-617.5 141.5,-617.5 "/>
<text text-anchor="start" x="58.5" y="-605.5" font-family="Helvetica,sans-Serif" font-size="10.00">+ fecha</text>
<text text-anchor="start" x="58.5" y="-594.5" font-family="Helvetica,sans-Serif" font-size="10.00">+ precioCierre</text>
<polyline fill="none" stroke="black" points="50.5,-587.5 141.5,-587.5 "/>
<text text-anchor="start" x="58.5" y="-575.5" font-family="Helvetica,sans-Serif" font-size="10.00">+ NodoPrecio()</text>
</a>
</g>
</g>
<!-- Node4&#45;&gt;Node3 -->
<g id="edge4" class="edge">
<title>Node4&#45;&gt;Node3</title>
<path fill="none" stroke="#404040" d="M96,-568.33C96,-557.37 96,-544.86 96,-532.67"/>
<polygon fill="none" stroke="#404040" points="96,-532.66 92,-526.66 96,-520.66 100,-526.66 96,-532.66"/>
<text text-anchor="middle" x="119" y="-542" font-family="Helvetica,sans-Serif" font-size="10.00"> +cabeza</text>
</g>
<!-- Node4&#45;&gt;Node4 -->
<g id="edge5" class="edge">
<title>Node4&#45;&gt;Node4</title>
<path fill="none" stroke="#404040" d="M141.66,-613.11C151.97,-612.15 159.5,-608.62 159.5,-602.5 159.5,-599.15 157.25,-596.58 153.52,-594.78"/>
<polygon fill="none" stroke="#404040" points="153.32,-594.73 146.55,-597.2 141.66,-591.89 148.44,-589.42 153.32,-594.73"/>
<text text-anchor="middle" x="188" y="-600" font-family="Helvetica,sans-Serif" font-size="10.00"> +siguiente</text>
</g>
</g>
</svg>
        <g id="navigator" transform="translate(0 0)" fill="#404254">
                <rect fill="#f2f5e9" fill-opacity="0.5" stroke="#606060" stroke-width=".5" x="0" y="0" width="60" height="60"/>
                <use id="zoomplus" xlink:href="#zoomPlus" x="17" y="9" onmousedown="handleZoom(evt,'in')"/>
                <use id="zoomminus" xlink:href="#zoomMin" x="42" y="9" onmousedown="handleZoom(evt,'out')"/>
                <use id="reset" xlink:href="#resetDef" x="30" y="36" onmousedown="handleReset()"/>
                <g id="arrowUp" xlink:href="#dirArrow" transform="translate(30 24)" onmousedown="handlePan(0,-1)">
                  <use xlink:href="#rim" fill="#404040">
                        <set attributeName="fill" to="#808080" begin="arrowUp.mouseover" end="arrowUp.mouseout"/>
                  </use>
                  <path fill="none" stroke="white" stroke-width="1.5" d="M0,-3.0v7 M-2.5,-0.5L0,-3.0L2.5,-0.5"/>
                </g>
                <g id="arrowRight" xlink:href="#dirArrow" transform="rotate(90) translate(36 -43)" onmousedown="handlePan(1,0)">
                  <use xlink:href="#rim" fill="#404040">
                        <set attributeName="fill" to="#808080" begin="arrowRight.mouseover" end="arrowRight.mouseout"/>
                  </use>
                  <path fill="none" stroke="white" stroke-width="1.5" d="M0,-3.0v7 M-2.5,-0.5L0,-3.0L2.5,-0.5"/>
                </g>
                <g id="arrowDown" xlink:href="#dirArrow" transform="rotate(180) translate(-30 -48)" onmousedown="handlePan(0,1)">
                  <use xlink:href="#rim" fill="#404040">
                        <set attributeName="fill" to="#808080" begin="arrowDown.mouseover" end="arrowDown.mouseout"/>
                  </use>
                  <path fill="none" stroke="white" stroke-width="1.5" d="M0,-3.0v7 M-2.5,-0.5L0,-3.0L2.5,-0.5"/>
                </g>
                <g id="arrowLeft" xlink:href="#dirArrow" transform="rotate(270) translate(-36 17)" onmousedown="handlePan(-1,0)">
                  <use xlink:href="#rim" fill="#404040">
                        <set attributeName="fill" to="#808080" begin="arrowLeft.mouseover" end="arrowLeft.mouseout"/>
                  </use>
                  <path fill="none" stroke="white" stroke-width="1.5" d="M0,-3.0v7 M-2.5,-0.5L0,-3.0L2.5,-0.5"/>
                </g>
        </g>
        <svg viewBox="0 0 15 15" width="100%" height="30px" preserveAspectRatio="xMaxYMin meet">
         <g id="arrow_out" transform="scale(0.3 0.3)">
          <a xlink:href="classABBEmpresas__coll__graph_org.svg" target="_base">
           <rect id="button" ry="5" rx="5" y="6" x="6" height="38" width="38"
                fill="#f2f5e9" fill-opacity="0.5" stroke="#606060" stroke-width="1.0"/>
           <path id="arrow"
             d="M 11.500037,31.436501 C 11.940474,20.09759 22.043105,11.32322 32.158766,21.979434 L 37.068811,17.246167 C 37.068811,17.246167 37.088388,32 37.088388,32 L 22.160133,31.978069 C 22.160133,31.978069 26.997745,27.140456 26.997745,27.140456 C 18.528582,18.264221 13.291696,25.230495 11.500037,31.436501 z"
             style="fill:#404040;"/>
          </a>
         </g>
        </svg>
</svg>
