<?xml version="1.0" encoding="UTF-8" standalone="no"?>
<!DOCTYPE svg PUBLIC "-//W3C//DTD SVG 1.1//EN"
 "http://www.w3.org/Graphics/SVG/1.1/DTD/svg11.dtd">
<!-- Generated by graphviz version 2.43.0 (0)
 -->
<!-- Title: MultilistaPrecio::agregarPrecio Pages: 1 -->
<svg width="338pt" height="78pt"
 viewBox="0.00 0.00 338.00 77.50" xmlns="http://www.w3.org/2000/svg" xmlns:xlink="http://www.w3.org/1999/xlink">
<g id="graph0" class="graph" transform="scale(1 1) rotate(0) translate(4 73.5)">
<title>MultilistaPrecio::agregarPrecio</title>
<polygon fill="white" stroke="transparent" points="-4,4 -4,-73.5 334,-73.5 334,4 -4,4"/>
<!-- Node1 -->
<g id="node1" class="node">
<title>Node1</title>
<g id="a_node1"><a xlink:title="Agrega un precio al historial (al inicio de la lista).">
<polygon fill="#bfbfbf" stroke="black" points="194,-22.5 194,-52.5 330,-52.5 330,-22.5 194,-22.5"/>
<text text-anchor="start" x="202" y="-40.5" font-family="Helvetica,sans-Serif" font-size="10.00">MultilistaPrecio::agregar</text>
<text text-anchor="middle" x="262" y="-29.5" font-family="Helvetica,sans-Serif" font-size="10.00">Precio</text>
</a>
</g>
</g>
<!-- Node2 -->
<g id="node2" class="node">
<title>Node2</title>
<g id="a_node2"><a xlink:href="classABBEmpresas.html#a7c2d2222bff46899a03bfac025a94d7d" target="_top" xlink:title="Agrega un precio histórico a una empresa.">
<polygon fill="white" stroke="black" points="0,-50 0,-69 158,-69 158,-50 0,-50"/>
<text text-anchor="middle" x="79" y="-57" font-family="Helvetica,sans-Serif" font-size="10.00">ABBEmpresas::agregarPrecio</text>
</a>
</g>
</g>
<!-- Node1&#45;&gt;Node2 -->
<g id="edge1" class="edge">
<title>Node1&#45;&gt;Node2</title>
<path fill="none" stroke="midnightblue" d="M183.9,-46.87C175.33,-47.91 166.61,-48.97 158.03,-50.02"/>
<polygon fill="midnightblue" stroke="midnightblue" points="184.35,-50.34 193.86,-45.66 183.51,-43.39 184.35,-50.34"/>
</g>
<!-- Node3 -->
<g id="node3" class="node">
<title>Node3</title>
<g id="a_node3"><a xlink:href="classABBEmpresas.html#aa2e8d0775af6901d7ad59454a4c90136" target="_top" xlink:title="Inicializa automáticamente el ABB con empresas reales y datos aleatorios.">
<polygon fill="white" stroke="black" points="10,-0.5 10,-30.5 148,-30.5 148,-0.5 10,-0.5"/>
<text text-anchor="start" x="18" y="-18.5" font-family="Helvetica,sans-Serif" font-size="10.00">ABBEmpresas::inicializar</text>
<text text-anchor="middle" x="79" y="-7.5" font-family="Helvetica,sans-Serif" font-size="10.00">Empresas</text>
</a>
</g>
</g>
<!-- Node1&#45;&gt;Node3 -->
<g id="edge2" class="edge">
<title>Node1&#45;&gt;Node3</title>
<path fill="none" stroke="midnightblue" d="M183.62,-28.09C171.86,-26.66 159.79,-25.2 148.24,-23.79"/>
<polygon fill="midnightblue" stroke="midnightblue" points="183.51,-31.61 193.86,-29.34 184.35,-24.66 183.51,-31.61"/>
</g>
</g>
</svg>
