<?xml version="1.0" encoding="UTF-8" standalone="no"?>
<!DOCTYPE svg PUBLIC "-//W3C//DTD SVG 1.1//EN"
 "http://www.w3.org/Graphics/SVG/1.1/DTD/svg11.dtd">
<!-- Generated by graphviz version 2.43.0 (0)
 -->
<!-- Title: MiVector::miPush Pages: 1 -->
<svg width="360pt" height="28pt"
 viewBox="0.00 0.00 360.00 28.00" xmlns="http://www.w3.org/2000/svg" xmlns:xlink="http://www.w3.org/1999/xlink">
<g id="graph0" class="graph" transform="scale(1 1) rotate(0) translate(4 24)">
<title>MiVector::miPush</title>
<polygon fill="white" stroke="transparent" points="-4,4 -4,-24 356,-24 356,4 -4,4"/>
<!-- Node1 -->
<g id="node1" class="node">
<title>Node1</title>
<g id="a_node1"><a xlink:title="Inserta un elemento al final del vector.">
<polygon fill="#bfbfbf" stroke="black" points="251,-0.5 251,-19.5 352,-19.5 352,-0.5 251,-0.5"/>
<text text-anchor="middle" x="301.5" y="-7.5" font-family="Helvetica,sans-Serif" font-size="10.00">MiVector::miPush</text>
</a>
</g>
</g>
<!-- Node2 -->
<g id="node2" class="node">
<title>Node2</title>
<g id="a_node2"><a xlink:href="classPortafolio.html#a0f318f5e76a14783e28f2661d894c369" target="_top" xlink:title="Agrega un activo al portafolio.">
<polygon fill="white" stroke="black" points="77,-0.5 77,-19.5 215,-19.5 215,-0.5 77,-0.5"/>
<text text-anchor="middle" x="146" y="-7.5" font-family="Helvetica,sans-Serif" font-size="10.00">Portafolio::agregarActivo</text>
</a>
</g>
</g>
<!-- Node1&#45;&gt;Node2 -->
<g id="edge1" class="edge">
<title>Node1&#45;&gt;Node2</title>
<path fill="none" stroke="midnightblue" d="M240.6,-10C232.2,-10 223.53,-10 215,-10"/>
<polygon fill="midnightblue" stroke="midnightblue" points="240.66,-13.5 250.66,-10 240.66,-6.5 240.66,-13.5"/>
</g>
<!-- Node3 -->
<g id="node3" class="node">
<title>Node3</title>
<g id="a_node3"><a xlink:href="codigo_8cpp.html#ae66f6b31b5ad750f1fe042a706a4e3d4" target="_top" xlink:title="Función principal del programa.">
<polygon fill="white" stroke="black" points="0,-0.5 0,-19.5 41,-19.5 41,-0.5 0,-0.5"/>
<text text-anchor="middle" x="20.5" y="-7.5" font-family="Helvetica,sans-Serif" font-size="10.00">main</text>
</a>
</g>
</g>
<!-- Node2&#45;&gt;Node3 -->
<g id="edge2" class="edge">
<title>Node2&#45;&gt;Node3</title>
<path fill="none" stroke="midnightblue" d="M66.47,-10C57.16,-10 48.4,-10 41.13,-10"/>
<polygon fill="midnightblue" stroke="midnightblue" points="66.75,-13.5 76.75,-10 66.75,-6.5 66.75,-13.5"/>
</g>
</g>
</svg>
