<?xml version="1.0" encoding="UTF-8" standalone="no"?>
<!DOCTYPE svg PUBLIC "-//W3C//DTD SVG 1.1//EN"
 "http://www.w3.org/Graphics/SVG/1.1/DTD/svg11.dtd">
<!-- Generated by graphviz version 2.43.0 (0)
 -->
<!-- Title: Portafolio::ordenarActivos Pages: 1 -->
<svg width="290pt" height="66pt"
 viewBox="0.00 0.00 290.00 66.00" xmlns="http://www.w3.org/2000/svg" xmlns:xlink="http://www.w3.org/1999/xlink">
<g id="graph0" class="graph" transform="scale(1 1) rotate(0) translate(4 62)">
<title>Portafolio::ordenarActivos</title>
<polygon fill="white" stroke="transparent" points="-4,4 -4,-62 286,-62 286,4 -4,4"/>
<!-- Node1 -->
<g id="node1" class="node">
<title>Node1</title>
<g id="a_node1"><a xlink:title="Ordena los activos del portafolio en orden ascendente.">
<polygon fill="#bfbfbf" stroke="black" points="0,-19.5 0,-38.5 143,-38.5 143,-19.5 0,-19.5"/>
<text text-anchor="middle" x="71.5" y="-26.5" font-family="Helvetica,sans-Serif" font-size="10.00">Portafolio::ordenarActivos</text>
</a>
</g>
</g>
<!-- Node2 -->
<g id="node2" class="node">
<title>Node2</title>
<g id="a_node2"><a xlink:href="classMiVector.html#a8d8f602691e396c144d450d7c88ed400" target="_top" xlink:title="Verifica si el vector está vacío.">
<polygon fill="white" stroke="black" points="182,-38.5 182,-57.5 279,-57.5 279,-38.5 182,-38.5"/>
<text text-anchor="middle" x="230.5" y="-45.5" font-family="Helvetica,sans-Serif" font-size="10.00">MiVector::empty</text>
</a>
</g>
</g>
<!-- Node1&#45;&gt;Node2 -->
<g id="edge1" class="edge">
<title>Node1&#45;&gt;Node2</title>
<path fill="none" stroke="midnightblue" d="M143.19,-37.56C152.65,-38.7 162.27,-39.86 171.48,-40.98"/>
<polygon fill="midnightblue" stroke="midnightblue" points="171.33,-44.49 181.68,-42.21 172.17,-37.54 171.33,-44.49"/>
</g>
<!-- Node3 -->
<g id="node3" class="node">
<title>Node3</title>
<g id="a_node3"><a xlink:href="classMiVector.html#a3170173acdc2bb5c256ce8d84020ac5a" target="_top" xlink:title="Ordena los elementos del vector en orden ascendente.">
<polygon fill="white" stroke="black" points="179,-0.5 179,-19.5 282,-19.5 282,-0.5 179,-0.5"/>
<text text-anchor="middle" x="230.5" y="-7.5" font-family="Helvetica,sans-Serif" font-size="10.00">MiVector::ordenar</text>
</a>
</g>
</g>
<!-- Node1&#45;&gt;Node3 -->
<g id="edge2" class="edge">
<title>Node1&#45;&gt;Node3</title>
<path fill="none" stroke="midnightblue" d="M143.19,-20.44C151.76,-19.41 160.44,-18.36 168.85,-17.34"/>
<polygon fill="midnightblue" stroke="midnightblue" points="169.42,-20.8 178.92,-16.12 168.57,-13.85 169.42,-20.8"/>
</g>
</g>
</svg>
