<?xml version="1.0" encoding="UTF-8" standalone="no"?>
<!DOCTYPE svg PUBLIC "-//W3C//DTD SVG 1.1//EN"
 "http://www.w3.org/Graphics/SVG/1.1/DTD/svg11.dtd">
<!-- Generated by graphviz version 2.43.0 (0)
 -->
<!-- Title: main Pages: 1 -->
<svg width="478pt" height="1465pt"
 viewBox="0.00 0.00 478.00 1464.50" xmlns="http://www.w3.org/2000/svg" xmlns:xlink="http://www.w3.org/1999/xlink">
<g id="graph0" class="graph" transform="scale(1 1) rotate(0) translate(4 1460.5)">
<title>main</title>
<polygon fill="white" stroke="transparent" points="-4,4 -4,-1460.5 474,-1460.5 474,4 -4,4"/>
<!-- Node1 -->
<g id="node1" class="node">
<title>Node1</title>
<g id="a_node1"><a xlink:title="Función principal del programa.">
<polygon fill="#bfbfbf" stroke="black" points="0,-725 0,-744 41,-744 41,-725 0,-725"/>
<text text-anchor="middle" x="20.5" y="-732" font-family="Helvetica,sans-Serif" font-size="10.00">main</text>
</a>
</g>
</g>
<!-- Node2 -->
<g id="node2" class="node">
<title>Node2</title>
<g id="a_node2"><a xlink:href="classPortafolio.html#a0f318f5e76a14783e28f2661d894c369" target="_top" xlink:title="Agrega un activo al portafolio.">
<polygon fill="white" stroke="black" points="98.5,-1437 98.5,-1456 236.5,-1456 236.5,-1437 98.5,-1437"/>
<text text-anchor="middle" x="167.5" y="-1444" font-family="Helvetica,sans-Serif" font-size="10.00">Portafolio::agregarActivo</text>
</a>
</g>
</g>
<!-- Node1&#45;&gt;Node2 -->
<g id="edge1" class="edge">
<title>Node1&#45;&gt;Node2</title>
<path fill="none" stroke="midnightblue" d="M21.59,-744.24C22.41,-824.42 29.75,-1373.72 77,-1427.5 80.51,-1431.5 84.64,-1434.78 89.16,-1437.45"/>
<polygon fill="midnightblue" stroke="midnightblue" points="87.76,-1440.66 98.28,-1441.89 90.82,-1434.37 87.76,-1440.66"/>
</g>
<!-- Node4 -->
<g id="node4" class="node">
<title>Node4</title>
<g id="a_node4"><a xlink:href="classABBEmpresas.html#ae84bb76dc229040e7e343cafabb76383" target="_top" xlink:title="Ajusta los precios de las empresas de un sector según el impacto de una noticia.">
<polygon fill="white" stroke="black" points="87.5,-1387.5 87.5,-1417.5 247.5,-1417.5 247.5,-1387.5 87.5,-1387.5"/>
<text text-anchor="start" x="95.5" y="-1405.5" font-family="Helvetica,sans-Serif" font-size="10.00">ABBEmpresas::ajustarPrecios</text>
<text text-anchor="middle" x="167.5" y="-1394.5" font-family="Helvetica,sans-Serif" font-size="10.00">PorNoticia</text>
</a>
</g>
</g>
<!-- Node1&#45;&gt;Node4 -->
<g id="edge3" class="edge">
<title>Node1&#45;&gt;Node4</title>
<path fill="none" stroke="midnightblue" d="M21.71,-744.14C23.44,-820.13 36.33,-1320.86 77,-1372.5 79.68,-1375.9 82.76,-1378.92 86.13,-1381.6"/>
<polygon fill="midnightblue" stroke="midnightblue" points="84.23,-1384.54 94.47,-1387.26 88.16,-1378.75 84.23,-1384.54"/>
</g>
<!-- Node5 -->
<g id="node5" class="node">
<title>Node5</title>
<g id="a_node5"><a xlink:href="classABBEmpresas.html#a705d67b6d795dffea3edf70150e0288d" target="_top" xlink:title="Busca una empresa por ticker.">
<polygon fill="white" stroke="black" points="299,-1310 299,-1329 465,-1329 465,-1310 299,-1310"/>
<text text-anchor="middle" x="382" y="-1317" font-family="Helvetica,sans-Serif" font-size="10.00">ABBEmpresas::buscarEmpresa</text>
</a>
</g>
</g>
<!-- Node1&#45;&gt;Node5 -->
<g id="edge4" class="edge">
<title>Node1&#45;&gt;Node5</title>
<path fill="none" stroke="midnightblue" d="M21.62,-744.23C22.65,-818.78 31.03,-1297.55 77,-1339.5 153.98,-1409.74 292.54,-1360.01 352.29,-1333.38"/>
<polygon fill="midnightblue" stroke="midnightblue" points="353.87,-1336.5 361.52,-1329.17 350.97,-1330.14 353.87,-1336.5"/>
</g>
<!-- Node6 -->
<g id="node6" class="node">
<title>Node6</title>
<g id="a_node6"><a xlink:href="classABBEmpresas.html#a69e48005487af9a9c02acb869e0a8e56" target="_top" xlink:title="Devuelve una lista de empresas cuyo precio actual está en el rango [minPrecio, maxPrecio].">
<polygon fill="white" stroke="black" points="82,-1085.5 82,-1115.5 253,-1115.5 253,-1085.5 82,-1085.5"/>
<text text-anchor="start" x="90" y="-1103.5" font-family="Helvetica,sans-Serif" font-size="10.00">ABBEmpresas::buscarEmpresas</text>
<text text-anchor="middle" x="167.5" y="-1092.5" font-family="Helvetica,sans-Serif" font-size="10.00">PorRangoPrecio</text>
</a>
</g>
</g>
<!-- Node1&#45;&gt;Node6 -->
<g id="edge5" class="edge">
<title>Node1&#45;&gt;Node6</title>
<path fill="none" stroke="midnightblue" d="M21.7,-744.05C22.92,-794.09 31.02,-1025.62 77,-1076.5 77.76,-1077.34 78.54,-1078.14 79.34,-1078.92"/>
<polygon fill="midnightblue" stroke="midnightblue" points="77.19,-1081.69 87.16,-1085.25 81.59,-1076.24 77.19,-1081.69"/>
</g>
<!-- Node7 -->
<g id="node7" class="node">
<title>Node7</title>
<g id="a_node7"><a xlink:href="classColaPrioridadNoticias.html#ab833342c4584745a79424087c99eb1e9" target="_top" xlink:title="Busca y muestra noticias cuyo título contiene una palabra clave.">
<polygon fill="white" stroke="black" points="100.5,-1036.5 100.5,-1066.5 234.5,-1066.5 234.5,-1036.5 100.5,-1036.5"/>
<text text-anchor="start" x="108.5" y="-1054.5" font-family="Helvetica,sans-Serif" font-size="10.00">ColaPrioridadNoticias</text>
<text text-anchor="middle" x="167.5" y="-1043.5" font-family="Helvetica,sans-Serif" font-size="10.00">::buscarPorPalabraClave</text>
</a>
</g>
</g>
<!-- Node1&#45;&gt;Node7 -->
<g id="edge6" class="edge">
<title>Node1&#45;&gt;Node7</title>
<path fill="none" stroke="midnightblue" d="M21.98,-744.16C24.48,-789.96 37.3,-984.71 77,-1027.5 81.07,-1031.88 85.84,-1035.5 91.02,-1038.48"/>
<polygon fill="midnightblue" stroke="midnightblue" points="89.57,-1041.66 100.09,-1042.91 92.65,-1035.37 89.57,-1041.66"/>
</g>
<!-- Node8 -->
<g id="node8" class="node">
<title>Node8</title>
<g id="a_node8"><a xlink:href="classColaPrioridadNoticias.html#ab0f4086eabcc4d2f9935f9f64527aa7c" target="_top" xlink:title="Busca y muestra noticias que pertenecen a un sector específico.">
<polygon fill="white" stroke="black" points="106.5,-987.5 106.5,-1017.5 228.5,-1017.5 228.5,-987.5 106.5,-987.5"/>
<text text-anchor="start" x="114.5" y="-1005.5" font-family="Helvetica,sans-Serif" font-size="10.00">ColaPrioridadNoticias</text>
<text text-anchor="middle" x="167.5" y="-994.5" font-family="Helvetica,sans-Serif" font-size="10.00">::buscarPorSector</text>
</a>
</g>
</g>
<!-- Node1&#45;&gt;Node8 -->
<g id="edge7" class="edge">
<title>Node1&#45;&gt;Node8</title>
<path fill="none" stroke="midnightblue" d="M22.4,-744.1C26.38,-784.82 43.78,-942.65 77,-977.5 82.56,-983.33 89.35,-987.84 96.69,-991.31"/>
<polygon fill="midnightblue" stroke="midnightblue" points="95.63,-994.66 106.22,-995.19 98.27,-988.18 95.63,-994.66"/>
</g>
<!-- Node9 -->
<g id="node9" class="node">
<title>Node9</title>
<g id="a_node9"><a xlink:href="noticia_8h.html#af24bef6e352d3ace928987de260bb7e6" target="_top" xlink:title="Calcula el porcentaje de ajuste según el impacto.">
<polygon fill="white" stroke="black" points="99,-949 99,-968 236,-968 236,-949 99,-949"/>
<text text-anchor="middle" x="167.5" y="-956" font-family="Helvetica,sans-Serif" font-size="10.00">calcularPorcentajeAjuste</text>
</a>
</g>
</g>
<!-- Node1&#45;&gt;Node9 -->
<g id="edge8" class="edge">
<title>Node1&#45;&gt;Node9</title>
<path fill="none" stroke="midnightblue" d="M20.88,-744.4C19.41,-777.45 19.42,-885.01 77,-939.5 80.8,-943.09 85.1,-946.08 89.71,-948.55"/>
<polygon fill="midnightblue" stroke="midnightblue" points="88.35,-951.77 98.9,-952.69 91.23,-945.39 88.35,-951.77"/>
</g>
<!-- Node10 -->
<g id="node10" class="node">
<title>Node10</title>
<g id="a_node10"><a xlink:href="classPortafolio.html#a2a3d95a628382a88d45d666982538b4e" target="_top" xlink:title="Elimina un activo del portafolio.">
<polygon fill="white" stroke="black" points="97,-911 97,-930 238,-930 238,-911 97,-911"/>
<text text-anchor="middle" x="167.5" y="-918" font-family="Helvetica,sans-Serif" font-size="10.00">Portafolio::eliminarActivo</text>
</a>
</g>
</g>
<!-- Node1&#45;&gt;Node10 -->
<g id="edge9" class="edge">
<title>Node1&#45;&gt;Node10</title>
<path fill="none" stroke="midnightblue" d="M21.59,-744.18C22.4,-772.94 28.94,-858.53 77,-901.5 80.26,-904.42 83.86,-906.93 87.69,-909.08"/>
<polygon fill="midnightblue" stroke="midnightblue" points="86.43,-912.36 96.96,-913.5 89.44,-906.04 86.43,-912.36"/>
</g>
<!-- Node12 -->
<g id="node12" class="node">
<title>Node12</title>
<g id="a_node12"><a xlink:href="noticia_8h.html#a6370066b96779b15f4c092365be9553b" target="_top" xlink:title="Genera un string de fecha con formato &quot;YYYY&#45;MM&#45;DD&quot; a partir de un número de días desde el inicio.">
<polygon fill="white" stroke="black" points="126,-873 126,-892 209,-892 209,-873 126,-873"/>
<text text-anchor="middle" x="167.5" y="-880" font-family="Helvetica,sans-Serif" font-size="10.00">generarFecha</text>
</a>
</g>
</g>
<!-- Node1&#45;&gt;Node12 -->
<g id="edge11" class="edge">
<title>Node1&#45;&gt;Node12</title>
<path fill="none" stroke="midnightblue" d="M22.63,-744.05C26.01,-768.15 38.35,-831.81 77,-863.5 87.87,-872.42 101.93,-877.44 115.66,-880.19"/>
<polygon fill="midnightblue" stroke="midnightblue" points="115.12,-883.65 125.56,-881.82 116.26,-876.74 115.12,-883.65"/>
</g>
<!-- Node13 -->
<g id="node13" class="node">
<title>Node13</title>
<g id="a_node13"><a xlink:href="classColaPrioridadNoticias.html#afccedcf2a79e14243c3d685f2fcf9e5a" target="_top" xlink:title="Detecta si hay una alerta de crisis (3 o más noticias con impacto &gt;= 8).">
<polygon fill="white" stroke="black" points="106.5,-823.5 106.5,-853.5 228.5,-853.5 228.5,-823.5 106.5,-823.5"/>
<text text-anchor="start" x="114.5" y="-841.5" font-family="Helvetica,sans-Serif" font-size="10.00">ColaPrioridadNoticias</text>
<text text-anchor="middle" x="167.5" y="-830.5" font-family="Helvetica,sans-Serif" font-size="10.00">::hayAlertaDeCrisis</text>
</a>
</g>
</g>
<!-- Node1&#45;&gt;Node13 -->
<g id="edge12" class="edge">
<title>Node1&#45;&gt;Node13</title>
<path fill="none" stroke="midnightblue" d="M25.6,-744.14C33.21,-760.87 51.13,-795.21 77,-813.5 82.98,-817.73 89.65,-821.24 96.58,-824.16"/>
<polygon fill="midnightblue" stroke="midnightblue" points="95.56,-827.52 106.15,-827.79 98.04,-820.97 95.56,-827.52"/>
</g>
<!-- Node14 -->
<g id="node14" class="node">
<title>Node14</title>
<g id="a_node14"><a xlink:href="classABBEmpresas.html#ae66f600b3457f3e6aeb09840d9188dcc" target="_top" xlink:title="Imprime la información de una empresa en formato de tabla.">
<polygon fill="white" stroke="black" points="79.5,-785 79.5,-804 255.5,-804 255.5,-785 79.5,-785"/>
<text text-anchor="middle" x="167.5" y="-792" font-family="Helvetica,sans-Serif" font-size="10.00">ABBEmpresas::imprimirEmpresa</text>
</a>
</g>
</g>
<!-- Node1&#45;&gt;Node14 -->
<g id="edge13" class="edge">
<title>Node1&#45;&gt;Node14</title>
<path fill="none" stroke="midnightblue" d="M31.69,-744.16C42.21,-753.59 59.52,-767.64 77,-775.5 82.61,-778.02 88.57,-780.22 94.64,-782.13"/>
<polygon fill="midnightblue" stroke="midnightblue" points="93.68,-785.49 104.25,-784.89 95.61,-778.76 93.68,-785.49"/>
</g>
<!-- Node15 -->
<g id="node15" class="node">
<title>Node15</title>
<g id="a_node15"><a xlink:href="classABBEmpresas.html#a66382212802e5ab39724152cb88a0912" target="_top" xlink:title="Imprime todas las empresas y su precio actual por consola.">
<polygon fill="white" stroke="black" points="77,-747 77,-766 258,-766 258,-747 77,-747"/>
<text text-anchor="middle" x="167.5" y="-754" font-family="Helvetica,sans-Serif" font-size="10.00">ABBEmpresas::imprimirEmpresas</text>
</a>
</g>
</g>
<!-- Node1&#45;&gt;Node15 -->
<g id="edge14" class="edge">
<title>Node1&#45;&gt;Node15</title>
<path fill="none" stroke="midnightblue" d="M41.06,-737.47C54.81,-739.55 74.16,-742.49 93.56,-745.43"/>
<polygon fill="midnightblue" stroke="midnightblue" points="93.26,-748.93 103.67,-746.97 94.31,-742.01 93.26,-748.93"/>
</g>
<!-- Node16 -->
<g id="node16" class="node">
<title>Node16</title>
<g id="a_node16"><a xlink:href="classABBEmpresas.html#af19e68352e97995e93431e69aec215b5" target="_top" xlink:title="Imprime todas las empresas de un sector específico.">
<polygon fill="white" stroke="black" points="77,-697.5 77,-727.5 258,-727.5 258,-697.5 77,-697.5"/>
<text text-anchor="start" x="85" y="-715.5" font-family="Helvetica,sans-Serif" font-size="10.00">ABBEmpresas::imprimirEmpresas</text>
<text text-anchor="middle" x="167.5" y="-704.5" font-family="Helvetica,sans-Serif" font-size="10.00">PorSector</text>
</a>
</g>
</g>
<!-- Node1&#45;&gt;Node16 -->
<g id="edge15" class="edge">
<title>Node1&#45;&gt;Node16</title>
<path fill="none" stroke="midnightblue" d="M41.06,-731.53C48.28,-730.44 57.06,-729.11 66.57,-727.66"/>
<polygon fill="midnightblue" stroke="midnightblue" points="67.35,-731.08 76.72,-726.12 66.3,-724.16 67.35,-731.08"/>
</g>
<!-- Node17 -->
<g id="node17" class="node">
<title>Node17</title>
<g id="a_node17"><a xlink:href="classABBEmpresas.html#a5475778344348be4a823d4f35da3ab9d" target="_top" xlink:title="Imprime empresas ordenadas por precio actual (de mayor a menor).">
<polygon fill="white" stroke="black" points="93,-648.5 93,-678.5 242,-678.5 242,-648.5 93,-648.5"/>
<text text-anchor="start" x="101" y="-666.5" font-family="Helvetica,sans-Serif" font-size="10.00">ABBEmpresas::imprimirPor</text>
<text text-anchor="middle" x="167.5" y="-655.5" font-family="Helvetica,sans-Serif" font-size="10.00">Precio</text>
</a>
</g>
</g>
<!-- Node1&#45;&gt;Node17 -->
<g id="edge16" class="edge">
<title>Node1&#45;&gt;Node17</title>
<path fill="none" stroke="midnightblue" d="M30.81,-724.64C41.15,-714.22 58.82,-698.02 77,-688.5 81.33,-686.23 85.88,-684.16 90.55,-682.25"/>
<polygon fill="midnightblue" stroke="midnightblue" points="92.15,-685.39 100.26,-678.58 89.67,-678.84 92.15,-685.39"/>
</g>
<!-- Node18 -->
<g id="node18" class="node">
<title>Node18</title>
<g id="a_node18"><a xlink:href="classColaPrioridadNoticias.html#a7512fe71c5e0220566c7d0d95be9862e" target="_top" xlink:title="Inserta una noticia en la cola de prioridad según su impacto.">
<polygon fill="white" stroke="black" points="106.5,-599.5 106.5,-629.5 228.5,-629.5 228.5,-599.5 106.5,-599.5"/>
<text text-anchor="start" x="114.5" y="-617.5" font-family="Helvetica,sans-Serif" font-size="10.00">ColaPrioridadNoticias</text>
<text text-anchor="middle" x="167.5" y="-606.5" font-family="Helvetica,sans-Serif" font-size="10.00">::insertar</text>
</a>
</g>
</g>
<!-- Node1&#45;&gt;Node18 -->
<g id="edge17" class="edge">
<title>Node1&#45;&gt;Node18</title>
<path fill="none" stroke="midnightblue" d="M24.43,-724.76C30.74,-705.46 47.51,-662.26 77,-639.5 82.88,-634.96 89.55,-631.24 96.52,-628.2"/>
<polygon fill="midnightblue" stroke="midnightblue" points="98.12,-631.34 106.18,-624.46 95.59,-624.81 98.12,-631.34"/>
</g>
<!-- Node19 -->
<g id="node19" class="node">
<title>Node19</title>
<g id="a_node19"><a xlink:href="classColaPrioridadNoticias.html#acf945e1aec8cf586d6b87382a1a9a9e2" target="_top" xlink:title="Muestra todas las noticias en la cola, en orden de prioridad.">
<polygon fill="white" stroke="black" points="106.5,-550.5 106.5,-580.5 228.5,-580.5 228.5,-550.5 106.5,-550.5"/>
<text text-anchor="start" x="114.5" y="-568.5" font-family="Helvetica,sans-Serif" font-size="10.00">ColaPrioridadNoticias</text>
<text text-anchor="middle" x="167.5" y="-557.5" font-family="Helvetica,sans-Serif" font-size="10.00">::mostrar</text>
</a>
</g>
</g>
<!-- Node1&#45;&gt;Node19 -->
<g id="edge18" class="edge">
<title>Node1&#45;&gt;Node19</title>
<path fill="none" stroke="midnightblue" d="M22.31,-724.79C25,-698.93 35.96,-627.8 77,-590.5 82.79,-585.24 89.6,-581.07 96.84,-577.77"/>
<polygon fill="midnightblue" stroke="midnightblue" points="98.19,-581 106.19,-574.05 95.6,-574.5 98.19,-581"/>
</g>
<!-- Node20 -->
<g id="node20" class="node">
<title>Node20</title>
<g id="a_node20"><a xlink:href="classPortafolio.html#a0fd1f6dd832435c9c7180a2701058748" target="_top" xlink:title="Muestra todos los activos del portafolio por consola.">
<polygon fill="white" stroke="black" points="113.5,-512 113.5,-531 221.5,-531 221.5,-512 113.5,-512"/>
<text text-anchor="middle" x="167.5" y="-519" font-family="Helvetica,sans-Serif" font-size="10.00">Portafolio::mostrar</text>
</a>
</g>
</g>
<!-- Node1&#45;&gt;Node20 -->
<g id="edge19" class="edge">
<title>Node1&#45;&gt;Node20</title>
<path fill="none" stroke="midnightblue" d="M21.11,-724.75C20.39,-693.15 22.68,-592.65 77,-541.5 84.39,-534.54 93.65,-529.81 103.39,-526.62"/>
<polygon fill="midnightblue" stroke="midnightblue" points="104.51,-529.95 113.24,-523.93 102.67,-523.19 104.51,-529.95"/>
</g>
<!-- Node23 -->
<g id="node23" class="node">
<title>Node23</title>
<g id="a_node23"><a xlink:href="noticia_8h.html#af7db67c9b2b44a23312346ae3cf2a20f" target="_top" xlink:title="Muestra el ajuste aplicado a los precios de un sector.">
<polygon fill="white" stroke="black" points="109.5,-436 109.5,-455 225.5,-455 225.5,-436 109.5,-436"/>
<text text-anchor="middle" x="167.5" y="-443" font-family="Helvetica,sans-Serif" font-size="10.00">mostrarAjusteSector</text>
</a>
</g>
</g>
<!-- Node1&#45;&gt;Node23 -->
<g id="edge22" class="edge">
<title>Node1&#45;&gt;Node23</title>
<path fill="none" stroke="midnightblue" d="M22.09,-724.97C25,-681.52 39.14,-502.61 77,-464.5 83.26,-458.2 91.06,-453.74 99.43,-450.63"/>
<polygon fill="midnightblue" stroke="midnightblue" points="100.54,-453.94 109.06,-447.65 98.48,-447.26 100.54,-453.94"/>
</g>
<!-- Node24 -->
<g id="node24" class="node">
<title>Node24</title>
<g id="a_node24"><a xlink:href="noticia_8h.html#a80268dccce1ece0cbb6406c81d50baed" target="_top" xlink:title="Muestra los cambios de precio de una empresa por cada noticia que la afectó, mostrando el precio ante...">
<polygon fill="white" stroke="black" points="91,-1299.5 91,-1329.5 244,-1329.5 244,-1299.5 91,-1299.5"/>
<text text-anchor="start" x="99" y="-1317.5" font-family="Helvetica,sans-Serif" font-size="10.00">mostrarCambiosPorNoticias</text>
<text text-anchor="middle" x="167.5" y="-1306.5" font-family="Helvetica,sans-Serif" font-size="10.00">Empresa</text>
</a>
</g>
</g>
<!-- Node1&#45;&gt;Node24 -->
<g id="edge23" class="edge">
<title>Node1&#45;&gt;Node24</title>
<path fill="none" stroke="midnightblue" d="M21.82,-744.21C24.23,-814.68 40.39,-1245.95 77,-1289.5 78.73,-1291.55 80.61,-1293.44 82.61,-1295.19"/>
<polygon fill="midnightblue" stroke="midnightblue" points="80.76,-1298.17 90.91,-1301.2 84.86,-1292.5 80.76,-1298.17"/>
</g>
<!-- Node26 -->
<g id="node26" class="node">
<title>Node26</title>
<g id="a_node26"><a xlink:href="noticia_8h.html#a7242f8be6bf0222aa3c0397c220cd251" target="_top" xlink:title=" ">
<polygon fill="white" stroke="black" points="94.5,-1173.5 94.5,-1203.5 240.5,-1203.5 240.5,-1173.5 94.5,-1173.5"/>
<text text-anchor="start" x="102.5" y="-1191.5" font-family="Helvetica,sans-Serif" font-size="10.00">mostrarImpactoNoticiasEn</text>
<text text-anchor="middle" x="167.5" y="-1180.5" font-family="Helvetica,sans-Serif" font-size="10.00">Acciones</text>
</a>
</g>
</g>
<!-- Node1&#45;&gt;Node26 -->
<g id="edge26" class="edge">
<title>Node1&#45;&gt;Node26</title>
<path fill="none" stroke="midnightblue" d="M21.42,-744.32C21.17,-801.6 22.62,-1092.44 77,-1158.5 79.81,-1161.92 83.03,-1164.95 86.53,-1167.63"/>
<polygon fill="midnightblue" stroke="midnightblue" points="84.88,-1170.74 95.16,-1173.3 88.72,-1164.88 84.88,-1170.74"/>
</g>
<!-- Node27 -->
<g id="node27" class="node">
<title>Node27</title>
<g id="a_node27"><a xlink:href="classABBEmpresas.html#a6ccc64afaf894799cf66b3e46db34674" target="_top" xlink:title="Devuelve una lista ordenada de empresas (inorden).">
<polygon fill="white" stroke="black" points="294,-1143.5 294,-1173.5 470,-1173.5 470,-1143.5 294,-1143.5"/>
<text text-anchor="start" x="302" y="-1161.5" font-family="Helvetica,sans-Serif" font-size="10.00">ABBEmpresas::obtenerEmpresas</text>
<text text-anchor="middle" x="382" y="-1150.5" font-family="Helvetica,sans-Serif" font-size="10.00">Ordenadas</text>
</a>
</g>
</g>
<!-- Node1&#45;&gt;Node27 -->
<g id="edge38" class="edge">
<title>Node1&#45;&gt;Node27</title>
<path fill="none" stroke="midnightblue" d="M21.35,-744.08C20.69,-798.75 20.34,-1070.67 77,-1125.5 105.75,-1153.32 206.04,-1159.82 283.65,-1160.46"/>
<polygon fill="midnightblue" stroke="midnightblue" points="283.94,-1163.96 293.96,-1160.51 283.98,-1156.96 283.94,-1163.96"/>
</g>
<!-- Node28 -->
<g id="node28" class="node">
<title>Node28</title>
<g id="a_node28"><a xlink:href="codigo_8cpp.html#a18fa8d8d51312c04f847fd499a5fca9b" target="_top" xlink:title="Muestra el submenú de opciones relacionadas con empresas.">
<polygon fill="white" stroke="black" points="105,-398 105,-417 230,-417 230,-398 105,-398"/>
<text text-anchor="middle" x="167.5" y="-405" font-family="Helvetica,sans-Serif" font-size="10.00">mostrarMenuEmpresa</text>
</a>
</g>
</g>
<!-- Node1&#45;&gt;Node28 -->
<g id="edge29" class="edge">
<title>Node1&#45;&gt;Node28</title>
<path fill="none" stroke="midnightblue" d="M21.83,-724.93C23.68,-677.79 34.17,-470.68 77,-426.5 82.17,-421.17 88.44,-417.15 95.22,-414.14"/>
<polygon fill="midnightblue" stroke="midnightblue" points="96.57,-417.38 104.75,-410.64 94.16,-410.81 96.57,-417.38"/>
</g>
<!-- Node29 -->
<g id="node29" class="node">
<title>Node29</title>
<g id="a_node29"><a xlink:href="codigo_8cpp.html#a05576b260508ff31b280741973565d40" target="_top" xlink:title="Muestra el submenú de opciones relacionadas con el portafolio.">
<polygon fill="white" stroke="black" points="103,-360 103,-379 232,-379 232,-360 103,-360"/>
<text text-anchor="middle" x="167.5" y="-367" font-family="Helvetica,sans-Serif" font-size="10.00">mostrarMenuPortafolio</text>
</a>
</g>
</g>
<!-- Node1&#45;&gt;Node29 -->
<g id="edge30" class="edge">
<title>Node1&#45;&gt;Node29</title>
<path fill="none" stroke="midnightblue" d="M21.63,-724.79C22.52,-673.94 29.2,-438.75 77,-388.5 81.71,-383.55 87.36,-379.73 93.5,-376.79"/>
<polygon fill="midnightblue" stroke="midnightblue" points="94.8,-380.04 102.81,-373.1 92.22,-373.54 94.8,-380.04"/>
</g>
<!-- Node30 -->
<g id="node30" class="node">
<title>Node30</title>
<g id="a_node30"><a xlink:href="codigo_8cpp.html#a476b760037c5062b609f62bcf13f21ef" target="_top" xlink:title="Muestra el menú principal para elegir entre opciones por empresa, sector, noticias o portafolio.">
<polygon fill="white" stroke="black" points="105.5,-322 105.5,-341 229.5,-341 229.5,-322 105.5,-322"/>
<text text-anchor="middle" x="167.5" y="-329" font-family="Helvetica,sans-Serif" font-size="10.00">mostrarMenuPrincipal</text>
</a>
</g>
</g>
<!-- Node1&#45;&gt;Node30 -->
<g id="edge31" class="edge">
<title>Node1&#45;&gt;Node30</title>
<path fill="none" stroke="midnightblue" d="M21.46,-724.82C21.46,-670.8 24.17,-406.92 77,-350.5 82.23,-344.92 88.65,-340.77 95.64,-337.7"/>
<polygon fill="midnightblue" stroke="midnightblue" points="97.23,-340.85 105.45,-334.16 94.86,-334.26 97.23,-340.85"/>
</g>
<!-- Node31 -->
<g id="node31" class="node">
<title>Node31</title>
<g id="a_node31"><a xlink:href="codigo_8cpp.html#a94581a9b3feac964bdced8cdc15e8484" target="_top" xlink:title="Muestra el submenú de opciones relacionadas con sectores.">
<polygon fill="white" stroke="black" points="111,-284 111,-303 224,-303 224,-284 111,-284"/>
<text text-anchor="middle" x="167.5" y="-291" font-family="Helvetica,sans-Serif" font-size="10.00">mostrarMenuSector</text>
</a>
</g>
</g>
<!-- Node1&#45;&gt;Node31 -->
<g id="edge32" class="edge">
<title>Node1&#45;&gt;Node31</title>
<path fill="none" stroke="midnightblue" d="M21.32,-724.63C20.49,-667.07 19.19,-375.03 77,-312.5 83.56,-305.4 92.06,-300.6 101.21,-297.42"/>
<polygon fill="midnightblue" stroke="midnightblue" points="102.26,-300.75 110.92,-294.65 100.34,-294.02 102.26,-300.75"/>
</g>
<!-- Node32 -->
<g id="node32" class="node">
<title>Node32</title>
<g id="a_node32"><a xlink:href="codigo_8cpp.html#a15ca712c518aa6cdc4fabc8b3fa84692" target="_top" xlink:title="Muestra el submenú de opciones relacionadas con simulación y noticias financieras.">
<polygon fill="white" stroke="black" points="99.5,-246 99.5,-265 235.5,-265 235.5,-246 99.5,-246"/>
<text text-anchor="middle" x="167.5" y="-253" font-family="Helvetica,sans-Serif" font-size="10.00">mostrarMenuSimulacion</text>
</a>
</g>
</g>
<!-- Node1&#45;&gt;Node32 -->
<g id="edge33" class="edge">
<title>Node1&#45;&gt;Node32</title>
<path fill="none" stroke="midnightblue" d="M22,-724.87C25.34,-661.77 45.38,-309.08 77,-274.5 80.82,-270.32 85.31,-266.94 90.21,-264.22"/>
<polygon fill="midnightblue" stroke="midnightblue" points="91.79,-267.34 99.41,-259.98 88.87,-260.98 91.79,-267.34"/>
</g>
<!-- Node33 -->
<g id="node33" class="node">
<title>Node33</title>
<g id="a_node33"><a xlink:href="classPortafolio.html#a3f3249951cf442f25729fc3b0b3a891a" target="_top" xlink:title="Obtiene los activos del portafolio como un std::vector&lt;string&gt;.">
<polygon fill="white" stroke="black" points="96,-474 96,-493 239,-493 239,-474 96,-474"/>
<text text-anchor="middle" x="167.5" y="-481" font-family="Helvetica,sans-Serif" font-size="10.00">Portafolio::obtenerActivos</text>
</a>
</g>
</g>
<!-- Node1&#45;&gt;Node33 -->
<g id="edge34" class="edge">
<title>Node1&#45;&gt;Node33</title>
<path fill="none" stroke="midnightblue" d="M22.46,-724.74C26.6,-684.81 44.15,-534.51 77,-502.5 79.92,-499.65 83.16,-497.18 86.62,-495.05"/>
<polygon fill="midnightblue" stroke="midnightblue" points="88.35,-498.09 95.63,-490.39 85.14,-491.87 88.35,-498.09"/>
</g>
<!-- Node34 -->
<g id="node34" class="node">
<title>Node34</title>
<g id="a_node34"><a xlink:href="classABBEmpresas.html#a77be3c43461441d10f9dd6f03d24604d" target="_top" xlink:title="Devuelve la empresa con el precio actual más bajo.">
<polygon fill="white" stroke="black" points="82,-196.5 82,-226.5 253,-226.5 253,-196.5 82,-196.5"/>
<text text-anchor="start" x="90" y="-214.5" font-family="Helvetica,sans-Serif" font-size="10.00">ABBEmpresas::obtenerEmpresa</text>
<text text-anchor="middle" x="167.5" y="-203.5" font-family="Helvetica,sans-Serif" font-size="10.00">MasBarata</text>
</a>
</g>
</g>
<!-- Node1&#45;&gt;Node34 -->
<g id="edge36" class="edge">
<title>Node1&#45;&gt;Node34</title>
<path fill="none" stroke="midnightblue" d="M21.93,-724.96C24.96,-659.25 44.03,-275.27 77,-236.5 78.01,-235.31 79.08,-234.17 80.19,-233.09"/>
<polygon fill="midnightblue" stroke="midnightblue" points="82.56,-235.67 88.13,-226.66 78.15,-230.23 82.56,-235.67"/>
</g>
<!-- Node35 -->
<g id="node35" class="node">
<title>Node35</title>
<g id="a_node35"><a xlink:href="classABBEmpresas.html#a9773e3023fbdf2197242337670da6941" target="_top" xlink:title="Devuelve la empresa con el precio actual más alto.">
<polygon fill="white" stroke="black" points="82,-147.5 82,-177.5 253,-177.5 253,-147.5 82,-147.5"/>
<text text-anchor="start" x="90" y="-165.5" font-family="Helvetica,sans-Serif" font-size="10.00">ABBEmpresas::obtenerEmpresa</text>
<text text-anchor="middle" x="167.5" y="-154.5" font-family="Helvetica,sans-Serif" font-size="10.00">MasCara</text>
</a>
</g>
</g>
<!-- Node1&#45;&gt;Node35 -->
<g id="edge37" class="edge">
<title>Node1&#45;&gt;Node35</title>
<path fill="none" stroke="midnightblue" d="M21.82,-724.91C24.26,-655.3 40.6,-229.29 77,-186.5 77.73,-185.64 78.49,-184.81 79.27,-184.01"/>
<polygon fill="midnightblue" stroke="midnightblue" points="81.55,-186.67 86.92,-177.54 77.03,-181.32 81.55,-186.67"/>
</g>
<!-- Node36 -->
<g id="node36" class="node">
<title>Node36</title>
<g id="a_node36"><a xlink:href="classColaPrioridadNoticias.html#a3811c333f31595938a583b600b35bad8" target="_top" xlink:title="Ordena toda la cola de noticias cronológicamente por fecha.">
<polygon fill="white" stroke="black" points="106.5,-98.5 106.5,-128.5 228.5,-128.5 228.5,-98.5 106.5,-98.5"/>
<text text-anchor="start" x="114.5" y="-116.5" font-family="Helvetica,sans-Serif" font-size="10.00">ColaPrioridadNoticias</text>
<text text-anchor="middle" x="167.5" y="-105.5" font-family="Helvetica,sans-Serif" font-size="10.00">::ordenarPorFecha</text>
</a>
</g>
</g>
<!-- Node1&#45;&gt;Node36 -->
<g id="edge39" class="edge">
<title>Node1&#45;&gt;Node36</title>
<path fill="none" stroke="midnightblue" d="M21.74,-725C23.65,-652.2 37.4,-184.44 77,-137.5 82.32,-131.19 89.11,-126.44 96.56,-122.89"/>
<polygon fill="midnightblue" stroke="midnightblue" points="98.31,-125.96 106.29,-119 95.71,-119.46 98.31,-125.96"/>
</g>
<!-- Node37 -->
<g id="node37" class="node">
<title>Node37</title>
<g id="a_node37"><a xlink:href="classColaPrioridadNoticias.html#a3db4934bf16a4b593a39f23876a3f158" target="_top" xlink:title="Calcula el promedio del impacto de todas las noticias en la cola.">
<polygon fill="white" stroke="black" points="106.5,-49.5 106.5,-79.5 228.5,-79.5 228.5,-49.5 106.5,-49.5"/>
<text text-anchor="start" x="114.5" y="-67.5" font-family="Helvetica,sans-Serif" font-size="10.00">ColaPrioridadNoticias</text>
<text text-anchor="middle" x="167.5" y="-56.5" font-family="Helvetica,sans-Serif" font-size="10.00">::promedioImpacto</text>
</a>
</g>
</g>
<!-- Node1&#45;&gt;Node37 -->
<g id="edge40" class="edge">
<title>Node1&#45;&gt;Node37</title>
<path fill="none" stroke="midnightblue" d="M21.67,-724.71C23.12,-647.61 34.26,-139.52 77,-88.5 82.3,-82.17 89.08,-77.41 96.52,-73.85"/>
<polygon fill="midnightblue" stroke="midnightblue" points="98.26,-76.93 106.24,-69.96 95.66,-70.43 98.26,-76.93"/>
</g>
<!-- Node38 -->
<g id="node38" class="node">
<title>Node38</title>
<g id="a_node38"><a xlink:href="classMultilistaPrecio.html#aab95a547304a1d3168a6c1916ea3b757" target="_top" xlink:title="Calcula el promedio móvil de los últimos &#39;dias&#39; precios.">
<polygon fill="white" stroke="black" points="309.5,-1211.5 309.5,-1241.5 454.5,-1241.5 454.5,-1211.5 309.5,-1211.5"/>
<text text-anchor="start" x="317.5" y="-1229.5" font-family="Helvetica,sans-Serif" font-size="10.00">MultilistaPrecio::promedio</text>
<text text-anchor="middle" x="382" y="-1218.5" font-family="Helvetica,sans-Serif" font-size="10.00">Movil</text>
</a>
</g>
</g>
<!-- Node1&#45;&gt;Node38 -->
<g id="edge41" class="edge">
<title>Node1&#45;&gt;Node38</title>
<path fill="none" stroke="midnightblue" d="M21.88,-744.18C24.54,-809.15 41.21,-1180.22 77,-1213.5 108.1,-1242.42 220.05,-1240.14 299.02,-1234.44"/>
<polygon fill="midnightblue" stroke="midnightblue" points="299.74,-1237.9 309.45,-1233.66 299.22,-1230.92 299.74,-1237.9"/>
</g>
<!-- Node39 -->
<g id="node39" class="node">
<title>Node39</title>
<g id="a_node39"><a xlink:href="classABBEmpresas.html#a0c1aa570634d14b5cebac4cbb4ddd184" target="_top" xlink:title="Calcula el promedio del precio actual de las empresas de un sector.">
<polygon fill="white" stroke="black" points="84,-0.5 84,-30.5 251,-30.5 251,-0.5 84,-0.5"/>
<text text-anchor="start" x="92" y="-18.5" font-family="Helvetica,sans-Serif" font-size="10.00">ABBEmpresas::promedioPrecio</text>
<text text-anchor="middle" x="167.5" y="-7.5" font-family="Helvetica,sans-Serif" font-size="10.00">PorSector</text>
</a>
</g>
</g>
<!-- Node1&#45;&gt;Node39 -->
<g id="edge42" class="edge">
<title>Node1&#45;&gt;Node39</title>
<path fill="none" stroke="midnightblue" d="M21.61,-724.75C22.6,-644.5 31.07,-94.68 77,-39.5 77.61,-38.77 78.24,-38.06 78.88,-37.37"/>
<polygon fill="midnightblue" stroke="midnightblue" points="81.23,-39.96 86.45,-30.74 76.62,-34.7 81.23,-39.96"/>
</g>
<!-- Node40 -->
<g id="node40" class="node">
<title>Node40</title>
<g id="a_node40"><a xlink:href="classPortafolio.html#ae6d06c70b6052cd798b31b002509e346" target="_top" xlink:title="Árbol de decisión para recomendar la compra de un activo.">
<polygon fill="white" stroke="black" points="84,-1261 84,-1280 251,-1280 251,-1261 84,-1261"/>
<text text-anchor="middle" x="167.5" y="-1268" font-family="Helvetica,sans-Serif" font-size="10.00">Portafolio::recomendarCompra</text>
</a>
</g>
</g>
<!-- Node1&#45;&gt;Node40 -->
<g id="edge43" class="edge">
<title>Node1&#45;&gt;Node40</title>
<path fill="none" stroke="midnightblue" d="M21.91,-744.31C24.78,-811.89 42.97,-1206.78 77,-1246.5 80.09,-1250.1 83.65,-1253.19 87.54,-1255.84"/>
<polygon fill="midnightblue" stroke="midnightblue" points="86.09,-1259.05 96.51,-1260.96 89.56,-1252.97 86.09,-1259.05"/>
</g>
<!-- Node3 -->
<g id="node3" class="node">
<title>Node3</title>
<g id="a_node3"><a xlink:href="classMiVector.html#acd4c2f3badca90de19b0eaa48b2c2d6e" target="_top" xlink:title="Inserta un elemento al final del vector.">
<polygon fill="white" stroke="black" points="331.5,-1437 331.5,-1456 432.5,-1456 432.5,-1437 331.5,-1437"/>
<text text-anchor="middle" x="382" y="-1444" font-family="Helvetica,sans-Serif" font-size="10.00">MiVector::miPush</text>
</a>
</g>
</g>
<!-- Node2&#45;&gt;Node3 -->
<g id="edge2" class="edge">
<title>Node2&#45;&gt;Node3</title>
<path fill="none" stroke="midnightblue" d="M236.61,-1446.5C263.83,-1446.5 294.91,-1446.5 321.24,-1446.5"/>
<polygon fill="midnightblue" stroke="midnightblue" points="321.45,-1450 331.45,-1446.5 321.45,-1443 321.45,-1450"/>
</g>
<!-- Node11 -->
<g id="node11" class="node">
<title>Node11</title>
<g id="a_node11"><a xlink:href="classMiVector.html#af28ef16044a6e46deb3febec8d1bae30" target="_top" xlink:title="Elimina la primera aparición de un valor en el vector.">
<polygon fill="white" stroke="black" points="329,-911 329,-930 435,-930 435,-911 329,-911"/>
<text text-anchor="middle" x="382" y="-918" font-family="Helvetica,sans-Serif" font-size="10.00">MiVector::eliminar</text>
</a>
</g>
</g>
<!-- Node10&#45;&gt;Node11 -->
<g id="edge10" class="edge">
<title>Node10&#45;&gt;Node11</title>
<path fill="none" stroke="midnightblue" d="M238.08,-920.5C264.04,-920.5 293.32,-920.5 318.6,-920.5"/>
<polygon fill="midnightblue" stroke="midnightblue" points="318.8,-924 328.8,-920.5 318.8,-917 318.8,-924"/>
</g>
<!-- Node21 -->
<g id="node21" class="node">
<title>Node21</title>
<g id="a_node21"><a xlink:href="classMiVector.html#a8d8f602691e396c144d450d7c88ed400" target="_top" xlink:title="Verifica si el vector está vacío.">
<polygon fill="white" stroke="black" points="333.5,-512 333.5,-531 430.5,-531 430.5,-512 333.5,-512"/>
<text text-anchor="middle" x="382" y="-519" font-family="Helvetica,sans-Serif" font-size="10.00">MiVector::empty</text>
</a>
</g>
</g>
<!-- Node20&#45;&gt;Node21 -->
<g id="edge20" class="edge">
<title>Node20&#45;&gt;Node21</title>
<path fill="none" stroke="midnightblue" d="M221.57,-521.5C252.52,-521.5 291.58,-521.5 323.29,-521.5"/>
<polygon fill="midnightblue" stroke="midnightblue" points="323.31,-525 333.31,-521.5 323.31,-518 323.31,-525"/>
</g>
<!-- Node22 -->
<g id="node22" class="node">
<title>Node22</title>
<g id="a_node22"><a xlink:href="classMiVector.html#a6f89e927eee8c75d0e2209cb2c6a7b74" target="_top" xlink:title="Obtiene el número actual de elementos en el vector.">
<polygon fill="white" stroke="black" points="339.5,-474 339.5,-493 424.5,-493 424.5,-474 339.5,-474"/>
<text text-anchor="middle" x="382" y="-481" font-family="Helvetica,sans-Serif" font-size="10.00">MiVector::size</text>
</a>
</g>
</g>
<!-- Node20&#45;&gt;Node22 -->
<g id="edge21" class="edge">
<title>Node20&#45;&gt;Node22</title>
<path fill="none" stroke="midnightblue" d="M221.57,-512.01C254.41,-506.14 296.37,-498.63 329,-492.8"/>
<polygon fill="midnightblue" stroke="midnightblue" points="330.02,-496.17 339.25,-490.97 328.79,-489.28 330.02,-496.17"/>
</g>
<!-- Node24&#45;&gt;Node5 -->
<g id="edge24" class="edge">
<title>Node24&#45;&gt;Node5</title>
<path fill="none" stroke="midnightblue" d="M244.02,-1316.28C258.46,-1316.62 273.73,-1316.98 288.63,-1317.33"/>
<polygon fill="midnightblue" stroke="midnightblue" points="288.79,-1320.83 298.87,-1317.57 288.96,-1313.83 288.79,-1320.83"/>
</g>
<!-- Node25 -->
<g id="node25" class="node">
<title>Node25</title>
<g id="a_node25"><a xlink:href="classColaPrioridadNoticias.html#a9c3a7f5944aa0f85f3ebf69c1db5eaf7" target="_top" xlink:title="Llena un vector con punteros a todas las noticias en la cola (en orden actual).">
<polygon fill="white" stroke="black" points="321,-1260.5 321,-1290.5 443,-1290.5 443,-1260.5 321,-1260.5"/>
<text text-anchor="start" x="329" y="-1278.5" font-family="Helvetica,sans-Serif" font-size="10.00">ColaPrioridadNoticias</text>
<text text-anchor="middle" x="382" y="-1267.5" font-family="Helvetica,sans-Serif" font-size="10.00">::obtenerNoticias</text>
</a>
</g>
</g>
<!-- Node24&#45;&gt;Node25 -->
<g id="edge25" class="edge">
<title>Node24&#45;&gt;Node25</title>
<path fill="none" stroke="midnightblue" d="M244.02,-1300.64C265.75,-1296.65 289.35,-1292.32 310.75,-1288.39"/>
<polygon fill="midnightblue" stroke="midnightblue" points="311.53,-1291.81 320.73,-1286.56 310.27,-1284.92 311.53,-1291.81"/>
</g>
<!-- Node26&#45;&gt;Node25 -->
<g id="edge28" class="edge">
<title>Node26&#45;&gt;Node25</title>
<path fill="none" stroke="midnightblue" d="M194.74,-1203.58C219.67,-1217.44 258.5,-1237.85 294,-1251.5 299.43,-1253.59 305.12,-1255.58 310.88,-1257.45"/>
<polygon fill="midnightblue" stroke="midnightblue" points="310.01,-1260.85 320.6,-1260.49 312.1,-1254.17 310.01,-1260.85"/>
</g>
<!-- Node26&#45;&gt;Node27 -->
<g id="edge27" class="edge">
<title>Node26&#45;&gt;Node27</title>
<path fill="none" stroke="midnightblue" d="M240.74,-1178.3C254.62,-1176.34 269.37,-1174.26 283.89,-1172.21"/>
<polygon fill="midnightblue" stroke="midnightblue" points="284.48,-1175.66 293.89,-1170.8 283.5,-1168.73 284.48,-1175.66"/>
</g>
<!-- Node33&#45;&gt;Node22 -->
<g id="edge35" class="edge">
<title>Node33&#45;&gt;Node22</title>
<path fill="none" stroke="midnightblue" d="M239.26,-483.5C268.7,-483.5 302.25,-483.5 329.31,-483.5"/>
<polygon fill="midnightblue" stroke="midnightblue" points="329.35,-487 339.35,-483.5 329.35,-480 329.35,-487"/>
</g>
<!-- Node40&#45;&gt;Node5 -->
<g id="edge44" class="edge">
<title>Node40&#45;&gt;Node5</title>
<path fill="none" stroke="midnightblue" d="M213.22,-1280.02C227.56,-1283.2 243.48,-1286.86 258,-1290.5 274.11,-1294.53 277.88,-1296.5 294,-1300.5 304.01,-1302.98 314.7,-1305.46 325.05,-1307.77"/>
<polygon fill="midnightblue" stroke="midnightblue" points="324.32,-1311.19 334.83,-1309.92 325.82,-1304.35 324.32,-1311.19"/>
</g>
<!-- Node40&#45;&gt;Node25 -->
<g id="edge45" class="edge">
<title>Node40&#45;&gt;Node25</title>
<path fill="none" stroke="midnightblue" d="M251.27,-1272.45C270.92,-1272.91 291.71,-1273.4 310.75,-1273.85"/>
<polygon fill="midnightblue" stroke="midnightblue" points="310.75,-1277.35 320.83,-1274.08 310.91,-1270.35 310.75,-1277.35"/>
</g>
<!-- Node40&#45;&gt;Node38 -->
<g id="edge46" class="edge">
<title>Node40&#45;&gt;Node38</title>
<path fill="none" stroke="midnightblue" d="M214.61,-1260.95C239.4,-1255.82 270.69,-1249.34 299.44,-1243.39"/>
<polygon fill="midnightblue" stroke="midnightblue" points="300.4,-1246.76 309.49,-1241.31 298.98,-1239.91 300.4,-1246.76"/>
</g>
</g>
</svg>
