<?xml version="1.0" encoding="UTF-8" standalone="no"?>
<!DOCTYPE svg PUBLIC "-//W3C//DTD SVG 1.1//EN"
 "http://www.w3.org/Graphics/SVG/1.1/DTD/svg11.dtd">
<!-- Generated by graphviz version 2.43.0 (0)
 -->
<!-- Title: main Pages: 1 -->
<!--zoomable 1476 -->
<svg id="main" version="1.1" xmlns="http://www.w3.org/2000/svg" xmlns:xlink="http://www.w3.org/1999/xlink" xml:space="preserve" onload="init(evt)">
<style type="text/css"><![CDATA[
.edge:hover path { stroke: red; }
.edge:hover polygon { stroke: red; fill: red; }
]]></style>
<script type="text/javascript"><![CDATA[
var edges = document.getElementsByTagName('g');
if (edges && edges.length) {
  for (var i=0;i<edges.length;i++) {
    if (edges[i].id.substr(0,4)=='edge') {
      edges[i].setAttribute('class','edge');
    }
  }
}
]]></script>
        <defs>
                <circle id="rim" cx="0" cy="0" r="7"/>
                <circle id="rim2" cx="0" cy="0" r="3.5"/>
                <g id="zoomPlus">
                        <use xlink:href="#rim" fill="#404040">
                                <set attributeName="fill" to="#808080" begin="zoomplus.mouseover" end="zoomplus.mouseout"/>
                        </use>
                        <path d="M-4,0h8M0,-4v8" fill="none" stroke="white" stroke-width="1.5" pointer-events="none"/>
                </g>
                <g id="zoomMin">
                        <use xlink:href="#rim" fill="#404040">
                                <set attributeName="fill" to="#808080" begin="zoomminus.mouseover" end="zoomminus.mouseout"/>
                        </use>
                        <path d="M-4,0h8" fill="none" stroke="white" stroke-width="1.5" pointer-events="none"/>
                </g>
                <g id="dirArrow">
                        <path fill="none" stroke="white" stroke-width="1.5" d="M0,-3.0v7 M-2.5,-0.5L0,-3.0L2.5,-0.5"/>
                </g>
               <g id="resetDef">
                       <use xlink:href="#rim2" fill="#404040">
                               <set attributeName="fill" to="#808080" begin="reset.mouseover" end="reset.mouseout"/>
                       </use>
               </g>
        </defs>

<script type="text/javascript">
var viewWidth = 468;
var viewHeight = 1476;
var sectionId = 'dynsection-1';
</script>
<script xlink:href="svgpan.js"/>
<svg id="graph" class="graph">
<g id="viewport">
<title>main</title>
<polygon fill="white" stroke="transparent" points="-4,4 -4,-1471.5 464,-1471.5 464,4 -4,4"/>
<!-- Node1 -->
<g id="node1" class="node">
<title>Node1</title>
<g id="a_node1"><a xlink:title="Función principal del programa.">
<polygon fill="#bfbfbf" stroke="black" points="0,-727 0,-746 41,-746 41,-727 0,-727"/>
<text text-anchor="middle" x="20.5" y="-734" font-family="Helvetica,sans-Serif" font-size="10.00">main</text>
</a>
</g>
</g>
<!-- Node2 -->
<g id="node2" class="node">
<title>Node2</title>
<g id="a_node2"><a xlink:href="classPortafolio.html#a0f318f5e76a14783e28f2661d894c369" target="_top" xlink:title="Agrega un activo al portafolio.">
<polygon fill="white" stroke="black" points="98.5,-1448 98.5,-1467 236.5,-1467 236.5,-1448 98.5,-1448"/>
<text text-anchor="middle" x="167.5" y="-1455" font-family="Helvetica,sans-Serif" font-size="10.00">Portafolio::agregarActivo</text>
</a>
</g>
</g>
<!-- Node1&#45;&gt;Node2 -->
<g id="edge1" class="edge">
<title>Node1&#45;&gt;Node2</title>
<path fill="none" stroke="midnightblue" d="M21.58,-746.11C22.31,-826.41 29.12,-1383.94 77,-1438.5 80.51,-1442.5 84.64,-1445.78 89.16,-1448.46"/>
<polygon fill="midnightblue" stroke="midnightblue" points="87.75,-1451.67 98.28,-1452.9 90.82,-1445.37 87.75,-1451.67"/>
</g>
<!-- Node4 -->
<g id="node4" class="node">
<title>Node4</title>
<g id="a_node4"><a xlink:href="classABBEmpresas.html#ae84bb76dc229040e7e343cafabb76383" target="_top" xlink:title="Ajusta los precios de las empresas de un sector según el impacto de una noticia.">
<polygon fill="white" stroke="black" points="87.5,-1398.5 87.5,-1428.5 247.5,-1428.5 247.5,-1398.5 87.5,-1398.5"/>
<text text-anchor="start" x="95.5" y="-1416.5" font-family="Helvetica,sans-Serif" font-size="10.00">ABBEmpresas::ajustarPrecios</text>
<text text-anchor="middle" x="167.5" y="-1405.5" font-family="Helvetica,sans-Serif" font-size="10.00">PorNoticia</text>
</a>
</g>
</g>
<!-- Node1&#45;&gt;Node4 -->
<g id="edge3" class="edge">
<title>Node1&#45;&gt;Node4</title>
<path fill="none" stroke="midnightblue" d="M21.7,-746.28C23.36,-823.33 35.79,-1331.11 77,-1383.5 79.68,-1386.91 82.76,-1389.93 86.13,-1392.61"/>
<polygon fill="midnightblue" stroke="midnightblue" points="84.22,-1395.55 94.46,-1398.27 88.16,-1389.76 84.22,-1395.55"/>
</g>
<!-- Node5 -->
<g id="node5" class="node">
<title>Node5</title>
<g id="a_node5"><a xlink:href="classABBEmpresas.html#a705d67b6d795dffea3edf70150e0288d" target="_top" xlink:title="Busca una empresa por ticker.">
<polygon fill="white" stroke="black" points="294,-1316 294,-1335 460,-1335 460,-1316 294,-1316"/>
<text text-anchor="middle" x="377" y="-1323" font-family="Helvetica,sans-Serif" font-size="10.00">ABBEmpresas::buscarEmpresa</text>
</a>
</g>
</g>
<!-- Node1&#45;&gt;Node5 -->
<g id="edge4" class="edge">
<title>Node1&#45;&gt;Node5</title>
<path fill="none" stroke="midnightblue" d="M21.61,-746.38C22.55,-822.03 30.38,-1307.9 77,-1350.5 152.98,-1419.92 289.77,-1367.3 348.26,-1339.66"/>
<polygon fill="midnightblue" stroke="midnightblue" points="350.12,-1342.65 357.59,-1335.14 347.07,-1336.35 350.12,-1342.65"/>
</g>
<!-- Node6 -->
<g id="node6" class="node">
<title>Node6</title>
<g id="a_node6"><a xlink:href="classABBEmpresas.html#a69e48005487af9a9c02acb869e0a8e56" target="_top" xlink:title="Devuelve una lista de empresas cuyo precio actual está en el rango [minPrecio, maxPrecio].">
<polygon fill="white" stroke="black" points="82,-1134.5 82,-1164.5 253,-1164.5 253,-1134.5 82,-1134.5"/>
<text text-anchor="start" x="90" y="-1152.5" font-family="Helvetica,sans-Serif" font-size="10.00">ABBEmpresas::buscarEmpresas</text>
<text text-anchor="middle" x="167.5" y="-1141.5" font-family="Helvetica,sans-Serif" font-size="10.00">PorRangoPrecio</text>
</a>
</g>
</g>
<!-- Node1&#45;&gt;Node6 -->
<g id="edge5" class="edge">
<title>Node1&#45;&gt;Node6</title>
<path fill="none" stroke="midnightblue" d="M21.49,-746.26C21.65,-800.74 25.07,-1066.92 77,-1125.5 77.75,-1126.34 78.52,-1127.16 79.32,-1127.94"/>
<polygon fill="midnightblue" stroke="midnightblue" points="77.14,-1130.68 87.09,-1134.32 81.58,-1125.27 77.14,-1130.68"/>
</g>
<!-- Node7 -->
<g id="node7" class="node">
<title>Node7</title>
<g id="a_node7"><a xlink:href="classColaPrioridadNoticias.html#ab833342c4584745a79424087c99eb1e9" target="_top" xlink:title="Busca y muestra noticias cuyo título contiene una palabra clave.">
<polygon fill="white" stroke="black" points="100.5,-1085.5 100.5,-1115.5 234.5,-1115.5 234.5,-1085.5 100.5,-1085.5"/>
<text text-anchor="start" x="108.5" y="-1103.5" font-family="Helvetica,sans-Serif" font-size="10.00">ColaPrioridadNoticias</text>
<text text-anchor="middle" x="167.5" y="-1092.5" font-family="Helvetica,sans-Serif" font-size="10.00">::buscarPorPalabraClave</text>
</a>
</g>
</g>
<!-- Node1&#45;&gt;Node7 -->
<g id="edge6" class="edge">
<title>Node1&#45;&gt;Node7</title>
<path fill="none" stroke="midnightblue" d="M21.71,-746.33C23.01,-796.76 31.36,-1026.05 77,-1076.5 81.08,-1081.01 85.9,-1084.71 91.17,-1087.74"/>
<polygon fill="midnightblue" stroke="midnightblue" points="89.86,-1091 100.38,-1092.24 92.93,-1084.71 89.86,-1091"/>
</g>
<!-- Node8 -->
<g id="node8" class="node">
<title>Node8</title>
<g id="a_node8"><a xlink:href="classColaPrioridadNoticias.html#ab0f4086eabcc4d2f9935f9f64527aa7c" target="_top" xlink:title="Busca y muestra noticias que pertenecen a un sector específico.">
<polygon fill="white" stroke="black" points="106.5,-1036.5 106.5,-1066.5 228.5,-1066.5 228.5,-1036.5 106.5,-1036.5"/>
<text text-anchor="start" x="114.5" y="-1054.5" font-family="Helvetica,sans-Serif" font-size="10.00">ColaPrioridadNoticias</text>
<text text-anchor="middle" x="167.5" y="-1043.5" font-family="Helvetica,sans-Serif" font-size="10.00">::buscarPorSector</text>
</a>
</g>
</g>
<!-- Node1&#45;&gt;Node8 -->
<g id="edge7" class="edge">
<title>Node1&#45;&gt;Node8</title>
<path fill="none" stroke="midnightblue" d="M22.01,-746.06C24.61,-791.35 37.87,-983.97 77,-1026.5 82.53,-1032.51 89.37,-1037.12 96.79,-1040.65"/>
<polygon fill="midnightblue" stroke="midnightblue" points="95.86,-1044.05 106.44,-1044.57 98.49,-1037.57 95.86,-1044.05"/>
</g>
<!-- Node9 -->
<g id="node9" class="node">
<title>Node9</title>
<g id="a_node9"><a xlink:href="noticia_8h.html#af24bef6e352d3ace928987de260bb7e6" target="_top" xlink:title="Calcula el porcentaje de ajuste según el impacto.">
<polygon fill="white" stroke="black" points="99,-998 99,-1017 236,-1017 236,-998 99,-998"/>
<text text-anchor="middle" x="167.5" y="-1005" font-family="Helvetica,sans-Serif" font-size="10.00">calcularPorcentajeAjuste</text>
</a>
</g>
</g>
<!-- Node1&#45;&gt;Node9 -->
<g id="edge8" class="edge">
<title>Node1&#45;&gt;Node9</title>
<path fill="none" stroke="midnightblue" d="M22.26,-746.23C25.75,-788.21 41.55,-953.31 77,-988.5 80.71,-992.18 84.95,-995.23 89.51,-997.75"/>
<polygon fill="midnightblue" stroke="midnightblue" points="88.09,-1000.95 98.64,-1001.97 91.03,-994.6 88.09,-1000.95"/>
</g>
<!-- Node10 -->
<g id="node10" class="node">
<title>Node10</title>
<g id="a_node10"><a xlink:href="classPortafolio.html#a2a3d95a628382a88d45d666982538b4e" target="_top" xlink:title="Elimina un activo del portafolio.">
<polygon fill="white" stroke="black" points="97,-960 97,-979 238,-979 238,-960 97,-960"/>
<text text-anchor="middle" x="167.5" y="-967" font-family="Helvetica,sans-Serif" font-size="10.00">Portafolio::eliminarActivo</text>
</a>
</g>
</g>
<!-- Node1&#45;&gt;Node10 -->
<g id="edge9" class="edge">
<title>Node1&#45;&gt;Node10</title>
<path fill="none" stroke="midnightblue" d="M22.67,-746.27C27.43,-784.25 46.49,-921.32 77,-950.5 80.16,-953.53 83.68,-956.12 87.45,-958.34"/>
<polygon fill="midnightblue" stroke="midnightblue" points="86.1,-961.58 96.61,-962.87 89.2,-955.3 86.1,-961.58"/>
</g>
<!-- Node12 -->
<g id="node12" class="node">
<title>Node12</title>
<g id="a_node12"><a xlink:href="noticia_8h.html#a6370066b96779b15f4c092365be9553b" target="_top" xlink:title="Genera un string de fecha con formato &quot;YYYY&#45;MM&#45;DD&quot; a partir de un número de días desde el inicio.">
<polygon fill="white" stroke="black" points="126,-922 126,-941 209,-941 209,-922 126,-922"/>
<text text-anchor="middle" x="167.5" y="-929" font-family="Helvetica,sans-Serif" font-size="10.00">generarFecha</text>
</a>
</g>
</g>
<!-- Node1&#45;&gt;Node12 -->
<g id="edge11" class="edge">
<title>Node1&#45;&gt;Node12</title>
<path fill="none" stroke="midnightblue" d="M21.4,-746.26C21.65,-776.1 26.72,-866.84 77,-912.5 87.6,-922.12 101.83,-927.33 115.82,-930.03"/>
<polygon fill="midnightblue" stroke="midnightblue" points="115.49,-933.52 125.9,-931.58 116.55,-926.6 115.49,-933.52"/>
</g>
<!-- Node13 -->
<g id="node13" class="node">
<title>Node13</title>
<g id="a_node13"><a xlink:href="classColaPrioridadNoticias.html#afccedcf2a79e14243c3d685f2fcf9e5a" target="_top" xlink:title="Detecta si hay una alerta de crisis (3 o más noticias con impacto &gt;= 8).">
<polygon fill="white" stroke="black" points="106.5,-872.5 106.5,-902.5 228.5,-902.5 228.5,-872.5 106.5,-872.5"/>
<text text-anchor="start" x="114.5" y="-890.5" font-family="Helvetica,sans-Serif" font-size="10.00">ColaPrioridadNoticias</text>
<text text-anchor="middle" x="167.5" y="-879.5" font-family="Helvetica,sans-Serif" font-size="10.00">::hayAlertaDeCrisis</text>
</a>
</g>
</g>
<!-- Node1&#45;&gt;Node13 -->
<g id="edge12" class="edge">
<title>Node1&#45;&gt;Node13</title>
<path fill="none" stroke="midnightblue" d="M22.88,-746.03C26.79,-769.51 40.15,-830.56 77,-862.5 82.91,-867.63 89.8,-871.71 97.08,-874.96"/>
<polygon fill="midnightblue" stroke="midnightblue" points="95.88,-878.24 106.47,-878.64 98.44,-871.73 95.88,-878.24"/>
</g>
<!-- Node14 -->
<g id="node14" class="node">
<title>Node14</title>
<g id="a_node14"><a xlink:href="classABBEmpresas.html#ae66f600b3457f3e6aeb09840d9188dcc" target="_top" xlink:title="Imprime la información de una empresa en formato de tabla.">
<polygon fill="white" stroke="black" points="79.5,-834 79.5,-853 255.5,-853 255.5,-834 79.5,-834"/>
<text text-anchor="middle" x="167.5" y="-841" font-family="Helvetica,sans-Serif" font-size="10.00">ABBEmpresas::imprimirEmpresa</text>
</a>
</g>
</g>
<!-- Node1&#45;&gt;Node14 -->
<g id="edge13" class="edge">
<title>Node1&#45;&gt;Node14</title>
<path fill="none" stroke="midnightblue" d="M24.73,-746.24C31.38,-764.67 48.4,-804.57 77,-824.5 79.74,-826.41 82.63,-828.13 85.63,-829.68"/>
<polygon fill="midnightblue" stroke="midnightblue" points="84.36,-832.95 94.91,-833.86 87.23,-826.57 84.36,-832.95"/>
</g>
<!-- Node15 -->
<g id="node15" class="node">
<title>Node15</title>
<g id="a_node15"><a xlink:href="classABBEmpresas.html#a66382212802e5ab39724152cb88a0912" target="_top" xlink:title="Imprime todas las empresas y su precio actual por consola.">
<polygon fill="white" stroke="black" points="77,-796 77,-815 258,-815 258,-796 77,-796"/>
<text text-anchor="middle" x="167.5" y="-803" font-family="Helvetica,sans-Serif" font-size="10.00">ABBEmpresas::imprimirEmpresas</text>
</a>
</g>
</g>
<!-- Node1&#45;&gt;Node15 -->
<g id="edge14" class="edge">
<title>Node1&#45;&gt;Node15</title>
<path fill="none" stroke="midnightblue" d="M29.43,-746.25C39.33,-757.73 57.36,-776.49 77,-786.5 81.66,-788.87 86.6,-790.95 91.67,-792.77"/>
<polygon fill="midnightblue" stroke="midnightblue" points="90.95,-796.21 101.54,-795.95 93.1,-789.55 90.95,-796.21"/>
</g>
<!-- Node16 -->
<g id="node16" class="node">
<title>Node16</title>
<g id="a_node16"><a xlink:href="classABBEmpresas.html#af19e68352e97995e93431e69aec215b5" target="_top" xlink:title="Imprime todas las empresas de un sector específico.">
<polygon fill="white" stroke="black" points="77,-746.5 77,-776.5 258,-776.5 258,-746.5 77,-746.5"/>
<text text-anchor="start" x="85" y="-764.5" font-family="Helvetica,sans-Serif" font-size="10.00">ABBEmpresas::imprimirEmpresas</text>
<text text-anchor="middle" x="167.5" y="-753.5" font-family="Helvetica,sans-Serif" font-size="10.00">PorSector</text>
</a>
</g>
</g>
<!-- Node1&#45;&gt;Node16 -->
<g id="edge15" class="edge">
<title>Node1&#45;&gt;Node16</title>
<path fill="none" stroke="midnightblue" d="M41.06,-739.87C48.99,-741.24 58.78,-742.93 69.36,-744.75"/>
<polygon fill="midnightblue" stroke="midnightblue" points="68.82,-748.21 79.27,-746.46 70.01,-741.31 68.82,-748.21"/>
</g>
<!-- Node17 -->
<g id="node17" class="node">
<title>Node17</title>
<g id="a_node17"><a xlink:href="classABBEmpresas.html#a5475778344348be4a823d4f35da3ab9d" target="_top" xlink:title="Imprime empresas ordenadas por precio actual (de mayor a menor).">
<polygon fill="white" stroke="black" points="93,-697.5 93,-727.5 242,-727.5 242,-697.5 93,-697.5"/>
<text text-anchor="start" x="101" y="-715.5" font-family="Helvetica,sans-Serif" font-size="10.00">ABBEmpresas::imprimirPor</text>
<text text-anchor="middle" x="167.5" y="-704.5" font-family="Helvetica,sans-Serif" font-size="10.00">Precio</text>
</a>
</g>
</g>
<!-- Node1&#45;&gt;Node17 -->
<g id="edge16" class="edge">
<title>Node1&#45;&gt;Node17</title>
<path fill="none" stroke="midnightblue" d="M41.06,-733.26C52.22,-731.42 67.06,-728.96 82.62,-726.38"/>
<polygon fill="midnightblue" stroke="midnightblue" points="83.62,-729.77 92.91,-724.68 82.47,-722.86 83.62,-729.77"/>
</g>
<!-- Node18 -->
<g id="node18" class="node">
<title>Node18</title>
<g id="a_node18"><a xlink:href="classColaPrioridadNoticias.html#a7512fe71c5e0220566c7d0d95be9862e" target="_top" xlink:title="Inserta una noticia en la cola de prioridad según su impacto.">
<polygon fill="white" stroke="black" points="106.5,-648.5 106.5,-678.5 228.5,-678.5 228.5,-648.5 106.5,-648.5"/>
<text text-anchor="start" x="114.5" y="-666.5" font-family="Helvetica,sans-Serif" font-size="10.00">ColaPrioridadNoticias</text>
<text text-anchor="middle" x="167.5" y="-655.5" font-family="Helvetica,sans-Serif" font-size="10.00">::insertar</text>
</a>
</g>
</g>
<!-- Node1&#45;&gt;Node18 -->
<g id="edge17" class="edge">
<title>Node1&#45;&gt;Node18</title>
<path fill="none" stroke="midnightblue" d="M29.98,-726.97C40.13,-716.13 58.14,-698.62 77,-688.5 83.11,-685.22 89.7,-682.33 96.42,-679.81"/>
<polygon fill="midnightblue" stroke="midnightblue" points="98.04,-682.95 106.34,-676.35 95.74,-676.34 98.04,-682.95"/>
</g>
<!-- Node19 -->
<g id="node19" class="node">
<title>Node19</title>
<g id="a_node19"><a xlink:href="classColaPrioridadNoticias.html#acf945e1aec8cf586d6b87382a1a9a9e2" target="_top" xlink:title="Muestra todas las noticias en la cola, en orden de prioridad.">
<polygon fill="white" stroke="black" points="106.5,-599.5 106.5,-629.5 228.5,-629.5 228.5,-599.5 106.5,-599.5"/>
<text text-anchor="start" x="114.5" y="-617.5" font-family="Helvetica,sans-Serif" font-size="10.00">ColaPrioridadNoticias</text>
<text text-anchor="middle" x="167.5" y="-606.5" font-family="Helvetica,sans-Serif" font-size="10.00">::mostrar</text>
</a>
</g>
</g>
<!-- Node1&#45;&gt;Node19 -->
<g id="edge18" class="edge">
<title>Node1&#45;&gt;Node19</title>
<path fill="none" stroke="midnightblue" d="M24.27,-726.86C30.4,-707.31 47,-662.87 77,-639.5 82.86,-634.93 89.51,-631.2 96.48,-628.15"/>
<polygon fill="midnightblue" stroke="midnightblue" points="98.08,-631.28 106.13,-624.4 95.54,-624.76 98.08,-631.28"/>
</g>
<!-- Node20 -->
<g id="node20" class="node">
<title>Node20</title>
<g id="a_node20"><a xlink:href="classPortafolio.html#a0fd1f6dd832435c9c7180a2701058748" target="_top" xlink:title="Muestra todos los activos del portafolio por consola.">
<polygon fill="white" stroke="black" points="113.5,-561 113.5,-580 221.5,-580 221.5,-561 113.5,-561"/>
<text text-anchor="middle" x="167.5" y="-568" font-family="Helvetica,sans-Serif" font-size="10.00">Portafolio::mostrar</text>
</a>
</g>
</g>
<!-- Node1&#45;&gt;Node20 -->
<g id="edge19" class="edge">
<title>Node1&#45;&gt;Node20</title>
<path fill="none" stroke="midnightblue" d="M22.12,-726.92C24.37,-700.73 34.36,-627.42 77,-590.5 84.58,-583.93 93.85,-579.39 103.52,-576.27"/>
<polygon fill="midnightblue" stroke="midnightblue" points="104.55,-579.61 113.28,-573.6 102.71,-572.86 104.55,-579.61"/>
</g>
<!-- Node23 -->
<g id="node23" class="node">
<title>Node23</title>
<g id="a_node23"><a xlink:href="noticia_8h.html#af7db67c9b2b44a23312346ae3cf2a20f" target="_top" xlink:title="Muestra el ajuste aplicado a los precios de un sector.">
<polygon fill="white" stroke="black" points="109.5,-485 109.5,-504 225.5,-504 225.5,-485 109.5,-485"/>
<text text-anchor="middle" x="167.5" y="-492" font-family="Helvetica,sans-Serif" font-size="10.00">mostrarAjusteSector</text>
</a>
</g>
</g>
<!-- Node1&#45;&gt;Node23 -->
<g id="edge22" class="edge">
<title>Node1&#45;&gt;Node23</title>
<path fill="none" stroke="midnightblue" d="M22.55,-726.85C26.97,-688.07 45.29,-544.13 77,-513.5 83.39,-507.33 91.26,-502.94 99.67,-499.86"/>
<polygon fill="midnightblue" stroke="midnightblue" points="100.78,-503.18 109.32,-496.91 98.74,-496.49 100.78,-503.18"/>
</g>
<!-- Node24 -->
<g id="node24" class="node">
<title>Node24</title>
<g id="a_node24"><a xlink:href="noticia_8h.html#a80268dccce1ece0cbb6406c81d50baed" target="_top" xlink:title="Muestra los cambios de precio de una empresa por cada noticia que la afectó, mostrando el precio ante...">
<polygon fill="white" stroke="black" points="91,-1310.5 91,-1340.5 244,-1340.5 244,-1310.5 91,-1310.5"/>
<text text-anchor="start" x="99" y="-1328.5" font-family="Helvetica,sans-Serif" font-size="10.00">mostrarCambiosPorNoticias</text>
<text text-anchor="middle" x="167.5" y="-1317.5" font-family="Helvetica,sans-Serif" font-size="10.00">Empresa</text>
</a>
</g>
</g>
<!-- Node1&#45;&gt;Node24 -->
<g id="edge23" class="edge">
<title>Node1&#45;&gt;Node24</title>
<path fill="none" stroke="midnightblue" d="M21.81,-746.37C24.14,-817.97 39.84,-1256.22 77,-1300.5 78.72,-1302.55 80.6,-1304.45 82.61,-1306.19"/>
<polygon fill="midnightblue" stroke="midnightblue" points="80.75,-1309.17 90.9,-1312.2 84.86,-1303.5 80.75,-1309.17"/>
</g>
<!-- Node26 -->
<g id="node26" class="node">
<title>Node26</title>
<g id="a_node26"><a xlink:href="noticia_8h.html#a7242f8be6bf0222aa3c0397c220cd251" target="_top" xlink:title="Muestra el impacto de las noticias en las acciones de las empresas.">
<polygon fill="white" stroke="black" points="94.5,-1222.5 94.5,-1252.5 240.5,-1252.5 240.5,-1222.5 94.5,-1222.5"/>
<text text-anchor="start" x="102.5" y="-1240.5" font-family="Helvetica,sans-Serif" font-size="10.00">mostrarImpactoNoticiasEn</text>
<text text-anchor="middle" x="167.5" y="-1229.5" font-family="Helvetica,sans-Serif" font-size="10.00">Acciones</text>
</a>
</g>
</g>
<!-- Node1&#45;&gt;Node26 -->
<g id="edge26" class="edge">
<title>Node1&#45;&gt;Node26</title>
<path fill="none" stroke="midnightblue" d="M21.28,-746.19C20.13,-806.77 16.77,-1133.37 77,-1207.5 79.79,-1210.93 82.99,-1213.98 86.47,-1216.67"/>
<polygon fill="midnightblue" stroke="midnightblue" points="84.81,-1219.77 95.08,-1222.36 88.67,-1213.93 84.81,-1219.77"/>
</g>
<!-- Node27 -->
<g id="node27" class="node">
<title>Node27</title>
<g id="a_node27"><a xlink:href="codigo_8cpp.html#a18fa8d8d51312c04f847fd499a5fca9b" target="_top" xlink:title="Muestra el submenú de opciones relacionadas con empresas.">
<polygon fill="white" stroke="black" points="105,-447 105,-466 230,-466 230,-447 105,-447"/>
<text text-anchor="middle" x="167.5" y="-454" font-family="Helvetica,sans-Serif" font-size="10.00">mostrarMenuEmpresa</text>
</a>
</g>
</g>
<!-- Node1&#45;&gt;Node27 -->
<g id="edge28" class="edge">
<title>Node1&#45;&gt;Node27</title>
<path fill="none" stroke="midnightblue" d="M22.19,-726.72C25.4,-683.73 40.39,-512.1 77,-475.5 82.25,-470.25 88.57,-466.28 95.39,-463.31"/>
<polygon fill="midnightblue" stroke="midnightblue" points="96.75,-466.54 104.95,-459.84 94.35,-459.96 96.75,-466.54"/>
</g>
<!-- Node28 -->
<g id="node28" class="node">
<title>Node28</title>
<g id="a_node28"><a xlink:href="codigo_8cpp.html#a05576b260508ff31b280741973565d40" target="_top" xlink:title="Muestra el submenú de opciones relacionadas con el portafolio.">
<polygon fill="white" stroke="black" points="103,-409 103,-428 232,-428 232,-409 103,-409"/>
<text text-anchor="middle" x="167.5" y="-416" font-family="Helvetica,sans-Serif" font-size="10.00">mostrarMenuPortafolio</text>
</a>
</g>
</g>
<!-- Node1&#45;&gt;Node28 -->
<g id="edge29" class="edge">
<title>Node1&#45;&gt;Node28</title>
<path fill="none" stroke="midnightblue" d="M21.89,-726.9C23.99,-680.54 35.36,-480.22 77,-437.5 81.77,-432.61 87.46,-428.82 93.63,-425.91"/>
<polygon fill="midnightblue" stroke="midnightblue" points="94.93,-429.16 102.96,-422.25 92.37,-422.65 94.93,-429.16"/>
</g>
<!-- Node29 -->
<g id="node29" class="node">
<title>Node29</title>
<g id="a_node29"><a xlink:href="codigo_8cpp.html#a476b760037c5062b609f62bcf13f21ef" target="_top" xlink:title="Muestra el menú principal para elegir entre opciones por empresa, sector, noticias o portafolio.">
<polygon fill="white" stroke="black" points="105.5,-371 105.5,-390 229.5,-390 229.5,-371 105.5,-371"/>
<text text-anchor="middle" x="167.5" y="-378" font-family="Helvetica,sans-Serif" font-size="10.00">mostrarMenuPrincipal</text>
</a>
</g>
</g>
<!-- Node1&#45;&gt;Node29 -->
<g id="edge30" class="edge">
<title>Node1&#45;&gt;Node29</title>
<path fill="none" stroke="midnightblue" d="M21.68,-726.71C22.8,-676.5 30.42,-448.28 77,-399.5 82.2,-394.05 88.55,-389.97 95.44,-386.93"/>
<polygon fill="midnightblue" stroke="midnightblue" points="96.92,-390.12 105.12,-383.42 94.52,-383.54 96.92,-390.12"/>
</g>
<!-- Node30 -->
<g id="node30" class="node">
<title>Node30</title>
<g id="a_node30"><a xlink:href="codigo_8cpp.html#a94581a9b3feac964bdced8cdc15e8484" target="_top" xlink:title="Muestra el submenú de opciones relacionadas con sectores.">
<polygon fill="white" stroke="black" points="111,-333 111,-352 224,-352 224,-333 111,-333"/>
<text text-anchor="middle" x="167.5" y="-340" font-family="Helvetica,sans-Serif" font-size="10.00">mostrarMenuSector</text>
</a>
</g>
</g>
<!-- Node1&#45;&gt;Node30 -->
<g id="edge31" class="edge">
<title>Node1&#45;&gt;Node30</title>
<path fill="none" stroke="midnightblue" d="M21.5,-726.7C21.71,-673.15 25.4,-416.42 77,-361.5 83.47,-354.61 91.77,-349.9 100.69,-346.73"/>
<polygon fill="midnightblue" stroke="midnightblue" points="101.94,-350.01 110.56,-343.85 99.98,-343.29 101.94,-350.01"/>
</g>
<!-- Node31 -->
<g id="node31" class="node">
<title>Node31</title>
<g id="a_node31"><a xlink:href="codigo_8cpp.html#a15ca712c518aa6cdc4fabc8b3fa84692" target="_top" xlink:title="Muestra el submenú de opciones relacionadas con simulación y noticias financieras.">
<polygon fill="white" stroke="black" points="99.5,-295 99.5,-314 235.5,-314 235.5,-295 99.5,-295"/>
<text text-anchor="middle" x="167.5" y="-302" font-family="Helvetica,sans-Serif" font-size="10.00">mostrarMenuSimulacion</text>
</a>
</g>
</g>
<!-- Node1&#45;&gt;Node31 -->
<g id="edge32" class="edge">
<title>Node1&#45;&gt;Node31</title>
<path fill="none" stroke="midnightblue" d="M21.35,-726.84C20.71,-670.5 20.31,-384.64 77,-323.5 80.85,-319.35 85.36,-315.99 90.27,-313.27"/>
<polygon fill="midnightblue" stroke="midnightblue" points="91.85,-316.4 99.49,-309.06 88.94,-310.03 91.85,-316.4"/>
</g>
<!-- Node32 -->
<g id="node32" class="node">
<title>Node32</title>
<g id="a_node32"><a xlink:href="classPortafolio.html#a3f3249951cf442f25729fc3b0b3a891a" target="_top" xlink:title="Obtiene los activos del portafolio como un std::vector&lt;string&gt;.">
<polygon fill="white" stroke="black" points="96,-523 96,-542 239,-542 239,-523 96,-523"/>
<text text-anchor="middle" x="167.5" y="-530" font-family="Helvetica,sans-Serif" font-size="10.00">Portafolio::obtenerActivos</text>
</a>
</g>
</g>
<!-- Node1&#45;&gt;Node32 -->
<g id="edge33" class="edge">
<title>Node1&#45;&gt;Node32</title>
<path fill="none" stroke="midnightblue" d="M21.22,-726.69C20.93,-695.83 24.46,-599.88 77,-551.5 80,-548.73 83.31,-546.33 86.82,-544.25"/>
<polygon fill="midnightblue" stroke="midnightblue" points="88.54,-547.3 95.92,-539.7 85.41,-541.04 88.54,-547.3"/>
</g>
<!-- Node33 -->
<g id="node33" class="node">
<title>Node33</title>
<g id="a_node33"><a xlink:href="classABBEmpresas.html#a77be3c43461441d10f9dd6f03d24604d" target="_top" xlink:title="Devuelve la empresa con el precio actual más bajo.">
<polygon fill="white" stroke="black" points="82,-245.5 82,-275.5 253,-275.5 253,-245.5 82,-245.5"/>
<text text-anchor="start" x="90" y="-263.5" font-family="Helvetica,sans-Serif" font-size="10.00">ABBEmpresas::obtenerEmpresa</text>
<text text-anchor="middle" x="167.5" y="-252.5" font-family="Helvetica,sans-Serif" font-size="10.00">MasBarata</text>
</a>
</g>
</g>
<!-- Node1&#45;&gt;Node33 -->
<g id="edge35" class="edge">
<title>Node1&#45;&gt;Node33</title>
<path fill="none" stroke="midnightblue" d="M21.29,-726.8C20.22,-667.56 17.45,-354.72 77,-285.5 78.02,-284.32 79.09,-283.18 80.21,-282.1"/>
<polygon fill="midnightblue" stroke="midnightblue" points="82.57,-284.69 88.18,-275.7 78.19,-279.24 82.57,-284.69"/>
</g>
<!-- Node34 -->
<g id="node34" class="node">
<title>Node34</title>
<g id="a_node34"><a xlink:href="classABBEmpresas.html#a9773e3023fbdf2197242337670da6941" target="_top" xlink:title="Devuelve la empresa con el precio actual más alto.">
<polygon fill="white" stroke="black" points="82,-196.5 82,-226.5 253,-226.5 253,-196.5 82,-196.5"/>
<text text-anchor="start" x="90" y="-214.5" font-family="Helvetica,sans-Serif" font-size="10.00">ABBEmpresas::obtenerEmpresa</text>
<text text-anchor="middle" x="167.5" y="-203.5" font-family="Helvetica,sans-Serif" font-size="10.00">MasCara</text>
</a>
</g>
</g>
<!-- Node1&#45;&gt;Node34 -->
<g id="edge36" class="edge">
<title>Node1&#45;&gt;Node34</title>
<path fill="none" stroke="midnightblue" d="M21.92,-726.9C24.9,-660.77 43.65,-274.34 77,-235.5 77.73,-234.65 78.49,-233.82 79.28,-233.02"/>
<polygon fill="midnightblue" stroke="midnightblue" points="81.56,-235.68 86.96,-226.57 77.05,-230.32 81.56,-235.68"/>
</g>
<!-- Node35 -->
<g id="node35" class="node">
<title>Node35</title>
<g id="a_node35"><a xlink:href="classABBEmpresas.html#a6ccc64afaf894799cf66b3e46db34674" target="_top" xlink:title="Devuelve una lista ordenada de empresas (inorden).">
<polygon fill="white" stroke="black" points="79.5,-147.5 79.5,-177.5 255.5,-177.5 255.5,-147.5 79.5,-147.5"/>
<text text-anchor="start" x="87.5" y="-165.5" font-family="Helvetica,sans-Serif" font-size="10.00">ABBEmpresas::obtenerEmpresas</text>
<text text-anchor="middle" x="167.5" y="-154.5" font-family="Helvetica,sans-Serif" font-size="10.00">Ordenadas</text>
</a>
</g>
</g>
<!-- Node1&#45;&gt;Node35 -->
<g id="edge37" class="edge">
<title>Node1&#45;&gt;Node35</title>
<path fill="none" stroke="midnightblue" d="M21.82,-726.87C24.24,-657.01 40.48,-229.45 77,-186.5 77.73,-185.64 78.49,-184.81 79.27,-184.01"/>
<polygon fill="midnightblue" stroke="midnightblue" points="81.55,-186.67 86.92,-177.54 77.03,-181.32 81.55,-186.67"/>
</g>
<!-- Node36 -->
<g id="node36" class="node">
<title>Node36</title>
<g id="a_node36"><a xlink:href="classColaPrioridadNoticias.html#a3811c333f31595938a583b600b35bad8" target="_top" xlink:title="Ordena toda la cola de noticias cronológicamente por fecha.">
<polygon fill="white" stroke="black" points="106.5,-98.5 106.5,-128.5 228.5,-128.5 228.5,-98.5 106.5,-98.5"/>
<text text-anchor="start" x="114.5" y="-116.5" font-family="Helvetica,sans-Serif" font-size="10.00">ColaPrioridadNoticias</text>
<text text-anchor="middle" x="167.5" y="-105.5" font-family="Helvetica,sans-Serif" font-size="10.00">::ordenarPorFecha</text>
</a>
</g>
</g>
<!-- Node1&#45;&gt;Node36 -->
<g id="edge38" class="edge">
<title>Node1&#45;&gt;Node36</title>
<path fill="none" stroke="midnightblue" d="M21.74,-726.97C23.63,-653.92 37.28,-184.6 77,-137.5 82.32,-131.19 89.11,-126.44 96.56,-122.89"/>
<polygon fill="midnightblue" stroke="midnightblue" points="98.3,-125.96 106.29,-119 95.7,-119.46 98.3,-125.96"/>
</g>
<!-- Node37 -->
<g id="node37" class="node">
<title>Node37</title>
<g id="a_node37"><a xlink:href="classColaPrioridadNoticias.html#a3db4934bf16a4b593a39f23876a3f158" target="_top" xlink:title="Calcula el promedio del impacto de todas las noticias en la cola.">
<polygon fill="white" stroke="black" points="106.5,-49.5 106.5,-79.5 228.5,-79.5 228.5,-49.5 106.5,-49.5"/>
<text text-anchor="start" x="114.5" y="-67.5" font-family="Helvetica,sans-Serif" font-size="10.00">ColaPrioridadNoticias</text>
<text text-anchor="middle" x="167.5" y="-56.5" font-family="Helvetica,sans-Serif" font-size="10.00">::promedioImpacto</text>
</a>
</g>
</g>
<!-- Node1&#45;&gt;Node37 -->
<g id="edge39" class="edge">
<title>Node1&#45;&gt;Node37</title>
<path fill="none" stroke="midnightblue" d="M21.67,-726.68C23.1,-649.34 34.14,-139.68 77,-88.5 82.3,-82.17 89.07,-77.41 96.52,-73.85"/>
<polygon fill="midnightblue" stroke="midnightblue" points="98.26,-76.92 106.24,-69.96 95.66,-70.43 98.26,-76.92"/>
</g>
<!-- Node38 -->
<g id="node38" class="node">
<title>Node38</title>
<g id="a_node38"><a xlink:href="classMultilistaPrecio.html#aab95a547304a1d3168a6c1916ea3b757" target="_top" xlink:title="Calcula el promedio móvil de los últimos &#39;dias&#39; precios.">
<polygon fill="white" stroke="black" points="304.5,-1197.5 304.5,-1227.5 449.5,-1227.5 449.5,-1197.5 304.5,-1197.5"/>
<text text-anchor="start" x="312.5" y="-1215.5" font-family="Helvetica,sans-Serif" font-size="10.00">MultilistaPrecio::promedio</text>
<text text-anchor="middle" x="377" y="-1204.5" font-family="Helvetica,sans-Serif" font-size="10.00">Movil</text>
</a>
</g>
</g>
<!-- Node1&#45;&gt;Node38 -->
<g id="edge40" class="edge">
<title>Node1&#45;&gt;Node38</title>
<path fill="none" stroke="midnightblue" d="M22.02,-746.1C25.44,-807.44 45.5,-1142.99 77,-1174.5 106.61,-1204.12 216.08,-1211.55 293.97,-1212.97"/>
<polygon fill="midnightblue" stroke="midnightblue" points="294.21,-1216.47 304.26,-1213.12 294.32,-1209.47 294.21,-1216.47"/>
</g>
<!-- Node39 -->
<g id="node39" class="node">
<title>Node39</title>
<g id="a_node39"><a xlink:href="classABBEmpresas.html#a0c1aa570634d14b5cebac4cbb4ddd184" target="_top" xlink:title="Calcula el promedio del precio actual de las empresas de un sector.">
<polygon fill="white" stroke="black" points="84,-0.5 84,-30.5 251,-30.5 251,-0.5 84,-0.5"/>
<text text-anchor="start" x="92" y="-18.5" font-family="Helvetica,sans-Serif" font-size="10.00">ABBEmpresas::promedioPrecio</text>
<text text-anchor="middle" x="167.5" y="-7.5" font-family="Helvetica,sans-Serif" font-size="10.00">PorSector</text>
</a>
</g>
</g>
<!-- Node1&#45;&gt;Node39 -->
<g id="edge41" class="edge">
<title>Node1&#45;&gt;Node39</title>
<path fill="none" stroke="midnightblue" d="M21.61,-726.97C22.57,-647.41 30.89,-94.9 77,-39.5 77.61,-38.77 78.24,-38.06 78.88,-37.37"/>
<polygon fill="midnightblue" stroke="midnightblue" points="81.23,-39.96 86.45,-30.74 76.62,-34.7 81.23,-39.96"/>
</g>
<!-- Node40 -->
<g id="node40" class="node">
<title>Node40</title>
<g id="a_node40"><a xlink:href="classPortafolio.html#ae6d06c70b6052cd798b31b002509e346" target="_top" xlink:title="Árbol de decisión para recomendar la compra de un activo.">
<polygon fill="white" stroke="black" points="84,-1272 84,-1291 251,-1291 251,-1272 84,-1272"/>
<text text-anchor="middle" x="167.5" y="-1279" font-family="Helvetica,sans-Serif" font-size="10.00">Portafolio::recomendarCompra</text>
</a>
</g>
</g>
<!-- Node1&#45;&gt;Node40 -->
<g id="edge42" class="edge">
<title>Node1&#45;&gt;Node40</title>
<path fill="none" stroke="midnightblue" d="M21.85,-746.16C24.38,-814.42 40.97,-1222.51 77,-1262.5 78.06,-1263.68 79.18,-1264.8 80.34,-1265.85"/>
<polygon fill="midnightblue" stroke="midnightblue" points="78.54,-1268.87 88.66,-1271.99 82.69,-1263.24 78.54,-1268.87"/>
</g>
<!-- Node3 -->
<g id="node3" class="node">
<title>Node3</title>
<g id="a_node3"><a xlink:href="classMiVector.html#acd4c2f3badca90de19b0eaa48b2c2d6e" target="_top" xlink:title="Inserta un elemento al final del vector.">
<polygon fill="white" stroke="black" points="326.5,-1448 326.5,-1467 427.5,-1467 427.5,-1448 326.5,-1448"/>
<text text-anchor="middle" x="377" y="-1455" font-family="Helvetica,sans-Serif" font-size="10.00">MiVector::miPush</text>
</a>
</g>
</g>
<!-- Node2&#45;&gt;Node3 -->
<g id="edge2" class="edge">
<title>Node2&#45;&gt;Node3</title>
<path fill="none" stroke="midnightblue" d="M236.73,-1457.5C262.48,-1457.5 291.54,-1457.5 316.44,-1457.5"/>
<polygon fill="midnightblue" stroke="midnightblue" points="316.47,-1461 326.47,-1457.5 316.47,-1454 316.47,-1461"/>
</g>
<!-- Node11 -->
<g id="node11" class="node">
<title>Node11</title>
<g id="a_node11"><a xlink:href="classMiVector.html#af28ef16044a6e46deb3febec8d1bae30" target="_top" xlink:title="Elimina la primera aparición de un valor en el vector.">
<polygon fill="white" stroke="black" points="324,-960 324,-979 430,-979 430,-960 324,-960"/>
<text text-anchor="middle" x="377" y="-967" font-family="Helvetica,sans-Serif" font-size="10.00">MiVector::eliminar</text>
</a>
</g>
</g>
<!-- Node10&#45;&gt;Node11 -->
<g id="edge10" class="edge">
<title>Node10&#45;&gt;Node11</title>
<path fill="none" stroke="midnightblue" d="M238.17,-969.5C262.58,-969.5 289.82,-969.5 313.6,-969.5"/>
<polygon fill="midnightblue" stroke="midnightblue" points="313.9,-973 323.9,-969.5 313.9,-966 313.9,-973"/>
</g>
<!-- Node21 -->
<g id="node21" class="node">
<title>Node21</title>
<g id="a_node21"><a xlink:href="classMiVector.html#a8d8f602691e396c144d450d7c88ed400" target="_top" xlink:title="Verifica si el vector está vacío.">
<polygon fill="white" stroke="black" points="328.5,-561 328.5,-580 425.5,-580 425.5,-561 328.5,-561"/>
<text text-anchor="middle" x="377" y="-568" font-family="Helvetica,sans-Serif" font-size="10.00">MiVector::empty</text>
</a>
</g>
</g>
<!-- Node20&#45;&gt;Node21 -->
<g id="edge20" class="edge">
<title>Node20&#45;&gt;Node21</title>
<path fill="none" stroke="midnightblue" d="M221.67,-570.5C251.1,-570.5 287.72,-570.5 317.9,-570.5"/>
<polygon fill="midnightblue" stroke="midnightblue" points="318.29,-574 328.29,-570.5 318.29,-567 318.29,-574"/>
</g>
<!-- Node22 -->
<g id="node22" class="node">
<title>Node22</title>
<g id="a_node22"><a xlink:href="classMiVector.html#a6f89e927eee8c75d0e2209cb2c6a7b74" target="_top" xlink:title="Obtiene el número actual de elementos en el vector.">
<polygon fill="white" stroke="black" points="334.5,-523 334.5,-542 419.5,-542 419.5,-523 334.5,-523"/>
<text text-anchor="middle" x="377" y="-530" font-family="Helvetica,sans-Serif" font-size="10.00">MiVector::size</text>
</a>
</g>
</g>
<!-- Node20&#45;&gt;Node22 -->
<g id="edge21" class="edge">
<title>Node20&#45;&gt;Node22</title>
<path fill="none" stroke="midnightblue" d="M220.59,-560.96C252.33,-555.15 292.73,-547.75 324.38,-541.95"/>
<polygon fill="midnightblue" stroke="midnightblue" points="325.13,-545.38 334.33,-540.13 323.86,-538.49 325.13,-545.38"/>
</g>
<!-- Node24&#45;&gt;Node5 -->
<g id="edge24" class="edge">
<title>Node24&#45;&gt;Node5</title>
<path fill="none" stroke="midnightblue" d="M244.29,-1325.5C257.12,-1325.5 270.56,-1325.5 283.74,-1325.5"/>
<polygon fill="midnightblue" stroke="midnightblue" points="283.77,-1329 293.77,-1325.5 283.77,-1322 283.77,-1329"/>
</g>
<!-- Node25 -->
<g id="node25" class="node">
<title>Node25</title>
<g id="a_node25"><a xlink:href="classColaPrioridadNoticias.html#a9c3a7f5944aa0f85f3ebf69c1db5eaf7" target="_top" xlink:title="Llena un vector con punteros a todas las noticias en la cola (en orden actual).">
<polygon fill="white" stroke="black" points="316,-1266.5 316,-1296.5 438,-1296.5 438,-1266.5 316,-1266.5"/>
<text text-anchor="start" x="324" y="-1284.5" font-family="Helvetica,sans-Serif" font-size="10.00">ColaPrioridadNoticias</text>
<text text-anchor="middle" x="377" y="-1273.5" font-family="Helvetica,sans-Serif" font-size="10.00">::obtenerNoticias</text>
</a>
</g>
</g>
<!-- Node24&#45;&gt;Node25 -->
<g id="edge25" class="edge">
<title>Node24&#45;&gt;Node25</title>
<path fill="none" stroke="midnightblue" d="M239.33,-1310.48C260.82,-1305.92 284.4,-1300.92 305.85,-1296.38"/>
<polygon fill="midnightblue" stroke="midnightblue" points="306.8,-1299.75 315.86,-1294.25 305.35,-1292.9 306.8,-1299.75"/>
</g>
<!-- Node26&#45;&gt;Node25 -->
<g id="edge27" class="edge">
<title>Node26&#45;&gt;Node25</title>
<path fill="none" stroke="midnightblue" d="M239.33,-1252.52C260.82,-1257.08 284.4,-1262.08 305.85,-1266.62"/>
<polygon fill="midnightblue" stroke="midnightblue" points="305.35,-1270.1 315.86,-1268.75 306.8,-1263.25 305.35,-1270.1"/>
</g>
<!-- Node32&#45;&gt;Node22 -->
<g id="edge34" class="edge">
<title>Node32&#45;&gt;Node22</title>
<path fill="none" stroke="midnightblue" d="M239.04,-532.5C266.92,-532.5 298.38,-532.5 324.11,-532.5"/>
<polygon fill="midnightblue" stroke="midnightblue" points="324.39,-536 334.39,-532.5 324.39,-529 324.39,-536"/>
</g>
<!-- Node40&#45;&gt;Node5 -->
<g id="edge43" class="edge">
<title>Node40&#45;&gt;Node5</title>
<path fill="none" stroke="midnightblue" d="M213.52,-1291.05C245.07,-1297.74 287.41,-1306.71 320.96,-1313.83"/>
<polygon fill="midnightblue" stroke="midnightblue" points="320.55,-1317.32 331.06,-1315.97 322.01,-1310.47 320.55,-1317.32"/>
</g>
<!-- Node40&#45;&gt;Node25 -->
<g id="edge44" class="edge">
<title>Node40&#45;&gt;Node25</title>
<path fill="none" stroke="midnightblue" d="M251.11,-1281.5C269.15,-1281.5 288.09,-1281.5 305.6,-1281.5"/>
<polygon fill="midnightblue" stroke="midnightblue" points="305.74,-1285 315.74,-1281.5 305.74,-1278 305.74,-1285"/>
</g>
<!-- Node40&#45;&gt;Node38 -->
<g id="edge45" class="edge">
<title>Node40&#45;&gt;Node38</title>
<path fill="none" stroke="midnightblue" d="M221.94,-1271.91C233.92,-1269.27 246.48,-1266.13 258,-1262.5 284.55,-1254.14 313.34,-1242.01 335.83,-1231.79"/>
<polygon fill="midnightblue" stroke="midnightblue" points="337.44,-1234.9 345.06,-1227.54 334.52,-1228.54 337.44,-1234.9"/>
</g>
</g>
</svg>
        <g id="navigator" transform="translate(0 0)" fill="#404254">
                <rect fill="#f2f5e9" fill-opacity="0.5" stroke="#606060" stroke-width=".5" x="0" y="0" width="60" height="60"/>
                <use id="zoomplus" xlink:href="#zoomPlus" x="17" y="9" onmousedown="handleZoom(evt,'in')"/>
                <use id="zoomminus" xlink:href="#zoomMin" x="42" y="9" onmousedown="handleZoom(evt,'out')"/>
                <use id="reset" xlink:href="#resetDef" x="30" y="36" onmousedown="handleReset()"/>
                <g id="arrowUp" xlink:href="#dirArrow" transform="translate(30 24)" onmousedown="handlePan(0,-1)">
                  <use xlink:href="#rim" fill="#404040">
                        <set attributeName="fill" to="#808080" begin="arrowUp.mouseover" end="arrowUp.mouseout"/>
                  </use>
                  <path fill="none" stroke="white" stroke-width="1.5" d="M0,-3.0v7 M-2.5,-0.5L0,-3.0L2.5,-0.5"/>
                </g>
                <g id="arrowRight" xlink:href="#dirArrow" transform="rotate(90) translate(36 -43)" onmousedown="handlePan(1,0)">
                  <use xlink:href="#rim" fill="#404040">
                        <set attributeName="fill" to="#808080" begin="arrowRight.mouseover" end="arrowRight.mouseout"/>
                  </use>
                  <path fill="none" stroke="white" stroke-width="1.5" d="M0,-3.0v7 M-2.5,-0.5L0,-3.0L2.5,-0.5"/>
                </g>
                <g id="arrowDown" xlink:href="#dirArrow" transform="rotate(180) translate(-30 -48)" onmousedown="handlePan(0,1)">
                  <use xlink:href="#rim" fill="#404040">
                        <set attributeName="fill" to="#808080" begin="arrowDown.mouseover" end="arrowDown.mouseout"/>
                  </use>
                  <path fill="none" stroke="white" stroke-width="1.5" d="M0,-3.0v7 M-2.5,-0.5L0,-3.0L2.5,-0.5"/>
                </g>
                <g id="arrowLeft" xlink:href="#dirArrow" transform="rotate(270) translate(-36 17)" onmousedown="handlePan(-1,0)">
                  <use xlink:href="#rim" fill="#404040">
                        <set attributeName="fill" to="#808080" begin="arrowLeft.mouseover" end="arrowLeft.mouseout"/>
                  </use>
                  <path fill="none" stroke="white" stroke-width="1.5" d="M0,-3.0v7 M-2.5,-0.5L0,-3.0L2.5,-0.5"/>
                </g>
        </g>
        <svg viewBox="0 0 15 15" width="100%" height="30px" preserveAspectRatio="xMaxYMin meet">
         <g id="arrow_out" transform="scale(0.3 0.3)">
          <a xlink:href="codigo_8cpp_ae66f6b31b5ad750f1fe042a706a4e3d4_cgraph_org.svg" target="_base">
           <rect id="button" ry="5" rx="5" y="6" x="6" height="38" width="38"
                fill="#f2f5e9" fill-opacity="0.5" stroke="#606060" stroke-width="1.0"/>
           <path id="arrow"
             d="M 11.500037,31.436501 C 11.940474,20.09759 22.043105,11.32322 32.158766,21.979434 L 37.068811,17.246167 C 37.068811,17.246167 37.088388,32 37.088388,32 L 22.160133,31.978069 C 22.160133,31.978069 26.997745,27.140456 26.997745,27.140456 C 18.528582,18.264221 13.291696,25.230495 11.500037,31.436501 z"
             style="fill:#404040;"/>
          </a>
         </g>
        </svg>
</svg>
