<?xml version="1.0" encoding="UTF-8" standalone="no"?>
<!DOCTYPE svg PUBLIC "-//W3C//DTD SVG 1.1//EN"
 "http://www.w3.org/Graphics/SVG/1.1/DTD/svg11.dtd">
<!-- Generated by graphviz version 2.43.0 (0)
 -->
<!-- Title: codigo.cpp Pages: 1 -->
<svg width="325pt" height="252pt"
 viewBox="0.00 0.00 325.00 252.00" xmlns="http://www.w3.org/2000/svg" xmlns:xlink="http://www.w3.org/1999/xlink">
<g id="graph0" class="graph" transform="scale(1 1) rotate(0) translate(4 248)">
<title>codigo.cpp</title>
<polygon fill="white" stroke="transparent" points="-4,4 -4,-248 321,-248 321,4 -4,4"/>
<!-- Node1 -->
<g id="node1" class="node">
<title>Node1</title>
<g id="a_node1"><a xlink:title="Código base para un sistema de gestión de acciones y noticias financieras.">
<polygon fill="#bfbfbf" stroke="black" points="92.5,-224.5 92.5,-243.5 161.5,-243.5 161.5,-224.5 92.5,-224.5"/>
<text text-anchor="middle" x="127" y="-231.5" font-family="Helvetica,sans-Serif" font-size="10.00">codigo.cpp</text>
</a>
</g>
</g>
<!-- Node2 -->
<g id="node2" class="node">
<title>Node2</title>
<g id="a_node2"><a xlink:href="empresa_8h.html" target="_top" xlink:title="Definición de estructuras y clases para la gestión de empresas y sus precios históricos.">
<polygon fill="white" stroke="black" points="51,-56.5 51,-75.5 119,-75.5 119,-56.5 51,-56.5"/>
<text text-anchor="middle" x="85" y="-63.5" font-family="Helvetica,sans-Serif" font-size="10.00">empresa.h</text>
</a>
</g>
</g>
<!-- Node1&#45;&gt;Node2 -->
<g id="edge1" class="edge">
<title>Node1&#45;&gt;Node2</title>
<path fill="none" stroke="midnightblue" d="M97.88,-224.44C80.36,-217.62 59.48,-206.14 49,-188 29.37,-154.01 54.83,-108.35 71.9,-83.99"/>
<polygon fill="midnightblue" stroke="midnightblue" points="74.83,-85.9 77.91,-75.76 69.18,-81.77 74.83,-85.9"/>
</g>
<!-- Node8 -->
<g id="node8" class="node">
<title>Node8</title>
<g id="a_node8"><a xlink:href="noticia_8h.html" target="_top" xlink:title="Definición de la estructura Noticia y la clase ColaPrioridadNoticias para gestión de noticias financi...">
<polygon fill="white" stroke="black" points="136.5,-112.5 136.5,-131.5 195.5,-131.5 195.5,-112.5 136.5,-112.5"/>
<text text-anchor="middle" x="166" y="-119.5" font-family="Helvetica,sans-Serif" font-size="10.00">noticia.h</text>
</a>
</g>
</g>
<!-- Node1&#45;&gt;Node8 -->
<g id="edge7" class="edge">
<title>Node1&#45;&gt;Node8</title>
<path fill="none" stroke="midnightblue" d="M130.06,-224.37C136.38,-206.54 151,-165.3 159.52,-141.27"/>
<polygon fill="midnightblue" stroke="midnightblue" points="162.91,-142.19 162.95,-131.59 156.31,-139.85 162.91,-142.19"/>
</g>
<!-- Node9 -->
<g id="node9" class="node">
<title>Node9</title>
<g id="a_node9"><a xlink:href="portafolio_8h.html" target="_top" xlink:title="Definición de la clase Portafolio y del vector dinámico personalizado MiVector.">
<polygon fill="white" stroke="black" points="58.5,-168.5 58.5,-187.5 131.5,-187.5 131.5,-168.5 58.5,-168.5"/>
<text text-anchor="middle" x="95" y="-175.5" font-family="Helvetica,sans-Serif" font-size="10.00">portafolio.h</text>
</a>
</g>
</g>
<!-- Node1&#45;&gt;Node9 -->
<g id="edge14" class="edge">
<title>Node1&#45;&gt;Node9</title>
<path fill="none" stroke="midnightblue" d="M121.72,-224.08C117.29,-216.61 110.84,-205.72 105.38,-196.52"/>
<polygon fill="midnightblue" stroke="midnightblue" points="108.29,-194.57 100.19,-187.75 102.27,-198.14 108.29,-194.57"/>
</g>
<!-- Node11 -->
<g id="node11" class="node">
<title>Node11</title>
<g id="a_node11"><a xlink:title=" ">
<polygon fill="white" stroke="#bfbfbf" points="188,-168.5 188,-187.5 220,-187.5 220,-168.5 188,-168.5"/>
<text text-anchor="middle" x="204" y="-175.5" font-family="Helvetica,sans-Serif" font-size="10.00">set</text>
</a>
</g>
</g>
<!-- Node1&#45;&gt;Node11 -->
<g id="edge20" class="edge">
<title>Node1&#45;&gt;Node11</title>
<path fill="none" stroke="midnightblue" d="M139.37,-224.32C151.16,-216.06 169.13,-203.45 183.14,-193.63"/>
<polygon fill="midnightblue" stroke="midnightblue" points="185.48,-196.26 191.66,-187.65 181.46,-190.53 185.48,-196.26"/>
</g>
<!-- Node3 -->
<g id="node3" class="node">
<title>Node3</title>
<g id="a_node3"><a xlink:title=" ">
<polygon fill="white" stroke="#bfbfbf" points="257,-0.5 257,-19.5 317,-19.5 317,-0.5 257,-0.5"/>
<text text-anchor="middle" x="287" y="-7.5" font-family="Helvetica,sans-Serif" font-size="10.00">iostream</text>
</a>
</g>
</g>
<!-- Node2&#45;&gt;Node3 -->
<g id="edge2" class="edge">
<title>Node2&#45;&gt;Node3</title>
<path fill="none" stroke="midnightblue" d="M117.01,-56.44C152.24,-47.03 208.93,-31.87 247.05,-21.68"/>
<polygon fill="midnightblue" stroke="midnightblue" points="248.03,-25.04 256.79,-19.08 246.23,-18.28 248.03,-25.04"/>
</g>
<!-- Node4 -->
<g id="node4" class="node">
<title>Node4</title>
<g id="a_node4"><a xlink:title=" ">
<polygon fill="white" stroke="#bfbfbf" points="0,-0.5 0,-19.5 44,-19.5 44,-0.5 0,-0.5"/>
<text text-anchor="middle" x="22" y="-7.5" font-family="Helvetica,sans-Serif" font-size="10.00">string</text>
</a>
</g>
</g>
<!-- Node2&#45;&gt;Node4 -->
<g id="edge3" class="edge">
<title>Node2&#45;&gt;Node4</title>
<path fill="none" stroke="midnightblue" d="M74.88,-56.32C65.47,-48.26 51.26,-36.08 39.93,-26.37"/>
<polygon fill="midnightblue" stroke="midnightblue" points="42.18,-23.68 32.31,-19.83 37.62,-29 42.18,-23.68"/>
</g>
<!-- Node5 -->
<g id="node5" class="node">
<title>Node5</title>
<g id="a_node5"><a xlink:title=" ">
<polygon fill="white" stroke="#bfbfbf" points="62.5,-0.5 62.5,-19.5 109.5,-19.5 109.5,-0.5 62.5,-0.5"/>
<text text-anchor="middle" x="86" y="-7.5" font-family="Helvetica,sans-Serif" font-size="10.00">vector</text>
</a>
</g>
</g>
<!-- Node2&#45;&gt;Node5 -->
<g id="edge4" class="edge">
<title>Node2&#45;&gt;Node5</title>
<path fill="none" stroke="midnightblue" d="M85.17,-56.08C85.3,-49.01 85.48,-38.86 85.65,-29.99"/>
<polygon fill="midnightblue" stroke="midnightblue" points="89.15,-29.81 85.84,-19.75 82.15,-29.68 89.15,-29.81"/>
</g>
<!-- Node6 -->
<g id="node6" class="node">
<title>Node6</title>
<g id="a_node6"><a xlink:title=" ">
<polygon fill="white" stroke="#bfbfbf" points="127.5,-0.5 127.5,-19.5 176.5,-19.5 176.5,-0.5 127.5,-0.5"/>
<text text-anchor="middle" x="152" y="-7.5" font-family="Helvetica,sans-Serif" font-size="10.00">cstdlib</text>
</a>
</g>
</g>
<!-- Node2&#45;&gt;Node6 -->
<g id="edge5" class="edge">
<title>Node2&#45;&gt;Node6</title>
<path fill="none" stroke="midnightblue" d="M95.76,-56.32C105.77,-48.26 120.89,-36.08 132.93,-26.37"/>
<polygon fill="midnightblue" stroke="midnightblue" points="135.45,-28.83 141.04,-19.83 131.06,-23.38 135.45,-28.83"/>
</g>
<!-- Node7 -->
<g id="node7" class="node">
<title>Node7</title>
<g id="a_node7"><a xlink:title=" ">
<polygon fill="white" stroke="#bfbfbf" points="195,-0.5 195,-19.5 239,-19.5 239,-0.5 195,-0.5"/>
<text text-anchor="middle" x="217" y="-7.5" font-family="Helvetica,sans-Serif" font-size="10.00">ctime</text>
</a>
</g>
</g>
<!-- Node2&#45;&gt;Node7 -->
<g id="edge6" class="edge">
<title>Node2&#45;&gt;Node7</title>
<path fill="none" stroke="midnightblue" d="M105.92,-56.44C127.74,-47.52 162.15,-33.44 186.89,-23.32"/>
<polygon fill="midnightblue" stroke="midnightblue" points="188.25,-26.54 196.18,-19.52 185.6,-20.06 188.25,-26.54"/>
</g>
<!-- Node8&#45;&gt;Node2 -->
<g id="edge13" class="edge">
<title>Node8&#45;&gt;Node2</title>
<path fill="none" stroke="midnightblue" d="M152.99,-112.32C140.47,-103.98 121.32,-91.21 106.53,-81.35"/>
<polygon fill="midnightblue" stroke="midnightblue" points="108.24,-78.29 97.98,-75.65 104.36,-84.11 108.24,-78.29"/>
</g>
<!-- Node8&#45;&gt;Node3 -->
<g id="edge8" class="edge">
<title>Node8&#45;&gt;Node3</title>
<path fill="none" stroke="midnightblue" d="M175.49,-112.37C195.9,-93.81 244.2,-49.91 270.02,-26.44"/>
<polygon fill="midnightblue" stroke="midnightblue" points="272.5,-28.91 277.55,-19.59 267.8,-23.73 272.5,-28.91"/>
</g>
<!-- Node8&#45;&gt;Node4 -->
<g id="edge9" class="edge">
<title>Node8&#45;&gt;Node4</title>
<path fill="none" stroke="midnightblue" d="M136.24,-113.49C103.93,-104.78 55.18,-89.85 42,-76 30.18,-63.58 25.34,-44.34 23.36,-30.01"/>
<polygon fill="midnightblue" stroke="midnightblue" points="26.81,-29.39 22.3,-19.8 19.85,-30.1 26.81,-29.39"/>
</g>
<!-- Node8&#45;&gt;Node5 -->
<g id="edge10" class="edge">
<title>Node8&#45;&gt;Node5</title>
<path fill="none" stroke="midnightblue" d="M161.66,-112.21C155.13,-99.34 142.05,-74.87 128,-56 120.36,-45.74 110.68,-35.23 102.54,-26.95"/>
<polygon fill="midnightblue" stroke="midnightblue" points="104.88,-24.35 95.32,-19.78 99.95,-29.31 104.88,-24.35"/>
</g>
<!-- Node8&#45;&gt;Node6 -->
<g id="edge11" class="edge">
<title>Node8&#45;&gt;Node6</title>
<path fill="none" stroke="midnightblue" d="M165.66,-112.13C165.09,-99.59 163.75,-75.96 161,-56 159.79,-47.21 157.93,-37.55 156.21,-29.44"/>
<polygon fill="midnightblue" stroke="midnightblue" points="159.61,-28.59 154.04,-19.57 152.77,-30.09 159.61,-28.59"/>
</g>
<!-- Node8&#45;&gt;Node7 -->
<g id="edge12" class="edge">
<title>Node8&#45;&gt;Node7</title>
<path fill="none" stroke="midnightblue" d="M170,-112.37C178.31,-94.46 197.56,-52.92 208.68,-28.95"/>
<polygon fill="midnightblue" stroke="midnightblue" points="211.99,-30.14 213.02,-19.59 205.64,-27.19 211.99,-30.14"/>
</g>
<!-- Node9&#45;&gt;Node2 -->
<g id="edge18" class="edge">
<title>Node9&#45;&gt;Node2</title>
<path fill="none" stroke="midnightblue" d="M85.98,-168.34C77.93,-159.93 66.7,-146.36 62,-132 56.67,-115.71 64.5,-97.3 72.44,-84.24"/>
<polygon fill="midnightblue" stroke="midnightblue" points="75.44,-86.05 78.05,-75.79 69.6,-82.18 75.44,-86.05"/>
</g>
<!-- Node9&#45;&gt;Node3 -->
<g id="edge15" class="edge">
<title>Node9&#45;&gt;Node3</title>
<path fill="none" stroke="midnightblue" d="M129.13,-168.46C152.08,-161.46 182.04,-149.78 204,-132 239.67,-103.12 266.25,-54.95 278.86,-28.96"/>
<polygon fill="midnightblue" stroke="midnightblue" points="282.18,-30.12 283.26,-19.58 275.84,-27.14 282.18,-30.12"/>
</g>
<!-- Node9&#45;&gt;Node4 -->
<g id="edge16" class="edge">
<title>Node9&#45;&gt;Node4</title>
<path fill="none" stroke="midnightblue" d="M86.26,-168.27C70.6,-151.9 38.32,-114.75 27,-76 22.58,-60.88 21.49,-42.98 21.41,-29.8"/>
<polygon fill="midnightblue" stroke="midnightblue" points="24.92,-29.66 21.55,-19.61 17.92,-29.57 24.92,-29.66"/>
</g>
<!-- Node9&#45;&gt;Node8 -->
<g id="edge19" class="edge">
<title>Node9&#45;&gt;Node8</title>
<path fill="none" stroke="midnightblue" d="M106.41,-168.32C117.11,-160.18 133.34,-147.84 146.16,-138.09"/>
<polygon fill="midnightblue" stroke="midnightblue" points="148.54,-140.67 154.39,-131.83 144.31,-135.1 148.54,-140.67"/>
</g>
<!-- Node10 -->
<g id="node10" class="node">
<title>Node10</title>
<g id="a_node10"><a xlink:title=" ">
<polygon fill="white" stroke="#bfbfbf" points="71.5,-112.5 71.5,-131.5 118.5,-131.5 118.5,-112.5 71.5,-112.5"/>
<text text-anchor="middle" x="95" y="-119.5" font-family="Helvetica,sans-Serif" font-size="10.00">cmath</text>
</a>
</g>
</g>
<!-- Node9&#45;&gt;Node10 -->
<g id="edge17" class="edge">
<title>Node9&#45;&gt;Node10</title>
<path fill="none" stroke="midnightblue" d="M95,-168.08C95,-161.01 95,-150.86 95,-141.99"/>
<polygon fill="midnightblue" stroke="midnightblue" points="98.5,-141.75 95,-131.75 91.5,-141.75 98.5,-141.75"/>
</g>
</g>
</svg>
