<?xml version="1.0" encoding="UTF-8" standalone="no"?>
<!DOCTYPE svg PUBLIC "-//W3C//DTD SVG 1.1//EN"
 "http://www.w3.org/Graphics/SVG/1.1/DTD/svg11.dtd">
<!-- Generated by graphviz version 2.43.0 (0)
 -->
<!-- Title: empresa.h Pages: 1 -->
<svg width="144pt" height="196pt"
 viewBox="0.00 0.00 144.00 196.00" xmlns="http://www.w3.org/2000/svg" xmlns:xlink="http://www.w3.org/1999/xlink">
<g id="graph0" class="graph" transform="scale(1 1) rotate(0) translate(4 192)">
<title>empresa.h</title>
<polygon fill="white" stroke="transparent" points="-4,4 -4,-192 140,-192 140,4 -4,4"/>
<!-- Node1 -->
<g id="node1" class="node">
<title>Node1</title>
<g id="a_node1"><a xlink:title=" ">
<polygon fill="#bfbfbf" stroke="black" points="14.5,-168.5 14.5,-187.5 82.5,-187.5 82.5,-168.5 14.5,-168.5"/>
<text text-anchor="middle" x="48.5" y="-175.5" font-family="Helvetica,sans-Serif" font-size="10.00">empresa.h</text>
</a>
</g>
</g>
<!-- Node2 -->
<g id="node2" class="node">
<title>Node2</title>
<g id="a_node2"><a xlink:href="codigo_8cpp.html" target="_top" xlink:title="Código base para un sistema de gestión de acciones y noticias financieras.">
<polygon fill="white" stroke="black" points="0,-0.5 0,-19.5 69,-19.5 69,-0.5 0,-0.5"/>
<text text-anchor="middle" x="34.5" y="-7.5" font-family="Helvetica,sans-Serif" font-size="10.00">codigo.cpp</text>
</a>
</g>
</g>
<!-- Node1&#45;&gt;Node2 -->
<g id="edge1" class="edge">
<title>Node1&#45;&gt;Node2</title>
<path fill="none" stroke="midnightblue" d="M30.39,-161.24C22.69,-153.33 14.56,-143.09 10.5,-132 -4.29,-91.57 18.94,-40.04 29.61,-19.76"/>
<polygon fill="midnightblue" stroke="midnightblue" points="28.14,-163.93 37.79,-168.3 32.97,-158.86 28.14,-163.93"/>
</g>
<!-- Node3 -->
<g id="node3" class="node">
<title>Node3</title>
<g id="a_node3"><a xlink:href="noticia_8h.html" target="_top" xlink:title=" ">
<polygon fill="white" stroke="black" points="19,-112.5 19,-131.5 78,-131.5 78,-112.5 19,-112.5"/>
<text text-anchor="middle" x="48.5" y="-119.5" font-family="Helvetica,sans-Serif" font-size="10.00">noticia.h</text>
</a>
</g>
</g>
<!-- Node1&#45;&gt;Node3 -->
<g id="edge2" class="edge">
<title>Node1&#45;&gt;Node3</title>
<path fill="none" stroke="midnightblue" d="M48.5,-157.8C48.5,-148.91 48.5,-138.78 48.5,-131.75"/>
<polygon fill="midnightblue" stroke="midnightblue" points="45,-158.08 48.5,-168.08 52,-158.08 45,-158.08"/>
</g>
<!-- Node4 -->
<g id="node4" class="node">
<title>Node4</title>
<g id="a_node4"><a xlink:href="portafolio_8h.html" target="_top" xlink:title=" ">
<polygon fill="white" stroke="black" points="63,-56.5 63,-75.5 136,-75.5 136,-56.5 63,-56.5"/>
<text text-anchor="middle" x="99.5" y="-63.5" font-family="Helvetica,sans-Serif" font-size="10.00">portafolio.h</text>
</a>
</g>
</g>
<!-- Node1&#45;&gt;Node4 -->
<g id="edge6" class="edge">
<title>Node1&#45;&gt;Node4</title>
<path fill="none" stroke="midnightblue" d="M65.87,-161.25C73.66,-153.24 82.26,-142.9 87.5,-132 96.45,-113.39 98.75,-88.81 99.32,-75.86"/>
<polygon fill="midnightblue" stroke="midnightblue" points="63.23,-158.94 58.5,-168.42 68.11,-163.95 63.23,-158.94"/>
</g>
<!-- Node3&#45;&gt;Node2 -->
<g id="edge3" class="edge">
<title>Node3&#45;&gt;Node2</title>
<path fill="none" stroke="midnightblue" d="M46.13,-102.35C43.06,-78.25 37.85,-37.31 35.59,-19.59"/>
<polygon fill="midnightblue" stroke="midnightblue" points="42.67,-102.89 47.4,-112.37 49.61,-102.01 42.67,-102.89"/>
</g>
<!-- Node3&#45;&gt;Node4 -->
<g id="edge4" class="edge">
<title>Node3&#45;&gt;Node4</title>
<path fill="none" stroke="midnightblue" d="M63.88,-104.72C72.87,-95.2 83.86,-83.56 91.24,-75.75"/>
<polygon fill="midnightblue" stroke="midnightblue" points="61.24,-102.41 56.92,-112.08 66.33,-107.22 61.24,-102.41"/>
</g>
<!-- Node4&#45;&gt;Node2 -->
<g id="edge5" class="edge">
<title>Node4&#45;&gt;Node2</title>
<path fill="none" stroke="midnightblue" d="M81.23,-49.82C69.58,-40.15 54.9,-27.95 45.13,-19.83"/>
<polygon fill="midnightblue" stroke="midnightblue" points="79.13,-52.63 89.06,-56.32 83.6,-47.24 79.13,-52.63"/>
</g>
</g>
</svg>
