<?xml version="1.0" encoding="UTF-8" standalone="no"?>
<!DOCTYPE svg PUBLIC "-//W3C//DTD SVG 1.1//EN"
 "http://www.w3.org/Graphics/SVG/1.1/DTD/svg11.dtd">
<!-- Generated by graphviz version 2.43.0 (0)
 -->
<!-- Title: noticia.h Pages: 1 -->
<svg width="325pt" height="140pt"
 viewBox="0.00 0.00 325.00 140.00" xmlns="http://www.w3.org/2000/svg" xmlns:xlink="http://www.w3.org/1999/xlink">
<g id="graph0" class="graph" transform="scale(1 1) rotate(0) translate(4 136)">
<title>noticia.h</title>
<polygon fill="white" stroke="transparent" points="-4,4 -4,-136 321,-136 321,4 -4,4"/>
<!-- Node1 -->
<g id="node1" class="node">
<title>Node1</title>
<g id="a_node1"><a xlink:title="Definición de la estructura Noticia y la clase ColaPrioridadNoticias para gestión de noticias financi...">
<polygon fill="#bfbfbf" stroke="black" points="151.5,-112.5 151.5,-131.5 210.5,-131.5 210.5,-112.5 151.5,-112.5"/>
<text text-anchor="middle" x="181" y="-119.5" font-family="Helvetica,sans-Serif" font-size="10.00">noticia.h</text>
</a>
</g>
</g>
<!-- Node2 -->
<g id="node2" class="node">
<title>Node2</title>
<g id="a_node2"><a xlink:title=" ">
<polygon fill="white" stroke="#bfbfbf" points="0,-0.5 0,-19.5 60,-19.5 60,-0.5 0,-0.5"/>
<text text-anchor="middle" x="30" y="-7.5" font-family="Helvetica,sans-Serif" font-size="10.00">iostream</text>
</a>
</g>
</g>
<!-- Node1&#45;&gt;Node2 -->
<g id="edge1" class="edge">
<title>Node1&#45;&gt;Node2</title>
<path fill="none" stroke="midnightblue" d="M161.15,-112.5C143.29,-104.4 116.74,-91.2 96,-76 76.45,-61.67 57.04,-41.69 44.39,-27.67"/>
<polygon fill="midnightblue" stroke="midnightblue" points="46.69,-24.99 37.44,-19.82 41.44,-29.63 46.69,-24.99"/>
</g>
<!-- Node3 -->
<g id="node3" class="node">
<title>Node3</title>
<g id="a_node3"><a xlink:title=" ">
<polygon fill="white" stroke="#bfbfbf" points="78,-0.5 78,-19.5 122,-19.5 122,-0.5 78,-0.5"/>
<text text-anchor="middle" x="100" y="-7.5" font-family="Helvetica,sans-Serif" font-size="10.00">string</text>
</a>
</g>
</g>
<!-- Node1&#45;&gt;Node3 -->
<g id="edge2" class="edge">
<title>Node1&#45;&gt;Node3</title>
<path fill="none" stroke="midnightblue" d="M155.78,-112.45C139.06,-105.39 118.21,-93.64 107,-76 98.35,-62.38 97.15,-43.84 97.79,-30.04"/>
<polygon fill="midnightblue" stroke="midnightblue" points="101.3,-30.04 98.64,-19.78 94.33,-29.46 101.3,-30.04"/>
</g>
<!-- Node4 -->
<g id="node4" class="node">
<title>Node4</title>
<g id="a_node4"><a xlink:title=" ">
<polygon fill="white" stroke="#bfbfbf" points="140.5,-0.5 140.5,-19.5 187.5,-19.5 187.5,-0.5 140.5,-0.5"/>
<text text-anchor="middle" x="164" y="-7.5" font-family="Helvetica,sans-Serif" font-size="10.00">vector</text>
</a>
</g>
</g>
<!-- Node1&#45;&gt;Node4 -->
<g id="edge3" class="edge">
<title>Node1&#45;&gt;Node4</title>
<path fill="none" stroke="midnightblue" d="M185.09,-112.45C190.53,-99.9 198.83,-75.82 193,-56 189.99,-45.76 183.85,-35.66 177.99,-27.63"/>
<polygon fill="midnightblue" stroke="midnightblue" points="180.59,-25.27 171.67,-19.54 175.07,-29.58 180.59,-25.27"/>
</g>
<!-- Node5 -->
<g id="node5" class="node">
<title>Node5</title>
<g id="a_node5"><a xlink:title=" ">
<polygon fill="white" stroke="#bfbfbf" points="205.5,-0.5 205.5,-19.5 254.5,-19.5 254.5,-0.5 205.5,-0.5"/>
<text text-anchor="middle" x="230" y="-7.5" font-family="Helvetica,sans-Serif" font-size="10.00">cstdlib</text>
</a>
</g>
</g>
<!-- Node1&#45;&gt;Node5 -->
<g id="edge4" class="edge">
<title>Node1&#45;&gt;Node5</title>
<path fill="none" stroke="midnightblue" d="M186.96,-112.34C192.86,-103.5 201.88,-89.23 208,-76 215.04,-60.8 220.98,-42.68 224.91,-29.44"/>
<polygon fill="midnightblue" stroke="midnightblue" points="228.33,-30.22 227.72,-19.64 221.6,-28.29 228.33,-30.22"/>
</g>
<!-- Node6 -->
<g id="node6" class="node">
<title>Node6</title>
<g id="a_node6"><a xlink:title=" ">
<polygon fill="white" stroke="#bfbfbf" points="273,-0.5 273,-19.5 317,-19.5 317,-0.5 273,-0.5"/>
<text text-anchor="middle" x="295" y="-7.5" font-family="Helvetica,sans-Serif" font-size="10.00">ctime</text>
</a>
</g>
</g>
<!-- Node1&#45;&gt;Node6 -->
<g id="edge5" class="edge">
<title>Node1&#45;&gt;Node6</title>
<path fill="none" stroke="midnightblue" d="M189.95,-112.37C209.09,-93.89 254.28,-50.29 278.68,-26.74"/>
<polygon fill="midnightblue" stroke="midnightblue" points="281.33,-29.05 286.1,-19.59 276.47,-24.02 281.33,-29.05"/>
</g>
<!-- Node7 -->
<g id="node7" class="node">
<title>Node7</title>
<g id="a_node7"><a xlink:href="empresa_8h.html" target="_top" xlink:title="Definición de estructuras y clases para la gestión de empresas y sus precios históricos.">
<polygon fill="white" stroke="black" points="116,-56.5 116,-75.5 184,-75.5 184,-56.5 116,-56.5"/>
<text text-anchor="middle" x="150" y="-63.5" font-family="Helvetica,sans-Serif" font-size="10.00">empresa.h</text>
</a>
</g>
</g>
<!-- Node1&#45;&gt;Node7 -->
<g id="edge6" class="edge">
<title>Node1&#45;&gt;Node7</title>
<path fill="none" stroke="midnightblue" d="M175.88,-112.08C171.59,-104.61 165.34,-93.72 160.06,-84.52"/>
<polygon fill="midnightblue" stroke="midnightblue" points="163.04,-82.68 155.02,-75.75 156.97,-86.17 163.04,-82.68"/>
</g>
<!-- Node7&#45;&gt;Node2 -->
<g id="edge7" class="edge">
<title>Node7&#45;&gt;Node2</title>
<path fill="none" stroke="midnightblue" d="M130.99,-56.44C111.41,-47.64 80.69,-33.81 58.27,-23.72"/>
<polygon fill="midnightblue" stroke="midnightblue" points="59.48,-20.43 48.93,-19.52 56.61,-26.81 59.48,-20.43"/>
</g>
<!-- Node7&#45;&gt;Node3 -->
<g id="edge8" class="edge">
<title>Node7&#45;&gt;Node3</title>
<path fill="none" stroke="midnightblue" d="M141.74,-56.08C134.54,-48.3 123.89,-36.8 115.15,-27.37"/>
<polygon fill="midnightblue" stroke="midnightblue" points="117.47,-24.71 108.1,-19.75 112.33,-29.47 117.47,-24.71"/>
</g>
<!-- Node7&#45;&gt;Node4 -->
<g id="edge9" class="edge">
<title>Node7&#45;&gt;Node4</title>
<path fill="none" stroke="midnightblue" d="M152.31,-56.08C154.17,-48.93 156.84,-38.64 159.15,-29.69"/>
<polygon fill="midnightblue" stroke="midnightblue" points="162.61,-30.31 161.73,-19.75 155.83,-28.55 162.61,-30.31"/>
</g>
<!-- Node7&#45;&gt;Node5 -->
<g id="edge10" class="edge">
<title>Node7&#45;&gt;Node5</title>
<path fill="none" stroke="midnightblue" d="M162.85,-56.32C175.22,-47.98 194.13,-35.21 208.74,-25.35"/>
<polygon fill="midnightblue" stroke="midnightblue" points="210.85,-28.15 217.18,-19.65 206.93,-22.35 210.85,-28.15"/>
</g>
<!-- Node7&#45;&gt;Node6 -->
<g id="edge11" class="edge">
<title>Node7&#45;&gt;Node6</title>
<path fill="none" stroke="midnightblue" d="M172.98,-56.44C197.3,-47.39 235.87,-33.02 263.13,-22.87"/>
<polygon fill="midnightblue" stroke="midnightblue" points="264.46,-26.11 272.61,-19.34 262.02,-19.55 264.46,-26.11"/>
</g>
</g>
</svg>
