<?xml version="1.0" encoding="UTF-8" standalone="no"?>
<!DOCTYPE svg PUBLIC "-//W3C//DTD SVG 1.1//EN"
 "http://www.w3.org/Graphics/SVG/1.1/DTD/svg11.dtd">
<!-- Generated by graphviz version 2.43.0 (0)
 -->
<!-- Title: noticia.h Pages: 1 -->
<svg width="112pt" height="140pt"
 viewBox="0.00 0.00 112.00 140.00" xmlns="http://www.w3.org/2000/svg" xmlns:xlink="http://www.w3.org/1999/xlink">
<g id="graph0" class="graph" transform="scale(1 1) rotate(0) translate(4 136)">
<title>noticia.h</title>
<polygon fill="white" stroke="transparent" points="-4,4 -4,-136 108,-136 108,4 -4,4"/>
<!-- Node1 -->
<g id="node1" class="node">
<title>Node1</title>
<g id="a_node1"><a xlink:title="Definición de la estructura Noticia y la clase ColaPrioridadNoticias para gestión de noticias financi...">
<polygon fill="#bfbfbf" stroke="black" points="5,-112.5 5,-131.5 64,-131.5 64,-112.5 5,-112.5"/>
<text text-anchor="middle" x="34.5" y="-119.5" font-family="Helvetica,sans-Serif" font-size="10.00">noticia.h</text>
</a>
</g>
</g>
<!-- Node2 -->
<g id="node2" class="node">
<title>Node2</title>
<g id="a_node2"><a xlink:href="codigo_8cpp.html" target="_top" xlink:title="Código base para un sistema de gestión de acciones y noticias financieras.">
<polygon fill="white" stroke="black" points="0,-0.5 0,-19.5 69,-19.5 69,-0.5 0,-0.5"/>
<text text-anchor="middle" x="34.5" y="-7.5" font-family="Helvetica,sans-Serif" font-size="10.00">codigo.cpp</text>
</a>
</g>
</g>
<!-- Node1&#45;&gt;Node2 -->
<g id="edge1" class="edge">
<title>Node1&#45;&gt;Node2</title>
<path fill="none" stroke="midnightblue" d="M27.95,-102.7C25.39,-94.63 22.77,-84.96 21.5,-76 18.63,-55.72 26.04,-32.22 30.82,-19.78"/>
<polygon fill="midnightblue" stroke="midnightblue" points="24.64,-103.84 31.16,-112.2 31.27,-101.6 24.64,-103.84"/>
</g>
<!-- Node3 -->
<g id="node3" class="node">
<title>Node3</title>
<g id="a_node3"><a xlink:href="portafolio_8h.html" target="_top" xlink:title="Definición de la clase Portafolio y del vector dinámico personalizado MiVector.">
<polygon fill="white" stroke="black" points="31,-56.5 31,-75.5 104,-75.5 104,-56.5 31,-56.5"/>
<text text-anchor="middle" x="67.5" y="-63.5" font-family="Helvetica,sans-Serif" font-size="10.00">portafolio.h</text>
</a>
</g>
</g>
<!-- Node1&#45;&gt;Node3 -->
<g id="edge2" class="edge">
<title>Node1&#45;&gt;Node3</title>
<path fill="none" stroke="midnightblue" d="M45.33,-103.27C50.97,-94.05 57.62,-83.17 62.15,-75.75"/>
<polygon fill="midnightblue" stroke="midnightblue" points="42.18,-101.73 39.95,-112.08 48.15,-105.38 42.18,-101.73"/>
</g>
<!-- Node3&#45;&gt;Node2 -->
<g id="edge3" class="edge">
<title>Node3&#45;&gt;Node2</title>
<path fill="none" stroke="midnightblue" d="M56.67,-47.27C51.03,-38.05 44.38,-27.17 39.85,-19.75"/>
<polygon fill="midnightblue" stroke="midnightblue" points="53.85,-49.38 62.05,-56.08 59.82,-45.73 53.85,-49.38"/>
</g>
</g>
</svg>
