<?xml version="1.0" encoding="UTF-8" standalone="no"?>
<!DOCTYPE svg PUBLIC "-//W3C//DTD SVG 1.1//EN"
 "http://www.w3.org/Graphics/SVG/1.1/DTD/svg11.dtd">
<!-- Generated by graphviz version 2.43.0 (0)
 -->
<!-- Title: portafolio.h Pages: 1 -->
<svg width="329pt" height="196pt"
 viewBox="0.00 0.00 329.00 196.00" xmlns="http://www.w3.org/2000/svg" xmlns:xlink="http://www.w3.org/1999/xlink">
<g id="graph0" class="graph" transform="scale(1 1) rotate(0) translate(4 192)">
<title>portafolio.h</title>
<polygon fill="white" stroke="transparent" points="-4,4 -4,-192 325,-192 325,4 -4,4"/>
<!-- Node1 -->
<g id="node1" class="node">
<title>Node1</title>
<g id="a_node1"><a xlink:title="Definición de la clase Portafolio y del vector dinámico personalizado MiVector.">
<polygon fill="#bfbfbf" stroke="black" points="67.5,-168.5 67.5,-187.5 140.5,-187.5 140.5,-168.5 67.5,-168.5"/>
<text text-anchor="middle" x="104" y="-175.5" font-family="Helvetica,sans-Serif" font-size="10.00">portafolio.h</text>
</a>
</g>
</g>
<!-- Node2 -->
<g id="node2" class="node">
<title>Node2</title>
<g id="a_node2"><a xlink:title=" ">
<polygon fill="white" stroke="#bfbfbf" points="0,-0.5 0,-19.5 60,-19.5 60,-0.5 0,-0.5"/>
<text text-anchor="middle" x="30" y="-7.5" font-family="Helvetica,sans-Serif" font-size="10.00">iostream</text>
</a>
</g>
</g>
<!-- Node1&#45;&gt;Node2 -->
<g id="edge1" class="edge">
<title>Node1&#45;&gt;Node2</title>
<path fill="none" stroke="midnightblue" d="M100.02,-168.08C88.32,-141.83 53.87,-64.55 38.08,-29.12"/>
<polygon fill="midnightblue" stroke="midnightblue" points="41.09,-27.28 33.82,-19.57 34.69,-30.13 41.09,-27.28"/>
</g>
<!-- Node3 -->
<g id="node3" class="node">
<title>Node3</title>
<g id="a_node3"><a xlink:title=" ">
<polygon fill="white" stroke="#bfbfbf" points="78,-0.5 78,-19.5 122,-19.5 122,-0.5 78,-0.5"/>
<text text-anchor="middle" x="100" y="-7.5" font-family="Helvetica,sans-Serif" font-size="10.00">string</text>
</a>
</g>
</g>
<!-- Node1&#45;&gt;Node3 -->
<g id="edge2" class="edge">
<title>Node1&#45;&gt;Node3</title>
<path fill="none" stroke="midnightblue" d="M103.78,-168.08C103.16,-141.95 101.31,-65.21 100.45,-29.58"/>
<polygon fill="midnightblue" stroke="midnightblue" points="103.95,-29.48 100.21,-19.57 96.95,-29.65 103.95,-29.48"/>
</g>
<!-- Node4 -->
<g id="node4" class="node">
<title>Node4</title>
<g id="a_node4"><a xlink:title=" ">
<polygon fill="white" stroke="#bfbfbf" points="209.5,-112.5 209.5,-131.5 256.5,-131.5 256.5,-112.5 209.5,-112.5"/>
<text text-anchor="middle" x="233" y="-119.5" font-family="Helvetica,sans-Serif" font-size="10.00">cmath</text>
</a>
</g>
</g>
<!-- Node1&#45;&gt;Node4 -->
<g id="edge3" class="edge">
<title>Node1&#45;&gt;Node4</title>
<path fill="none" stroke="midnightblue" d="M124.44,-168.44C145.67,-159.56 179.1,-145.56 203.25,-135.45"/>
<polygon fill="midnightblue" stroke="midnightblue" points="204.78,-138.61 212.66,-131.52 202.08,-132.15 204.78,-138.61"/>
</g>
<!-- Node5 -->
<g id="node5" class="node">
<title>Node5</title>
<g id="a_node5"><a xlink:href="empresa_8h.html" target="_top" xlink:title="Definición de estructuras y clases para la gestión de empresas y sus precios históricos.">
<polygon fill="white" stroke="black" points="128,-56.5 128,-75.5 196,-75.5 196,-56.5 128,-56.5"/>
<text text-anchor="middle" x="162" y="-63.5" font-family="Helvetica,sans-Serif" font-size="10.00">empresa.h</text>
</a>
</g>
</g>
<!-- Node1&#45;&gt;Node5 -->
<g id="edge4" class="edge">
<title>Node1&#45;&gt;Node5</title>
<path fill="none" stroke="midnightblue" d="M105.35,-168.13C107.59,-155.17 112.87,-130.58 123,-112 128.79,-101.38 137.43,-91.07 145.11,-83"/>
<polygon fill="midnightblue" stroke="midnightblue" points="147.76,-85.31 152.33,-75.75 142.79,-80.37 147.76,-85.31"/>
</g>
<!-- Node9 -->
<g id="node9" class="node">
<title>Node9</title>
<g id="a_node9"><a xlink:href="noticia_8h.html" target="_top" xlink:title="Definición de la estructura Noticia y la clase ColaPrioridadNoticias para gestión de noticias financi...">
<polygon fill="white" stroke="black" points="132.5,-112.5 132.5,-131.5 191.5,-131.5 191.5,-112.5 132.5,-112.5"/>
<text text-anchor="middle" x="162" y="-119.5" font-family="Helvetica,sans-Serif" font-size="10.00">noticia.h</text>
</a>
</g>
</g>
<!-- Node1&#45;&gt;Node9 -->
<g id="edge10" class="edge">
<title>Node1&#45;&gt;Node9</title>
<path fill="none" stroke="midnightblue" d="M113.32,-168.32C121.89,-160.34 134.81,-148.31 145.19,-138.65"/>
<polygon fill="midnightblue" stroke="midnightblue" points="147.58,-141.21 152.51,-131.83 142.81,-136.09 147.58,-141.21"/>
</g>
<!-- Node5&#45;&gt;Node2 -->
<g id="edge5" class="edge">
<title>Node5&#45;&gt;Node2</title>
<path fill="none" stroke="midnightblue" d="M141.08,-56.44C119.26,-47.52 84.85,-33.44 60.11,-23.32"/>
<polygon fill="midnightblue" stroke="midnightblue" points="61.4,-20.06 50.82,-19.52 58.75,-26.54 61.4,-20.06"/>
</g>
<!-- Node5&#45;&gt;Node3 -->
<g id="edge6" class="edge">
<title>Node5&#45;&gt;Node3</title>
<path fill="none" stroke="midnightblue" d="M152.04,-56.32C142.87,-48.34 129.06,-36.31 117.97,-26.65"/>
<polygon fill="midnightblue" stroke="midnightblue" points="119.98,-23.76 110.14,-19.83 115.38,-29.04 119.98,-23.76"/>
</g>
<!-- Node6 -->
<g id="node6" class="node">
<title>Node6</title>
<g id="a_node6"><a xlink:title=" ">
<polygon fill="white" stroke="#bfbfbf" points="142.5,-0.5 142.5,-19.5 189.5,-19.5 189.5,-0.5 142.5,-0.5"/>
<text text-anchor="middle" x="166" y="-7.5" font-family="Helvetica,sans-Serif" font-size="10.00">vector</text>
</a>
</g>
</g>
<!-- Node5&#45;&gt;Node6 -->
<g id="edge7" class="edge">
<title>Node5&#45;&gt;Node6</title>
<path fill="none" stroke="midnightblue" d="M162.66,-56.08C163.18,-49.01 163.94,-38.86 164.59,-29.99"/>
<polygon fill="midnightblue" stroke="midnightblue" points="168.1,-29.98 165.35,-19.75 161.12,-29.47 168.1,-29.98"/>
</g>
<!-- Node7 -->
<g id="node7" class="node">
<title>Node7</title>
<g id="a_node7"><a xlink:title=" ">
<polygon fill="white" stroke="#bfbfbf" points="208.5,-0.5 208.5,-19.5 257.5,-19.5 257.5,-0.5 208.5,-0.5"/>
<text text-anchor="middle" x="233" y="-7.5" font-family="Helvetica,sans-Serif" font-size="10.00">cstdlib</text>
</a>
</g>
</g>
<!-- Node5&#45;&gt;Node7 -->
<g id="edge8" class="edge">
<title>Node5&#45;&gt;Node7</title>
<path fill="none" stroke="midnightblue" d="M173.41,-56.32C184.11,-48.18 200.34,-35.84 213.16,-26.09"/>
<polygon fill="midnightblue" stroke="midnightblue" points="215.54,-28.67 221.39,-19.83 211.31,-23.1 215.54,-28.67"/>
</g>
<!-- Node8 -->
<g id="node8" class="node">
<title>Node8</title>
<g id="a_node8"><a xlink:title=" ">
<polygon fill="white" stroke="#bfbfbf" points="277,-0.5 277,-19.5 321,-19.5 321,-0.5 277,-0.5"/>
<text text-anchor="middle" x="299" y="-7.5" font-family="Helvetica,sans-Serif" font-size="10.00">ctime</text>
</a>
</g>
</g>
<!-- Node5&#45;&gt;Node8 -->
<g id="edge9" class="edge">
<title>Node5&#45;&gt;Node8</title>
<path fill="none" stroke="midnightblue" d="M183.71,-56.44C206.35,-47.52 242.07,-33.44 267.75,-23.32"/>
<polygon fill="midnightblue" stroke="midnightblue" points="269.37,-26.44 277.39,-19.52 266.81,-19.93 269.37,-26.44"/>
</g>
<!-- Node9&#45;&gt;Node2 -->
<g id="edge11" class="edge">
<title>Node9&#45;&gt;Node2</title>
<path fill="none" stroke="midnightblue" d="M151.42,-112.42C140.31,-103.4 122.37,-88.77 107,-76 86.79,-59.21 63.79,-39.75 48.23,-26.53"/>
<polygon fill="midnightblue" stroke="midnightblue" points="50.3,-23.69 40.42,-19.88 45.77,-29.03 50.3,-23.69"/>
</g>
<!-- Node9&#45;&gt;Node3 -->
<g id="edge12" class="edge">
<title>Node9&#45;&gt;Node3</title>
<path fill="none" stroke="midnightblue" d="M151.3,-112.45C141.55,-104.12 127.43,-90.6 119,-76 110.64,-61.52 105.71,-43.07 102.97,-29.53"/>
<polygon fill="midnightblue" stroke="midnightblue" points="106.38,-28.73 101.16,-19.51 99.49,-29.97 106.38,-28.73"/>
</g>
<!-- Node9&#45;&gt;Node5 -->
<g id="edge16" class="edge">
<title>Node9&#45;&gt;Node5</title>
<path fill="none" stroke="midnightblue" d="M162,-112.08C162,-105.01 162,-94.86 162,-85.99"/>
<polygon fill="midnightblue" stroke="midnightblue" points="165.5,-85.75 162,-75.75 158.5,-85.75 165.5,-85.75"/>
</g>
<!-- Node9&#45;&gt;Node6 -->
<g id="edge13" class="edge">
<title>Node9&#45;&gt;Node6</title>
<path fill="none" stroke="midnightblue" d="M174.5,-112.3C184.87,-104.25 198.89,-91.24 205,-76 212.21,-58.03 198.25,-39.25 185.07,-26.52"/>
<polygon fill="midnightblue" stroke="midnightblue" points="187.35,-23.86 177.57,-19.78 182.67,-29.06 187.35,-23.86"/>
</g>
<!-- Node9&#45;&gt;Node7 -->
<g id="edge14" class="edge">
<title>Node9&#45;&gt;Node7</title>
<path fill="none" stroke="midnightblue" d="M178.69,-112.45C192,-104.74 210.01,-92.15 220,-76 228.61,-62.09 231.67,-43.58 232.68,-29.87"/>
<polygon fill="midnightblue" stroke="midnightblue" points="236.19,-29.83 233.13,-19.69 229.19,-29.52 236.19,-29.83"/>
</g>
<!-- Node9&#45;&gt;Node8 -->
<g id="edge15" class="edge">
<title>Node9&#45;&gt;Node8</title>
<path fill="none" stroke="midnightblue" d="M180.08,-112.38C196.33,-104.19 220.42,-90.94 239,-76 257.04,-61.5 274.64,-41.54 286.06,-27.58"/>
<polygon fill="midnightblue" stroke="midnightblue" points="288.8,-29.76 292.32,-19.76 283.33,-25.38 288.8,-29.76"/>
</g>
</g>
</svg>
